<?xml version="1.0" standalone="no"?>
<!DOCTYPE svg PUBLIC "-//W3C//DTD SVG 1.1//EN" "http://www.w3.org/Graphics/SVG/1.1/DTD/svg11.dtd" >
<svg xmlns="http://www.w3.org/2000/svg" xmlns:xlink="http://www.w3.org/1999/xlink" version="1.1">
<metadata>
Created by FontForge 20170731 at Mon Aug 16 22:26:01 2021
 By Aleksey,,,
Copyright (c) 2018 by Careem. All rights reserved.
</metadata>
<defs>
<font id="Careem-Bold" horiz-adv-x="0" >
  <font-face 
    font-family="Careem Bold"
    font-weight="700"
    font-stretch="normal"
    units-per-em="2048"
    panose-1="0 0 8 0 0 0 0 0 0 0"
    ascent="1659"
    descent="-389"
    x-height="983"
    cap-height="1454"
    bbox="-180 -721 2490 1972"
    underline-thickness="102"
    underline-position="-307"
    unicode-range="U+0020-FEFC"
  />
<missing-glyph horiz-adv-x="1228" 
 />
    <glyph glyph-name="uniFEF5" unicode="&#xfedf;&#xfe82;" horiz-adv-x="1177" arabic-form="isolated" 
d="M537 1321q-49 0 -122.5 32.5t-84.5 32.5q-33 0 -33 -51h-127q-5 78 39.5 129.5t116.5 51.5q15 0 32 -4.5t26.5 -8t34.5 -14.5t32 -14q52 -25 90 -25q44 0 67 9t90 48v-139q-38 -26 -73.5 -36.5t-87.5 -10.5zM102 0v279h555q80 0 102 24t25 119v1053h279v-1055
q-2 -124 -21.5 -202.5t-67.5 -128.5t-123 -69.5t-194 -19.5h-555zM307 360v850h279v-850h-279z" />
    <glyph glyph-name="uniFEF6" unicode="&#xfee0;&#xfe82;" horiz-adv-x="1218" arabic-form="final" 
d="M537 1321q-49 0 -122.5 32.5t-84.5 32.5q-33 0 -33 -51h-127q-5 78 39.5 129.5t116.5 51.5q15 0 32 -4.5t26.5 -8t34.5 -14.5t32 -14q52 -25 90 -25q44 0 67 9t90 48v-139q-38 -26 -73.5 -36.5t-87.5 -10.5zM102 0v279h555q80 0 102 24t25 119v1053h279v-1053
q3 -95 25 -119t102 -24h39v-279h-39q-181 0 -266 49q-88 -49 -267 -49h-555zM307 360v850h279v-850h-279z" />
    <glyph glyph-name="uniFEF7" unicode="&#xfedf;&#xfe84;" horiz-adv-x="1177" arabic-form="isolated" 
d="M285 1305l-70 112q65 29 78 33q-4 24 -4 39q0 94 53 148.5t145 54.5q43 0 119 -27l-43 -131q-48 25 -76 25q-31 0 -48 -19t-17 -51q0 -7 4 -27h190v-135h-254q-9 0 -39 -10t-38 -12zM102 0v279h555q80 0 102 24t25 119v1053h279v-1055q-2 -124 -21.5 -202.5t-67.5 -128.5
t-123 -69.5t-194 -19.5h-555zM307 360v850h279v-850h-279z" />
    <glyph glyph-name="uniFEF8" unicode="&#xfee0;&#xfe84;" horiz-adv-x="1218" arabic-form="final" 
d="M285 1305l-70 112q65 29 78 33q-4 24 -4 39q0 94 53 148.5t145 54.5q43 0 119 -27l-43 -131q-48 25 -76 25q-31 0 -48 -19t-17 -51q0 -7 4 -27h190v-135h-254q-9 0 -39 -10t-38 -12zM102 0v279h555q80 0 102 24t25 119v1053h279v-1053q3 -95 25 -119t102 -24h39v-279h-39
q-181 0 -266 49q-88 -49 -267 -49h-555zM307 360v850h279v-850h-279z" />
    <glyph glyph-name="uniFEF9" unicode="&#xfedf;&#xfe88;" horiz-adv-x="1177" arabic-form="isolated" 
d="M102 0v279h555q80 0 102 24t25 119v1053h279v-1055q-2 -124 -21.5 -202.5t-67.5 -128.5t-123 -69.5t-194 -19.5h-555zM307 360v992h279v-992h-279zM283 -518l-70 112q65 29 78 33q-4 24 -4 39q0 94 53 148.5t145 54.5q43 0 119 -27l-43 -131q-48 25 -76 25q-31 0 -48 -19
t-17 -51q0 -6 4 -26h190v-136h-254q-9 0 -39 -10t-38 -12z" />
    <glyph glyph-name="uniFEFA" unicode="&#xfee0;&#xfe88;" horiz-adv-x="1218" arabic-form="final" 
d="M102 0v279h555q80 0 102 24t25 119v1053h279v-1053q3 -95 25 -119t102 -24h39v-279h-39q-181 0 -266 49q-88 -49 -267 -49h-555zM307 360v992h279v-992h-279zM283 -518l-70 112q65 29 78 33q-4 24 -4 39q0 94 53 148.5t145 54.5q43 0 119 -27l-43 -131q-48 25 -76 25
q-31 0 -48 -19t-17 -51q0 -6 4 -26h190v-136h-254q-9 0 -39 -10t-38 -12z" />
    <glyph glyph-name="uniFEFB" unicode="&#xfedf;&#xfe8e;" horiz-adv-x="1177" arabic-form="isolated" 
d="M102 0v279h555q80 0 102 24t25 119v1053h279v-1055q-2 -124 -21.5 -202.5t-67.5 -128.5t-123 -69.5t-194 -19.5h-555zM307 360v992h279v-992h-279z" />
    <glyph glyph-name="uniFEFC" unicode="&#xfee0;&#xfe8e;" horiz-adv-x="1218" arabic-form="final" 
d="M102 0v279h555q80 0 102 24t25 119v1053h279v-1053q3 -95 25 -119t102 -24h39v-279h-39q-181 0 -266 49q-88 -49 -267 -49h-555zM307 360v992h279v-992h-279z" />
    <glyph glyph-name="uni066E.init" unicode="&#x66e;" horiz-adv-x="716" 
d="M0 0v279h43q148 0 199 54.5t55 219.5v430h276v-430q-2 -115 -12 -195.5t-35 -144.5t-62.5 -103t-98 -64.5t-137.5 -35.5t-185 -10h-43z" />
    <glyph glyph-name="uni066E.medi" unicode="&#x66e;" horiz-adv-x="806" 
d="M0 0v279h266v704h277v-704h274v-279h-817z" />
    <glyph glyph-name="uni066E.fina" unicode="&#x66e;" horiz-adv-x="1824" 
d="M666 0q-233 0 -384 158.5t-151 404.5q0 125 42.5 234.5t121.5 189.5l178 -207q-63 -101 -63 -217q0 -130 70 -207t186 -77h432q147 0 197.5 54.5t54.5 219.5v430h278v-430q-3 -168 -26 -274h233v-279h-319l-35 78q-109 -78 -383 -78h-432z" />
    <glyph glyph-name="uni06C2.fina" unicode="&#x6c2;" horiz-adv-x="1288" 
d="M424 961l-70 112q65 29 78 33q-4 24 -4 39q0 94 53.5 148.5t145.5 54.5q42 0 118 -27l-43 -131q-46 24 -75 24q-31 0 -48.5 -18.5t-17.5 -50.5q0 -7 4 -27h191v-135h-254q-9 0 -39.5 -10.5t-38.5 -11.5zM72 -31v113q0 407 157 590q163 190 516 190q64 0 91 -2l32 74h199
l-2 -512q0 -27 -0.5 -39t1 -30.5t1.5 -25t5 -17.5t7 -13.5t12 -8t16 -6t22.5 -2t27 -1.5h35.5h106v-279h-106q-119 0 -195 20t-124.5 70t-67.5 129t-19 203v162h-41q-224 0 -301 -92q-94 -113 -94 -410v-113h-278z" />
    <glyph glyph-name="uni06C3.fina" unicode="&#x6c3;" horiz-adv-x="1288" 
d="M403 983q-57 0 -96 40t-39 99q0 56 39 95.5t96 39.5q56 0 96 -40t40 -95q0 -58 -39.5 -98.5t-96.5 -40.5zM727 983q-57 0 -96 40t-39 99q0 56 39 95.5t96 39.5q56 0 95.5 -40t39.5 -95q0 -59 -39 -99t-96 -40zM72 -31v113q0 407 157 590q163 190 516 190q64 0 91 -2
l32 74h199l-2 -512q0 -27 -0.5 -39t1 -30.5t1.5 -25t5 -17.5t7 -13.5t12 -8t16 -6t22.5 -2t27 -1.5h35.5h106v-279h-106q-119 0 -195 20t-124.5 70t-67.5 129t-19 203v162h-41q-224 0 -301 -92q-94 -113 -94 -410v-113h-278z" />
    <glyph glyph-name="uniFB57" unicode="&#x67e;" horiz-adv-x="1824" arabic-form="final" 
d="M666 0q-233 0 -384 158.5t-151 404.5q0 125 42.5 234.5t121.5 189.5l178 -207q-63 -101 -63 -217q0 -130 70 -207t186 -77h432q147 0 197.5 54.5t54.5 219.5v430h278v-430q-3 -168 -26 -274h233v-279h-319l-35 78q-109 -78 -383 -78h-432zM780 -410q-51 0 -86 35.5
t-35 85.5q0 53 35 89t86 36t86 -36t35 -89q0 -48 -35.5 -84.5t-85.5 -36.5zM1104 -410q-51 0 -86 35.5t-35 85.5q0 53 35 89t86 36t86 -36t35 -89q0 -48 -35.5 -84.5t-85.5 -36.5zM942 -676q-51 0 -86 35.5t-35 85.5q0 53 35 89t86 36t86 -36t35 -89q0 -48 -35.5 -84.5
t-85.5 -36.5z" />
    <glyph glyph-name="uniFB58" unicode="&#x67e;" horiz-adv-x="716" arabic-form="initial" 
d="M0 0v279h43q148 0 199 54.5t55 219.5v430h276v-430q-2 -115 -12 -195.5t-35 -144.5t-62.5 -103t-98 -64.5t-137.5 -35.5t-185 -10h-43zM178 -410q-51 0 -86 35.5t-35 85.5q0 53 35 89t86 36t86 -36t35 -89q0 -48 -35.5 -84.5t-85.5 -36.5zM502 -410q-51 0 -86 35.5
t-35 85.5q0 53 35 89t86 36t86 -36t35 -89q0 -48 -35.5 -84.5t-85.5 -36.5zM340 -676q-51 0 -86 35.5t-35 85.5q0 53 35 89t86 36t86 -36t35 -89q0 -48 -35.5 -84.5t-85.5 -36.5z" />
    <glyph glyph-name="uniFB59" unicode="&#x67e;" horiz-adv-x="806" arabic-form="medial" 
d="M0 0v279h266v704h277v-704h274v-279h-817zM242 -410q-51 0 -86 35.5t-35 85.5q0 53 35 89t86 36t85.5 -36t34.5 -89q0 -48 -35 -84.5t-85 -36.5zM565 -410q-51 0 -86 35.5t-35 85.5q0 53 35 89t86 36t86 -36t35 -89q0 -48 -35.5 -84.5t-85.5 -36.5zM403 -676
q-51 0 -85.5 35.5t-34.5 85.5q0 53 34.5 89t85.5 36t86 -36t35 -89q0 -48 -35.5 -84.5t-85.5 -36.5z" />
    <glyph glyph-name="uniFB67" unicode="&#x679;" horiz-adv-x="1824" arabic-form="final" 
d="M680 1120v125h35v336h125v-133q62 41 133 41q85 0 129.5 -47.5t44.5 -138.5q0 -51 -14 -87t-32.5 -54.5t-51 -28t-55.5 -11.5t-60 -2h-254zM840 1245h94q63 0 73.5 7.5t10.5 50.5q0 38 -8.5 49.5t-36.5 11.5q-29 0 -58.5 -16.5t-74.5 -57.5v-45zM666 0q-233 0 -384 158.5
t-151 404.5q0 125 42.5 234.5t121.5 189.5l178 -207q-63 -101 -63 -217q0 -130 70 -207t186 -77h432q147 0 197.5 54.5t54.5 219.5v430h278v-430q-3 -168 -26 -274h233v-279h-319l-35 78q-109 -78 -383 -78h-432z" />
    <glyph glyph-name="uniFB68" unicode="&#x679;" horiz-adv-x="716" arabic-form="initial" 
d="M188 1120v125h35v336h125v-133q62 41 133 41q85 0 129.5 -47.5t44.5 -138.5q0 -51 -14 -87t-32.5 -54.5t-51 -28t-55.5 -11.5t-60 -2h-254zM348 1245h94q63 0 73.5 7.5t10.5 50.5q0 38 -8.5 49.5t-36.5 11.5q-29 0 -58.5 -16.5t-74.5 -57.5v-45zM0 0v279h43
q148 0 199 54.5t55 219.5v430h276v-430q-2 -115 -12 -195.5t-35 -144.5t-62.5 -103t-98 -64.5t-137.5 -35.5t-185 -10h-43z" />
    <glyph glyph-name="uniFB69" unicode="&#x679;" horiz-adv-x="806" arabic-form="medial" 
d="M188 1120v125h35v336h125v-133q62 41 133 41q85 0 129.5 -47.5t44.5 -138.5q0 -51 -14 -87t-32.5 -54.5t-51 -28t-55.5 -11.5t-60 -2h-254zM348 1245h94q63 0 73.5 7.5t10.5 50.5q0 38 -8.5 49.5t-36.5 11.5q-29 0 -58.5 -16.5t-74.5 -57.5v-45zM0 0v279h266v704h277
v-704h274v-279h-817z" />
    <glyph glyph-name="uniFB7B" unicode="&#x686;" horiz-adv-x="1421" arabic-form="final" 
d="M549 -655q-212 0 -350 130.5t-138 331.5v87q7 218 11 247q5 38 20.5 65t33.5 40.5t42 21t42 9t39 2.5h9h86h281q54 0 86.5 2.5t63.5 11t47 24t29.5 43.5t18.5 66.5t7 95.5v29q0 113 -74 167t-197 54q-175 0 -262 -178l-240 135q73 141 208.5 223t293.5 82
q149 0 272.5 -56t199.5 -167t77 -258q0 -163 52 -218.5t200 -55.5h25v-279h-25q-270 0 -383 76q-58 -42 -152.5 -59t-246.5 -17h-283v-193q0 -86 55 -135t152 -49v-278zM594 -297q-41 0 -70.5 29.5t-29.5 70.5q0 43 29.5 74t70.5 31q42 0 72 -31t30 -74q0 -40 -30 -70
t-72 -30zM866 -297q-43 0 -72.5 29.5t-29.5 70.5q0 43 30 74t72 31q41 0 71 -31t30 -74q0 -40 -30 -70t-71 -30zM731 -520q-43 0 -72.5 29.5t-29.5 70.5q0 44 29.5 74.5t72.5 30.5q41 0 70.5 -30.5t29.5 -74.5q0 -40 -29.5 -70t-70.5 -30z" />
    <glyph glyph-name="uniFB7C" unicode="&#x686;" horiz-adv-x="1267" arabic-form="initial" 
d="M0 0v279h594q54 0 86.5 2.5t63.5 11t47 24t29.5 43.5t18.5 66.5t7 95.5v29q0 113 -74 167t-197 54q-175 0 -262 -178l-239 135q74 141 208.5 223t292.5 82q149 0 272.5 -56t200 -167.5t76.5 -259.5v-29q-1 -86 -7 -150.5t-19.5 -119t-32.5 -92t-51 -66.5t-69 -46.5
t-92 -28.5t-115.5 -15t-143.5 -4h-594zM369 -410q-51 0 -86 35.5t-35 85.5q0 53 35 89t86 36t85.5 -36t34.5 -89q0 -48 -35 -84.5t-85 -36.5zM692 -410q-51 0 -86 35.5t-35 85.5q0 53 35 89t86 36t86 -36t35 -89q0 -48 -35.5 -84.5t-85.5 -36.5zM530 -676q-51 0 -85.5 35.5
t-34.5 85.5q0 53 34.5 89t85.5 36t86 -36t35 -89q0 -48 -35.5 -84.5t-85.5 -36.5z" />
    <glyph glyph-name="uniFB7D" unicode="&#x686;" horiz-adv-x="1421" arabic-form="medial" 
d="M0 0v279h625q54 0 86.5 2.5t63.5 11t47 24t29.5 43.5t18.5 66.5t7 95.5v29q0 113 -74 167t-197 54q-175 0 -262 -178l-240 135q73 141 208.5 223t293.5 82q149 0 272.5 -56t199.5 -167t77 -258q0 -163 52 -218.5t200 -55.5h25v-279h-25q-270 0 -383 76
q-58 -42 -152.5 -59t-246.5 -17h-625zM408 -410q-51 0 -86 35.5t-35 85.5q0 53 35 89t86 36t85.5 -36t34.5 -89q0 -48 -35 -84.5t-85 -36.5zM731 -410q-51 0 -86 35.5t-35 85.5q0 53 35 89t86 36t86 -36t35 -89q0 -48 -35.5 -84.5t-85.5 -36.5zM569 -676q-51 0 -85.5 35.5
t-34.5 85.5q0 53 34.5 89t85.5 36t86 -36t35 -89q0 -48 -35.5 -84.5t-85.5 -36.5z" />
    <glyph glyph-name="uniFB89" unicode="&#x688;" horiz-adv-x="1212" arabic-form="final" 
d="M203 1120v125h35v336h124v-133q62 41 134 41q85 0 129.5 -47.5t44.5 -138.5q0 -51 -14 -87t-32.5 -54.5t-51 -28t-55.5 -11.5t-60 -2h-254zM362 1245h95q63 0 73.5 7.5t10.5 50.5q0 38 -8.5 49.5t-36.5 11.5q-52 0 -134 -74v-45zM106 0v279h590v190q-3 97 -78 166.5
t-178 69.5q-81 0 -137 -5v279q57 4 137 4q141 0 263 -67.5t195 -183.5t77 -253v-200h248v-279h-1117z" />
    <glyph glyph-name="uniFB8B" unicode="&#x698;" horiz-adv-x="667" arabic-form="final" 
d="M338 1399q-51 0 -86 36t-35 89q0 50 35 85.5t86 35.5q50 0 85.5 -36.5t35.5 -84.5q0 -53 -35 -89t-86 -36zM176 1133q-51 0 -86 36t-35 88q0 50 35 85.5t86 35.5q50 0 85.5 -36.5t35.5 -84.5q0 -52 -35 -88t-86 -36zM500 1133q-51 0 -86 36t-35 88q0 50 35 85.5t86 35.5
q50 0 85.5 -36.5t35.5 -84.5q0 -52 -35 -88t-86 -36zM35 -467q-101 0 -215 51l94 238q55 -23 117 -23q75 0 119.5 65.5t44.5 178.5v940h278v-704h205v-279h-207q-12 -220 -127.5 -343.5t-308.5 -123.5z" />
    <glyph glyph-name="uniFB8D" unicode="&#x691;" horiz-adv-x="667" arabic-form="final" 
d="M104 1120v125h35v336h125v-133q62 41 133 41q85 0 129.5 -47.5t44.5 -138.5q0 -51 -14 -87t-32.5 -54.5t-51 -28t-55.5 -11.5t-60 -2h-254zM264 1245h94q63 0 73.5 7.5t10.5 50.5q0 38 -8.5 49.5t-36.5 11.5q-29 0 -58.5 -16.5t-74.5 -57.5v-45zM35 -467q-101 0 -215 51
l94 238q55 -23 117 -23q75 0 119.5 65.5t44.5 178.5v940h278v-704h205v-279h-207q-12 -220 -127.5 -343.5t-308.5 -123.5z" />
    <glyph glyph-name="uniFB8F" unicode="&#x6a9;" horiz-adv-x="1994" arabic-form="final" 
d="M723 0q-118 0 -215 27t-166.5 77t-119 122t-72.5 162t-27 196t18 225l275 -14q-20 -166 -4.5 -280.5t91 -175t218.5 -60.5h579q82 0 104.5 25t22.5 116q0 106 -49 196q-89 168 -391 168q-134 0 -188 -24l-158 209l782 592l166 -220l-403 -305l53 -12q135 -31 228 -100
t155 -183q76 -142 82 -286q15 -102 69.5 -139t178.5 -37h53v-279h-53q-253 0 -363 63q-88 -63 -289 -63h-577z" />
    <glyph glyph-name="uniFB90" unicode="&#x6a9;" horiz-adv-x="1290" arabic-form="initial" 
d="M0 0v279h750q82 0 104.5 25t22.5 116q0 104 -50 196q-44 83 -138.5 122.5t-252.5 39.5q-3 0 -35.5 1t-52 0.5t-49.5 -5.5t-51 -14l-158 209l782 592l166 -220l-403 -305l53 -12q135 -31 228 -100t155 -183q84 -155 84 -321q0 -242 -86 -331t-319 -89h-750z" />
    <glyph glyph-name="uniFB91" unicode="&#x6a9;" horiz-adv-x="1492" arabic-form="medial" 
d="M0 0v279h750q82 0 104.5 25t22.5 116q0 104 -50 196q-44 83 -138.5 122.5t-252.5 39.5q-3 0 -35.5 1t-52 0.5t-49.5 -5.5t-51 -14l-158 209l782 592l166 -220l-403 -305l53 -12q135 -31 228 -100t155 -183q76 -142 82 -286q15 -102 69.5 -139t178.5 -37h102v-279h-102
q-253 0 -363 63q-88 -63 -288 -63h-750z" />
    <glyph glyph-name="uniFB93" unicode="&#x6af;" horiz-adv-x="1994" arabic-form="final" 
d="M608 1004l-67 92l786 594l68 -93zM723 0q-118 0 -215 27t-166.5 77t-119 122t-72.5 162t-27 196t18 225l275 -14q-20 -166 -4.5 -280.5t91 -175t218.5 -60.5h579q82 0 104.5 25t22.5 116q0 106 -49 196q-89 168 -391 168q-134 0 -188 -24l-158 209l782 592l166 -220
l-403 -305l53 -12q135 -31 228 -100t155 -183q76 -142 82 -286q15 -102 69.5 -139t178.5 -37h53v-279h-53q-253 0 -363 63q-88 -63 -289 -63h-577z" />
    <glyph glyph-name="uniFB94" unicode="&#x6af;" horiz-adv-x="1220" arabic-form="initial" 
d="M59 1004l-67 92l786 594l68 -93zM0 0v279h750q82 0 104.5 25t22.5 116q0 104 -50 196q-44 83 -138.5 122.5t-252.5 39.5q-3 0 -35.5 1t-52 0.5t-49.5 -5.5t-51 -14l-158 209l782 592l166 -220l-403 -305l53 -12q135 -31 228 -100t155 -183q84 -155 84 -321
q0 -242 -86 -331t-319 -89h-750z" />
    <glyph glyph-name="uniFB95" unicode="&#x6af;" horiz-adv-x="1492" arabic-form="medial" 
d="M59 1004l-67 92l786 594l68 -93zM0 0v279h750q82 0 104.5 25t22.5 116q0 104 -50 196q-44 83 -138.5 122.5t-252.5 39.5q-3 0 -35.5 1t-52 0.5t-49.5 -5.5t-51 -14l-158 209l782 592l166 -220l-403 -305l53 -12q135 -31 228 -100t155 -183q76 -142 82 -286
q15 -102 69.5 -139t178.5 -37h102v-279h-102q-253 0 -363 63q-88 -63 -288 -63h-750z" />
    <glyph glyph-name="uniFB9F" unicode="&#x6ba;" horiz-adv-x="1378" arabic-form="final" 
d="M666 -346q-310 0 -452 170t-142 541q0 73 13.5 181.5t31.5 182.5l270 -35q-33 -164 -37 -338q-6 -227 69 -325.5t245 -98.5q276 0 276 390v661h279v-559q3 -95 25 -120t102 -25h43v-279h-43q-97 0 -175 16q-59 -173 -189 -267.5t-316 -94.5z" />
    <glyph glyph-name="uniFBA7" unicode="&#x6c1;" horiz-adv-x="1288" arabic-form="final" 
d="M72 -31v113q0 407 157 590q163 190 516 190q64 0 91 -2l32 74h199l-2 -512q0 -27 -0.5 -39t1 -30.5t1.5 -25t5 -17.5t7 -13.5t12 -8t16 -6t22.5 -2t27 -1.5h35.5h106v-279h-106q-119 0 -195 20t-124.5 70t-67.5 129t-19 203v162h-41q-224 0 -301 -92q-94 -113 -94 -410
v-113h-278z" />
    <glyph glyph-name="uniFBA8" unicode="&#x6c1;" horiz-adv-x="716" arabic-form="initial" 
d="M297 983h276v-430q-3 -226 -46.5 -341t-153.5 -165l-64 -192v-9q41 -19 64.5 -59t23.5 -92q0 -72 -45 -118t-114 -46q-70 0 -115 46t-45 120q0 98 90 235l51 76q-68 -8 -176 -8h-43v279h43q148 0 199 54.5t55 219.5v430z" />
    <glyph glyph-name="uniFBA9" unicode="&#x6c1;" horiz-adv-x="1228" arabic-form="medial" 
d="M850 -584q-359 0 -516 191q-119 143 -148 393h-186v279h176v278h279v-360q0 -159 22.5 -257t71.5 -155q53 -63 164 -80v156q0 239 86.5 328.5t318.5 89.5h121v-279h-121h-5h-41t-29.5 -3t-22.5 -4t-13.5 -11t-9.5 -16t-3.5 -26t-2.5 -34v-47v-443h-141z" />
    <glyph glyph-name="uniFBAB" unicode="&#x6be;" horiz-adv-x="1390" arabic-form="final" 
d="M745 -506q-172 0 -285.5 114.5t-119.5 293.5v98h-258v197l186 82h72v346q4 235 90 321t315 86h31q135 0 251 -70.5t183.5 -188t67.5 -251.5q0 -135 -64 -254q79 11 148 11h39v-279h-39q-75 0 -98.5 -21t-26.5 -96q-11 -170 -125 -279.5t-281 -109.5h-86zM618 279h158
q92 0 157.5 71t65.5 172q0 91 -64 161t-153 71h-73q-55 -4 -71.5 -31.5t-19.5 -112.5v-331zM745 -227h86q53 0 87 34t38 91q2 69 17 143q-90 -41 -197 -41h-158v-86q2 -63 37 -102t90 -39z" />
    <glyph glyph-name="uniFBAC" unicode="&#x6be;" horiz-adv-x="1478" arabic-form="initial" 
d="M0 0v279h127q-55 113 -55 247q0 214 127 348t331 134q219 0 344 -141.5t125 -389.5v-198h115v294q0 304 -113.5 426.5t-396.5 122.5q-120 0 -252 -59l-133 231q192 107 391 107q421 0 602 -191.5t181 -636.5v-573h-1393zM596 279h125v198q0 133 -45.5 192.5t-145.5 59.5
q-88 0 -134 -51.5t-46 -151.5q0 -114 66 -180.5t180 -66.5z" />
    <glyph glyph-name="uniFBAD" unicode="&#x6be;" horiz-adv-x="1122" arabic-form="medial" 
d="M477 -506q-172 0 -285.5 114.5t-119.5 293.5v98h-72v279h72v346q4 235 90 321t315 86h31q135 0 251 -70.5t183.5 -188t67.5 -251.5q0 -135 -64 -254q79 11 148 11h39v-279h-39q-75 0 -98.5 -21t-26.5 -96q-11 -170 -125 -279.5t-281 -109.5h-86zM350 279h158
q92 0 157.5 71t65.5 172q0 91 -64 161t-153 71h-74q-54 -4 -70.5 -31.5t-19.5 -112.5v-331zM477 -227h86q53 0 87 34t38 91q2 69 17 143q-90 -41 -197 -41h-158v-86q2 -63 37 -102t90 -39z" />
    <glyph glyph-name="uniFBAF" unicode="&#x6d2;" horiz-adv-x="1228" arabic-form="final" 
d="M670 -504q-237 0 -299 6q-143 14 -199 80q-57 67 -57 215q0 250 163.5 366t512.5 116h448v-279h-448q-162 0 -245 -16.5t-118 -57.5t-35 -121q0 -17 11 -22q21 -8 206 -8h1h1h1h1h1h1h1h1h1h1h1h1h1h1h1h1h1h1h1h1h1h1h1h1h1h1h1h1h1h1h1h1h1h2h1h1h1h1h1h1h1h1h1h1h1h1
h1h1h1h1h9h604v-279h-604z" />
    <glyph glyph-name="uniFBB1" unicode="&#x6d3;" horiz-adv-x="1228" arabic-form="final" 
d="M135 305l-69 113q67 30 77 33q-4 24 -4 38q0 94 53.5 148.5t145.5 54.5q46 0 119 -26l-43 -131q-46 24 -76 24q-31 0 -48.5 -19t-17.5 -51q0 -6 4 -26h191v-135h-254q-9 0 -39.5 -10.5t-38.5 -12.5zM670 -504q-237 0 -299 6q-143 14 -199 80q-57 67 -57 215
q0 250 163.5 366t512.5 116h448v-279h-448q-162 0 -245 -16.5t-118 -57.5t-35 -121q0 -17 11 -22q21 -8 206 -8h1h1h1h1h1h1h1h1h1h1h1h1h1h1h1h1h1h1h1h1h1h1h1h1h1h1h1h1h1h1h1h1h1h2h1h1h1h1h1h1h1h1h1h1h1h1h1h1h1h1h9h604v-279h-604z" />
    <glyph glyph-name="uniFBFD" unicode="&#x6cc;" horiz-adv-x="1976" arabic-form="final" 
d="M666 -389q-310 0 -452 170t-142 541q0 73 13.5 181.5t31.5 182.5l270 -35q-14 -70 -24.5 -171t-12.5 -167q-6 -225 68.5 -324.5t245.5 -99.5q154 0 215 86t61 304v188q0 109 21.5 180t71.5 115t124.5 62t188.5 18q188 0 362 -23l2 -266q0 -163 52 -218.5t200 -55.5h25
v-279h-25q-108 0 -185 10t-138.5 35t-99.5 64.5t-63 103t-34.5 145t-9.5 195.5v10h-86q-80 0 -102 -24t-25 -119v-141q0 -358 -128 -513t-425 -155z" />
    <glyph glyph-name="uniFBFE" unicode="&#x6cc;" horiz-adv-x="696" arabic-form="initial" 
d="M0 0v279h43q148 0 199 54.5t55 219.5v430h276v-430q-2 -115 -12 -195.5t-35 -144.5t-62.5 -103t-98 -64.5t-137.5 -35.5t-185 -10h-43zM-2 -444q-57 0 -96 40t-39 99q0 56 39 95.5t96 39.5q56 0 95.5 -40t39.5 -95q0 -59 -39 -99t-96 -40zM322 -444q-57 0 -96.5 40.5
t-39.5 98.5q0 56 39.5 95.5t96.5 39.5q56 0 95.5 -40t39.5 -95q0 -59 -39 -99t-96 -40z" />
    <glyph glyph-name="uniFBFF" unicode="&#x6cc;" horiz-adv-x="806" arabic-form="medial" 
d="M0 0v279h266v704h277v-704h274v-279h-817zM246 -449q-57 0 -96 40.5t-39 99.5q0 56 39 95.5t96 39.5q56 0 95.5 -40t39.5 -95q0 -59 -39 -99.5t-96 -40.5zM569 -449q-57 0 -96 40.5t-39 99.5q0 56 39 95.5t96 39.5q56 0 96 -40t40 -95q0 -59 -39.5 -99.5t-96.5 -40.5z
" />
    <glyph glyph-name="uniFC5E" unicode="&#xfc5e;" arabic-form="isolated" 
d="M311 1542q-55 0 -107.5 20t-78.5 56l-62 -43l-32 74l123 80q32 -83 104 -103v23q0 72 27.5 127.5t75 75t110.5 -12.5q35 -21 55.5 -47.5t27.5 -64.5t-19 -80q-63 -112 -224 -105zM342 1622q90 3 121 61q25 58 -33 84q-17 10 -30.5 7t-23 -8t-15.5 -20t-10 -27.5t-6 -32
t-2.5 -33.5t-0.5 -31zM262 1202q-78 -13 -119 28t-41 132v90l99 12v-102q0 -68 35 -68q8 0 16 2v156l102 12v-114q0 -27 6.5 -41.5t26.5 -14.5q1 0 8 1t11 1v156l98 12v-198q0 -52 -49 -58l-39 -6q-55 -8 -99 10z" />
    <glyph glyph-name="uniFC5F" unicode="&#xfc5f;" arabic-form="isolated" 
d="M182 1526q-78 -13 -118.5 28t-40.5 132v90l98 12v-102q0 -68 35 -68q8 0 16 2v156l102 12v-115q0 -27 6.5 -41t26.5 -14q1 0 8 1t11 1v156l98 12v-199q0 -51 -49 -57l-39 -6q-55 -8 -98 10zM55 1341v97l348 55v-96zM55 1190v98l348 53v-94z" />
    <glyph glyph-name="uniFC60" unicode="&#xfc60;" arabic-form="isolated" 
d="M51 1497v96l346 56v-97zM182 1202q-78 -13 -118.5 28t-40.5 132v90l98 12v-102q0 -68 35 -68q8 0 16 2v156l102 12v-114q0 -27 6.5 -41.5t26.5 -14.5q1 0 8 1t11 1v156l98 12v-198q0 -52 -49 -58l-39 -6q-55 -8 -98 10z" />
    <glyph glyph-name="uniFC61" unicode="&#xfc61;" arabic-form="isolated" 
d="M31 1581l39 72q57 -32 110 -47q-5 61 10.5 112t45.5 78t70.5 33.5t84.5 -19.5q36 -20 57.5 -46t27.5 -64t-21 -82q-14 -24 -39 -46t-65 -38t-86.5 -19.5t-108 12.5t-125.5 54zM262 1595q46 3 76.5 21t44.5 43q28 51 -31 80q-48 23 -69 -18.5t-21 -125.5zM199 1200
q-78 -13 -119 28t-41 132v90l98 12v-102q0 -68 35 -68q8 0 16 2v156l103 12v-114q0 -27 6.5 -41.5t26.5 -14.5q2 0 8 1t10 1v156l98 12v-198q0 -52 -49 -58l-39 -6q-55 -8 -98 10z" />
    <glyph glyph-name="uniFC62" unicode="&#xfc62;" arabic-form="isolated" 
d="M182 1386q-78 -13 -118.5 28t-40.5 132v90l98 13v-103q0 -67 35 -67q8 0 16 2v155l102 13v-115q0 -27 6.5 -41t26.5 -14q1 0 8 1t11 1v155l98 13v-199q0 -51 -49 -57l-39 -7q-53 -8 -98 11zM55 1190v96l346 55v-96z" />
    <glyph glyph-name="uniFD3C" unicode="&#xfd3c;" horiz-adv-x="575" arabic-form="final" 
d="M66 1483l-5 112l447 74l4 -115zM66 1325l-5 115l447 71l4 -112zM141 0v1239h277v-960h168v-279h-445z" />
    <glyph glyph-name="uniFD3D" unicode="&#xfd3d;" horiz-adv-x="581" arabic-form="isolated" 
d="M66 1483l-5 112l447 74l4 -115zM66 1325l-5 115l447 71l4 -112zM152 0v1239h278v-1239h-278z" />
    <glyph glyph-name="uniFE82" unicode="&#x622;" horiz-adv-x="575" arabic-form="final" 
d="M385 1362q-49 0 -122.5 32.5t-84.5 32.5q-33 0 -33 -51h-127q-4 78 40 129t116 51q12 0 23.5 -2t25.5 -7t22.5 -8t27.5 -11.5t26 -11.5q52 -25 90 -25q44 0 67.5 9t90.5 48v-139q-38 -26 -74 -36.5t-88 -10.5zM141 0v1239h277v-960h168v-279h-445z" />
    <glyph glyph-name="uniFE84" unicode="&#x623;" horiz-adv-x="575" arabic-form="final" 
d="M119 1305l-70 112q65 29 78 33q-4 24 -4 39q0 94 53.5 148.5t145.5 54.5q42 0 118 -27l-43 -131q-48 25 -75 25q-31 0 -48.5 -19t-17.5 -51q0 -7 4 -27h191v-135h-254q-9 0 -39.5 -10.5t-38.5 -11.5zM141 0v1239h277v-960h168v-279h-445z" />
    <glyph glyph-name="uniFE86" unicode="&#x624;" horiz-adv-x="1157" arabic-form="final" 
d="M373 1106l-70 113q57 25 78 32q-4 24 -4 39q0 94 53 148.5t145 54.5q43 0 119 -27l-43 -131q-48 25 -76 25q-31 0 -48 -19t-17 -51q0 -6 4 -26h191v-136h-254q-9 0 -39.5 -10t-38.5 -12zM465 -459q-222 0 -393 103l135 231q139 -68 262 -68q112 0 181.5 51t84.5 142h-178
q-204 0 -334.5 140t-130.5 358q0 214 130.5 349.5t334.5 135.5q130 0 238 -63l26 63h197v-704h149v-279h-151q-19 -217 -163.5 -338t-387.5 -121zM557 279h182v219q0 111 -49 173t-133 62q-87 0 -136.5 -61.5t-49.5 -173.5q0 -102 50.5 -160.5t135.5 -58.5z" />
    <glyph glyph-name="uniFE88" unicode="&#x625;" horiz-adv-x="587" arabic-form="final" 
d="M154 0v1475h276v-1196h168v-279h-444zM125 -512l-70 113q57 25 78 32q-4 24 -4 39q0 94 53.5 148.5t145.5 54.5q42 0 118 -27l-43 -131q-48 25 -75 25q-31 0 -48.5 -19t-17.5 -51q0 -6 4 -26h191v-135h-254q-9 0 -39.5 -10.5t-38.5 -12.5z" />
    <glyph glyph-name="uniFE8A" unicode="&#x626;" horiz-adv-x="1976" arabic-form="final" 
d="M94 762l-69 112q67 30 77 33q-4 24 -4 39q0 94 53.5 148.5t145.5 54.5q43 0 119 -27l-43 -131q-48 25 -76 25q-31 0 -48.5 -19t-17.5 -51q0 -1 5 -26h190v-136h-254q-9 0 -39.5 -10t-38.5 -12zM666 -389q-310 0 -452 170t-142 541q0 73 13.5 181.5t31.5 182.5l270 -35
q-14 -70 -24.5 -171t-12.5 -167q-6 -225 68.5 -324.5t245.5 -99.5q154 0 215 86t61 304v188q0 109 21.5 180t71.5 115t124.5 62t188.5 18q188 0 362 -23l2 -266q0 -163 52 -218.5t200 -55.5h25v-279h-25q-108 0 -185 10t-138.5 35t-99.5 64.5t-63 103t-34.5 145t-9.5 195.5
v10h-86q-80 0 -102 -24t-25 -119v-141q0 -358 -128 -513t-425 -155z" />
    <glyph glyph-name="uniFE8B" unicode="&#x626;" horiz-adv-x="716" arabic-form="initial" 
d="M246 1116l-70 113q65 29 78 33q-4 24 -4 38q0 94 53.5 148.5t145.5 54.5q45 0 118 -26l-43 -131q-46 24 -75 24q-31 0 -48.5 -19t-17.5 -51q0 -6 4 -26h191v-135h-254q-9 0 -39.5 -10.5t-38.5 -12.5zM0 0v279h43q148 0 199 54.5t55 219.5v430h276v-430
q-2 -115 -12 -195.5t-35 -144.5t-62.5 -103t-98 -64.5t-137.5 -35.5t-185 -10h-43z" />
    <glyph glyph-name="uniFE8C" unicode="&#x626;" horiz-adv-x="806" arabic-form="medial" 
d="M229 1116l-69 113q65 29 78 33q-5 30 -5 38q0 94 53.5 148.5t145.5 54.5q46 0 119 -26l-43 -131q-46 24 -76 24q-31 0 -48 -19t-17 -51q0 -6 4 -26h190v-135h-254q-9 0 -39.5 -10.5t-38.5 -12.5zM0 0v279h266v704h277v-704h274v-279h-817z" />
    <glyph glyph-name="uniFE8E" unicode="&#x627;" horiz-adv-x="587" arabic-form="final" 
d="M154 0v1475h276v-1196h168v-279h-444z" />
    <glyph glyph-name="uniFE90" unicode="&#x628;" horiz-adv-x="1824" arabic-form="final" 
d="M666 0q-233 0 -384 158.5t-151 404.5q0 125 42.5 234.5t121.5 189.5l178 -207q-63 -101 -63 -217q0 -130 70 -207t186 -77h432q147 0 197.5 54.5t54.5 219.5v430h278v-430q-3 -168 -26 -274h233v-279h-319l-35 78q-109 -78 -383 -78h-432zM942 -444q-57 0 -96 40t-39 99
q0 56 39 95.5t96 39.5q56 0 95.5 -40t39.5 -95q0 -59 -39 -99t-96 -40z" />
    <glyph glyph-name="uniFE91" unicode="&#x628;" horiz-adv-x="716" arabic-form="initial" 
d="M0 0v279h43q148 0 199 54.5t55 219.5v430h276v-430q-2 -115 -12 -195.5t-35 -144.5t-62.5 -103t-98 -64.5t-137.5 -35.5t-185 -10h-43zM322 -444q-57 0 -96.5 40.5t-39.5 98.5q0 56 39.5 95.5t96.5 39.5q56 0 95.5 -40t39.5 -95q0 -59 -39 -99t-96 -40z" />
    <glyph glyph-name="uniFE92" unicode="&#x628;" horiz-adv-x="806" arabic-form="medial" 
d="M0 0v279h266v704h277v-704h274v-279h-817zM410 -444q-57 0 -96.5 40.5t-39.5 98.5q0 56 39.5 95.5t96.5 39.5q56 0 95.5 -40t39.5 -95q0 -59 -39 -99t-96 -40z" />
    <glyph glyph-name="uniFE94" unicode="&#x629;" horiz-adv-x="1280" arabic-form="final" 
d="M418 1133q-57 0 -96 40t-39 99q0 56 39 95.5t96 39.5q56 0 95.5 -40t39.5 -95q0 -59 -39 -99t-96 -40zM741 1133q-57 0 -96 40t-39 99q0 56 39 95.5t96 39.5q56 0 96 -40t40 -95q0 -58 -39.5 -98.5t-96.5 -40.5zM553 0q-204 0 -334.5 140t-130.5 358q0 214 130.5 349.5
t334.5 135.5q129 0 238 -61l26 61h197v-430q0 -163 52 -218.5t200 -55.5h24v-279h-24q-259 0 -367 66q-84 -60 -248 -66h-98zM553 279h53q80 0 102 24t25 119l2 80q-1 110 -49.5 170.5t-132.5 60.5q-87 0 -136.5 -61.5t-49.5 -173.5q0 -102 50.5 -160.5t135.5 -58.5z" />
    <glyph glyph-name="uniFE96" unicode="&#x62a;" horiz-adv-x="1824" arabic-form="final" 
d="M758 1133q-57 0 -96 40t-39 99q0 56 39 95.5t96 39.5q56 0 95.5 -40t39.5 -95q0 -59 -39 -99t-96 -40zM1081 1133q-57 0 -96 40t-39 99q0 56 39 95.5t96 39.5q56 0 96 -40t40 -95q0 -58 -39.5 -98.5t-96.5 -40.5zM666 0q-233 0 -384 158.5t-151 404.5q0 125 42.5 234.5
t121.5 189.5l178 -207q-63 -101 -63 -217q0 -130 70 -207t186 -77h432q147 0 197.5 54.5t54.5 219.5v430h278v-430q-3 -168 -26 -274h233v-279h-319l-35 78q-109 -78 -383 -78h-432z" />
    <glyph glyph-name="uniFE97" unicode="&#x62a;" horiz-adv-x="716" arabic-form="initial" 
d="M170 1133q-57 0 -96 40t-39 99q0 56 39 95.5t96 39.5q56 0 95.5 -40t39.5 -95q0 -59 -39 -99t-96 -40zM494 1133q-57 0 -96.5 40.5t-39.5 98.5q0 56 39.5 95.5t96.5 39.5q56 0 95.5 -40t39.5 -95q0 -59 -39 -99t-96 -40zM0 0v279h43q148 0 199 54.5t55 219.5v430h276
v-430q-2 -115 -12 -195.5t-35 -144.5t-62.5 -103t-98 -64.5t-137.5 -35.5t-185 -10h-43z" />
    <glyph glyph-name="uniFE98" unicode="&#x62a;" horiz-adv-x="806" arabic-form="medial" 
d="M242 1133q-57 0 -96.5 40.5t-39.5 98.5q0 56 39.5 95.5t96.5 39.5q56 0 95.5 -40t39.5 -95q0 -59 -39 -99t-96 -40zM565 1133q-57 0 -96 40t-39 99q0 56 39 95.5t96 39.5q56 0 95.5 -40t39.5 -95q0 -59 -39 -99t-96 -40zM0 0v279h266v704h277v-704h274v-279h-817z" />
    <glyph glyph-name="uniFE9A" unicode="&#x62b;" horiz-adv-x="1824" arabic-form="final" 
d="M915 1399q-57 0 -96 40t-39 99q0 56 39 95.5t96 39.5q56 0 96 -40t40 -95q0 -58 -39.5 -98.5t-96.5 -40.5zM754 1133q-57 0 -96.5 40.5t-39.5 98.5q0 56 39.5 95.5t96.5 39.5q56 0 95.5 -40t39.5 -95q0 -59 -39 -99t-96 -40zM1077 1133q-57 0 -96 40t-39 99q0 56 39 95.5
t96 39.5q56 0 95.5 -40t39.5 -95q0 -59 -39 -99t-96 -40zM666 0q-233 0 -384 158.5t-151 404.5q0 125 42.5 234.5t121.5 189.5l178 -207q-63 -101 -63 -217q0 -130 70 -207t186 -77h432q147 0 197.5 54.5t54.5 219.5v430h278v-430q-3 -168 -26 -274h233v-279h-319l-35 78
q-109 -78 -383 -78h-432z" />
    <glyph glyph-name="uniFE9B" unicode="&#x62b;" horiz-adv-x="716" arabic-form="initial" 
d="M365 1399q-57 0 -96.5 40.5t-39.5 98.5q0 56 39.5 95.5t96.5 39.5q56 0 95.5 -40t39.5 -95q0 -59 -39 -99t-96 -40zM203 1133q-57 0 -96 40t-39 99q0 56 39 95.5t96 39.5q56 0 95.5 -40t39.5 -95q0 -59 -39 -99t-96 -40zM526 1133q-57 0 -96 40t-39 99q0 56 39 95.5
t96 39.5q56 0 96 -40t40 -95q0 -58 -39.5 -98.5t-96.5 -40.5zM0 0v279h43q148 0 199 54.5t55 219.5v430h276v-430q-2 -115 -12 -195.5t-35 -144.5t-62.5 -103t-98 -64.5t-137.5 -35.5t-185 -10h-43z" />
    <glyph glyph-name="uniFE9C" unicode="&#x62b;" horiz-adv-x="806" arabic-form="medial" 
d="M399 1399q-57 0 -96 40t-39 99q0 56 39 95.5t96 39.5q56 0 96 -40t40 -95q0 -58 -39.5 -98.5t-96.5 -40.5zM238 1133q-57 0 -96.5 40.5t-39.5 98.5q0 56 39.5 95.5t96.5 39.5q56 0 95.5 -40t39.5 -95q0 -59 -39 -99t-96 -40zM561 1133q-57 0 -96 40t-39 99q0 56 39 95.5
t96 39.5q56 0 95.5 -40t39.5 -95q0 -59 -39 -99t-96 -40zM0 0v279h266v704h277v-704h274v-279h-817z" />
    <glyph glyph-name="uniFE9E" unicode="&#x62c;" horiz-adv-x="1421" arabic-form="final" 
d="M549 -571q-212 0 -350 130.5t-138 331.5v3q7 218 11 247q4 34 14 59t27 39.5t31 23.5t37 12t33.5 3.5t32.5 0.5h11h86h281q54 0 86.5 2.5t63.5 11t47 24t29.5 43.5t18.5 66.5t7 95.5v29q0 113 -74 167t-197 54q-175 0 -262 -178l-240 135q73 141 208.5 223t293.5 82
q149 0 272.5 -56t199.5 -167t77 -258q0 -163 52 -218.5t200 -55.5h25v-279h-25q-270 0 -383 76q-58 -42 -152.5 -59t-246.5 -17h-283v-109q0 -86 55 -135t152 -49h57v-278h-57zM770 -305q-47 0 -80 32.5t-33 79.5t33 80t80 33t80 -33t33 -80t-33 -79.5t-80 -32.5z" />
    <glyph glyph-name="uniFE9F" unicode="&#x62c;" horiz-adv-x="1185" arabic-form="initial" 
d="M0 0v279h594q54 0 86.5 2.5t63.5 11t47 24t29.5 43.5t18.5 66.5t7 95.5v29q0 113 -74 167t-197 54q-175 0 -262 -178l-239 135q74 141 208.5 223t292.5 82q149 0 272.5 -56t200 -167.5t76.5 -259.5v-29q-1 -86 -7 -150.5t-19.5 -119t-32.5 -92t-51 -66.5t-69 -46.5
t-92 -28.5t-115.5 -15t-143.5 -4h-594zM477 -444q-57 0 -96 40t-39 99q0 56 39 95.5t96 39.5q56 0 95.5 -40t39.5 -95q0 -59 -39 -99t-96 -40z" />
    <glyph glyph-name="uniFEA0" unicode="&#x62c;" horiz-adv-x="1421" arabic-form="medial" 
d="M0 0v279h625q54 0 86.5 2.5t63.5 11t47 24t29.5 43.5t18.5 66.5t7 95.5v29q0 113 -74 167t-197 54q-175 0 -262 -178l-240 135q73 141 208.5 223t293.5 82q149 0 272.5 -56t199.5 -167t77 -258q0 -163 52 -218.5t200 -55.5h25v-279h-25q-270 0 -383 76
q-58 -42 -152.5 -59t-246.5 -17h-625zM477 -444q-57 0 -96 40t-39 99q0 56 39 95.5t96 39.5q56 0 95.5 -40t39.5 -95q0 -59 -39 -99t-96 -40z" />
    <glyph glyph-name="uniFEA2" unicode="&#x62d;" horiz-adv-x="1421" arabic-form="final" 
d="M549 -571q-212 0 -350 130.5t-138 331.5v3q7 218 11 247q5 34 16 59.5t30 40t33.5 23t40 11.5t34.5 3.5t32 0.5h86h281q54 0 86.5 2.5t63.5 11t47 24t29.5 43.5t18.5 66.5t7 95.5v29q0 113 -74 167t-197 54q-175 0 -262 -178l-240 135q73 141 208.5 223t293.5 82
q149 0 272.5 -56t199.5 -167t77 -258q0 -163 52 -218.5t200 -55.5h25v-279h-25q-270 0 -383 76q-58 -42 -152.5 -59t-246.5 -17h-283v-109q0 -86 55 -135t152 -49h172v-278h-172z" />
    <glyph glyph-name="uniFEA3" unicode="&#x62d;" horiz-adv-x="1185" arabic-form="initial" 
d="M0 0v279h594q54 0 86.5 2.5t63.5 11t47 24t29.5 43.5t18.5 66.5t7 95.5v29q0 113 -74 167t-197 54q-175 0 -262 -178l-239 135q74 141 208.5 223t292.5 82q149 0 272.5 -56t200 -167.5t76.5 -259.5v-29q-1 -86 -7 -150.5t-19.5 -119t-32.5 -92t-51 -66.5t-69 -46.5
t-92 -28.5t-115.5 -15t-143.5 -4h-594z" />
    <glyph glyph-name="uniFEA4" unicode="&#x62d;" horiz-adv-x="1421" arabic-form="medial" 
d="M0 0v279h625q54 0 86.5 2.5t63.5 11t47 24t29.5 43.5t18.5 66.5t7 95.5v29q0 113 -74 167t-197 54q-175 0 -262 -178l-240 135q73 141 208.5 223t293.5 82q149 0 272.5 -56t199.5 -167t77 -258q0 -163 52 -218.5t200 -55.5h25v-279h-25q-270 0 -383 76
q-58 -42 -152.5 -59t-246.5 -17h-625z" />
    <glyph glyph-name="uniFEA6" unicode="&#x62e;" horiz-adv-x="1421" arabic-form="final" 
d="M596 1133q-57 0 -96 40t-39 99q0 56 39 95.5t96 39.5q56 0 95.5 -40t39.5 -95q0 -59 -39 -99t-96 -40zM549 -571q-212 0 -350 130.5t-138 331.5v3q7 218 11 247q5 34 16 59.5t30 40t33.5 23t40 11.5t34.5 3.5t32 0.5h86h281q54 0 86.5 2.5t63.5 11t47 24t29.5 43.5
t18.5 66.5t7 95.5v29q0 113 -74 167t-197 54q-175 0 -262 -178l-240 135q73 141 208.5 223t293.5 82q149 0 272.5 -56t199.5 -167t77 -258q0 -163 52 -218.5t200 -55.5h25v-279h-25q-270 0 -383 76q-58 -42 -152.5 -59t-246.5 -17h-283v-109q0 -86 55 -135t152 -49h172v-278
h-172z" />
    <glyph glyph-name="uniFEA7" unicode="&#x62e;" horiz-adv-x="1185" arabic-form="initial" 
d="M584 1133q-57 0 -96 40t-39 99q0 56 39 95.5t96 39.5q56 0 95.5 -40t39.5 -95q0 -59 -39 -99t-96 -40zM0 0v279h594q54 0 86.5 2.5t63.5 11t47 24t29.5 43.5t18.5 66.5t7 95.5v29q0 113 -74 167t-197 54q-175 0 -262 -178l-239 135q74 141 208.5 223t292.5 82
q149 0 272.5 -56t200 -167.5t76.5 -259.5v-29q-1 -86 -7 -150.5t-19.5 -119t-32.5 -92t-51 -66.5t-69 -46.5t-92 -28.5t-115.5 -15t-143.5 -4h-594z" />
    <glyph glyph-name="uniFEA8" unicode="&#x62e;" horiz-adv-x="1421" arabic-form="medial" 
d="M614 1133q-57 0 -96 40t-39 99q0 56 39 95.5t96 39.5q56 0 96 -40t40 -95q0 -58 -39.5 -98.5t-96.5 -40.5zM0 0v279h625q54 0 86.5 2.5t63.5 11t47 24t29.5 43.5t18.5 66.5t7 95.5v29q0 113 -74 167t-197 54q-175 0 -262 -178l-240 135q73 141 208.5 223t293.5 82
q149 0 272.5 -56t199.5 -167t77 -258q0 -163 52 -218.5t200 -55.5h25v-279h-25q-270 0 -383 76q-58 -42 -152.5 -59t-246.5 -17h-625z" />
    <glyph glyph-name="uniFEAA" unicode="&#x62f;" horiz-adv-x="1212" arabic-form="final" 
d="M106 0v279h590v190q-3 97 -78 166.5t-178 69.5q-81 0 -137 -5v279q57 4 137 4q141 0 263 -67.5t195 -183.5t77 -253v-200h248v-279h-1117z" />
    <glyph glyph-name="uniFEAC" unicode="&#x630;" horiz-adv-x="1212" arabic-form="final" 
d="M477 1133q-57 0 -96 40t-39 99q0 56 39 95.5t96 39.5q56 0 95.5 -40t39.5 -95q0 -59 -39 -99t-96 -40zM106 0v279h590v190q-3 97 -78 166.5t-178 69.5q-81 0 -137 -5v279q57 4 137 4q141 0 263 -67.5t195 -183.5t77 -253v-200h248v-279h-1117z" />
    <glyph glyph-name="uniFEAE" unicode="&#x631;" horiz-adv-x="667" arabic-form="final" 
d="M35 -467q-101 0 -215 51l94 238q55 -23 117 -23q75 0 119.5 65.5t44.5 178.5v940h278v-704h205v-279h-207q-12 -220 -127.5 -343.5t-308.5 -123.5z" />
    <glyph glyph-name="uniFEB0" unicode="&#x632;" horiz-adv-x="667" arabic-form="final" 
d="M334 1133q-57 0 -96 40t-39 99q0 56 39 95.5t96 39.5q56 0 95.5 -40t39.5 -95q0 -59 -39 -99t-96 -40zM35 -467q-101 0 -215 51l94 238q55 -23 117 -23q75 0 119.5 65.5t44.5 178.5v940h278v-704h205v-279h-207q-12 -220 -127.5 -343.5t-308.5 -123.5z" />
    <glyph glyph-name="uniFEB2" unicode="&#x633;" horiz-adv-x="2480" arabic-form="final" 
d="M666 -436q-310 0 -452 169.5t-142 540.5q0 73 13.5 182t31.5 183l270 -35q-33 -164 -37 -338q-3 -228 70.5 -326t243.5 -98q276 0 276 389v639h279v-591h10q147 0 197.5 54.5t54.5 219.5v317h278v-317q-3 -168 -26 -274h32q147 0 197.5 54.5t54.5 219.5v430h279v-430
q0 -62 -8 -152q4 -80 27 -101t100 -21h75v-279h-75q-204 0 -289 63q-110 -63 -361 -63h-118l-35 78q-109 -78 -383 -78h-35q-50 -207 -187 -321.5t-341 -114.5z" />
    <glyph glyph-name="uniFEB3" unicode="&#x633;" horiz-adv-x="1785" arabic-form="initial" 
d="M0 0v279h35q147 0 197.5 54.5t54.5 219.5v317h278v-317q-3 -168 -26 -274h36q147 0 197.5 54.5t54.5 219.5v317h279v-317q-3 -163 -27 -274h33q147 0 197.5 54.5t54.5 219.5v430h278v-430q-2 -115 -12 -195.5t-35 -144.5t-62.5 -103t-98 -64.5t-137.5 -35.5t-185 -10
h-119l-35 78q-109 -78 -383 -78h-118l-35 80q-111 -80 -387 -80h-35z" />
    <glyph glyph-name="uniFEB4" unicode="&#x633;" horiz-adv-x="1826" arabic-form="medial" 
d="M0 0v279h35q147 0 197.5 54.5t54.5 219.5v317h278v-317q-3 -168 -26 -274h36q147 0 197.5 54.5t54.5 219.5v317h279v-317q-3 -163 -27 -274h33q147 0 197.5 54.5t54.5 219.5v430h278v-430q0 -62 -8 -152q4 -80 27 -101t100 -21h76v-279h-76q-203 0 -288 63
q-110 -63 -361 -63h-119l-35 78q-109 -78 -383 -78h-118l-35 80q-111 -80 -387 -80h-35z" />
    <glyph glyph-name="uniFEB6" unicode="&#x634;" horiz-adv-x="2480" arabic-form="final" 
d="M1624 1399q-57 0 -96 40t-39 99q0 56 39 95.5t96 39.5q56 0 95.5 -40t39.5 -95q0 -59 -39 -99t-96 -40zM1462 1133q-57 0 -96 40t-39 99q0 56 39 95.5t96 39.5q56 0 95.5 -40t39.5 -95q0 -59 -39 -99t-96 -40zM1786 1133q-57 0 -96 40t-39 99q0 56 39 95.5t96 39.5
q56 0 95.5 -40t39.5 -95q0 -59 -39 -99t-96 -40zM666 -436q-310 0 -452 169.5t-142 540.5q0 73 13.5 182t31.5 183l270 -35q-33 -164 -37 -338q-3 -228 70.5 -326t243.5 -98q276 0 276 389v639h279v-591h10q147 0 197.5 54.5t54.5 219.5v317h278v-317q-3 -168 -26 -274h32
q147 0 197.5 54.5t54.5 219.5v430h279v-430q0 -62 -8 -152q4 -80 27 -101t100 -21h75v-279h-75q-204 0 -289 63q-110 -63 -361 -63h-118l-35 78q-109 -78 -383 -78h-35q-50 -207 -187 -321.5t-341 -114.5z" />
    <glyph glyph-name="uniFEB7" unicode="&#x634;" horiz-adv-x="1785" arabic-form="initial" 
d="M965 1399q-57 0 -96.5 40.5t-39.5 98.5q0 56 39.5 95.5t96.5 39.5q56 0 95.5 -40t39.5 -95q0 -59 -39 -99t-96 -40zM803 1133q-57 0 -96 40t-39 99q0 56 39 95.5t96 39.5q56 0 95.5 -40t39.5 -95q0 -59 -39 -99t-96 -40zM1126 1133q-57 0 -96 40t-39 99q0 56 39 95.5
t96 39.5q56 0 96 -40t40 -95q0 -58 -39.5 -98.5t-96.5 -40.5zM0 0v279h35q147 0 197.5 54.5t54.5 219.5v317h278v-317q-3 -168 -26 -274h36q147 0 197.5 54.5t54.5 219.5v317h279v-317q-3 -163 -27 -274h33q147 0 197.5 54.5t54.5 219.5v430h278v-430q-2 -115 -12 -195.5
t-35 -144.5t-62.5 -103t-98 -64.5t-137.5 -35.5t-185 -10h-119l-35 78q-109 -78 -383 -78h-118l-35 80q-111 -80 -387 -80h-35z" />
    <glyph glyph-name="uniFEB8" unicode="&#x634;" horiz-adv-x="1826" arabic-form="medial" 
d="M965 1399q-57 0 -96.5 40.5t-39.5 98.5q0 56 39.5 95.5t96.5 39.5q56 0 95.5 -40t39.5 -95q0 -59 -39 -99t-96 -40zM803 1133q-57 0 -96 40t-39 99q0 56 39 95.5t96 39.5q56 0 95.5 -40t39.5 -95q0 -59 -39 -99t-96 -40zM1126 1133q-57 0 -96 40t-39 99q0 56 39 95.5
t96 39.5q56 0 96 -40t40 -95q0 -58 -39.5 -98.5t-96.5 -40.5zM0 0v279h35q147 0 197.5 54.5t54.5 219.5v317h278v-317q-3 -168 -26 -274h36q147 0 197.5 54.5t54.5 219.5v317h279v-317q-3 -163 -27 -274h33q147 0 197.5 54.5t54.5 219.5v430h278v-430q0 -62 -8 -152
q4 -80 27 -101t100 -21h76v-279h-76q-203 0 -288 63q-110 -63 -361 -63h-119l-35 78q-109 -78 -383 -78h-118l-35 80q-111 -80 -387 -80h-35z" />
    <glyph glyph-name="uniFEBA" unicode="&#x635;" horiz-adv-x="2326" arabic-form="final" 
d="M666 -436q-310 0 -452 169.5t-142 540.5q0 73 13.5 182t31.5 183l270 -35q-33 -164 -37 -338q-3 -228 70.5 -326t243.5 -98q276 0 276 389v752h279v-201q127 101 242 151t241 50q457 0 457 -491q0 -69 -11 -148q15 -35 51.5 -50t104.5 -15h33v-279h-33q-202 0 -307 80
q-72 -50 -170.5 -65t-245.5 -15h-387q-50 -207 -187 -321.5t-341 -114.5zM1219 279h362q60 0 95 0.5t71.5 5t54 8.5t35.5 17.5t24 25.5t12 38t6.5 50.5t0.5 67.5q0 133 -35 173t-143 40q-96 0 -199 -61.5t-284 -229.5v-135z" />
    <glyph glyph-name="uniFEBB" unicode="&#x635;" horiz-adv-x="1507" arabic-form="initial" 
d="M0 0v279h164v704h278v-201q127 101 242.5 151t241.5 50q456 0 456 -491q0 -98 -17 -174.5t-43.5 -127.5t-72 -87.5t-89 -56t-109.5 -30.5t-117.5 -13.5t-128.5 -2.5h-805zM442 279h363q60 0 95 0.5t71.5 5t54 8.5t35.5 17.5t24 25.5t12 38t6.5 50.5t0.5 67.5
q0 133 -35 173t-143 40q-97 0 -200 -61.5t-284 -229.5v-135z" />
    <glyph glyph-name="uniFEBC" unicode="&#x635;" horiz-adv-x="1589" arabic-form="medial" 
d="M0 0v279h203v704h278v-201q127 101 242.5 151t241.5 50q456 0 456 -491q0 -76 -10 -148q15 -35 51.5 -50t104.5 -15h32v-279h-32q-202 0 -307 80q-72 -50 -170.5 -65t-245.5 -15h-844zM481 279h363q60 0 95 0.5t71.5 5t54 8.5t35.5 17.5t24 25.5t12 38t6.5 50.5t0.5 67.5
q0 133 -35 173t-143 40q-97 0 -200 -61.5t-284 -229.5v-135z" />
    <glyph glyph-name="uniFEBE" unicode="&#x636;" horiz-adv-x="2326" arabic-form="final" 
d="M1667 1133q-57 0 -96 40t-39 99q0 56 39 95.5t96 39.5q56 0 95.5 -40t39.5 -95q0 -59 -39 -99t-96 -40zM666 -436q-310 0 -452 169.5t-142 540.5q0 73 13.5 182t31.5 183l270 -35q-33 -164 -37 -338q-3 -228 70.5 -326t243.5 -98q276 0 276 389v752h279v-201
q127 101 242 151t241 50q457 0 457 -491q0 -69 -11 -148q15 -35 51.5 -50t104.5 -15h33v-279h-33q-202 0 -307 80q-72 -50 -170.5 -65t-245.5 -15h-387q-50 -207 -187 -321.5t-341 -114.5zM1219 279h362q60 0 95 0.5t71.5 5t54 8.5t35.5 17.5t24 25.5t12 38t6.5 50.5
t0.5 67.5q0 133 -35 173t-143 40q-96 0 -199 -61.5t-284 -229.5v-135z" />
    <glyph glyph-name="uniFEBF" unicode="&#x636;" horiz-adv-x="1507" arabic-form="initial" 
d="M899 1133q-57 0 -96 40t-39 99q0 56 39 95.5t96 39.5q56 0 95.5 -40t39.5 -95q0 -59 -39 -99t-96 -40zM0 0v279h164v704h278v-201q127 101 242.5 151t241.5 50q456 0 456 -491q0 -98 -17 -174.5t-43.5 -127.5t-72 -87.5t-89 -56t-109.5 -30.5t-117.5 -13.5t-128.5 -2.5
h-805zM442 279h363q60 0 95 0.5t71.5 5t54 8.5t35.5 17.5t24 25.5t12 38t6.5 50.5t0.5 67.5q0 133 -35 173t-143 40q-97 0 -200 -61.5t-284 -229.5v-135z" />
    <glyph glyph-name="uniFEC0" unicode="&#x636;" horiz-adv-x="1589" arabic-form="medial" 
d="M907 1133q-57 0 -96 40t-39 99q0 56 39 95.5t96 39.5q56 0 95.5 -40t39.5 -95q0 -59 -39 -99t-96 -40zM0 0v279h203v704h278v-201q127 101 242.5 151t241.5 50q456 0 456 -491q0 -76 -10 -148q15 -35 51.5 -50t104.5 -15h32v-279h-32q-202 0 -307 80q-72 -50 -170.5 -65
t-245.5 -15h-844zM481 279h363q60 0 95 0.5t71.5 5t54 8.5t35.5 17.5t24 25.5t12 38t6.5 50.5t0.5 67.5q0 133 -35 173t-143 40q-97 0 -200 -61.5t-284 -229.5v-135z" />
    <glyph glyph-name="uniFEC2" unicode="&#x637;" horiz-adv-x="1589" arabic-form="final" 
d="M82 0v279h121v1196h278v-693q127 101 242.5 151t241.5 50q456 0 456 -491q0 -76 -10 -148q15 -35 51.5 -50t104.5 -15h32v-279h-32q-202 0 -307 80q-72 -50 -170.5 -65t-245.5 -15h-762zM481 279h363q60 0 95 0.5t71.5 5t54 8.5t35.5 17.5t24 25.5t12 38t6.5 50.5
t0.5 67.5q0 133 -35 173t-143 40q-97 0 -200 -61.5t-284 -229.5v-135z" />
    <glyph glyph-name="uniFEC3" unicode="&#x637;" horiz-adv-x="1507" arabic-form="initial" 
d="M0 0v279h203v1196h278v-693q127 101 242.5 151t241.5 50q456 0 456 -491q0 -98 -17 -174.5t-43.5 -127.5t-72 -87.5t-89 -56t-109.5 -30.5t-117.5 -13.5t-128.5 -2.5h-844zM481 279h363q60 0 95 0.5t71.5 5t54 8.5t35.5 17.5t24 25.5t12 38t6.5 50.5t0.5 67.5
q0 133 -35 173t-143 40q-97 0 -200 -61.5t-284 -229.5v-135z" />
    <glyph glyph-name="uniFEC4" unicode="&#x637;" horiz-adv-x="1589" arabic-form="medial" 
d="M0 0v279h203v1196h278v-693q127 101 242.5 151t241.5 50q456 0 456 -491q0 -76 -10 -148q15 -35 51.5 -50t104.5 -15h32v-279h-32q-202 0 -307 80q-72 -50 -170.5 -65t-245.5 -15h-844zM481 279h363q60 0 95 0.5t71.5 5t54 8.5t35.5 17.5t24 25.5t12 38t6.5 50.5
t0.5 67.5q0 133 -35 173t-143 40q-97 0 -200 -61.5t-284 -229.5v-135z" />
    <glyph glyph-name="uniFEC6" unicode="&#x638;" horiz-adv-x="1589" arabic-form="final" 
d="M82 0v279h121v1196h278v-693q127 101 242.5 151t241.5 50q456 0 456 -491q0 -76 -10 -148q15 -35 51.5 -50t104.5 -15h32v-279h-32q-202 0 -307 80q-72 -50 -170.5 -65t-245.5 -15h-762zM915 1133q-57 0 -96 40t-39 99q0 56 39 95.5t96 39.5q56 0 96 -40t40 -95
q0 -58 -39.5 -98.5t-96.5 -40.5zM481 279h363q60 0 95 0.5t71.5 5t54 8.5t35.5 17.5t24 25.5t12 38t6.5 50.5t0.5 67.5q0 133 -35 173t-143 40q-97 0 -200 -61.5t-284 -229.5v-135z" />
    <glyph glyph-name="uniFEC7" unicode="&#x638;" horiz-adv-x="1466" arabic-form="initial" 
d="M0 0v279h203v1196h278v-693q127 101 242.5 151t241.5 50q456 0 456 -491q0 -98 -17 -174.5t-43.5 -127.5t-72 -87.5t-89 -56t-109.5 -30.5t-117.5 -13.5t-128.5 -2.5h-844zM915 1133q-57 0 -96 40t-39 99q0 56 39 95.5t96 39.5q56 0 96 -40t40 -95q0 -58 -39.5 -98.5
t-96.5 -40.5zM481 279h363q60 0 95 0.5t71.5 5t54 8.5t35.5 17.5t24 25.5t12 38t6.5 50.5t0.5 67.5q0 133 -35 173t-143 40q-97 0 -200 -61.5t-284 -229.5v-135z" />
    <glyph glyph-name="uniFEC8" unicode="&#x638;" horiz-adv-x="1589" arabic-form="medial" 
d="M0 0v279h203v1196h278v-693q127 101 242.5 151t241.5 50q456 0 456 -491q0 -76 -10 -148q15 -35 51.5 -50t104.5 -15h32v-279h-32q-202 0 -307 80q-72 -50 -170.5 -65t-245.5 -15h-844zM915 1133q-57 0 -96 40t-39 99q0 56 39 95.5t96 39.5q56 0 96 -40t40 -95
q0 -58 -39.5 -98.5t-96.5 -40.5zM481 279h363q60 0 95 0.5t71.5 5t54 8.5t35.5 17.5t24 25.5t12 38t6.5 50.5t0.5 67.5q0 133 -35 173t-143 40q-97 0 -200 -61.5t-284 -229.5v-135z" />
    <glyph glyph-name="uniFECA" unicode="&#x639;" horiz-adv-x="1269" arabic-form="final" 
d="M520 -571q-212 0 -349.5 130.5t-137.5 331.5v3q0 172 10 247q3 22 9 40.5t13 32t18.5 24t20 17.5t22.5 12t22.5 7.5t23.5 3.5t21 1h20h16h19l-156 348v200q236 187 608 187q211 0 350.5 -123.5t139.5 -310.5q0 -172 -66 -301h156v-279h-967v-109q0 -86 55 -135t152 -49
h172v-278h-172zM547 279h151q100 12 156.5 90t56.5 211q0 75 -55 116t-156 41q-162 0 -333 -53z" />
    <glyph glyph-name="uniFECB" unicode="&#x639;" horiz-adv-x="1148" arabic-form="initial" 
d="M0 0v279h256q-49 113 -49 249q0 106 28 193.5t76.5 146.5t113.5 101t138.5 61t151 22.5t153 -10t142.5 -41.5l-92 -264q-82 41 -162 43.5t-139 -27t-95.5 -88.5t-36.5 -137q0 -142 90 -249h447v-279h-1022z" />
    <glyph glyph-name="uniFECC" unicode="&#x639;" horiz-adv-x="1269" arabic-form="medial" 
d="M0 0v279h248l-156 348v200q236 187 608 187q211 0 350.5 -123.5t139.5 -310.5q0 -172 -66 -301h156v-279h-1280zM547 279h155q98 12 153.5 90.5t55.5 210.5q0 75 -55 116t-156 41q-162 0 -333 -53z" />
    <glyph glyph-name="uniFECE" unicode="&#x63a;" horiz-adv-x="1269" arabic-form="final" 
d="M668 1133q-57 0 -96.5 40.5t-39.5 98.5q0 56 39.5 95.5t96.5 39.5q56 0 95.5 -40t39.5 -95q0 -59 -39 -99t-96 -40zM520 -571q-212 0 -349.5 130.5t-137.5 331.5v3q0 172 10 247q3 22 9 40.5t13 32t18.5 24t20 17.5t22.5 12t22.5 7.5t23.5 3.5t21 1h20h16h19l-156 348
v200q236 187 608 187q211 0 350.5 -123.5t139.5 -310.5q0 -172 -66 -301h156v-279h-967v-109q0 -86 55 -135t152 -49h172v-278h-172zM547 279h151q100 12 156.5 90t56.5 211q0 75 -55 116t-156 41q-162 0 -333 -53z" />
    <glyph glyph-name="uniFECF" unicode="&#x63a;" horiz-adv-x="1146" arabic-form="initial" 
d="M643 1133q-57 0 -96 40t-39 99q0 56 39 95.5t96 39.5q56 0 95.5 -40t39.5 -95q0 -59 -39 -99t-96 -40zM0 0v279h256q-49 113 -49 249q0 106 28 193.5t76.5 146.5t113.5 101t138.5 61t151 22.5t153 -10t142.5 -41.5l-92 -264q-82 41 -162 43.5t-139 -27t-95.5 -88.5
t-36.5 -137q0 -142 90 -249h447v-279h-1022z" />
    <glyph glyph-name="uniFED0" unicode="&#x63a;" horiz-adv-x="1269" arabic-form="medial" 
d="M668 1133q-57 0 -96.5 40.5t-39.5 98.5q0 56 39.5 95.5t96.5 39.5q56 0 95.5 -40t39.5 -95q0 -59 -39 -99t-96 -40zM0 0v279h248l-156 348v200q236 187 608 187q211 0 350.5 -123.5t139.5 -310.5q0 -172 -66 -301h156v-279h-1280zM547 279h155q98 12 153.5 90.5
t55.5 210.5q0 75 -55 116t-156 41q-162 0 -333 -53z" />
    <glyph glyph-name="uniFED2" unicode="&#x641;" horiz-adv-x="2078" arabic-form="final" 
d="M1446 1133q-57 0 -96 40t-39 99q0 56 39 95.5t96 39.5q56 0 95.5 -40t39.5 -95q0 -59 -39 -99t-96 -40zM705 0q-118 0 -215 27t-166.5 77t-119 122t-72.5 162t-27 196t18 225l274 -14q-20 -166 -4.5 -280.5t91 -175t218.5 -60.5h320q-41 100 -41 219q0 214 130.5 349.5
t334.5 135.5t335.5 -136.5t125.5 -348.5l-2 -80q0 -37 -2 -53q14 -47 50.5 -66.5t112.5 -19.5h23v-279h-23q-181 0 -280 61q-86 -61 -242 -61h-839zM1446 279h53q80 0 102 24t25 119l2 80q-1 110 -49.5 170.5t-132.5 60.5q-87 0 -136.5 -61.5t-49.5 -173.5
q0 -102 50.5 -160.5t135.5 -58.5z" />
    <glyph glyph-name="uniFED3" unicode="&#x641;" horiz-adv-x="1183" arabic-form="initial" 
d="M594 1133q-57 0 -96 40t-39 99q0 56 39 95.5t96 39.5q56 0 95.5 -40t39.5 -95q0 -59 -39 -99t-96 -40zM0 0v279h170q-41 100 -41 219q0 214 130.5 349.5t334.5 135.5t335.5 -136.5t125.5 -348.5l-2 -80q-3 -232 -81 -325t-280 -93h-692zM594 279h53q80 0 102 24t25 119
l2 80q-1 110 -49.5 170.5t-132.5 60.5q-87 0 -136.5 -61.5t-49.5 -173.5q0 -102 50.5 -160.5t135.5 -58.5z" />
    <glyph glyph-name="uniFED4" unicode="&#x641;" horiz-adv-x="1226" arabic-form="medial" 
d="M594 1133q-57 0 -96 40t-39 99q0 56 39 95.5t96 39.5q56 0 95.5 -40t39.5 -95q0 -59 -39 -99t-96 -40zM0 0v279h170q-41 100 -41 219q0 214 130.5 349.5t334.5 135.5t335.5 -136.5t125.5 -348.5l-2 -80q0 -37 -2 -53q14 -47 50.5 -66.5t112.5 -19.5h23v-279h-23
q-181 0 -280 61q-86 -61 -242 -61h-692zM594 279h53q80 0 102 24t25 119l2 80q-1 110 -49.5 170.5t-132.5 60.5q-87 0 -136.5 -61.5t-49.5 -173.5q0 -102 50.5 -160.5t135.5 -58.5z" />
    <glyph glyph-name="uniFED6" unicode="&#x642;" horiz-adv-x="1658" arabic-form="final" 
d="M877 1133q-57 0 -96.5 40.5t-39.5 98.5q0 56 39.5 95.5t96.5 39.5q56 0 95.5 -40t39.5 -95q0 -59 -39 -99t-96 -40zM1200 1133q-57 0 -96 40t-39 99q0 56 39 95.5t96 39.5q56 0 95.5 -40t39.5 -95q0 -59 -39 -99t-96 -40zM770 -561q-371 0 -539 169t-168 542
q0 72 13.5 180.5t32.5 183.5l270 -35q-14 -73 -25.5 -174t-11.5 -164q0 -230 97.5 -327t328.5 -97q380 0 436 283h-168q-204 0 -334.5 140t-130.5 358q0 214 130.5 349.5t334.5 135.5q203 0 332.5 -136t128.5 -349v-47l-2 -172h174v-279h-184q-34 -265 -222 -413t-493 -148z
M1036 279h181l2 221q0 111 -49 172t-134 61q-87 0 -136.5 -61.5t-49.5 -173.5q0 -102 50.5 -160.5t135.5 -58.5z" />
    <glyph glyph-name="uniFED7" unicode="&#x642;" horiz-adv-x="1183" arabic-form="initial" 
d="M430 1133q-57 0 -96 40t-39 99q0 56 39 95.5t96 39.5q56 0 95.5 -40t39.5 -95q0 -59 -39 -99t-96 -40zM754 1133q-57 0 -96.5 40.5t-39.5 98.5q0 56 39.5 95.5t96.5 39.5q56 0 95.5 -40t39.5 -95q0 -59 -39 -99t-96 -40zM0 0v279h170q-41 100 -41 219q0 214 130.5 349.5
t334.5 135.5t335.5 -136.5t125.5 -348.5l-2 -80q-3 -232 -81 -325t-280 -93h-692zM594 279h53q80 0 102 24t25 119l2 80q-1 110 -49.5 170.5t-132.5 60.5q-87 0 -136.5 -61.5t-49.5 -173.5q0 -102 50.5 -160.5t135.5 -58.5z" />
    <glyph glyph-name="uniFED8" unicode="&#x642;" horiz-adv-x="1226" arabic-form="medial" 
d="M430 1133q-57 0 -96 40t-39 99q0 56 39 95.5t96 39.5q56 0 95.5 -40t39.5 -95q0 -59 -39 -99t-96 -40zM754 1133q-57 0 -96.5 40.5t-39.5 98.5q0 56 39.5 95.5t96.5 39.5q56 0 95.5 -40t39.5 -95q0 -59 -39 -99t-96 -40zM0 0v279h170q-41 100 -41 219q0 214 130.5 349.5
t334.5 135.5t335.5 -136.5t125.5 -348.5l-2 -80q0 -37 -2 -53q14 -47 50.5 -66.5t112.5 -19.5h23v-279h-23q-181 0 -280 61q-86 -61 -242 -61h-692zM594 279h53q80 0 102 24t25 119l2 80q-1 110 -49.5 170.5t-132.5 60.5q-87 0 -136.5 -61.5t-49.5 -173.5
q0 -102 50.5 -160.5t135.5 -58.5z" />
    <glyph glyph-name="uniFEDA" unicode="&#x643;" horiz-adv-x="1818" arabic-form="final" 
d="M657 0q-233 0 -383.5 158.5t-150.5 404.5q0 125 42.5 234.5t121.5 189.5l178 -207q-33 -53 -48.5 -102t-15.5 -115q0 -130 70 -207t186 -77h365q147 0 197.5 54.5t54.5 219.5v922h278v-922q0 -163 52 -218.5t200 -55.5h25v-279h-25q-281 0 -391 82q-101 -74 -323 -80v-2
h-433zM680 563l-70 113q65 29 84 35q-10 38 -10 69q0 94 53.5 148.5t145.5 54.5q42 0 118 -27l-43 -131q-48 25 -75 25q-31 0 -48.5 -19t-17.5 -51q0 -27 19 -59h180v-135h-258q-9 0 -39.5 -10.5t-38.5 -12.5z" />
    <glyph glyph-name="uniFEDB" unicode="&#x643;" horiz-adv-x="1290" arabic-form="initial" 
d="M0 0v279h750q82 0 104.5 25t22.5 116q0 104 -50 196q-44 83 -138.5 122.5t-252.5 39.5q-3 0 -35.5 1t-52 0.5t-49.5 -5.5t-51 -14l-158 209l782 592l166 -220l-403 -305l53 -12q135 -31 228 -100t155 -183q84 -155 84 -321q0 -242 -86 -331t-319 -89h-750z" />
    <glyph glyph-name="uniFEDC" unicode="&#x643;" horiz-adv-x="1492" arabic-form="medial" 
d="M0 0v279h750q82 0 104.5 25t22.5 116q0 104 -50 196q-44 83 -138.5 122.5t-252.5 39.5q-3 0 -35.5 1t-52 0.5t-49.5 -5.5t-51 -14l-158 209l782 592l166 -220l-403 -305l53 -12q135 -31 228 -100t155 -183q76 -142 82 -286q15 -102 69.5 -139t178.5 -37h102v-279h-102
q-253 0 -363 63q-88 -63 -288 -63h-750z" />
    <glyph glyph-name="uniFEDE" unicode="&#x644;" horiz-adv-x="1411" arabic-form="final" 
d="M666 -436q-310 0 -452 169.5t-142 540.5q0 73 13.5 182t31.5 183l270 -35q-33 -164 -37 -338q-3 -228 70.5 -326t243.5 -98q276 0 276 389v1244h279v-1051q3 -95 25 -119t102 -24h75v-279h-75q-78 0 -150 10q-46 -213 -184 -330.5t-346 -117.5z" />
    <glyph glyph-name="uniFEDF" unicode="&#x644;" horiz-adv-x="636" arabic-form="initial" 
d="M0 0v279h25q147 0 199 55.5t52 218.5v922h279v-922q0 -114 -9.5 -195.5t-34.5 -145t-63 -103t-99.5 -64.5t-138.5 -35t-185 -10h-25z" />
    <glyph glyph-name="uniFEE0" unicode="&#x644;" horiz-adv-x="821" arabic-form="medial" 
d="M0 0v279h25q147 0 199 55.5t52 218.5v922h279v-922q0 -163 52 -218.5t200 -55.5h24v-279h-24q-281 0 -391 82q-110 -82 -391 -82h-25z" />
    <glyph glyph-name="uniFEE2" unicode="&#x645;" horiz-adv-x="1425" arabic-form="final" 
d="M61 -528v614q0 194 246 229q-22 83 -22 170q0 233 137 381t352 148q217 0 355.5 -148.5t138.5 -380.5q0 -75 -21 -161q10 -27 35 -36t78 -9h76v-279h-76q-198 0 -287 63q-131 -94 -299 -94q-151 0 -272 78h-35q-80 0 -102 -24t-25 -119v-432h-279zM774 219q97 0 156 73
t59 195q0 126 -59 201.5t-156 75.5q-95 0 -153 -75.5t-58 -201.5q0 -123 57.5 -195.5t153.5 -72.5z" />
    <glyph glyph-name="uniFEE3" unicode="&#x645;" horiz-adv-x="1329" arabic-form="initial" 
d="M711 -31q-180 0 -308 103q-86 -72 -301 -72h-102v279h102q75 0 98 20t27 92q-6 46 -6 94q0 233 137.5 381t352.5 148q217 0 355 -148.5t138 -380.5q0 -227 -138 -371.5t-355 -144.5zM711 219q97 0 156 73t59 195q0 126 -59 201.5t-156 75.5q-95 0 -153 -75.5t-58 -201.5
q0 -123 57.5 -195.5t153.5 -72.5z" />
    <glyph glyph-name="uniFEE4" unicode="&#x645;" horiz-adv-x="1361" arabic-form="medial" 
d="M711 -31q-180 0 -308 103q-86 -72 -301 -72h-102v279h102q75 0 98 20t27 92q-6 46 -6 94q0 233 137.5 381t352.5 148q217 0 355 -148.5t138 -380.5q0 -79 -20 -161q10 -27 34.5 -36t77.5 -9h76v-279h-76q-197 0 -286 63q-131 -94 -299 -94zM711 219q97 0 156 73t59 195
q0 126 -59 201.5t-156 75.5q-95 0 -153 -75.5t-58 -201.5q0 -123 57.5 -195.5t153.5 -72.5z" />
    <glyph glyph-name="uniFEE6" unicode="&#x646;" horiz-adv-x="1378" arabic-form="final" 
d="M643 1133q-57 0 -96 40t-39 99q0 56 39 95.5t96 39.5q56 0 95.5 -40t39.5 -95q0 -59 -39 -99t-96 -40zM666 -346q-310 0 -452 170t-142 541q0 73 13.5 181.5t31.5 182.5l270 -35q-33 -164 -37 -338q-6 -227 69 -325.5t245 -98.5q276 0 276 390v661h279v-559
q3 -95 25 -120t102 -25h43v-279h-43q-97 0 -175 16q-59 -173 -189 -267.5t-316 -94.5z" />
    <glyph glyph-name="uniFEE7" unicode="&#x646;" horiz-adv-x="716" arabic-form="initial" 
d="M434 1135q-57 0 -96 40t-39 99q0 56 39 95.5t96 39.5q56 0 95.5 -40t39.5 -95q0 -57 -39 -98t-96 -41zM0 0v279h43q148 0 199 54.5t55 219.5v430h276v-430q-2 -115 -12 -195.5t-35 -144.5t-62.5 -103t-98 -64.5t-137.5 -35.5t-185 -10h-43z" />
    <glyph glyph-name="uniFEE8" unicode="&#x646;" horiz-adv-x="806" arabic-form="medial" 
d="M403 1135q-57 0 -96 40t-39 99q0 56 39 95.5t96 39.5q56 0 96 -40t40 -95q0 -57 -39.5 -98t-96.5 -41zM0 0v279h266v704h277v-704h274v-279h-817z" />
    <glyph glyph-name="uniFEEA" unicode="&#x647;" horiz-adv-x="1310" arabic-form="final" 
d="M584 0q-204 0 -334.5 140t-130.5 358q0 214 130.5 349.5t334.5 135.5q128 0 237 -61l27 61h196v-430q0 -163 52 -218.5t200 -55.5h25v-279h-25q-258 0 -366 66q-84 -60 -248 -66h-98zM584 279h53q80 0 102 24t25 119l2 80q-1 110 -49.5 170.5t-132.5 60.5
q-87 0 -137 -61.5t-50 -173.5q0 -102 51 -160.5t136 -58.5z" />
    <glyph glyph-name="uniFEEB" unicode="&#x647;" horiz-adv-x="1478" arabic-form="initial" 
d="M0 0v279h127q-55 113 -55 247q0 214 127 348t331 134q219 0 344 -141.5t125 -389.5v-198h115v294q0 304 -113.5 426.5t-396.5 122.5q-120 0 -252 -59l-133 231q192 107 391 107q421 0 602 -191.5t181 -636.5v-573h-1393zM596 279h125v198q0 133 -45.5 192.5t-145.5 59.5
q-88 0 -134 -51.5t-46 -151.5q0 -114 66 -180.5t180 -66.5z" />
    <glyph glyph-name="uniFEEC" unicode="&#x647;" horiz-adv-x="1122" arabic-form="medial" 
d="M477 -506q-172 0 -285.5 114.5t-119.5 293.5v98h-72v279h72v346q4 235 90 321t315 86h31q135 0 251 -70.5t183.5 -188t67.5 -251.5q0 -135 -64 -254q79 11 148 11h39v-279h-39q-75 0 -98.5 -21t-26.5 -96q-11 -170 -125 -279.5t-281 -109.5h-86zM350 279h158
q92 0 157.5 71t65.5 172q0 91 -64 161t-153 71h-74q-54 -4 -70.5 -31.5t-19.5 -112.5v-331zM477 -227h86q53 0 87 34t38 91q2 69 17 143q-90 -41 -197 -41h-158v-86q2 -63 37 -102t90 -39z" />
    <glyph glyph-name="uniFEEE" unicode="&#x648;" horiz-adv-x="1146" arabic-form="final" 
d="M455 -459q-223 0 -394 103l136 231q139 -68 262 -68q112 0 181.5 51t84.5 142h-178q-204 0 -334.5 140t-130.5 358q0 214 130.5 349.5t334.5 135.5q129 0 237 -63l27 63h197v-704h149v-279h-151q-19 -217 -163.5 -338t-387.5 -121zM547 279h182v219q0 111 -49 173
t-133 62q-87 0 -137 -61.5t-50 -173.5q0 -102 51 -160.5t136 -58.5z" />
    <glyph glyph-name="uniFEF0" unicode="&#x649;" horiz-adv-x="1976" arabic-form="final" 
d="M666 -389q-310 0 -452 170t-142 541q0 73 13.5 181.5t31.5 182.5l270 -35q-14 -70 -24.5 -171t-12.5 -167q-6 -225 68.5 -324.5t245.5 -99.5q154 0 215 86t61 304v188q0 109 21.5 180t71.5 115t124.5 62t188.5 18q188 0 362 -23l2 -266q0 -163 52 -218.5t200 -55.5h25
v-279h-25q-108 0 -185 10t-138.5 35t-99.5 64.5t-63 103t-34.5 145t-9.5 195.5v10h-86q-80 0 -102 -24t-25 -119v-141q0 -358 -128 -513t-425 -155z" />
    <glyph glyph-name="uniFEF2" unicode="&#x64a;" horiz-adv-x="1976" arabic-form="final" 
d="M666 -389q-310 0 -452 170t-142 541q0 73 13.5 181.5t31.5 182.5l270 -35q-14 -70 -24.5 -171t-12.5 -167q-6 -225 68.5 -324.5t245.5 -99.5q154 0 215 86t61 304v188q0 109 21.5 180t71.5 115t124.5 62t188.5 18q188 0 362 -23l2 -266q0 -163 52 -218.5t200 -55.5h25
v-279h-25q-108 0 -185 10t-138.5 35t-99.5 64.5t-63 103t-34.5 145t-9.5 195.5v10h-86q-80 0 -102 -24t-25 -119v-141q0 -358 -128 -513t-425 -155zM471 -721q-57 0 -96 40t-39 99q0 56 39 96t96 40q56 0 95.5 -40.5t39.5 -95.5q0 -59 -39 -99t-96 -40zM795 -721
q-57 0 -96.5 40.5t-39.5 98.5q0 56 39.5 96t96.5 40q56 0 95.5 -40.5t39.5 -95.5q0 -59 -39 -99t-96 -40z" />
    <glyph glyph-name="uniFEF3" unicode="&#x64a;" horiz-adv-x="696" arabic-form="initial" 
d="M0 0v279h43q148 0 199 54.5t55 219.5v430h276v-430q-2 -115 -12 -195.5t-35 -144.5t-62.5 -103t-98 -64.5t-137.5 -35.5t-185 -10h-43zM-2 -444q-57 0 -96 40t-39 99q0 56 39 95.5t96 39.5q56 0 95.5 -40t39.5 -95q0 -59 -39 -99t-96 -40zM322 -444q-57 0 -96.5 40.5
t-39.5 98.5q0 56 39.5 95.5t96.5 39.5q56 0 95.5 -40t39.5 -95q0 -59 -39 -99t-96 -40z" />
    <glyph glyph-name="uniFEF4" unicode="&#x64a;" horiz-adv-x="806" arabic-form="medial" 
d="M0 0v279h266v704h277v-704h274v-279h-817zM246 -449q-57 0 -96 40.5t-39 99.5q0 56 39 95.5t96 39.5q56 0 95.5 -40t39.5 -95q0 -59 -39 -99.5t-96 -40.5zM569 -449q-57 0 -96 40.5t-39 99.5q0 56 39 95.5t96 39.5q56 0 96 -40t40 -95q0 -59 -39.5 -99.5t-96.5 -40.5z
" />
    <glyph glyph-name=".notdef" horiz-adv-x="1228" 
 />
    <glyph glyph-name=".null" 
 />
    <glyph glyph-name="nonmarkingreturn" horiz-adv-x="682" 
 />
    <glyph glyph-name="space" unicode=" " horiz-adv-x="493" 
 />
    <glyph glyph-name="exclam" unicode="!" horiz-adv-x="720" 
d="M250 477l-51 975h317l-49 -975h-217zM362 -25q-81 0 -133.5 53t-52.5 132q0 78 52.5 131t133.5 53q76 0 128.5 -53.5t52.5 -130.5q0 -78 -52.5 -131.5t-128.5 -53.5z" />
    <glyph glyph-name="quotedbl" unicode="&#x22;" horiz-adv-x="874" 
d="M70 967l10 503h264l-111 -503h-163zM537 967l10 503h264l-111 -503h-163z" />
    <glyph glyph-name="numbersign" unicode="#" horiz-adv-x="1437" 
d="M217 0l49 365h-182v249h215l29 224h-199v247h231l52 367h241l-49 -367h326l49 367h242l-52 -367h185v-247h-217l-29 -224h201v-249h-234l-47 -365h-244l50 365h-326l-49 -365h-242zM541 600h323l33 250h-326z" />
    <glyph glyph-name="dollar" unicode="$" horiz-adv-x="1101" 
d="M438 -172v223q-117 25 -206 94t-142 174l178 136q111 -181 299 -181q75 0 122.5 30t47.5 87q0 48 -35 75t-116 60l-133 49q-295 108 -295 345q0 122 76 205.5t204 113.5v231h234v-227q193 -40 295 -225l-181 -133q-88 133 -225 133q-141 0 -141 -100q0 -44 32 -70t99 -53
l145 -54q152 -55 227.5 -139.5t75.5 -206.5q0 -136 -92 -231q-89 -92 -235 -117v-219h-234z" />
    <glyph glyph-name="percent" unicode="%" horiz-adv-x="1789" 
d="M461 750q-154 0 -262.5 104t-108.5 258t109.5 256t261.5 102q158 0 266.5 -102.5t108.5 -255.5q0 -157 -109 -259.5t-266 -102.5zM340 0l834 1452h276l-838 -1452h-272zM465 956q63 0 103 42.5t40 113.5q0 70 -40.5 113t-102.5 43q-67 0 -107.5 -42.5t-40.5 -113.5
q0 -72 40 -114t108 -42zM1333 -20q-154 0 -262 104t-108 258t109 256t261 102q159 0 267 -102.5t108 -255.5q0 -157 -109 -259.5t-266 -102.5zM1337 186q62 0 103 43t41 113t-41 113t-103 43q-67 0 -107 -42.5t-40 -113.5t40 -113.5t107 -42.5z" />
    <glyph glyph-name="ampersand" unicode="&#x26;" horiz-adv-x="1314" 
d="M578 -20q-190 0 -315.5 109t-125.5 273q0 125 53.5 214.5t188.5 185.5l-4 4q-166 171 -166 326q0 161 114.5 269.5t282.5 108.5q180 0 294 -103t114 -267q0 -91 -52 -177.5t-155 -158.5l-39 -25l193 -202l157 163l187 -176l-175 -182q50 -59 103 -88t82 -12v-240
q-195 -18 -361 154q-176 -176 -376 -176zM592 920l63 47q45 35 65.5 67t20.5 70q0 54 -37.5 89.5t-95.5 35.5q-56 0 -91.5 -35t-35.5 -90q0 -33 20.5 -67t69.5 -91zM582 231q52 0 91 22t101 91l-219 236l-29 -23q-59 -43 -83.5 -83.5t-24.5 -94.5q0 -62 47.5 -105t116.5 -43
z" />
    <glyph glyph-name="quotesingle" unicode="'" horiz-adv-x="413" 
d="M70 967l10 503h264l-111 -503h-163z" />
    <glyph glyph-name="parenleft" unicode="(" horiz-adv-x="677" 
d="M561 -285q-209 89 -332 312q-141 262 -141 637q0 384 141 636q123 219 332 314l117 -176q-150 -101 -234 -262q-102 -196 -102 -512q0 -299 102 -508q78 -161 234 -265z" />
    <glyph glyph-name="parenright" unicode=")" horiz-adv-x="677" 
d="M117 -285l-117 176q157 107 236 265q100 198 100 508q0 317 -100 512q-81 156 -236 262l117 176q209 -95 332 -314q141 -258 141 -636q0 -381 -141 -637q-131 -227 -332 -312z" />
    <glyph glyph-name="asterisk" unicode="*" horiz-adv-x="868" 
d="M360 846l-10 248l-223 -117l-76 133l211 133l-211 133l76 131l223 -118l10 251h152l8 -249l221 116l76 -131l-211 -133l211 -133l-76 -133l-219 117l-10 -248h-152z" />
    <glyph glyph-name="plus" unicode="+" horiz-adv-x="1130" 
d="M442 168v352h-342v223h342v349h254v-349h334v-223h-334v-352h-254z" />
    <glyph glyph-name="comma" unicode="," horiz-adv-x="559" 
d="M125 -213l49 457h260l-137 -457h-172z" />
    <glyph glyph-name="hyphen" unicode="-" horiz-adv-x="681" 
d="M92 420v223h498v-223h-498z" />
    <glyph glyph-name="period" unicode="." horiz-adv-x="628" 
d="M315 -25q-81 0 -132.5 53t-51.5 132q0 78 51.5 131t132.5 53q78 0 130.5 -53.5t52.5 -130.5q0 -78 -52.5 -131.5t-130.5 -53.5z" />
    <glyph glyph-name="slash" unicode="/" horiz-adv-x="913" 
d="M0 -10l645 1489h268l-645 -1489h-268z" />
    <glyph glyph-name="zero" unicode="0" horiz-adv-x="1161" 
d="M582 -31q-245 0 -371.5 196.5t-126.5 571.5q0 367 126 557.5t372 190.5q244 0 369.5 -190.5t125.5 -557.5q0 -378 -125.5 -573t-369.5 -195zM582 258q70 0 114 44t68 151t24 284q0 171 -24.5 273.5t-68.5 144t-113 41.5q-108 0 -159.5 -103t-51.5 -356q0 -259 52 -369
t159 -110z" />
    <glyph glyph-name="one" unicode="1" horiz-adv-x="845" 
d="M410 0v983h-347v188q134 -9 232.5 69t126.5 214h276v-1454h-288z" />
    <glyph glyph-name="two" unicode="2" horiz-adv-x="1124" 
d="M66 0q-1 63 4.5 120t14.5 102t27 87.5t33 72t41.5 61.5t44 50.5t49.5 44t48.5 37t50.5 34.5t47 32q35 24 93.5 63.5t86.5 59t66.5 50t55.5 51t30.5 47t13.5 53.5q0 104 -42.5 152t-139.5 48q-107 0 -155.5 -59t-47.5 -193h-293q-1 268 125 404.5t371 136.5
q222 0 346.5 -127t124.5 -362q0 -65 -22.5 -126.5t-55.5 -108.5t-92.5 -101t-109 -91.5t-130.5 -93.5q-28 -19 -69.5 -46.5t-61 -41.5t-42 -32t-36.5 -35l619 2v-289z" />
    <glyph glyph-name="three" unicode="3" horiz-adv-x="1120" 
d="M543 -31q-229 0 -367 131.5t-139 352.5h287q1 -115 57.5 -174.5t161.5 -59.5q111 0 168 57.5t57 169.5q0 199 -326 193l-2 215q287 -6 287 160q0 170 -184 170q-179 0 -176 -195h-289q-3 213 124 339t341 126q217 0 345 -119t128 -321q0 -68 -38.5 -132t-107.5 -114
q86 -58 136.5 -143t50.5 -179q0 -218 -139.5 -347.5t-374.5 -129.5z" />
    <glyph glyph-name="four" unicode="4" horiz-adv-x="1157" 
d="M649 0v299h-583v258l583 897h291v-876h186v-279h-186v-299h-291zM377 578h272v417z" />
    <glyph glyph-name="five" unicode="5" horiz-adv-x="1073" 
d="M528 -31q-204 0 -338 134.5t-131 336.5h295q0 -83 47 -132.5t127 -49.5q88 0 142.5 64.5t54.5 171.5q0 102 -54.5 163.5t-142.5 61.5q-118 0 -168 -107h-284l157 842h699v-289h-457l-33 -170q47 13 86 13q217 0 351.5 -142.5t134.5 -371.5q0 -233 -134.5 -379
t-351.5 -146z" />
    <glyph glyph-name="six" unicode="6" horiz-adv-x="1126" 
d="M621 -31q-261 -9 -398 183.5t-137 562.5q0 377 129 573.5t379 196.5q200 0 330.5 -125.5t126.5 -312.5h-295q0 68 -44.5 108.5t-117.5 40.5q-90 0 -142 -73.5t-71 -229.5q45 40 105.5 64t119.5 24q211 0 339 -134t128 -362q0 -226 -124.5 -368t-327.5 -148zM586 258
q23 0 35 2v-2q74 6 118.5 67.5t44.5 159.5q0 100 -48 153.5t-130 53.5q-90 0 -141 -52.5t-51 -154.5q0 -96 47 -157.5t125 -69.5z" />
    <glyph glyph-name="seven" unicode="7" horiz-adv-x="1073" 
d="M246 0q17 303 135 603t328 573h-699v278h1053v-274q-127 -121 -245.5 -312t-200.5 -427t-87 -441h-284z" />
    <glyph glyph-name="eight" unicode="8" horiz-adv-x="1148" 
d="M575 -31q-226 0 -360.5 126t-134.5 337q0 95 48 186t128 150q-65 54 -101 124.5t-36 143.5q0 206 123.5 327.5t332.5 121.5q207 0 329 -121t122 -328q0 -72 -35.5 -143t-97.5 -125q80 -61 128 -151.5t48 -184.5q0 -211 -135 -337t-359 -126zM575 854q164 0 164 182
q0 178 -164 178q-167 0 -167 -178q0 -182 167 -182zM575 219q99 0 152 54.5t53 158.5q0 102 -52.5 154.5t-152.5 52.5q-103 0 -155.5 -52.5t-52.5 -154.5q0 -104 53.5 -158.5t154.5 -54.5z" />
    <glyph glyph-name="nine" unicode="9" horiz-adv-x="1140" 
d="M549 -31q-200 0 -330.5 126t-126.5 313h295q0 -68 44.5 -109t117.5 -41q90 0 142 73.5t71 229.5q-45 -40 -105.5 -64t-119.5 -24q-211 0 -339 134t-128 362q0 226 124.5 368t327.5 148q261 9 398 -183.5t137 -562.5q0 -377 -129 -573.5t-379 -196.5zM537 762
q90 0 141 52.5t51 154.5q0 96 -47 157.5t-125 69.5q-23 0 -35 -2v2q-74 -6 -119 -67.5t-45 -159.5q0 -100 48.5 -153.5t130.5 -53.5z" />
    <glyph glyph-name="colon" unicode=":" horiz-adv-x="634" 
d="M319 627q-81 0 -132.5 52.5t-51.5 131.5q0 78 51.5 131t132.5 53q78 0 130.5 -53.5t52.5 -130.5q0 -78 -52.5 -131t-130.5 -53zM319 -25q-81 0 -132.5 53t-51.5 132q0 78 51.5 131t132.5 53q78 0 130.5 -53.5t52.5 -130.5q0 -78 -52.5 -131.5t-130.5 -53.5z" />
    <glyph glyph-name="semicolon" unicode=";" horiz-adv-x="638" 
d="M322 627q-81 0 -133 52.5t-52 131.5q0 78 52 131t133 53q77 0 129.5 -53.5t52.5 -130.5q0 -78 -52 -131t-130 -53zM143 -213l50 457h260l-138 -457h-172z" />
    <glyph glyph-name="less" unicode="&#x3c;" horiz-adv-x="1052" 
d="M987 193l-915 403v74l915 403v-229l-491 -211l491 -209v-231z" />
    <glyph glyph-name="equal" unicode="=" horiz-adv-x="1132" 
d="M121 733v225h891v-225h-891zM121 307v225h891v-225h-891z" />
    <glyph glyph-name="greater" unicode="&#x3e;" horiz-adv-x="1052" 
d="M66 193v231l489 209l-489 211v229l915 -403v-74z" />
    <glyph glyph-name="question" unicode="?" horiz-adv-x="1009" 
d="M350 440v127q0 139 162 279q76 66 108.5 109t32.5 98q0 68 -42 110.5t-109 42.5q-142 0 -197 -198l-239 106q41 170 156.5 263t285.5 93q189 0 309 -108q127 -112 127 -291q0 -106 -48 -183.5t-157 -176.5q-76 -66 -107.5 -106t-31.5 -81v-84h-250zM481 -25
q-81 0 -132.5 53t-51.5 132q0 78 51.5 131t132.5 53q78 0 130.5 -53.5t52.5 -130.5q0 -78 -52.5 -131.5t-130.5 -53.5z" />
    <glyph glyph-name="at" unicode="@" horiz-adv-x="1871" 
d="M932 -213q-170 0 -326 62.5t-276 179.5q-121 118 -185.5 273t-64.5 327q0 174 67 330t193 278q121 117 282 178.5t343 61.5q171 0 325 -58.5t273 -167.5q107 -100 172 -258t65 -319q0 -218 -88 -339.5t-246 -121.5q-136 0 -223 96q-128 -131 -319 -131q-119 0 -221 60
t-162 162t-60 221q0 183 130 313.5t313 130.5q143 0 260 -84l41 96h143v-459q0 -89 23.5 -128t74.5 -39q65 0 92.5 51t26.5 172q-1 132 -47 250.5t-121 187.5q-175 158 -446 158q-297 0 -479 -176q-94 -91 -143.5 -209.5t-49.5 -251.5q0 -276 193 -463q182 -176 460 -176
q130 0 260 45l45 -191q-144 -61 -325 -61zM924 389q88 0 150.5 68t62.5 164q0 98 -62.5 167t-150.5 68t-149.5 -70.5t-61.5 -164.5t62.5 -163.5t148.5 -68.5z" />
    <glyph glyph-name="A" unicode="A" horiz-adv-x="1447" 
d="M20 0l555 1454h297l555 -1454h-299l-139 365h-530l-140 -365h-299zM563 643h322l-160 420z" />
    <glyph glyph-name="B" unicode="B" horiz-adv-x="1253" 
d="M166 0v1452h541q162 0 276.5 -124t114.5 -298q0 -137 -78 -248q74 -62 117 -150t43 -188q0 -185 -115 -314.5t-277 -129.5h-622zM457 879h229q47 2 84 46.5t37 104.5q0 61 -30 102.5t-70 41.5h-250v-295zM457 279h331q38 0 69.5 48t31.5 117q0 60 -38.5 108t-82.5 48
h-311v-321z" />
    <glyph glyph-name="C" unicode="C" horiz-adv-x="1497" 
d="M803 -31q-195 0 -361.5 101t-264 276t-97.5 381q0 154 57.5 294.5t154.5 242t231 161.5t280 60q195 0 360 -102t264 -275l-247 -147q-63 117 -161.5 181t-215.5 64q-177 0 -304.5 -140.5t-127.5 -338.5q0 -131 58.5 -241.5t158 -174t215.5 -63.5q112 0 213 66t164 180
l245 -148q-98 -171 -264.5 -274t-357.5 -103z" />
    <glyph glyph-name="D" unicode="D" horiz-adv-x="1458" 
d="M166 0v1454h487q196 0 363 -97.5t264.5 -265t97.5 -364.5t-97.5 -364.5t-264.5 -265t-363 -97.5h-487zM457 279h196q180 0 307 131t127 317q0 121 -58 224.5t-158 164t-218 60.5h-196v-897z" />
    <glyph glyph-name="E" unicode="E" horiz-adv-x="1138" 
d="M166 0v1454h856v-278h-565v-295h508v-279h-508v-323h565v-279h-856z" />
    <glyph glyph-name="F" unicode="F" horiz-adv-x="1089" 
d="M166 0v1454h856v-278h-565v-295h508v-279h-508v-602h-291z" />
    <glyph glyph-name="G" unicode="G" horiz-adv-x="1540" 
d="M803 -31q-195 0 -361.5 101t-264 276t-97.5 381q0 154 57.5 294.5t154.5 242t231 161.5t280 60q195 0 360 -102t264 -275l-247 -147q-63 117 -161.5 181t-215.5 64q-177 0 -304.5 -140.5t-127.5 -338.5q0 -131 58.5 -241.5t158 -174t215.5 -63.5q98 0 188.5 51.5
t155.5 142.5v68h-361v278h639v-442q-98 -171 -264.5 -274t-357.5 -103z" />
    <glyph glyph-name="H" unicode="H" horiz-adv-x="1433" 
d="M166 0v1454h291v-573h520v573h291v-1454h-291v602h-520v-602h-291z" />
    <glyph glyph-name="I" unicode="I" horiz-adv-x="622" 
d="M166 0v1454h291v-1454h-291z" />
    <glyph glyph-name="J" unicode="J" horiz-adv-x="1142" 
d="M516 -31q-225 0 -350 132.5t-125 361.5v51h291v-51q3 -121 41 -168t143 -47q95 0 137 38.5t47 129.5v1038h291v-991q9 -224 -121.5 -359t-353.5 -135z" />
    <glyph glyph-name="K" unicode="K" horiz-adv-x="1404" 
d="M166 -2v1456h291v-639l489 639h365l-572 -741l641 -713h-385l-538 598v-600h-291z" />
    <glyph glyph-name="L" unicode="L" horiz-adv-x="1073" 
d="M166 0v1454h291v-1175h565v-279h-856z" />
    <glyph glyph-name="M" unicode="M" horiz-adv-x="1849" 
d="M166 0v1454h369l387 -1008l385 1008h376v-1454h-290v907l-340 -907h-262l-334 891v-891h-291z" />
    <glyph glyph-name="N" unicode="N" horiz-adv-x="1499" 
d="M166 0v1454h315l561 -913v913h291v-1454h-291l-585 971v-971h-291z" />
    <glyph glyph-name="O" unicode="O" horiz-adv-x="1609" 
d="M803 -31q-195 0 -361.5 101t-264 276t-97.5 381q0 154 57.5 294.5t154.5 242t231 161.5t280 60q196 0 363.5 -101.5t265.5 -276.5t98 -380q0 -154 -58 -295t-156 -242t-232.5 -161t-280.5 -60zM803 248q178 0 307 142t129 337q0 130 -58.5 240.5t-159 174.5t-218.5 64
q-177 0 -304.5 -140.5t-127.5 -338.5t127.5 -338.5t304.5 -140.5z" />
    <glyph glyph-name="P" unicode="P" horiz-adv-x="1216" 
d="M166 0v1454h590q166 0 285.5 -133.5t119.5 -321.5q0 -184 -118 -314t-287 -130h-299v-555h-291zM457 834h270q59 0 101 48t42 117q0 71 -42.5 124t-100.5 53h-270v-342z" />
    <glyph glyph-name="Q" unicode="Q" horiz-adv-x="1628" 
d="M1358 -125l-195 195q-170 -101 -360 -101q-195 0 -361.5 101t-264 276t-97.5 381q0 154 57.5 294.5t154.5 242t231 161.5t280 60q196 0 363.5 -101.5t265.5 -276.5t98 -380q0 -266 -164 -477l182 -182zM803 248q78 0 151 31l-159 161l188 195l178 -178q78 124 78 270
q0 130 -58.5 240.5t-159 174.5t-218.5 64q-177 0 -304.5 -140.5t-127.5 -338.5t127.5 -338.5t304.5 -140.5z" />
    <glyph glyph-name="R" unicode="R" horiz-adv-x="1294" 
d="M166 0v1454h590q166 0 285.5 -133.5t119.5 -321.5q0 -147 -78 -264t-202 -160l331 -575h-319l-322 555h-114v-555h-291zM457 834h270l4 2l2 -2q56 3 96.5 50.5t40.5 114.5q0 71 -42.5 124t-100.5 53h-270v-342z" />
    <glyph glyph-name="S" unicode="S" horiz-adv-x="1210" 
d="M637 -31q-328 0 -576 230l193 200q154 -151 383 -151q97 0 154 40t57 109q0 62 -47 106.5t-131 61.5l-172 41q-180 38 -281.5 150.5t-101.5 275.5q0 123 69 227.5t187 165t256 60.5q265 0 456 -182l-182 -209q-118 112 -272 112q-98 0 -160.5 -43.5t-62.5 -111.5
q0 -65 38.5 -106.5t110.5 -53.5l176 -43q191 -40 298.5 -154t107.5 -278q0 -192 -142 -319.5t-358 -127.5z" />
    <glyph glyph-name="T" unicode="T" horiz-adv-x="1161" 
d="M436 0v1176h-403v278h1095v-278h-401v-1176h-291z" />
    <glyph glyph-name="U" unicode="U" horiz-adv-x="1404" 
d="M700 -31q-262 0 -405 149t-143 423v913h290v-913q0 -141 67 -217t191 -76q126 0 194.5 76t68.5 217v913h290v-913q0 -274 -144 -423t-409 -149z" />
    <glyph glyph-name="V" unicode="V" horiz-adv-x="1447" 
d="M575 0l-555 1454h299l406 -1063l403 1063h299l-555 -1454h-297z" />
    <glyph glyph-name="W" unicode="W" horiz-adv-x="2281" 
d="M512 0l-487 1454h305l342 -1022l354 1022h229l355 -1022l342 1022h305l-488 -1454h-305l-323 956l-324 -956h-305z" />
    <glyph glyph-name="X" unicode="X" horiz-adv-x="1386" 
d="M33 0l485 727l-485 727h350l309 -465l309 465h351l-486 -727l486 -727h-348l-312 467l-311 -467h-348z" />
    <glyph glyph-name="Y" unicode="Y" horiz-adv-x="1384" 
d="M549 0v600l-529 854h334l336 -567l340 567h334l-524 -850v-604h-291z" />
    <glyph glyph-name="Z" unicode="Z" horiz-adv-x="1265" 
d="M80 0v223l708 953h-706v278h1096v-223l-711 -952h711v-279h-1098z" />
    <glyph glyph-name="bracketleft" unicode="[" horiz-adv-x="651" 
d="M166 -291v1897h475v-224h-238v-1450h238v-223h-475z" />
    <glyph glyph-name="backslash" unicode="\" horiz-adv-x="991" 
d="M723 -10l-723 1489h268l723 -1489h-268z" />
    <glyph glyph-name="bracketright" unicode="]" horiz-adv-x="649" 
d="M10 -289v223h236v1446h-236v224h473v-1893h-473z" />
    <glyph glyph-name="asciicircum" unicode="^" horiz-adv-x="999" 
d="M33 631l418 839h96l420 -839h-275l-194 395l-191 -395h-274z" />
    <glyph glyph-name="underscore" unicode="_" horiz-adv-x="876" 
d="M12 -209v209h852v-209h-852z" />
    <glyph glyph-name="grave" unicode="`" horiz-adv-x="569" 
d="M324 1126l-271 367v47h320l143 -414h-192z" />
    <glyph glyph-name="a" unicode="a" horiz-adv-x="1038" 
d="M451 -31q-162 0 -264.5 85t-102.5 229q0 138 104 218.5t281 80.5h174v41q0 73 -21.5 107t-91.5 34q-162 0 -260 -113l-155 166q88 102 186 149.5t229 47.5q193 0 288 -93.5t104 -297.5v-623h-164l-21 51q-124 -82 -286 -82zM449 174q191 0 194 203h-176q-79 0 -107 -24
t-28 -70q0 -56 25 -82.5t92 -26.5z" />
    <glyph glyph-name="b" unicode="b" horiz-adv-x="1198" 
d="M635 -31q-169 0 -299 97l-27 -66h-164v1485h279v-516q98 45 211 45q217 0 355 -148.5t138 -380.5q0 -227 -138 -371.5t-355 -144.5zM635 219q99 0 157 70.5t58 195.5q0 129 -58.5 204t-156.5 75q-95 0 -153 -75t-58 -204q0 -125 56.5 -195.5t154.5 -70.5z" />
    <glyph glyph-name="c" unicode="c" horiz-adv-x="1056" 
d="M561 -31q-216 0 -353.5 144t-137.5 370q0 234 137.5 382.5t353.5 148.5q150 0 265.5 -74t174.5 -203l-217 -125q-25 72 -83 112t-140 40q-98 0 -155.5 -75t-57.5 -206q0 -124 57 -194t156 -70q82 0 139.5 35.5t83.5 101.5l215 -123q-61 -123 -175 -193.5t-263 -70.5z" />
    <glyph glyph-name="d" unicode="d" horiz-adv-x="1193" 
d="M563 -31q-217 0 -355 144.5t-138 371.5q0 232 138 380.5t355 148.5q113 0 211 -45v516h279v-1485h-164l-27 66q-130 -97 -299 -97zM563 219q98 0 154.5 70.5t56.5 195.5q0 129 -58 204t-153 75q-98 0 -156.5 -75t-58.5 -204q0 -125 58 -195.5t157 -70.5z" />
    <glyph glyph-name="e" unicode="e" horiz-adv-x="1087" 
d="M545 -31q-212 0 -345.5 144t-133.5 370q0 234 133.5 382.5t345.5 148.5q210 0 343.5 -148.5t133.5 -382.5q0 -36 -6 -73h-678q15 -91 69.5 -141t137.5 -50q91 0 145 27.5t86 91.5l209 -121q-145 -248 -440 -248zM350 614h387q-52 150 -192 150q-69 0 -119.5 -39
t-75.5 -111z" />
    <glyph glyph-name="f" unicode="f" horiz-adv-x="684" 
d="M152 0v733h-123v250h123v29q-1 143 16.5 230.5t66.5 144t128 77.5t208 21q41 0 82 -6v-244h-82q-33 0 -53.5 -2.5t-37.5 -12t-25.5 -22.5t-14 -41t-7 -60t-1.5 -85v-29h221v-250h-221v-733h-280z" />
    <glyph glyph-name="g" unicode="g" horiz-adv-x="1179" 
d="M535 -422q-143 0 -267 76.5t-194 208.5l209 121q32 -72 101 -115t151 -43q99 0 160 64.5t73 187.5q-96 -47 -209 -47q-132 0 -243.5 65t-176.5 176.5t-65 243.5q0 137 65 251.5t176.5 180.5t243.5 66q164 0 295 -101l31 70h164v-879q-6 -236 -149 -381t-365 -145z
M559 281q87 0 149 68.5t62 166.5q0 104 -62 176t-149 72q-86 0 -146.5 -71.5t-60.5 -176.5q0 -99 61 -167t146 -68z" />
    <glyph glyph-name="h" unicode="h" horiz-adv-x="1202" 
d="M145 0v1485h279v-506q84 35 184 35q202 0 332.5 -135t130.5 -344v-535h-278v535q0 106 -50 167.5t-135 61.5t-134.5 -61.5t-49.5 -167.5v-535h-279z" />
    <glyph glyph-name="i" unicode="i" horiz-adv-x="600" 
d="M301 1130q-78 0 -133 54.5t-55 132.5t55 134t133 56q76 0 129 -55.5t55 -134.5q2 -73 -54 -130t-130 -57zM160 0v983h280v-983h-280z" />
    <glyph glyph-name="j" unicode="j" horiz-adv-x="585" 
d="M311 1133q-79 0 -133.5 54t-54.5 132q0 79 54.5 134.5t133.5 55.5q76 0 130.5 -56t54.5 -134q2 -72 -54 -129t-131 -57zM31 -420q-41 0 -82 6v244h82q33 0 53.5 2.5t37.5 12t25.5 22.5t14 41t7 60t1.5 85v930h281v-930q1 -143 -17 -230.5t-67 -144t-128 -77.5t-208 -21z
" />
    <glyph glyph-name="k" unicode="k" horiz-adv-x="1142" 
d="M145 -2v1487h279v-821l289 319h368l-383 -426l430 -557h-352l-352 459v-461h-279z" />
    <glyph glyph-name="l" unicode="l" horiz-adv-x="569" 
d="M145 0v1485h279v-1485h-279z" />
    <glyph glyph-name="m" unicode="m" horiz-adv-x="1849" 
d="M145 0v983h164l23 -55q119 86 276 86q193 0 324 -125q131 125 323 125q202 0 332.5 -135t130.5 -344v-535h-278v535q0 106 -50 167.5t-135 61.5t-134.5 -61.5t-49.5 -167.5v-535h-278v535q0 106 -50 167.5t-135 61.5t-134.5 -61.5t-49.5 -167.5v-535h-279z" />
    <glyph glyph-name="n" unicode="n" horiz-adv-x="1155" 
d="M115 0v983h164l22 -55q119 86 277 86q202 0 332 -135t130 -344v-535h-278v535q0 106 -49.5 167.5t-134.5 61.5t-135 -61.5t-50 -167.5v-535h-278z" />
    <glyph glyph-name="o" unicode="o" horiz-adv-x="1142" 
d="M571 -31q-221 0 -361 144t-140 370q0 234 140 382.5t361 148.5t361.5 -149t140.5 -382q0 -226 -140.5 -370t-361.5 -144zM571 219q103 0 163.5 70t60.5 194q0 131 -61 206t-163 75t-162.5 -75t-60.5 -206q0 -124 60 -194t163 -70z" />
    <glyph glyph-name="p" unicode="p" horiz-adv-x="1198" 
d="M145 -389v1372h164l27 -65q129 96 299 96q217 0 355 -144.5t138 -371.5q0 -232 -138 -380.5t-355 -148.5q-113 0 -211 45v-403h-279zM635 219q98 0 156.5 75t58.5 204q0 125 -58 195.5t-157 70.5q-98 0 -154.5 -70.5t-56.5 -195.5q0 -129 58 -204t153 -75z" />
    <glyph glyph-name="q" unicode="q" horiz-adv-x="1189" 
d="M774 -389v403q-98 -45 -211 -45q-217 0 -355 148.5t-138 380.5q0 227 138 371.5t355 144.5q170 0 299 -96l27 65h164v-1372h-279zM563 219q95 0 153 75t58 204q0 125 -56.5 195.5t-154.5 70.5q-99 0 -157 -70.5t-58 -195.5q0 -129 58.5 -204t156.5 -75z" />
    <glyph glyph-name="r" unicode="r" horiz-adv-x="794" 
d="M145 0v983h164l31 -72q141 103 309 103q35 0 105 -8v-254q-54 12 -105 12q-92 0 -158.5 -70.5t-66.5 -167.5v-526h-279z" />
    <glyph glyph-name="s" unicode="s" horiz-adv-x="970" 
d="M508 -31q-263 0 -449 230l166 153q61 -66 139 -105.5t144 -39.5q115 0 115 63q0 35 -21 54t-96 55q-65 25 -110 45.5t-96 51.5t-82.5 63t-52 76.5t-20.5 95.5q0 135 104 219t267 84q171 0 322 -127l-162 -164q-82 53 -160 53q-98 0 -98 -65q0 -23 34 -43.5t158 -69.5
q152 -58 219.5 -135t67.5 -193q0 -135 -107.5 -218t-281.5 -83z" />
    <glyph glyph-name="t" unicode="t" horiz-adv-x="778" 
d="M616 0q-129 0 -208 21t-128 77.5t-66.5 144t-16.5 230.5v260h-168v250h168v315h280v-315h221v-250h-221v-260q0 -53 1.5 -85t7 -60t14 -41t25.5 -22.5t37.5 -12t53.5 -2.5h82v-244q-40 -6 -82 -6z" />
    <glyph glyph-name="u" unicode="u" horiz-adv-x="1196" 
d="M598 -31q-202 0 -332.5 135.5t-130.5 344.5v534h279v-534q0 -106 49.5 -168t134.5 -62t134.5 62t49.5 168v534h279v-983h-164l-23 55q-119 -86 -276 -86z" />
    <glyph glyph-name="v" unicode="v" horiz-adv-x="1136" 
d="M410 0l-390 983h297l252 -659l250 659h297l-389 -983h-317z" />
    <glyph glyph-name="w" unicode="w" horiz-adv-x="1714" 
d="M371 0l-346 983h307l188 -586l205 586h264l205 -586l188 586h308l-347 -983h-272l-213 608l-215 -608h-272z" />
    <glyph glyph-name="x" unicode="x" horiz-adv-x="1046" 
d="M25 0l335 492l-335 491h333l179 -262l178 262h311l-334 -491l334 -492h-332l-178 262l-178 -262h-313z" />
    <glyph glyph-name="y" unicode="y" horiz-adv-x="1101" 
d="M125 -389v250h88q32 0 58 6.5t46.5 22.5t34.5 29t28.5 40t21 41t19.5 46t17 42l6 16l-430 879h297l267 -543l206 543h297l-354 -895l-33 -86v2q-67 -210 -198.5 -301.5t-341.5 -91.5h-29z" />
    <glyph glyph-name="z" unicode="z" horiz-adv-x="1005" 
d="M76 0v172l416 533h-408v278h846v-172l-418 -532h418v-279h-854z" />
    <glyph glyph-name="braceleft" unicode="{" horiz-adv-x="835" 
d="M647 -293q-344 0 -344 311q0 64 25 218q24 140 24 182q0 59 -29 86.5t-90 27.5h-141v254h141q119 0 119 117q0 21 -3.5 48.5t-10.5 69t-10 66.5q-2 15 -10 67.5t-11.5 85t-3.5 63.5q0 313 344 313h178v-240h-129q-137 0 -137 -143q0 -43 21 -182q24 -127 24 -199
q0 -83 -35.5 -128t-115.5 -65q80 -20 115.5 -65t35.5 -127q0 -23 -3 -51.5t-11 -77.5t-10 -66q-3 -22 -9 -63.5t-9 -70.5t-3 -52q0 -69 35.5 -105t101.5 -36h129v-238h-178z" />
    <glyph glyph-name="bar" unicode="|" horiz-adv-x="569" 
d="M166 -289v1956h237v-1956h-237z" />
    <glyph glyph-name="braceright" unicode="}" horiz-adv-x="833" 
d="M10 -293v238h127q68 0 103.5 36t35.5 105q0 36 -22 186q-3 26 -9 68t-10 73t-4 54q0 81 36 126.5t116 65.5q-80 20 -116 65t-36 128q0 57 23 199q22 121 22 182q0 143 -139 143h-127v240h178q344 0 344 -313q0 -24 -2.5 -53.5t-5.5 -50.5t-8.5 -58t-7.5 -54
q-4 -26 -10.5 -66.5t-10.5 -68.5t-4 -49q0 -60 29 -88.5t90 -28.5h139v-254h-139q-62 0 -90.5 -27t-28.5 -87q0 -36 25 -182q24 -148 24 -218q0 -311 -344 -311h-178z" />
    <glyph glyph-name="asciitilde" unicode="~" horiz-adv-x="1067" 
d="M774 412q-82 0 -164 51l-174 104q-70 45 -108 45q-34 0 -51 -21t-17 -56v-29h-203q-4 32 -4 65q0 123 70 203q72 78 168 78q84 0 166 -51l174 -107q77 -43 110 -43q30 0 48 22t18 54v31h203q4 -32 4 -66q0 -130 -70 -203q-68 -77 -170 -77z" />
    <glyph glyph-name="exclamdown" unicode="&#xa1;" horiz-adv-x="657" 
d="M330 748q-81 0 -133 52.5t-52 131.5t52 130.5t133 51.5q77 0 129.5 -52t52.5 -130t-52.5 -131t-129.5 -53zM168 -395l51 1007h217l49 -1007h-317z" />
    <glyph glyph-name="dieresis" unicode="&#xa8;" horiz-adv-x="901" 
d="M215 1180q-61 0 -110.5 47t-49.5 106q0 65 48.5 110.5t111.5 45.5q65 0 112.5 -45.5t47.5 -110.5q0 -62 -48 -107.5t-112 -45.5zM684 1180q-59 0 -109.5 47t-50.5 106q0 64 49 110t111 46q67 0 114.5 -45.5t47.5 -110.5q0 -62 -48 -107.5t-114 -45.5z" />
    <glyph glyph-name="guillemotleft" unicode="&#xab;" horiz-adv-x="1179" 
d="M442 88l-385 414v71l385 414l170 -147l-266 -301l266 -301zM950 88l-385 414v71l385 414l170 -147l-266 -301l266 -301z" />
    <glyph glyph-name="acute" unicode="&#xb4;" horiz-adv-x="569" 
d="M53 1126l142 414h321v-47l-270 -367h-193z" />
    <glyph glyph-name="periodcentered" unicode="&#xb7;" horiz-adv-x="604" 
d="M309 446q-81 0 -132.5 53t-51.5 132q0 78 51.5 131t132.5 53q78 0 130.5 -53.5t52.5 -130.5q0 -78 -52.5 -131.5t-130.5 -53.5z" />
    <glyph glyph-name="cedilla" unicode="&#xb8;" horiz-adv-x="557" 
d="M197 -379q-84 0 -146 21v174q50 -4 68 -4h51q56 0 89.5 28.5t33.5 83.5q0 51 -27 115l105 47q133 -73 133 -215q0 -105 -80 -176q-80 -74 -227 -74z" />
    <glyph glyph-name="guillemotright" unicode="&#xbb;" horiz-adv-x="1179" 
d="M229 88l-170 150l267 301l-267 301l170 147l385 -414v-71zM737 88l-170 150l267 301l-267 301l170 147l385 -414v-71z" />
    <glyph glyph-name="questiondown" unicode="&#xbf;" horiz-adv-x="935" 
d="M485 743q-76 0 -128 53.5t-52 131.5t51.5 130t128.5 52q81 0 134 -52t53 -130q0 -79 -53 -132t-134 -53zM465 -422q-183 0 -311 109q-60 53 -92.5 127.5t-32.5 160.5q0 75 27 139.5t66.5 111.5t110.5 112q76 68 107 106t31 78v86h252v-127q0 -141 -162 -278
q-78 -66 -111 -109t-33 -98q0 -68 42.5 -111t111.5 -43q142 0 197 199l239 -107q-41 -170 -156.5 -263t-285.5 -93z" />
    <glyph glyph-name="Agrave" unicode="&#xc0;" horiz-adv-x="1447" 
d="M664 1552l-271 367v47h320l143 -414h-192zM20 0l555 1454h297l555 -1454h-299l-139 365h-530l-140 -365h-299zM563 643h322l-160 420z" />
    <glyph glyph-name="Aacute" unicode="&#xc1;" horiz-adv-x="1447" 
d="M549 1538l141 414h322v-47l-271 -367h-192zM20 0l555 1454h297l555 -1454h-299l-139 365h-530l-140 -365h-299zM563 643h322l-160 420z" />
    <glyph glyph-name="Acircumflex" unicode="&#xc2;" horiz-adv-x="1447" 
d="M367 1505l266 414h174l264 -414h-192l-160 181l-158 -181h-194zM20 0l555 1454h297l555 -1454h-299l-139 365h-530l-140 -365h-299zM563 643h322l-160 420z" />
    <glyph glyph-name="Adieresis" unicode="&#xc4;" horiz-adv-x="1447" 
d="M485 1522q-61 0 -110 47t-49 106q0 65 48 110.5t111 45.5q65 0 112.5 -45.5t47.5 -110.5q0 -62 -48 -107.5t-112 -45.5zM954 1522q-59 0 -109 47t-50 106q0 64 48.5 110t110.5 46q67 0 114.5 -45.5t47.5 -110.5q0 -62 -48 -107.5t-114 -45.5zM20 0l555 1454h297
l555 -1454h-299l-139 365h-530l-140 -365h-299zM563 643h322l-160 420z" />
    <glyph glyph-name="AE" unicode="&#xc6;" horiz-adv-x="1830" 
d="M16 0l555 1452h1143v-278h-567v-295h510v-279h-510v-321h567v-279h-856v365h-409l-140 -365h-293zM555 643h303v531h-102z" />
    <glyph glyph-name="Ccedilla" unicode="&#xc7;" horiz-adv-x="1497" 
d="M803 248q112 0 213 66t164 180l245 -148q-71 -125 -181.5 -215.5t-242.5 -130.5q37 -60 37 -131q0 -105 -80 -176q-80 -74 -227 -74q-83 0 -145 21v174q50 -4 67 -4h52q56 0 89 28.5t33 83.5q0 19 -4 47h-20q-195 0 -361.5 101t-264 276t-97.5 381q0 154 57.5 294.5
t154.5 242t231 161.5t280 60q195 0 360 -102t264 -275l-247 -147q-63 117 -161.5 181t-215.5 64q-177 0 -304.5 -140.5t-127.5 -338.5q0 -131 58.5 -241.5t158 -174t215.5 -63.5z" />
    <glyph glyph-name="Egrave" unicode="&#xc8;" horiz-adv-x="1138" 
d="M569 1546l-270 367v47h319l144 -414h-193zM166 0v1454h856v-278h-565v-295h508v-279h-508v-323h565v-279h-856z" />
    <glyph glyph-name="Eacute" unicode="&#xc9;" horiz-adv-x="1138" 
d="M471 1546l141 414h322v-47l-270 -367h-193zM166 0v1454h856v-278h-565v-295h508v-279h-508v-323h565v-279h-856z" />
    <glyph glyph-name="Ecircumflex" unicode="&#xca;" horiz-adv-x="1138" 
d="M248 1548l266 414h174l264 -414h-192l-160 181l-158 -181h-194zM166 0v1454h856v-278h-565v-295h508v-279h-508v-323h565v-279h-856z" />
    <glyph glyph-name="Edieresis" unicode="&#xcb;" horiz-adv-x="1138" 
d="M346 1532q-61 0 -110.5 47t-49.5 107q0 65 48.5 110t111.5 45q65 0 112.5 -45t47.5 -110q0 -62 -48 -108t-112 -46zM815 1532q-59 0 -109.5 47.5t-50.5 106.5q0 64 49 109.5t111 45.5q67 0 114.5 -45t47.5 -110q0 -62 -48 -108t-114 -46zM166 0v1454h856v-278h-565v-295
h508v-279h-508v-323h565v-279h-856z" />
    <glyph glyph-name="Icircumflex" unicode="&#xce;" horiz-adv-x="555" 
d="M-70 1542l267 414h174l264 -414h-193l-159 180l-158 -180h-195zM137 0v1454h291v-1454h-291z" />
    <glyph glyph-name="Idieresis" unicode="&#xcf;" horiz-adv-x="735" 
d="M135 1524q-61 0 -110.5 47t-49.5 106q0 65 48.5 110.5t111.5 45.5q65 0 112.5 -45.5t47.5 -110.5q0 -62 -48 -107.5t-112 -45.5zM604 1524q-59 0 -109.5 47t-50.5 106q0 64 49 110t111 46q67 0 114.5 -45.5t47.5 -110.5q0 -62 -48 -107.5t-114 -45.5zM223 0v1454h291
v-1454h-291z" />
    <glyph glyph-name="Ocircumflex" unicode="&#xd4;" horiz-adv-x="1609" 
d="M453 1534l266 414h174l264 -414h-192l-160 180l-158 -180h-194zM803 -31q-195 0 -361.5 101t-264 276t-97.5 381q0 154 57.5 294.5t154.5 242t231 161.5t280 60q196 0 363.5 -101.5t265.5 -276.5t98 -380q0 -154 -58 -295t-156 -242t-232.5 -161t-280.5 -60zM803 248
q178 0 307 142t129 337q0 130 -58.5 240.5t-159 174.5t-218.5 64q-177 0 -304.5 -140.5t-127.5 -338.5t127.5 -338.5t304.5 -140.5z" />
    <glyph glyph-name="Odieresis" unicode="&#xd6;" horiz-adv-x="1609" 
d="M571 1522q-61 0 -110 47t-49 106q0 65 48 110.5t111 45.5q65 0 112.5 -45.5t47.5 -110.5q0 -62 -48 -107.5t-112 -45.5zM1040 1522q-59 0 -109 47t-50 106q0 64 48.5 110t110.5 46q67 0 114.5 -45.5t47.5 -110.5q0 -62 -48 -107.5t-114 -45.5zM803 -31q-195 0 -361.5 101
t-264 276t-97.5 381q0 154 57.5 294.5t154.5 242t231 161.5t280 60q196 0 363.5 -101.5t265.5 -276.5t98 -380q0 -154 -58 -295t-156 -242t-232.5 -161t-280.5 -60zM803 248q178 0 307 142t129 337q0 130 -58.5 240.5t-159 174.5t-218.5 64q-177 0 -304.5 -140.5
t-127.5 -338.5t127.5 -338.5t304.5 -140.5z" />
    <glyph glyph-name="multiply" unicode="&#xd7;" horiz-adv-x="1050" 
d="M233 188l-157 160l291 289l-291 291l157 157l293 -290l291 290l158 -157l-291 -291l291 -289l-158 -160l-293 289z" />
    <glyph glyph-name="Ugrave" unicode="&#xd9;" horiz-adv-x="1404" 
d="M616 1550l-270 367v47h320l143 -414h-193zM700 -31q-262 0 -405 149t-143 423v913h290v-913q0 -141 67 -217t191 -76q126 0 194.5 76t68.5 217v913h290v-913q0 -274 -144 -423t-409 -149z" />
    <glyph glyph-name="Uacute" unicode="&#xda;" horiz-adv-x="1404" 
d="M537 1559l141 413h321v-47l-270 -366h-192zM700 -31q-262 0 -405 149t-143 423v913h290v-913q0 -141 67 -217t191 -76q126 0 194.5 76t68.5 217v913h290v-913q0 -274 -144 -423t-409 -149z" />
    <glyph glyph-name="Ucircumflex" unicode="&#xdb;" horiz-adv-x="1404" 
d="M350 1544l266 414h175l264 -414h-193l-160 180l-157 -180h-195zM700 -31q-262 0 -405 149t-143 423v913h290v-913q0 -141 67 -217t191 -76q126 0 194.5 76t68.5 217v913h290v-913q0 -274 -144 -423t-409 -149z" />
    <glyph glyph-name="Udieresis" unicode="&#xdc;" horiz-adv-x="1404" 
d="M469 1548q-61 0 -110.5 47t-49.5 107q0 65 48.5 110.5t111.5 45.5q65 0 112.5 -45.5t47.5 -110.5q0 -62 -48 -108t-112 -46zM938 1548q-59 0 -109.5 47.5t-50.5 106.5q0 64 49 110t111 46q67 0 114.5 -45.5t47.5 -110.5q0 -62 -48 -108t-114 -46zM700 -31
q-262 0 -405 149t-143 423v913h290v-913q0 -141 67 -217t191 -76q126 0 194.5 76t68.5 217v913h290v-913q0 -274 -144 -423t-409 -149z" />
    <glyph glyph-name="agrave" unicode="&#xe0;" horiz-adv-x="1038" 
d="M395 1126l-270 367v47h319l144 -414h-193zM451 -31q-162 0 -264.5 85t-102.5 229q0 138 104 218.5t281 80.5h174v41q0 73 -21.5 107t-91.5 34q-162 0 -260 -113l-155 166q88 102 186 149.5t229 47.5q193 0 288 -93.5t104 -297.5v-623h-164l-21 51q-124 -82 -286 -82z
M449 174q191 0 194 203h-176q-79 0 -107 -24t-28 -70q0 -56 25 -82.5t92 -26.5z" />
    <glyph glyph-name="aacute" unicode="&#xe1;" horiz-adv-x="1038" 
d="M385 1126l141 414h322v-47l-270 -367h-193zM451 -31q-162 0 -264.5 85t-102.5 229q0 138 104 218.5t281 80.5h174v41q0 73 -21.5 107t-91.5 34q-162 0 -260 -113l-155 166q88 102 186 149.5t229 47.5q193 0 288 -93.5t104 -297.5v-623h-164l-21 51q-124 -82 -286 -82z
M449 174q191 0 194 203h-176q-79 0 -107 -24t-28 -70q0 -56 25 -82.5t92 -26.5z" />
    <glyph glyph-name="acircumflex" unicode="&#xe2;" horiz-adv-x="1038" 
d="M164 1126l266 414h174l264 -414h-192l-160 181l-158 -181h-194zM451 -31q-162 0 -264.5 85t-102.5 229q0 138 104 218.5t281 80.5h174v41q0 73 -21.5 107t-91.5 34q-162 0 -260 -113l-155 166q88 102 186 149.5t229 47.5q193 0 288 -93.5t104 -297.5v-623h-164l-21 51
q-124 -82 -286 -82zM449 174q191 0 194 203h-176q-79 0 -107 -24t-28 -70q0 -56 25 -82.5t92 -26.5z" />
    <glyph glyph-name="adieresis" unicode="&#xe4;" horiz-adv-x="1038" 
d="M283 1180q-61 0 -110.5 47t-49.5 106q0 65 48.5 110.5t111.5 45.5q65 0 112 -45.5t47 -110.5q0 -62 -47.5 -107.5t-111.5 -45.5zM752 1180q-59 0 -109.5 47t-50.5 106q0 64 49 110t111 46q66 0 113.5 -45t47.5 -111q0 -62 -47.5 -107.5t-113.5 -45.5zM451 -31
q-162 0 -264.5 85t-102.5 229q0 138 104 218.5t281 80.5h174v41q0 73 -21.5 107t-91.5 34q-162 0 -260 -113l-155 166q88 102 186 149.5t229 47.5q193 0 288 -93.5t104 -297.5v-623h-164l-21 51q-124 -82 -286 -82zM449 174q191 0 194 203h-176q-79 0 -107 -24t-28 -70
q0 -56 25 -82.5t92 -26.5z" />
    <glyph glyph-name="ae" unicode="&#xe6;" horiz-adv-x="1681" 
d="M1595 410h-673v-17q19 -83 71.5 -128.5t130.5 -45.5q91 0 145.5 27.5t86.5 91.5l209 -121q-145 -248 -441 -248q-200 0 -329 129q-132 -129 -344 -129q-162 0 -264.5 85t-102.5 229q0 138 104 218.5t281 80.5h174v41q0 73 -21.5 107t-91.5 34q-162 0 -260 -113l-155 166
q88 102 186 149.5t229 47.5q200 0 297 -103q125 103 297 103q211 0 344.5 -149t133.5 -382q0 -29 -7 -73zM1124 764q-69 0 -119 -39t-75 -111h387q-25 72 -74.5 111t-118.5 39zM451 207q150 0 194 170h-176q-79 0 -107 -24t-28 -70q0 -39 25 -57.5t92 -18.5z" />
    <glyph glyph-name="ccedilla" unicode="&#xe7;" horiz-adv-x="1056" 
d="M561 219q82 0 139.5 35.5t83.5 101.5l215 -123q-84 -168 -249 -229q38 -56 38 -133q0 -106 -79 -176q-80 -74 -228 -74q-83 0 -145 21v174q50 -4 67 -4h52q56 0 89.5 28.5t33.5 83.5q0 10 -5 45h-12q-216 0 -353.5 144t-137.5 370q0 234 137.5 382.5t353.5 148.5
q150 0 265.5 -74t174.5 -203l-217 -125q-25 72 -83 112t-140 40q-98 0 -155.5 -75t-57.5 -206q0 -124 57 -194t156 -70z" />
    <glyph glyph-name="egrave" unicode="&#xe8;" horiz-adv-x="1095" 
d="M432 1126l-270 367v47h319l144 -414h-193zM545 -31q-212 0 -345.5 144t-133.5 370q0 234 133.5 382.5t345.5 148.5q210 0 343.5 -148.5t133.5 -382.5q0 -36 -6 -73h-678q15 -91 69.5 -141t137.5 -50q91 0 145 27.5t86 91.5l209 -121q-145 -248 -440 -248zM350 614h387
q-52 150 -192 150q-69 0 -119.5 -39t-75.5 -111z" />
    <glyph glyph-name="eacute" unicode="&#xe9;" horiz-adv-x="1095" 
d="M453 1126l141 414h321v-47l-270 -367h-192zM545 -31q-212 0 -345.5 144t-133.5 370q0 234 133.5 382.5t345.5 148.5q210 0 343.5 -148.5t133.5 -382.5q0 -36 -6 -73h-678q15 -91 69.5 -141t137.5 -50q91 0 145 27.5t86 91.5l209 -121q-145 -248 -440 -248zM350 614h387
q-52 150 -192 150q-69 0 -119.5 -39t-75.5 -111z" />
    <glyph glyph-name="ecircumflex" unicode="&#xea;" horiz-adv-x="1095" 
d="M197 1126l266 414h174l264 -414h-192l-160 181l-158 -181h-194zM545 -31q-212 0 -345.5 144t-133.5 370q0 234 133.5 382.5t345.5 148.5q210 0 343.5 -148.5t133.5 -382.5q0 -36 -6 -73h-678q15 -91 69.5 -141t137.5 -50q91 0 145 27.5t86 91.5l209 -121
q-145 -248 -440 -248zM350 614h387q-52 150 -192 150q-69 0 -119.5 -39t-75.5 -111z" />
    <glyph glyph-name="edieresis" unicode="&#xeb;" horiz-adv-x="1095" 
d="M305 1180q-61 0 -110.5 47t-49.5 106q0 65 48.5 110.5t111.5 45.5q65 0 112.5 -45.5t47.5 -110.5q0 -62 -48 -107.5t-112 -45.5zM774 1180q-59 0 -109.5 47t-50.5 106q0 64 49 110t111 46q67 0 114.5 -45.5t47.5 -110.5q0 -62 -48 -107.5t-114 -45.5zM545 -31
q-212 0 -345.5 144t-133.5 370q0 234 133.5 382.5t345.5 148.5q210 0 343.5 -148.5t133.5 -382.5q0 -36 -6 -73h-678q15 -91 69.5 -141t137.5 -50q91 0 145 27.5t86 91.5l209 -121q-145 -248 -440 -248zM350 614h387q-52 150 -192 150q-69 0 -119.5 -39t-75.5 -111z" />
    <glyph glyph-name="icircumflex" unicode="&#xee;" horiz-adv-x="552" 
d="M-78 1126l266 414h174l265 -414h-193l-160 181l-157 -181h-195zM135 0v983h279v-983h-279z" />
    <glyph glyph-name="idieresis" unicode="&#xef;" horiz-adv-x="706" 
d="M117 1180q-61 0 -110.5 47t-49.5 106q0 65 48.5 110.5t111.5 45.5q65 0 112 -45.5t47 -110.5q0 -62 -47.5 -107.5t-111.5 -45.5zM586 1180q-59 0 -109.5 47t-50.5 106q0 64 49 110t111 46q67 0 114.5 -45.5t47.5 -110.5q0 -62 -48 -107.5t-114 -45.5zM211 0v983h278v-983
h-278z" />
    <glyph glyph-name="ocircumflex" unicode="&#xf4;" horiz-adv-x="1142" 
d="M219 1126l266 414h174l265 -414h-193l-160 181l-157 -181h-195zM571 -31q-221 0 -361 144t-140 370q0 234 140 382.5t361 148.5t361.5 -149t140.5 -382q0 -226 -140.5 -370t-361.5 -144zM571 219q103 0 163.5 70t60.5 194q0 131 -61 206t-163 75t-162.5 -75t-60.5 -206
q0 -124 60 -194t163 -70z" />
    <glyph glyph-name="odieresis" unicode="&#xf6;" horiz-adv-x="1142" 
d="M336 1180q-61 0 -110.5 47t-49.5 106q0 65 48.5 110.5t111.5 45.5q65 0 112.5 -45.5t47.5 -110.5q0 -62 -48 -107.5t-112 -45.5zM805 1180q-59 0 -109.5 47t-50.5 106q0 64 49 110t111 46q67 0 114.5 -45.5t47.5 -110.5q0 -62 -48 -107.5t-114 -45.5zM571 -31
q-221 0 -361 144t-140 370q0 234 140 382.5t361 148.5t361.5 -149t140.5 -382q0 -226 -140.5 -370t-361.5 -144zM571 219q103 0 163.5 70t60.5 194q0 131 -61 206t-163 75t-162.5 -75t-60.5 -206q0 -124 60 -194t163 -70z" />
    <glyph glyph-name="divide" unicode="&#xf7;" horiz-adv-x="1130" 
d="M563 850q-67 0 -113.5 44.5t-46.5 109.5q0 63 47 106t113 43q67 0 114.5 -43.5t47.5 -105.5q0 -65 -47.5 -109.5t-114.5 -44.5zM100 520v225h930v-225h-930zM563 109q-66 0 -113 44t-47 107q0 65 46.5 108.5t113.5 43.5t114.5 -43.5t47.5 -108.5q0 -63 -48 -107t-114 -44
z" />
    <glyph glyph-name="ugrave" unicode="&#xf9;" horiz-adv-x="1124" 
d="M485 1126l-270 367v47h320l143 -414h-193zM598 -31q-202 0 -332.5 135.5t-130.5 344.5v534h279v-534q0 -106 49.5 -168t134.5 -62t134.5 62t49.5 168v534h279v-983h-164l-23 55q-119 -86 -276 -86z" />
    <glyph glyph-name="uacute" unicode="&#xfa;" horiz-adv-x="1124" 
d="M483 1126l142 414h321v-47l-270 -367h-193zM598 -31q-202 0 -332.5 135.5t-130.5 344.5v534h279v-534q0 -106 49.5 -168t134.5 -62t134.5 62t49.5 168v534h279v-983h-164l-23 55q-119 -86 -276 -86z" />
    <glyph glyph-name="ucircumflex" unicode="&#xfb;" horiz-adv-x="1124" 
d="M211 1126l266 414h174l264 -414h-192l-160 181l-157 -181h-195zM598 -31q-202 0 -332.5 135.5t-130.5 344.5v534h279v-534q0 -106 49.5 -168t134.5 -62t134.5 62t49.5 168v534h279v-983h-164l-23 55q-119 -86 -276 -86z" />
    <glyph glyph-name="udieresis" unicode="&#xfc;" horiz-adv-x="1124" 
d="M330 1180q-61 0 -110.5 47t-49.5 106q0 65 48.5 110.5t111.5 45.5q65 0 112 -45.5t47 -110.5q0 -62 -47.5 -107.5t-111.5 -45.5zM799 1180q-59 0 -109.5 47t-50.5 106q0 64 49 110t111 46q67 0 114.5 -45.5t47.5 -110.5q0 -62 -48 -107.5t-114 -45.5zM598 -31
q-202 0 -332.5 135.5t-130.5 344.5v534h279v-534q0 -106 49.5 -168t134.5 -62t134.5 62t49.5 168v534h279v-983h-164l-23 55q-119 -86 -276 -86z" />
    <glyph glyph-name="ydieresis" unicode="&#xff;" horiz-adv-x="1101" 
d="M307 1180q-61 0 -110.5 47t-49.5 106q0 65 48.5 110.5t111.5 45.5q65 0 112.5 -45.5t47.5 -110.5q0 -62 -48 -107.5t-112 -45.5zM776 1180q-59 0 -109.5 47t-50.5 106q0 64 49 110t111 46q67 0 114.5 -45.5t47.5 -110.5q0 -62 -48 -107.5t-114 -45.5zM125 -389v250h88
q32 0 58 6.5t46.5 22.5t34.5 29t28.5 40t21 41t19.5 46t17 42l6 16l-430 879h297l267 -543l206 543h297l-354 -895l-33 -86v2q-67 -210 -198.5 -301.5t-341.5 -91.5h-29z" />
    <glyph glyph-name="Gbreve" unicode="&#x11e;" horiz-adv-x="1536" 
d="M750 1546q-149 0 -248 99q-94 91 -94 243h208q0 -65 37.5 -104t96.5 -39q58 0 93.5 39t35.5 104h211q0 -149 -97 -243q-99 -99 -243 -99zM795 -31q-195 0 -361.5 101t-264 276t-97.5 381q0 154 57.5 294.5t154.5 242t231 161.5t280 60q195 0 360 -102t264 -275l-248 -147
q-63 117 -161 181t-215 64q-177 0 -305 -141t-128 -338q0 -98 34.5 -187t93 -152.5t138.5 -101.5t167 -38q98 0 188.5 51.5t155.5 142.5v68h-361v278h639v-442q-98 -171 -264.5 -274t-357.5 -103z" />
    <glyph glyph-name="gbreve" unicode="&#x11f;" horiz-adv-x="1183" 
d="M567 1135q-150 0 -248 98q-94 91 -94 244h209q0 -65 37 -104.5t96 -39.5q58 0 93.5 39.5t35.5 104.5h211q0 -151 -96 -244q-98 -98 -244 -98zM541 -422q-143 0 -267 76.5t-194 208.5l209 121q32 -72 101 -115t151 -43q99 0 160 64.5t73 187.5q-96 -47 -209 -47
q-132 0 -243.5 65t-176.5 176.5t-65 243.5q0 137 65 251.5t176.5 180.5t243.5 66q164 0 295 -101l31 70h164v-879q-6 -236 -149 -381t-365 -145zM565 281q87 0 149 68.5t62 166.5q0 104 -62 176t-149 72q-86 0 -146.5 -71.5t-60.5 -176.5q0 -99 61 -167t146 -68z" />
    <glyph glyph-name="Idotaccent" unicode="&#x130;" horiz-adv-x="604" 
d="M303 1526q-71 0 -121.5 47t-50.5 117t50.5 117.5t121.5 47.5q70 0 120 -47.5t50 -117.5t-50 -117t-120 -47zM156 0v1454h290v-1454h-290z" />
    <glyph glyph-name="dotlessi" unicode="&#x131;" horiz-adv-x="585" 
d="M154 0v983h278v-983h-278z" />
    <glyph glyph-name="OE" unicode="&#x152;" horiz-adv-x="2211" 
d="M2095 1176h-565v-295h508v-279h-508v-323h565v-279h-856v121q-199 -152 -436 -152q-195 0 -361.5 101t-264 276t-97.5 381q0 154 57.5 294.5t154.5 242t231 161.5t280 60q240 0 436 -152v121h856v-278zM803 248q178 0 307 142t129 337q0 130 -58.5 240.5t-159 174.5
t-218.5 64q-177 0 -304.5 -140.5t-127.5 -338.5t127.5 -338.5t304.5 -140.5z" />
    <glyph glyph-name="oe" unicode="&#x153;" horiz-adv-x="1822" 
d="M1743 410h-674q0 -2 -1 -6.5t-1 -6.5q19 -85 72.5 -131.5t132.5 -46.5q91 0 145 27.5t86 91.5l209 -121q-145 -248 -440 -248q-209 0 -342 142q-139 -142 -359 -142q-221 0 -361 144t-140 370q0 234 140 382.5t361 148.5q219 0 359 -146q133 146 342 146
q210 0 343.5 -148.5t133.5 -382.5q0 -36 -6 -73zM571 219q96 0 155.5 62t66.5 170v32v35q-7 116 -66.5 181t-155.5 65q-102 0 -162.5 -75t-60.5 -206q0 -124 60 -194t163 -70zM1272 764q-69 0 -119.5 -39t-75.5 -111h387q-52 150 -192 150z" />
    <glyph glyph-name="Scedilla" unicode="&#x15e;" horiz-adv-x="1185" 
d="M1126 416q0 -154 -94 -269t-250 -157q31 -54 31 -119q0 -105 -80 -176q-80 -74 -227 -74q-84 0 -146 21v174q50 -4 68 -4h51q56 0 89.5 28.5t33.5 83.5q0 17 -4 45q-309 9 -547 230l193 200q154 -151 383 -151q97 0 154 40t57 109q0 62 -47.5 106.5t-131.5 61.5l-172 41
q-180 38 -281.5 150.5t-101.5 275.5q0 123 69 227.5t187 165t256 60.5q266 0 457 -182l-182 -209q-118 112 -273 112q-98 0 -160.5 -43.5t-62.5 -111.5q0 -65 39 -106.5t111 -53.5l176 -43q191 -40 298 -154t107 -278z" />
    <glyph glyph-name="scedilla" unicode="&#x15f;" horiz-adv-x="970" 
d="M891 270q0 -95 -56.5 -166.5t-156.5 -107.5q35 -53 35 -125q0 -105 -80 -176q-80 -74 -227 -74q-84 0 -146 21v174q50 -4 68 -4h51q56 0 89.5 28.5t33.5 83.5q0 17 -4 45q-258 3 -445 230l166 153q61 -66 139 -105.5t144 -39.5q114 0 114 63q0 35 -21 54t-95 55
q-65 25 -110 45.5t-96 51.5t-82.5 63t-52 76.5t-20.5 95.5q0 135 104 219t267 84q170 0 321 -127l-161 -164q-82 53 -160 53q-98 0 -98 -65q0 -23 34 -43.5t158 -69.5q152 -58 219.5 -135t67.5 -193z" />
    <glyph glyph-name="Ydieresis" unicode="&#x178;" horiz-adv-x="1384" 
d="M459 1550q-61 0 -110.5 47t-49.5 107q0 65 48.5 110.5t111.5 45.5q65 0 112 -45.5t47 -110.5q0 -62 -47.5 -108t-111.5 -46zM928 1550q-59 0 -109.5 47.5t-50.5 106.5q0 64 49 110t111 46q67 0 114.5 -45.5t47.5 -110.5q0 -62 -48 -108t-114 -46zM549 0v600l-529 854h334
l336 -567l340 567h334l-524 -850v-604h-291z" />
    <glyph glyph-name="circumflex" unicode="&#x2c6;" horiz-adv-x="811" 
d="M53 1126l266 414h175l264 -414h-193l-159 181l-158 -181h-195z" />
    <glyph glyph-name="breve" unicode="&#x2d8;" horiz-adv-x="788" 
d="M395 1135q-150 0 -248 98q-94 91 -94 244h209q0 -65 37 -104.5t96 -39.5q58 0 93.5 39.5t35.5 104.5h211q0 -151 -96 -244q-98 -98 -244 -98z" />
    <glyph glyph-name="dotaccent" unicode="&#x2d9;" horiz-adv-x="407" 
d="M205 1169q-71 0 -121.5 47t-50.5 117t50.5 118t121.5 48q70 0 120 -48t50 -118t-50 -117t-120 -47z" />
    <glyph glyph-name="uni060C" unicode="&#x60c;" horiz-adv-x="567" 
d="M123 -33l137 457h172l-49 -457h-260z" />
    <glyph glyph-name="uni0615" unicode="&#x615;" 
d="M41 1120v125h35v336h125v-133q62 41 133 41q85 0 129.5 -47.5t44.5 -138.5q0 -51 -14 -87t-32.5 -54.5t-51 -28t-55.5 -11.5t-60 -2h-254zM201 1245h94q63 0 73.5 7.5t10.5 50.5q0 38 -8.5 49.5t-36.5 11.5q-29 0 -58.5 -16.5t-74.5 -57.5v-45z" />
    <glyph glyph-name="uni061B" unicode="&#x61b;" horiz-adv-x="608" 
d="M494 1063l-43 -410h-234l123 410h154zM326 262q72 0 119 -47.5t47 -118.5q0 -70 -47.5 -118t-118.5 -48q-70 0 -117 48t-47 118q0 71 47 118.5t117 47.5z" />
    <glyph glyph-name="uni061F" unicode="&#x61f;" horiz-adv-x="952" 
d="M387 440v84q0 41 -30 78t-109 109q-109 99 -157 176.5t-48 183.5q0 179 127 291q120 108 309 108q170 0 286 -93t157 -263l-240 -106q-55 198 -197 198q-67 0 -109 -42.5t-42 -110.5q0 -55 32.5 -98t108.5 -109q162 -140 162 -279v-127h-250zM506 -25q-78 0 -130 53.5
t-52 131.5q0 77 52.5 130.5t129.5 53.5q81 0 132.5 -53t51.5 -131q0 -79 -51.5 -132t-132.5 -53z" />
    <glyph glyph-name="uni0621" unicode="&#x621;" horiz-adv-x="976" 
d="M203 -39l-140 236q64 34 144 61q-41 96 -41 195q0 184 105.5 291.5t287.5 107.5q88 0 217 -35l-67 -268q-88 29 -134 29q-58 0 -94.5 -34.5t-36.5 -90.5q0 -81 74 -174h291v-279h-473q-11 0 -34 -6.5t-56 -18t-43 -14.5z" />
    <glyph glyph-name="uni0622" unicode="&#x622;" horiz-adv-x="585" 
d="M395 1362q-49 0 -122.5 32.5t-84.5 32.5q-32 0 -32 -51h-127q-5 78 39 129t116 51q12 0 23.5 -2t25.5 -7t22.5 -8t27.5 -11.5t26 -11.5q52 -25 90 -25q44 0 67.5 9t90.5 48v-139q-38 -26 -74 -36.5t-88 -10.5zM223 0v1239h279v-1239h-279z" />
    <glyph glyph-name="uni0623" unicode="&#x623;" horiz-adv-x="581" 
d="M119 1305l-70 112q65 29 78 33q-4 24 -4 39q0 94 53.5 148.5t145.5 54.5q42 0 118 -27l-43 -131q-48 25 -75 25q-31 0 -48.5 -19t-17.5 -51q0 -7 4 -27h191v-135h-254q-9 0 -39.5 -10.5t-38.5 -11.5zM152 0v1239h278v-1239h-278z" />
    <glyph glyph-name="uni0624" unicode="&#x624;" horiz-adv-x="1091" 
d="M373 1106l-70 113q57 25 78 32q-4 24 -4 39q0 94 53 148.5t145 54.5q43 0 119 -27l-43 -131q-48 25 -76 25q-31 0 -48 -19t-17 -51q0 -6 4 -26h191v-136h-254q-9 0 -39.5 -10t-38.5 -12zM440 -459q-222 0 -393 103l135 231q139 -68 262 -68q112 0 182 51t85 142h-179
q-204 0 -334 140t-130 358q0 214 130 349.5t334 135.5q130 0 238 -63l27 63h196v-922q0 -244 -146.5 -382t-406.5 -138zM532 279h183v219q0 111 -49.5 173t-133.5 62q-87 0 -136.5 -61.5t-49.5 -173.5q0 -102 50.5 -160.5t135.5 -58.5z" />
    <glyph glyph-name="uni0625" unicode="&#x625;" horiz-adv-x="585" 
d="M154 0v1475h278v-1475h-278zM125 -512l-70 113q57 25 78 32q-4 24 -4 39q0 94 53.5 148.5t145.5 54.5q42 0 118 -27l-43 -131q-48 25 -75 25q-31 0 -48.5 -19t-17.5 -51q0 -6 4 -26h191v-135h-254q-9 0 -39.5 -10.5t-38.5 -12.5z" />
    <glyph glyph-name="uni0626" unicode="&#x626;" horiz-adv-x="1785" 
d="M94 762l-69 112q67 30 77 33q-4 24 -4 39q0 94 53.5 148.5t145.5 54.5q43 0 119 -27l-43 -131q-48 25 -76 25q-31 0 -48.5 -19t-17.5 -51q0 -1 5 -26h190v-136h-254q-9 0 -39.5 -10t-38.5 -12zM666 -389q-310 0 -452 170t-142 541q0 73 13.5 181.5t31.5 182.5l270 -35
q-14 -70 -24.5 -171t-12.5 -167q-6 -225 68.5 -324.5t245.5 -99.5q154 0 215 86t61 304v188q0 109 21.5 180t71.5 115t124.5 62t188.5 18q188 0 362 -23l2 -819h-278v563h-86q-80 0 -102 -24t-25 -119v-141q0 -358 -128 -513t-425 -155z" />
    <glyph glyph-name="uni0627" unicode="&#x627;" horiz-adv-x="724" 
d="M223 0v1475h279v-1475h-279z" />
    <glyph glyph-name="uni0628" unicode="&#x628;" horiz-adv-x="1767" 
d="M666 0q-233 0 -384 158.5t-151 404.5q0 125 42.5 234.5t121.5 189.5l178 -207q-63 -101 -63 -217q0 -130 70 -207t186 -77h432q147 0 197.5 54.5t54.5 219.5v430h278v-430q-2 -115 -12 -195.5t-35 -144.5t-62.5 -103t-98 -64.5t-137.5 -35.5t-185 -10h-432zM942 -444
q-57 0 -96 40t-39 99q0 56 39 95.5t96 39.5q56 0 95.5 -40t39.5 -95q0 -59 -39 -99t-96 -40z" />
    <glyph glyph-name="uni0629" unicode="&#x629;" horiz-adv-x="1157" 
d="M418 1133q-57 0 -96 40t-39 99q0 56 39 95.5t96 39.5q56 0 95.5 -40t39.5 -95q0 -59 -39 -99t-96 -40zM741 1133q-57 0 -96 40t-39 99q0 56 39 95.5t96 39.5q56 0 96 -40t40 -95q0 -58 -39.5 -98.5t-96.5 -40.5zM584 0q-204 0 -334.5 140t-130.5 358q0 214 130.5 349.5
t334.5 135.5q128 0 237 -61l27 61h196v-485l-2 -80q-3 -230 -80 -320.5t-280 -97.5h-98zM584 279h53q80 0 102 24t25 119l2 80q-1 110 -49.5 170.5t-132.5 60.5q-87 0 -137 -61.5t-50 -173.5q0 -102 51 -160.5t136 -58.5z" />
    <glyph glyph-name="uni062A" unicode="&#x62a;" horiz-adv-x="1767" 
d="M758 1133q-57 0 -96 40t-39 99q0 56 39 95.5t96 39.5q56 0 95.5 -40t39.5 -95q0 -59 -39 -99t-96 -40zM1081 1133q-57 0 -96 40t-39 99q0 56 39 95.5t96 39.5q56 0 96 -40t40 -95q0 -58 -39.5 -98.5t-96.5 -40.5zM666 0q-233 0 -384 158.5t-151 404.5q0 125 42.5 234.5
t121.5 189.5l178 -207q-63 -101 -63 -217q0 -130 70 -207t186 -77h432q147 0 197.5 54.5t54.5 219.5v430h278v-430q-2 -115 -12 -195.5t-35 -144.5t-62.5 -103t-98 -64.5t-137.5 -35.5t-185 -10h-432z" />
    <glyph glyph-name="uni062B" unicode="&#x62b;" horiz-adv-x="1767" 
d="M915 1399q-57 0 -96 40t-39 99q0 56 39 95.5t96 39.5q56 0 96 -40t40 -95q0 -58 -39.5 -98.5t-96.5 -40.5zM754 1133q-57 0 -96.5 40.5t-39.5 98.5q0 56 39.5 95.5t96.5 39.5q56 0 95.5 -40t39.5 -95q0 -59 -39 -99t-96 -40zM1077 1133q-57 0 -96 40t-39 99q0 56 39 95.5
t96 39.5q56 0 95.5 -40t39.5 -95q0 -59 -39 -99t-96 -40zM666 0q-233 0 -384 158.5t-151 404.5q0 125 42.5 234.5t121.5 189.5l178 -207q-63 -101 -63 -217q0 -130 70 -207t186 -77h432q147 0 197.5 54.5t54.5 219.5v430h278v-430q-2 -115 -12 -195.5t-35 -144.5t-62.5 -103
t-98 -64.5t-137.5 -35.5t-185 -10h-432z" />
    <glyph glyph-name="uni062C" unicode="&#x62c;" horiz-adv-x="1216" 
d="M549 -571q-212 0 -350 130.5t-138 331.5v3q7 218 11 247q5 29 14.5 51.5t20 37t27.5 24.5t28.5 15t31.5 7.5t28.5 2.5h26.5h9h86h281q54 0 86.5 2.5t63.5 11t47 24t29.5 43.5t18.5 66.5t7 95.5v29q0 113 -74 167t-197 54q-175 0 -262 -178l-240 135q73 141 208.5 223
t293.5 82q149 0 272.5 -56t200 -167.5t76.5 -259.5v-29q-1 -86 -7 -150.5t-19.5 -119t-32.5 -92t-51 -66.5t-69 -46.5t-92 -28.5t-115.5 -15t-143.5 -4h-283v-109q0 -86 55 -135t152 -49h57v-278h-57zM770 -305q-47 0 -80 32.5t-33 79.5t33 80t80 33t80 -33t33 -80
t-33 -79.5t-80 -32.5z" />
    <glyph glyph-name="uni062D" unicode="&#x62d;" horiz-adv-x="1216" 
d="M549 -571q-212 0 -350 130.5t-138 331.5v3q7 218 11 247q3 22 9 40.5t12.5 32t17.5 24t19.5 17.5t22.5 12t22 7.5t23.5 3.5t21.5 1h21h17h86h281q54 0 86.5 2.5t63.5 11t47 24t29.5 43.5t18.5 66.5t7 95.5v29q0 113 -74 167t-197 54q-175 0 -262 -178l-240 135
q73 141 208.5 223t293.5 82q149 0 272.5 -56t200 -167.5t76.5 -259.5v-29q-1 -86 -7 -150.5t-19.5 -119t-32.5 -92t-51 -66.5t-69 -46.5t-92 -28.5t-115.5 -15t-143.5 -4h-283v-109q0 -86 55 -135t152 -49h172v-278h-172z" />
    <glyph glyph-name="uni062E" unicode="&#x62e;" horiz-adv-x="1216" 
d="M596 1133q-57 0 -96 40t-39 99q0 56 39 95.5t96 39.5q56 0 95.5 -40t39.5 -95q0 -59 -39 -99t-96 -40zM549 -571q-212 0 -350 130.5t-138 331.5v3q7 218 11 247q3 22 9 40.5t12.5 32t17.5 24t19.5 17.5t22.5 12t22 7.5t23.5 3.5t21.5 1h21h17h86h281q54 0 86.5 2.5
t63.5 11t47 24t29.5 43.5t18.5 66.5t7 95.5v29q0 113 -74 167t-197 54q-175 0 -262 -178l-240 135q73 141 208.5 223t293.5 82q149 0 272.5 -56t200 -167.5t76.5 -259.5v-29q-1 -86 -7 -150.5t-19.5 -119t-32.5 -92t-51 -66.5t-69 -46.5t-92 -28.5t-115.5 -15t-143.5 -4
h-283v-109q0 -86 55 -135t152 -49h172v-278h-172z" />
    <glyph glyph-name="uni062F" unicode="&#x62f;" horiz-adv-x="1036" 
d="M106 0v279h590v190q-3 97 -78 166.5t-178 69.5q-81 0 -137 -5v279q57 4 137 4q141 0 263 -67.5t195 -183.5t77 -253v-479h-869z" />
    <glyph glyph-name="uni0630" unicode="&#x630;" horiz-adv-x="1036" 
d="M477 1133q-57 0 -96 40t-39 99q0 56 39 95.5t96 39.5q56 0 95.5 -40t39.5 -95q0 -59 -39 -99t-96 -40zM106 0v279h590v190q-3 97 -78 166.5t-178 69.5q-81 0 -137 -5v279q57 4 137 4q141 0 263 -67.5t195 -183.5t77 -253v-479h-869z" />
    <glyph glyph-name="uni0631" unicode="&#x631;" horiz-adv-x="591" 
d="M35 -467q-101 0 -215 51l94 238q55 -23 117 -23q75 0 119.5 65.5t44.5 178.5v940h278v-928q0 -245 -116.5 -383.5t-321.5 -138.5z" />
    <glyph glyph-name="uni0632" unicode="&#x632;" horiz-adv-x="591" 
d="M338 1133q-57 0 -96 40t-39 99q0 56 39 95.5t96 39.5q56 0 95.5 -40t39.5 -95q0 -59 -39 -99t-96 -40zM35 -467q-101 0 -215 51l94 238q55 -23 117 -23q75 0 119.5 65.5t44.5 178.5v940h278v-928q0 -245 -116.5 -383.5t-321.5 -138.5z" />
    <glyph glyph-name="uni0633" unicode="&#x633;" horiz-adv-x="2406" 
d="M666 -436q-310 0 -452 169.5t-142 540.5q0 73 13.5 182t31.5 183l270 -35q-33 -164 -37 -338q-3 -228 70.5 -326t243.5 -98q276 0 276 389v639h279v-591h10q147 0 197.5 54.5t54.5 219.5v317h278v-317q-3 -168 -26 -274h32q147 0 197.5 54.5t54.5 219.5v430h279v-430
q-2 -115 -12 -195.5t-35 -144.5t-62.5 -103t-98.5 -64.5t-138 -35.5t-185 -10h-118l-35 78q-109 -78 -383 -78h-35q-50 -207 -187 -321.5t-341 -114.5z" />
    <glyph glyph-name="uni0634" unicode="&#x634;" horiz-adv-x="2406" 
d="M1624 1399q-57 0 -96 40t-39 99q0 56 39 95.5t96 39.5q56 0 95.5 -40t39.5 -95q0 -59 -39 -99t-96 -40zM1462 1133q-57 0 -96 40t-39 99q0 56 39 95.5t96 39.5q56 0 95.5 -40t39.5 -95q0 -59 -39 -99t-96 -40zM1786 1133q-57 0 -96 40t-39 99q0 56 39 95.5t96 39.5
q56 0 95.5 -40t39.5 -95q0 -59 -39 -99t-96 -40zM666 -436q-310 0 -452 169.5t-142 540.5q0 73 13.5 182t31.5 183l270 -35q-33 -164 -37 -338q-3 -228 70.5 -326t243.5 -98q276 0 276 389v639h279v-591h10q147 0 197.5 54.5t54.5 219.5v317h278v-317q-3 -168 -26 -274h32
q147 0 197.5 54.5t54.5 219.5v430h279v-430q-2 -115 -12 -195.5t-35 -144.5t-62.5 -103t-98.5 -64.5t-138 -35.5t-185 -10h-118l-35 78q-109 -78 -383 -78h-35q-50 -207 -187 -321.5t-341 -114.5z" />
    <glyph glyph-name="uni0635" unicode="&#x635;" horiz-adv-x="2260" 
d="M666 -436q-310 0 -452 169.5t-142 540.5q0 73 13.5 182t31.5 183l270 -35q-33 -164 -37 -338q-3 -228 70.5 -326t243.5 -98q276 0 276 389v752h279v-201q127 101 242 151t241 50q457 0 457 -491q0 -69 -7.5 -127t-24 -103.5t-36 -82t-49 -62.5t-58.5 -46t-69 -32.5
t-75 -20.5t-83 -12t-86 -5t-90 -1h-387q-50 -207 -187 -321.5t-341 -114.5zM1219 279h362q60 0 95 0.5t71.5 5t54 8.5t35.5 17.5t24 25.5t12 38t6.5 50.5t0.5 67.5q0 133 -35 173t-143 40q-96 0 -199 -61.5t-284 -229.5v-135z" />
    <glyph glyph-name="uni0636" unicode="&#x636;" horiz-adv-x="2260" 
d="M1667 1133q-57 0 -96 40t-39 99q0 56 39 95.5t96 39.5q56 0 95.5 -40t39.5 -95q0 -59 -39 -99t-96 -40zM666 -436q-310 0 -452 169.5t-142 540.5q0 73 13.5 182t31.5 183l270 -35q-33 -164 -37 -338q-3 -228 70.5 -326t243.5 -98q276 0 276 389v752h279v-201
q127 101 242 151t241 50q457 0 457 -491q0 -69 -7.5 -127t-24 -103.5t-36 -82t-49 -62.5t-58.5 -46t-69 -32.5t-75 -20.5t-83 -12t-86 -5t-90 -1h-387q-50 -207 -187 -321.5t-341 -114.5zM1219 279h362q60 0 95 0.5t71.5 5t54 8.5t35.5 17.5t24 25.5t12 38t6.5 50.5
t0.5 67.5q0 133 -35 173t-143 40q-96 0 -199 -61.5t-284 -229.5v-135z" />
    <glyph glyph-name="uni0637" unicode="&#x637;" horiz-adv-x="1517" 
d="M82 0v279h121v1196h278v-693q127 101 242.5 151t241.5 50q456 0 456 -491q0 -98 -17 -174.5t-43.5 -127.5t-72 -87.5t-89 -56t-109.5 -30.5t-117.5 -13.5t-128.5 -2.5h-762zM481 279h363q60 0 95 0.5t71.5 5t54 8.5t35.5 17.5t24 25.5t12 38t6.5 50.5t0.5 67.5
q0 133 -35 173t-143 40q-97 0 -200 -61.5t-284 -229.5v-135z" />
    <glyph glyph-name="uni0638" unicode="&#x638;" horiz-adv-x="1517" 
d="M82 0v279h121v1196h278v-693q127 101 242.5 151t241.5 50q456 0 456 -491q0 -98 -17 -174.5t-43.5 -127.5t-72 -87.5t-89 -56t-109.5 -30.5t-117.5 -13.5t-128.5 -2.5h-762zM915 1133q-57 0 -96 40t-39 99q0 56 39 95.5t96 39.5q56 0 96 -40t40 -95q0 -58 -39.5 -98.5
t-96.5 -40.5zM481 279h363q60 0 95 0.5t71.5 5t54 8.5t35.5 17.5t24 25.5t12 38t6.5 50.5t0.5 67.5q0 133 -35 173t-143 40q-97 0 -200 -61.5t-284 -229.5v-135z" />
    <glyph glyph-name="uni0639" unicode="&#x639;" horiz-adv-x="1083" 
d="M549 -571q-212 0 -350 130.5t-138 331.5v3q7 218 11 247q5 33 14 57.5t23.5 39t27.5 23.5t32.5 12.5t30.5 4.5t31 1h25q-49 113 -49 249q0 106 28 193.5t76.5 146.5t113.5 101t138.5 61t151 22.5t153 -10t142.5 -41.5l-92 -264q-82 41 -162 43.5t-139 -27t-95.5 -88.5
t-36.5 -137q0 -142 90 -249h447v-279h-680v-109q0 -86 55 -135t152 -49h172v-278h-172z" />
    <glyph glyph-name="uni063A" unicode="&#x63a;" horiz-adv-x="1093" 
d="M680 1133q-57 0 -96 40t-39 99q0 56 39 95.5t96 39.5q56 0 95.5 -40t39.5 -95q0 -59 -39 -99t-96 -40zM549 -571q-212 0 -350 130.5t-138 331.5v3q7 218 11 247q5 33 14 57.5t23.5 39t27.5 23.5t32.5 12.5t30.5 4.5t31 1h25q-49 113 -49 249q0 106 28 193.5t76.5 146.5
t113.5 101t138.5 61t151 22.5t153 -10t142.5 -41.5l-92 -264q-82 41 -162 43.5t-139 -27t-95.5 -88.5t-36.5 -137q0 -142 90 -249h447v-279h-680v-109q0 -86 55 -135t152 -49h172v-278h-172z" />
    <glyph glyph-name="uni0640" unicode="&#x640;" horiz-adv-x="327" 
d="M0 0v279h338v-279h-338z" />
    <glyph glyph-name="uni0641" unicode="&#x641;" horiz-adv-x="2025" 
d="M1446 1133q-57 0 -96 40t-39 99q0 56 39 95.5t96 39.5q56 0 95.5 -40t39.5 -95q0 -59 -39 -99t-96 -40zM705 0q-118 0 -215 27t-166.5 77t-119 122t-72.5 162t-27 196t18 225l274 -14q-20 -166 -4.5 -280.5t91 -175t218.5 -60.5h320q-41 100 -41 219q0 214 130.5 349.5
t334.5 135.5t335.5 -136.5t125.5 -348.5l-2 -80q-3 -232 -81 -325t-280 -93h-839zM1446 279h53q80 0 102 24t25 119l2 80q-1 110 -49.5 170.5t-132.5 60.5q-87 0 -136.5 -61.5t-49.5 -173.5q0 -102 50.5 -160.5t135.5 -58.5z" />
    <glyph glyph-name="uni0642" unicode="&#x642;" horiz-adv-x="1576" 
d="M877 1133q-57 0 -96.5 40.5t-39.5 98.5q0 56 39.5 95.5t96.5 39.5q56 0 95.5 -40t39.5 -95q0 -59 -39 -99t-96 -40zM1200 1133q-57 0 -96 40t-39 99q0 56 39 95.5t96 39.5q56 0 95.5 -40t39.5 -95q0 -59 -39 -99t-96 -40zM770 -561q-371 0 -539 169t-168 542
q0 72 13.5 180.5t32.5 183.5l270 -35q-14 -73 -25.5 -174t-11.5 -164q0 -230 97.5 -327t328.5 -97q383 0 438 289l-71 -6h-99q-204 0 -334.5 140t-130.5 358q0 214 130.5 349.5t334.5 135.5t335.5 -136.5t125.5 -348.5v-15l-4 -377q-3 -313 -196 -490t-527 -177zM1036 279
h54q80 0 102 24t25 119l2 80q-1 109 -50 170t-133 61q-87 0 -136.5 -61.5t-49.5 -173.5q0 -102 50.5 -160.5t135.5 -58.5z" />
    <glyph glyph-name="uni0643" unicode="&#x643;" horiz-adv-x="1654" 
d="M657 2q-233 0 -383.5 158.5t-150.5 404.5q0 125 42.5 234.5t121.5 189.5l178 -207q-33 -53 -48.5 -102t-15.5 -115q0 -130 70 -207t186 -77h365q147 0 197.5 54.5t54.5 219.5v922h278v-922q-2 -163 -22.5 -262.5t-74 -165.5t-139.5 -92.5t-226 -30.5v-2h-433zM680 563
l-70 113q65 29 84 35q-10 38 -10 69q0 94 53.5 148.5t145.5 54.5q42 0 118 -27l-43 -131q-48 25 -75 25q-31 0 -48.5 -19t-17.5 -51q0 -27 19 -59h180v-135h-258q-9 0 -39.5 -10.5t-38.5 -12.5z" />
    <glyph glyph-name="uni0644" unicode="&#x644;" horiz-adv-x="1325" 
d="M666 -436q-310 0 -452 169.5t-142 540.5q0 73 13.5 182t31.5 183l270 -35q-33 -164 -37 -338q-3 -228 70.5 -326t243.5 -98q276 0 276 389v1244h279v-1244q0 -311 -147.5 -489t-405.5 -178z" />
    <glyph glyph-name="uni0645" unicode="&#x645;" horiz-adv-x="1390" 
d="M61 -528v614q0 194 246 229q-22 83 -22 170q0 233 137 381t352 148q217 0 355.5 -148.5t138.5 -380.5q0 -227 -138.5 -371.5t-355.5 -144.5q-151 0 -272 78h-35q-80 0 -102 -24t-25 -119v-432h-279zM774 219q97 0 156 73t59 195q0 126 -59 201.5t-156 75.5
q-95 0 -153 -75.5t-58 -201.5q0 -123 57.5 -195.5t153.5 -72.5z" />
    <glyph glyph-name="uni0646" unicode="&#x646;" horiz-adv-x="1312" 
d="M643 1133q-57 0 -96 40t-39 99q0 56 39 95.5t96 39.5q56 0 95.5 -40t39.5 -95q0 -59 -39 -99t-96 -40zM666 -346q-310 0 -452 170t-142 541q0 73 13.5 181.5t31.5 182.5l270 -35q-33 -164 -37 -338q-6 -227 69 -325.5t245 -98.5q276 0 276 390v661h279v-661
q0 -311 -147.5 -489.5t-405.5 -178.5z" />
    <glyph glyph-name="uni0647" unicode="&#x647;" horiz-adv-x="1167" 
d="M584 0q-204 0 -334.5 140t-130.5 358q0 214 130.5 349.5t334.5 135.5q128 0 237 -61l27 61h196v-485l-2 -80q-3 -230 -80 -320.5t-280 -97.5h-98zM584 279h53q80 0 102 24t25 119l2 80q-1 110 -49.5 170.5t-132.5 60.5q-87 0 -137 -61.5t-50 -173.5q0 -102 51 -160.5
t136 -58.5z" />
    <glyph glyph-name="uni0648" unicode="&#x648;" horiz-adv-x="1093" 
d="M455 -459q-223 0 -394 103l136 231q139 -68 262 -68q112 0 181.5 51t84.5 142h-178q-204 0 -334.5 140t-130.5 358q0 214 130.5 349.5t334.5 135.5q129 0 237 -63l27 63h197v-922q0 -244 -146.5 -382t-406.5 -138zM547 279h182v219q0 111 -49 173t-133 62
q-87 0 -137 -61.5t-50 -173.5q0 -102 51 -160.5t136 -58.5z" />
    <glyph glyph-name="uni0649" unicode="&#x649;" horiz-adv-x="1783" 
d="M666 -389q-310 0 -452 170t-142 541q0 73 13.5 181.5t31.5 182.5l270 -35q-14 -70 -24.5 -171t-12.5 -167q-6 -225 68.5 -324.5t245.5 -99.5q154 0 215 86t61 304v188q0 109 21.5 180t71.5 115t124.5 62t188.5 18q188 0 362 -23l2 -819h-278v563h-86q-80 0 -102 -24
t-25 -119v-141q0 -358 -128 -513t-425 -155z" />
    <glyph glyph-name="uni064A" unicode="&#x64a;" horiz-adv-x="1785" 
d="M666 -389q-310 0 -452 170t-142 541q0 73 13.5 181.5t31.5 182.5l270 -35q-14 -70 -24.5 -171t-12.5 -167q-6 -225 68.5 -324.5t245.5 -99.5q154 0 215 86t61 304v188q0 109 21.5 180t71.5 115t124.5 62t188.5 18q188 0 362 -23l2 -819h-278v563h-86q-80 0 -102 -24
t-25 -119v-141q0 -358 -128 -513t-425 -155zM471 -721q-57 0 -96 40t-39 99q0 56 39 96t96 40q56 0 95.5 -40.5t39.5 -95.5q0 -59 -39 -99t-96 -40zM795 -721q-57 0 -96.5 40.5t-39.5 98.5q0 56 39.5 96t96.5 40q56 0 95.5 -40.5t39.5 -95.5q0 -59 -39 -99t-96 -40z" />
    <glyph glyph-name="uni064B" unicode="&#x64b;" 
d="M33 1346v114l350 58v-115zM33 1190v115l350 57v-115z" />
    <glyph glyph-name="uni064C" unicode="&#x64c;" 
d="M98 1147l-73 65l84 131q64 -57 129 -51l-5 13q-48 120 -13 199t134 73q72 -5 112 -47t36 -109q-4 -62 -45 -111t-121 -91q-49 -22 -104.5 -25.5t-96.5 16.5zM332 1325q68 42 71 98t-57 56q-81 0 -14 -154z" />
    <glyph glyph-name="uni064D" unicode="&#x64d;" 
d="M33 -354v114l350 58v-115zM33 -510v115l350 57v-115z" />
    <glyph glyph-name="uni064E" unicode="&#x64e;" 
d="M33 1206v115l350 57v-114z" />
    <glyph glyph-name="uni064F" unicode="&#x64f;" 
d="M31 1196l8 100q40 -6 106 -2q-29 56 -34.5 110t10.5 93.5t53 61.5t88 18q73 -6 113 -48t35 -108q-2 -29 -16 -61.5t-44 -65.5t-72 -57.5t-106.5 -36.5t-140.5 -4zM240 1331q68 38 71 92q2 26 -10.5 38.5t-42.5 13.5q-27 2 -38.5 -14t-6 -49t26.5 -81z" />
    <glyph glyph-name="uni0650" unicode="&#x650;" 
d="M33 -338v115l350 57v-115z" />
    <glyph glyph-name="uni0651" unicode="&#x651;" 
d="M182 1184q-78 -13 -118.5 27.5t-40.5 131.5v91l98 12v-103q0 -67 35 -67q8 0 16 2v156l102 12v-115q0 -27 6.5 -41t26.5 -14q1 0 8 1t11 1v156l98 12v-199q0 -51 -49 -57l-39 -6q-55 -8 -98 10z" />
    <glyph glyph-name="uni0652" unicode="&#x652;" 
d="M195 1178q-83 0 -127.5 42.5t-44.5 120.5q0 70 51.5 122.5t120.5 52.5t120.5 -52.5t51.5 -122.5q0 -79 -44.5 -121t-127.5 -42zM195 1278q69 0 69 63q0 29 -20.5 51.5t-48.5 22.5t-50 -22.5t-22 -51.5q0 -63 72 -63z" />
    <glyph glyph-name="uni0653" unicode="&#x653;" 
d="M322 1362q-49 0 -122.5 32.5t-84.5 32.5q-33 0 -33 -51h-127q-4 78 40 129t116 51q12 0 23.5 -2t25.5 -7t22.5 -8t27.5 -11.5t26 -11.5q52 -25 90 -25q44 0 67 9t90 48v-139q-38 -26 -73.5 -36.5t-87.5 -10.5z" />
    <glyph glyph-name="uni0654" unicode="&#x654;" 
d="M119 1305l-70 112q65 29 78 33q-4 24 -4 39q0 94 53.5 148.5t145.5 54.5q42 0 118 -27l-43 -131q-48 25 -75 25q-31 0 -48.5 -19t-17.5 -51q0 -7 4 -27h191v-135h-254q-9 0 -39.5 -10.5t-38.5 -11.5z" />
    <glyph glyph-name="uni0655" unicode="&#x655;" 
d="M125 -512l-70 113q57 25 78 32q-4 24 -4 39q0 94 53.5 148.5t145.5 54.5q42 0 118 -27l-43 -131q-48 25 -75 25q-31 0 -48.5 -19t-17.5 -51q0 -6 4 -26h191v-135h-254q-9 0 -39.5 -10.5t-38.5 -12.5z" />
    <glyph glyph-name="uni0658" unicode="&#x658;" 
d="M254 1116q-110 0 -161.5 61t-51.5 191q0 60 14 125l127 -20q-14 -51 -14 -107q0 -67 20 -95t66 -28q72 0 72 111v217h127v-217q0 -109 -53.5 -173.5t-145.5 -64.5z" />
    <glyph glyph-name="uni0660" unicode="&#x660;" horiz-adv-x="833" 
d="M416 432q-82 0 -139.5 58t-57.5 141q0 82 57.5 139t139.5 57q83 0 140.5 -57t57.5 -139q0 -83 -57.5 -141t-140.5 -58z" />
    <glyph glyph-name="uni0661" unicode="&#x661;" horiz-adv-x="675" 
d="M180 0v1393h291v-1393h-291z" />
    <glyph glyph-name="uni0662" unicode="&#x662;" horiz-adv-x="1169" 
d="M186 0v1438q132 -8 447 -8q155 0 311 8l6 -250q-104 -8 -317 -8q-58 0 -156 4v-1184h-291z" />
    <glyph glyph-name="uni0663" unicode="&#x663;" horiz-adv-x="1429" 
d="M180 0v1393h291v-256q0 -162 104 -162q26 0 41 8.5t27 28.5q14 28 14 121v260h250v-258q0 -90 17 -129q19 -29 77 -29q49 0 70 24l-2 -4q29 37 29 138v258h280v-258q0 -206 -96.5 -315t-280.5 -109q-83 0 -147 28q-47 21 -80 54q-70 -82 -201 -82q-58 0 -102 20v-731
h-291z" />
    <glyph glyph-name="uni0664" unicode="&#x664;" horiz-adv-x="935" 
d="M475 0q-191 0 -300 88t-109 244q0 103 63 186t209 178q-111 32 -170 115t-59 207q0 115 69.5 210.5t189.5 150.5t263 55q88 0 186 -19l-31 -258q-9 2 -25.5 5.5t-22 4.5t-17.5 3.5t-15.5 3t-12.5 2t-13 2t-11.5 1.5t-13.5 1h-13.5h-16.5q-100 0 -166 -45t-66 -113
q0 -28 6 -46t25 -32.5t45.5 -22t76.5 -12.5t108.5 -6.5t150.5 -1.5l-21 -242q-225 -110 -271 -136q-143 -80 -164 -149q-5 -15 -5 -30q0 -38 34 -53t128 -15h328v-276h-359z" />
    <glyph glyph-name="uni0665" unicode="&#x665;" horiz-adv-x="1243" 
d="M608 -49q-262 0 -391 172q-133 183 -133 565q0 350 156 543q154 186 397 186q254 0 391 -178q135 -181 135 -541q0 -370 -162 -571q-73 -86 -174 -131t-219 -45zM623 201q116 0 177.5 122.5t61.5 362.5q0 253 -57.5 367t-181.5 114q-102 0 -162 -96l-2 -2
q-76 -119 -76 -367q0 -261 58 -381t182 -120z" />
    <glyph glyph-name="uni0666" unicode="&#x666;" horiz-adv-x="1015" 
d="M555 0v1184q-39 -4 -129 -4q-191 0 -295 8l6 250q156 -8 289 -8q294 0 420 8v-1438h-291z" />
    <glyph glyph-name="uni0667" unicode="&#x667;" horiz-adv-x="1189" 
d="M420 -12l-408 1423h305l236 -885q7 -27 22 -79t19 -68q6 23 21.5 77.5t23.5 84.5l244 870h297l-426 -1423h-334z" />
    <glyph glyph-name="uni0668" unicode="&#x668;" horiz-adv-x="1189" 
d="M16 0l424 1405h336l408 -1405h-307l-236 866l-41 148q-8 -30 -23.5 -84.5t-21.5 -77.5l-242 -852h-297z" />
    <glyph glyph-name="uni0669" unicode="&#x669;" horiz-adv-x="1173" 
d="M795 0v444q-111 -20 -226 -20q-234 0 -375 133t-141 354q0 241 159.5 384t426.5 143q144 0 446 -47v-1391h-290zM590 692q86 0 205 21v434q-97 20 -179 20q-126 0 -196 -62.5t-70 -174.5q0 -110 65 -174t175 -64z" />
    <glyph glyph-name="uni066A" unicode="&#x66a;" horiz-adv-x="1822" 
d="M526 1079q-82 0 -139 58t-57 141q0 82 57 139.5t139 57.5q83 0 141 -57.5t58 -139.5q0 -83 -58 -141t-141 -58zM340 0l834 1452h276l-838 -1452h-272zM1341 -16q-82 0 -139 57.5t-57 140.5q0 82 57 139.5t139 57.5q83 0 141 -57.5t58 -139.5q0 -83 -58 -140.5t-141 -57.5
z" />
    <glyph glyph-name="uni066E" unicode="&#x66e;" horiz-adv-x="1767" 
d="M666 0q-233 0 -384 158.5t-151 404.5q0 125 42.5 234.5t121.5 189.5l178 -207q-63 -101 -63 -217q0 -130 70 -207t186 -77h432q147 0 197.5 54.5t54.5 219.5v430h278v-430q-2 -115 -12 -195.5t-35 -144.5t-62.5 -103t-98 -64.5t-137.5 -35.5t-185 -10h-432z" />
    <glyph glyph-name="uni0679" unicode="&#x679;" horiz-adv-x="1767" 
d="M680 1120v125h35v336h125v-133q62 41 133 41q85 0 129.5 -47.5t44.5 -138.5q0 -51 -14 -87t-32.5 -54.5t-51 -28t-55.5 -11.5t-60 -2h-254zM840 1245h94q63 0 73.5 7.5t10.5 50.5q0 38 -8.5 49.5t-36.5 11.5q-29 0 -58.5 -16.5t-74.5 -57.5v-45zM666 0q-233 0 -384 158.5
t-151 404.5q0 125 42.5 234.5t121.5 189.5l178 -207q-63 -101 -63 -217q0 -130 70 -207t186 -77h432q147 0 197.5 54.5t54.5 219.5v430h278v-430q-2 -115 -12 -195.5t-35 -144.5t-62.5 -103t-98 -64.5t-137.5 -35.5t-185 -10h-432z" />
    <glyph glyph-name="uni067E" unicode="&#x67e;" horiz-adv-x="1767" 
d="M666 0q-233 0 -384 158.5t-151 404.5q0 125 42.5 234.5t121.5 189.5l178 -207q-63 -101 -63 -217q0 -130 70 -207t186 -77h432q147 0 197.5 54.5t54.5 219.5v430h278v-430q-2 -115 -12 -195.5t-35 -144.5t-62.5 -103t-98 -64.5t-137.5 -35.5t-185 -10h-432zM780 -410
q-51 0 -86 35.5t-35 85.5q0 53 35 89t86 36t86 -36t35 -89q0 -48 -35.5 -84.5t-85.5 -36.5zM1104 -410q-51 0 -86 35.5t-35 85.5q0 53 35 89t86 36t86 -36t35 -89q0 -48 -35.5 -84.5t-85.5 -36.5zM942 -676q-51 0 -86 35.5t-35 85.5q0 53 35 89t86 36t86 -36t35 -89
q0 -48 -35.5 -84.5t-85.5 -36.5z" />
    <glyph glyph-name="uni0686" unicode="&#x686;" horiz-adv-x="1216" 
d="M549 -655q-212 0 -350 130.5t-138 331.5v87q7 218 11 247q5 34 16 59.5t30 40t33.5 23t40 11.5t34.5 3.5t32 0.5h86h281q54 0 86.5 2.5t63.5 11t47 24t29.5 43.5t18.5 66.5t7 95.5v29q0 113 -74 167t-197 54q-175 0 -262 -178l-240 135q73 141 208.5 223t293.5 82
q149 0 272.5 -56t200 -167.5t76.5 -259.5v-29q-1 -86 -7 -150.5t-19.5 -119t-32.5 -92t-51 -66.5t-69 -46.5t-92 -28.5t-115.5 -15t-143.5 -4h-283v-193q0 -86 55 -135t152 -49v-278zM594 -297q-41 0 -70.5 29.5t-29.5 70.5q0 43 29.5 74t70.5 31q42 0 72 -31t30 -74
q0 -40 -30 -70t-72 -30zM866 -297q-43 0 -72.5 29.5t-29.5 70.5q0 43 30 74t72 31q41 0 71 -31t30 -74q0 -40 -30 -70t-71 -30zM731 -520q-43 0 -72.5 29.5t-29.5 70.5q0 44 29.5 74.5t72.5 30.5q41 0 70.5 -30.5t29.5 -74.5q0 -40 -29.5 -70t-70.5 -30z" />
    <glyph glyph-name="uni0688" unicode="&#x688;" horiz-adv-x="1036" 
d="M203 1120v125h35v336h124v-133q62 41 134 41q85 0 129.5 -47.5t44.5 -138.5q0 -51 -14 -87t-32.5 -54.5t-51 -28t-55.5 -11.5t-60 -2h-254zM362 1245h95q63 0 73.5 7.5t10.5 50.5q0 38 -8.5 49.5t-36.5 11.5q-52 0 -134 -74v-45zM106 0v279h590v190q-3 97 -78 166.5
t-178 69.5q-81 0 -137 -5v279q57 4 137 4q141 0 263 -67.5t195 -183.5t77 -253v-479h-869z" />
    <glyph glyph-name="uni0691" unicode="&#x691;" horiz-adv-x="591" 
d="M92 1120v125h35v336h125v-133q62 41 133 41q85 0 129.5 -47.5t44.5 -138.5q0 -51 -14 -87t-32.5 -54.5t-51 -28t-55.5 -11.5t-60 -2h-254zM252 1245h94q63 0 73.5 7.5t10.5 50.5q0 38 -8.5 49.5t-36.5 11.5q-29 0 -58.5 -16.5t-74.5 -57.5v-45zM35 -467q-101 0 -215 51
l94 238q55 -23 117 -23q75 0 119.5 65.5t44.5 178.5v940h278v-928q0 -245 -116.5 -383.5t-321.5 -138.5z" />
    <glyph glyph-name="uni0698" unicode="&#x698;" horiz-adv-x="591" 
d="M338 1399q-51 0 -86 36t-35 89q0 50 35 85.5t86 35.5q50 0 85.5 -36.5t35.5 -84.5q0 -53 -35 -89t-86 -36zM176 1133q-51 0 -86 36t-35 88q0 50 35 85.5t86 35.5q50 0 85.5 -36.5t35.5 -84.5q0 -52 -35 -88t-86 -36zM500 1133q-51 0 -86 36t-35 88q0 50 35 85.5t86 35.5
q50 0 85.5 -36.5t35.5 -84.5q0 -52 -35 -88t-86 -36zM35 -467q-101 0 -215 51l94 238q55 -23 117 -23q75 0 119.5 65.5t44.5 178.5v940h278v-928q0 -245 -116.5 -383.5t-321.5 -138.5z" />
    <glyph glyph-name="uni06A9" unicode="&#x6a9;" horiz-adv-x="1839" 
d="M723 0q-118 0 -215 27t-166.5 77t-119 122t-72.5 162t-27 196t18 225l275 -14q-20 -166 -4.5 -280.5t91 -175t218.5 -60.5h579q82 0 104.5 25t22.5 116q0 106 -49 196q-89 168 -391 168q-134 0 -188 -24l-158 209l782 592l166 -220l-403 -305l53 -12q135 -31 228 -100
t155 -183q84 -155 84 -321q0 -164 -37.5 -253.5t-123.5 -128t-245 -38.5h-577z" />
    <glyph glyph-name="uni06AF" unicode="&#x6af;" horiz-adv-x="1757" 
d="M608 1004l-67 92l786 594l68 -93zM723 0q-118 0 -215 27t-166.5 77t-119 122t-72.5 162t-27 196t18 225l275 -14q-20 -166 -4.5 -280.5t91 -175t218.5 -60.5h579q82 0 104.5 25t22.5 116q0 106 -49 196q-89 168 -391 168q-134 0 -188 -24l-158 209l782 592l166 -220
l-403 -305l53 -12q135 -31 228 -100t155 -183q84 -155 84 -321q0 -164 -37.5 -253.5t-123.5 -128t-245 -38.5h-577z" />
    <glyph glyph-name="uni06BA" unicode="&#x6ba;" horiz-adv-x="1312" 
d="M666 -346q-310 0 -452 170t-142 541q0 73 13.5 181.5t31.5 182.5l270 -35q-33 -164 -37 -338q-6 -227 69 -325.5t245 -98.5q276 0 276 390v661h279v-661q0 -311 -147.5 -489.5t-405.5 -178.5z" />
    <glyph glyph-name="uni06BE" unicode="&#x6be;" horiz-adv-x="1746" 
d="M82 0v197l186 82h127q-55 113 -55 247q0 214 127.5 348t331.5 134q219 0 344 -141.5t125 -389.5v-198h114v294q0 304 -113.5 426.5t-396.5 122.5q-119 0 -251 -59l-134 231q192 107 392 107q421 0 601.5 -191t180.5 -637v-573h-1579zM864 279h125v198q0 133 -45 192.5
t-145 59.5q-88 0 -134.5 -52t-46.5 -151q0 -114 66 -180.5t180 -66.5z" />
    <glyph glyph-name="uni06C1" unicode="&#x6c1;" horiz-adv-x="1167" 
d="M584 0q-204 0 -334.5 140t-130.5 358q0 214 130.5 349.5t334.5 135.5q128 0 237 -61l27 61h196v-485l-2 -80q-3 -230 -80 -320.5t-280 -97.5h-98zM584 279h53q80 0 102 24t25 119l2 80q-1 110 -49.5 170.5t-132.5 60.5q-87 0 -137 -61.5t-50 -173.5q0 -102 51 -160.5
t136 -58.5z" />
    <glyph glyph-name="uni06C2" unicode="&#x6c2;" horiz-adv-x="1167" 
d="M403 1133l-69 112q65 29 78 33q-4 24 -4 39q0 94 53 148.5t145 54.5q43 0 119 -27l-43 -131q-46 24 -76 24q-31 0 -48 -18.5t-17 -50.5q0 -7 4 -27h190v-135h-254q-9 0 -39.5 -10.5t-38.5 -11.5zM584 0q-204 0 -334.5 140t-130.5 358q0 214 130.5 349.5t334.5 135.5
q128 0 237 -61l27 61h196v-485l-2 -80q-3 -230 -80 -320.5t-280 -97.5h-98zM584 279h53q80 0 102 24t25 119l2 80q-1 110 -49.5 170.5t-132.5 60.5q-87 0 -137 -61.5t-50 -173.5q0 -102 51 -160.5t136 -58.5z" />
    <glyph glyph-name="uni06C3" unicode="&#x6c3;" horiz-adv-x="1157" 
d="M418 1133q-57 0 -96 40t-39 99q0 56 39 95.5t96 39.5q56 0 95.5 -40t39.5 -95q0 -59 -39 -99t-96 -40zM741 1133q-57 0 -96 40t-39 99q0 56 39 95.5t96 39.5q56 0 96 -40t40 -95q0 -58 -39.5 -98.5t-96.5 -40.5zM584 0q-204 0 -334.5 140t-130.5 358q0 214 130.5 349.5
t334.5 135.5q128 0 237 -61l27 61h196v-485l-2 -80q-3 -230 -80 -320.5t-280 -97.5h-98zM584 279h53q80 0 102 24t25 119l2 80q-1 110 -49.5 170.5t-132.5 60.5q-87 0 -137 -61.5t-50 -173.5q0 -102 51 -160.5t136 -58.5z" />
    <glyph glyph-name="uni06CC" unicode="&#x6cc;" horiz-adv-x="1783" 
d="M666 -389q-310 0 -452 170t-142 541q0 73 13.5 181.5t31.5 182.5l270 -35q-14 -70 -24.5 -171t-12.5 -167q-6 -225 68.5 -324.5t245.5 -99.5q154 0 215 86t61 304v188q0 109 21.5 180t71.5 115t124.5 62t188.5 18q188 0 362 -23l2 -819h-278v563h-86q-80 0 -102 -24
t-25 -119v-141q0 -358 -128 -513t-425 -155z" />
    <glyph glyph-name="uni06D2" unicode="&#x6d2;" horiz-adv-x="1484" 
d="M596 0q-237 0 -299 6q-143 14 -199 80q-57 67 -57 215q0 298 163.5 437t512.5 139h149h40.5t30 2.5t23 4.5t14 11t10 16.5t4.5 26t3 35v47.5l2 178h279l-2 -178q-2 -127 -21 -205.5t-67.5 -128.5t-123 -69t-194.5 -19h-147q-216 0 -307 -57t-91 -195q0 -37 11 -47
q20 -17 137 -19q40 -1 174 -1h782v-279h-827z" />
    <glyph glyph-name="uni06D3" unicode="&#x6d3;" horiz-adv-x="1464" 
d="M956 1294l-69 113q65 29 78 33q-4 24 -4 39q0 94 53 148t145 54q46 0 119 -26l-43 -131q-46 24 -76 24q-31 0 -48 -18.5t-17 -50.5q0 -7 4 -27h190v-135h-254q-9 0 -39.5 -10.5t-38.5 -12.5zM596 0q-237 0 -299 6q-143 14 -199 80q-57 67 -57 215q0 298 163.5 437
t512.5 139h149h40.5t30 2.5t23 4.5t14 11t10 16.5t4.5 26t3 35v47.5l2 178h279l-2 -178q-2 -127 -21 -205.5t-67.5 -128.5t-123 -69t-194.5 -19h-147q-216 0 -307 -57t-91 -195q0 -37 11 -47q20 -17 137 -19q40 -1 174 -1h782v-279h-827z" />
    <glyph glyph-name="uni06D4" unicode="&#x6d4;" horiz-adv-x="608" 
d="M268 0l-186 82v197h485v-279h-299z" />
    <glyph glyph-name="endash" unicode="&#x2013;" horiz-adv-x="1105" 
d="M127 420v223h852v-223h-852z" />
    <glyph glyph-name="emdash" unicode="&#x2014;" horiz-adv-x="2072" 
d="M147 418v223h1778v-223h-1778z" />
    <glyph glyph-name="quoteleft" unicode="&#x2018;" horiz-adv-x="413" 
d="M70 866l110 549h164l-10 -549h-264z" />
    <glyph glyph-name="quoteright" unicode="&#x2019;" horiz-adv-x="413" 
d="M70 967l10 503h264l-111 -503h-163z" />
    <glyph glyph-name="quotesinglbase" unicode="&#x201a;" horiz-adv-x="413" 
d="M70 -305l10 549h264l-111 -549h-163z" />
    <glyph glyph-name="quotedblleft" unicode="&#x201c;" horiz-adv-x="880" 
d="M70 866l110 549h164l-10 -549h-264zM537 866l110 549h164l-10 -549h-264z" />
    <glyph glyph-name="quotedblright" unicode="&#x201d;" horiz-adv-x="876" 
d="M70 967l10 503h264l-111 -503h-163zM537 967l10 503h264l-111 -503h-163z" />
    <glyph glyph-name="quotedblbase" unicode="&#x201e;" horiz-adv-x="880" 
d="M70 -305l10 549h264l-111 -549h-163zM537 -305l10 549h264l-111 -549h-163z" />
    <glyph glyph-name="bullet" unicode="&#x2022;" horiz-adv-x="878" 
d="M440 223q-64 0 -124 23.5t-103 64.5q-94 91 -94 224q0 131 94 225q43 42 103 66t124 24q135 0 228 -90q92 -92 92 -225q0 -135 -92 -224q-91 -88 -228 -88z" />
    <glyph glyph-name="ellipsis" unicode="&#x2026;" horiz-adv-x="1695" 
d="M338 -25q-81 0 -132.5 53t-51.5 132q0 78 51.5 131t132.5 53q77 0 129.5 -53.5t52.5 -130.5q0 -78 -52 -131.5t-130 -53.5zM848 -25q-81 0 -132.5 53t-51.5 132q0 78 51.5 131t132.5 53q77 0 129.5 -53.5t52.5 -130.5q0 -78 -52 -131.5t-130 -53.5zM1360 -25
q-81 0 -132.5 53t-51.5 132q0 78 51.5 131t132.5 53q77 0 129.5 -53.5t52.5 -130.5q0 -78 -52 -131.5t-130 -53.5z" />
    <glyph glyph-name="guilsinglleft" unicode="&#x2039;" horiz-adv-x="645" 
d="M440 88l-385 414v71l385 414l170 -147l-266 -301l266 -301z" />
    <glyph glyph-name="guilsinglright" unicode="&#x203a;" horiz-adv-x="645" 
d="M205 88l-170 150l266 301l-266 301l170 147l385 -414v-71z" />
    <glyph glyph-name="minus" unicode="&#x2212;" horiz-adv-x="1130" 
d="M100 520v225h930v-225h-930z" />
    <glyph glyph-name="i.loclTRK" horiz-adv-x="593" 
d="M297 1130q-77 0 -131.5 54t-54.5 135q0 79 54.5 133.5t131.5 54.5t131.5 -54.5t54.5 -133.5q0 -81 -54.5 -135t-131.5 -54zM158 0v983h278v-983h-278z" />
    <glyph glyph-name="kerseh.ini" horiz-adv-x="716" 
d="M0 0v279h43q148 0 199 54.5t55 219.5v430h276v-430q-2 -115 -12 -195.5t-35 -144.5t-62.5 -103t-98 -64.5t-137.5 -35.5t-185 -10h-43z" />
    <glyph glyph-name="kerseh.med" horiz-adv-x="806" 
d="M0 0v279h266v704h277v-704h274v-279h-817z" />
    </font>
</defs>
</svg>
