<?xml version="1.0" standalone="no"?>
<!DOCTYPE svg PUBLIC "-//W3C//DTD SVG 1.1//EN" "http://www.w3.org/Graphics/SVG/1.1/DTD/svg11.dtd" >
<svg xmlns="http://www.w3.org/2000/svg" xmlns:xlink="http://www.w3.org/1999/xlink" version="1.1">
<metadata>
Created by FontForge 20170731 at Mon Aug 16 22:26:00 2021
 By Aleksey,,,
Copyright (c) 2018 by Careem. All rights reserved.
</metadata>
<defs>
<font id="Careem-Regular" horiz-adv-x="0" >
  <font-face 
    font-family="Careem"
    font-weight="400"
    font-stretch="normal"
    units-per-em="2048"
    panose-1="0 0 5 0 0 0 0 0 0 0"
    ascent="1659"
    descent="-389"
    x-height="983"
    cap-height="1454"
    bbox="-164 -702 2478 1974"
    underline-thickness="102"
    underline-position="-307"
    unicode-range="U+0020-FEFC"
  />
<missing-glyph horiz-adv-x="1228" 
 />
    <glyph glyph-name="uniFEF5" unicode="&#xfedf;&#xfe82;" horiz-adv-x="1177" arabic-form="isolated" 
d="M543 1346q-48 0 -121 32.5t-86 32.5q-41 0 -41 -59h-111q-5 74 37 123t111 49q14 0 30 -4t26.5 -8.5t32.5 -14.5t32 -14q55 -25 94 -25q30 0 53.5 6t36.5 12.5t59 30.5v-121q-70 -40 -153 -40zM102 0v188h555q100 0 134.5 37.5t37.5 149.5v1100h189v-1100
q-2 -116 -18 -185.5t-58.5 -113.5t-108.5 -60t-176 -16h-555zM352 276v934h189v-934h-189z" />
    <glyph glyph-name="uniFEF6" unicode="&#xfee0;&#xfe82;" horiz-adv-x="1218" arabic-form="final" 
d="M543 1346q-48 0 -121 32.5t-86 32.5q-41 0 -41 -59h-111q-5 74 37 123t111 49q14 0 30 -4t26.5 -8.5t32.5 -14.5t32 -14q55 -25 94 -25q30 0 53.5 6t36.5 12.5t59 30.5v-121q-70 -40 -153 -40zM102 0v188h555q100 0 134.5 37.5t37.5 149.5v1100h189v-1100
q3 -112 37.5 -149.5t134.5 -37.5h39v-188h-39q-196 0 -266 57q-73 -57 -267 -57h-555zM352 276v934h189v-934h-189z" />
    <glyph glyph-name="uniFEF7" unicode="&#xfedf;&#xfe84;" horiz-adv-x="1177" arabic-form="isolated" 
d="M281 1315l-64 92q61 28 86 35q-6 24 -6 47q0 89 50 140.5t138 51.5q48 0 115 -26l-35 -113q-49 27 -80 27q-34 0 -54.5 -21.5t-20.5 -58.5q0 -19 6 -37h198v-115h-254q-11 0 -43 -10.5t-36 -11.5zM102 0v188h555q100 0 134.5 37.5t37.5 149.5v1100h189v-1100
q-2 -116 -18 -185.5t-58.5 -113.5t-108.5 -60t-176 -16h-555zM352 276v934h189v-934h-189z" />
    <glyph glyph-name="uniFEF8" unicode="&#xfee0;&#xfe84;" horiz-adv-x="1218" arabic-form="final" 
d="M281 1315l-64 92q61 28 86 35q-6 24 -6 47q0 89 50 140.5t138 51.5q48 0 115 -26l-35 -113q-49 27 -80 27q-34 0 -54.5 -21.5t-20.5 -58.5q0 -19 6 -37h198v-115h-254q-11 0 -43 -10.5t-36 -11.5zM102 0v188h555q100 0 134.5 37.5t37.5 149.5v1100h189v-1100
q3 -112 37.5 -149.5t134.5 -37.5h39v-188h-39q-196 0 -266 57q-73 -57 -267 -57h-555zM352 276v934h189v-934h-189z" />
    <glyph glyph-name="uniFEF9" unicode="&#xfedf;&#xfe88;" horiz-adv-x="1177" arabic-form="isolated" 
d="M102 0v188h555q100 0 134.5 37.5t37.5 149.5v1100h189v-1100q-2 -116 -18 -185.5t-58.5 -113.5t-108.5 -60t-176 -16h-555zM352 276v1076h189v-1076h-189zM281 -498l-64 92q61 28 86 35q-6 24 -6 47q0 89 50 141t138 52q46 0 115 -27l-35 -112q-47 26 -80 26
q-34 0 -54.5 -21.5t-20.5 -58.5q0 -18 6 -36h198v-115h-254q-10 0 -42 -11t-37 -12z" />
    <glyph glyph-name="uniFEFA" unicode="&#xfee0;&#xfe88;" horiz-adv-x="1218" arabic-form="final" 
d="M102 0v188h555q100 0 134.5 37.5t37.5 149.5v1100h189v-1100q3 -112 37.5 -149.5t134.5 -37.5h39v-188h-39q-196 0 -266 57q-73 -57 -267 -57h-555zM352 276v1076h189v-1076h-189zM281 -498l-64 92q61 28 86 35q-6 24 -6 47q0 89 50 141t138 52q46 0 115 -27l-35 -112
q-47 26 -80 26q-34 0 -54.5 -21.5t-20.5 -58.5q0 -18 6 -36h198v-115h-254q-10 0 -42 -11t-37 -12z" />
    <glyph glyph-name="uniFEFB" unicode="&#xfedf;&#xfe8e;" horiz-adv-x="1177" arabic-form="isolated" 
d="M102 0v188h555q100 0 134.5 37.5t37.5 149.5v1100h189v-1100q-2 -116 -18 -185.5t-58.5 -113.5t-108.5 -60t-176 -16h-555zM352 276v1076h189v-1076h-189z" />
    <glyph glyph-name="uniFEFC" unicode="&#xfee0;&#xfe8e;" horiz-adv-x="1218" arabic-form="final" 
d="M102 0v188h555q100 0 134.5 37.5t37.5 149.5v1100h189v-1100q3 -112 37.5 -149.5t134.5 -37.5h39v-188h-39q-196 0 -266 57q-73 -57 -267 -57h-555zM352 276v1076h189v-1076h-189z" />
    <glyph glyph-name="uni066E.init" unicode="&#x66e;" horiz-adv-x="573" 
d="M0 0v188h72q100 0 134.5 37.5t37.5 149.5v608h188v-608q-2 -117 -17.5 -186.5t-57.5 -113.5t-108 -59.5t-177 -15.5h-72z" />
    <glyph glyph-name="uni066E.medi" unicode="&#x66e;" horiz-adv-x="675" 
d="M0 0v188h244v795h188v-795h254v-188h-686z" />
    <glyph glyph-name="uni066E.fina" unicode="&#x66e;" horiz-adv-x="1742" 
d="M1145 0h-524q-215 0 -352.5 145.5t-137.5 372.5q0 241 150 391l6 -4l114 -131q-82 -98 -82 -256q0 -150 83.5 -240t218.5 -90h524q100 0 134.5 37.5t37.5 149.5v608h188v-608q-3 -127 -18 -187h270v-188h-303l-31 68q-39 -37 -105.5 -52.5t-172.5 -15.5z" />
    <glyph glyph-name="uni06C2.fina" unicode="&#x6c2;" horiz-adv-x="1224" 
d="M444 961l-55 77q63 28 82 33q-6 30 -6 53q0 93 52 139t128 46q44 0 105 -23l-29 -96q-50 22 -76 22q-34 0 -59 -22.5t-25 -65.5q0 -18 10 -45h195v-98h-246q-9 0 -76 -20zM92 -31v123q0 382 148 561q146 174 481 174q90 0 145 -8l23 49h106v-506q0 -110 10 -136
q13 -30 60 -35q23 -3 102 -3h68v-188h-68q-88 0 -146.5 10.5t-101.5 34t-66.5 66.5t-34 102.5t-11.5 148.5v275q-25 2 -86 2q-246 0 -336 -109q-104 -121 -104 -438v-123h-189z" />
    <glyph glyph-name="uni06C3.fina" unicode="&#x6c3;" horiz-adv-x="1228" 
d="M424 983q-51 0 -86 36t-35 89q0 50 35 85.5t86 35.5q50 0 85.5 -36.5t35.5 -84.5q0 -53 -35 -89t-86 -36zM748 983q-51 0 -86 36t-35 89q0 50 35 85.5t86 35.5q50 0 85 -36.5t35 -84.5q0 -53 -34.5 -89t-85.5 -36zM92 -31v123q0 382 148 561q146 174 481 174q90 0 145 -8
l23 49h106v-506q0 -110 10 -136q13 -30 60 -35q23 -3 102 -3h68v-188h-68q-88 0 -146.5 10.5t-101.5 34t-66.5 66.5t-34 102.5t-11.5 148.5v275q-25 2 -86 2q-246 0 -336 -109q-104 -121 -104 -438v-123h-189z" />
    <glyph glyph-name="uniFB57" unicode="&#x67e;" horiz-adv-x="1742" arabic-form="final" 
d="M1145 0h-524q-215 0 -352.5 145.5t-137.5 372.5q0 241 150 391l6 -4l114 -131q-82 -98 -82 -256q0 -150 83.5 -240t218.5 -90h524q100 0 134.5 37.5t37.5 149.5v608h188v-608q-3 -127 -18 -187h270v-188h-303l-31 68q-39 -37 -105.5 -52.5t-172.5 -15.5zM711 -436
q-51 0 -86 35.5t-35 85.5q0 53 35 89t86 36t85.5 -36t34.5 -89q0 -48 -35 -84.5t-85 -36.5zM1034 -436q-51 0 -86 35.5t-35 85.5q0 53 35 89t86 36t86 -36t35 -89q0 -48 -35.5 -84.5t-85.5 -36.5zM872 -702q-51 0 -85.5 35t-34.5 85q0 53 34.5 89t85.5 36t86 -36t35 -89
q0 -48 -35.5 -84t-85.5 -36z" />
    <glyph glyph-name="uniFB58" unicode="&#x67e;" horiz-adv-x="663" arabic-form="initial" 
d="M0 0v188h72q100 0 134.5 37.5t37.5 149.5v608h188v-608q-2 -117 -17.5 -186.5t-57.5 -113.5t-108 -59.5t-177 -15.5h-72zM121 -410q-51 0 -86 35.5t-35 85.5q0 53 35 89t86 36t86 -36t35 -89q0 -48 -35.5 -84.5t-85.5 -36.5zM444 -410q-51 0 -85.5 35.5t-34.5 85.5
q0 53 34.5 89t85.5 36t86 -36t35 -89q0 -48 -35.5 -84.5t-85.5 -36.5zM283 -676q-51 0 -86 35.5t-35 85.5q0 53 35 89t86 36t85.5 -36t34.5 -89q0 -48 -35 -84.5t-85 -36.5z" />
    <glyph glyph-name="uniFB59" unicode="&#x67e;" horiz-adv-x="675" arabic-form="medial" 
d="M0 0v188h244v795h188v-795h254v-188h-686zM176 -422q-51 0 -86 35.5t-35 85.5q0 53 35 89t86 36t86 -36t35 -89q0 -48 -35.5 -84.5t-85.5 -36.5zM500 -422q-51 0 -86 35.5t-35 85.5q0 53 35 89t86 36t86 -36t35 -89q0 -48 -35.5 -84.5t-85.5 -36.5zM338 -688
q-51 0 -86 35.5t-35 85.5q0 53 35 89t86 36t86 -36t35 -89q0 -48 -35.5 -84.5t-85.5 -36.5z" />
    <glyph glyph-name="uniFB67" unicode="&#x679;" horiz-adv-x="1742" arabic-form="final" 
d="M627 1139v88h39v354h88v-168q80 57 151 57q156 0 156 -167q0 -46 -12 -78t-28 -49t-45.5 -25.5t-51 -10t-58.5 -1.5h-239zM754 1227h112q71 0 87 12t16 64q0 46 -13.5 62.5t-50.5 16.5q-34 0 -67.5 -19.5t-83.5 -66.5v-69zM1145 0h-524q-215 0 -352.5 145.5t-137.5 372.5
q0 241 150 391l6 -4l114 -131q-82 -98 -82 -256q0 -150 83.5 -240t218.5 -90h524q100 0 134.5 37.5t37.5 149.5v608h188v-608q-3 -127 -18 -187h270v-188h-303l-31 68q-39 -37 -105.5 -52.5t-172.5 -15.5z" />
    <glyph glyph-name="uniFB68" unicode="&#x679;" horiz-adv-x="573" arabic-form="initial" 
d="M109 1139v88h38v354h89v-168q80 57 151 57q156 0 156 -167q0 -46 -12 -78t-28 -49t-45.5 -25.5t-51 -10t-58.5 -1.5h-239zM236 1227h112q71 0 87 12t16 64q0 46 -13.5 62.5t-50.5 16.5q-34 0 -67.5 -19.5t-83.5 -66.5v-69zM0 0v188h72q100 0 134.5 37.5t37.5 149.5v608
h188v-608q-2 -117 -17.5 -186.5t-57.5 -113.5t-108 -59.5t-177 -15.5h-72z" />
    <glyph glyph-name="uniFB69" unicode="&#x679;" horiz-adv-x="675" arabic-form="medial" 
d="M123 1139v88h39v354h88v-168q80 57 151 57q156 0 156 -167q0 -46 -12 -78t-28 -49t-45.5 -25.5t-51 -10t-58.5 -1.5h-239zM250 1227h112q71 0 87 12t16 64q0 46 -13.5 62.5t-50.5 16.5q-34 0 -67.5 -19.5t-83.5 -66.5v-69zM0 0v188h244v795h188v-795h254v-188h-686z" />
    <glyph glyph-name="uniFB7B" unicode="&#x686;" horiz-adv-x="1263" arabic-form="final" 
d="M512 -571q-194 0 -318 117t-124 300q7 226 10 244q9 72 45.5 85.5t184.5 12.5h23h22h26h326q100 0 134.5 37.5t37.5 149.5v147q0 136 -91 228t-225 92q-202 0 -303 -203l-158 94q66 127 189 204t272 77q137 0 250.5 -66t180 -178.5t73.5 -247.5v-147q3 -112 37.5 -149.5
t134.5 -37.5h35v-188h-35q-196 0 -266 57q-73 -57 -264 -57h-449v-154q0 -105 68 -167t184 -62v-188zM557 -297q-41 0 -70.5 29.5t-29.5 70.5q0 43 29.5 74t70.5 31q42 0 72 -31t30 -74q0 -39 -30 -69.5t-72 -30.5zM829 -297q-43 0 -72.5 29.5t-29.5 70.5q0 43 30 74t72 31
q41 0 71 -31t30 -74q0 -40 -30 -70t-71 -30zM694 -520q-43 0 -72.5 29.5t-29.5 70.5q0 44 29.5 74.5t72.5 30.5q42 0 71.5 -30.5t29.5 -74.5q0 -40 -30 -70t-71 -30z" />
    <glyph glyph-name="uniFB7C" unicode="&#x686;" horiz-adv-x="1267" arabic-form="initial" 
d="M0 0v188h707q100 0 134.5 37.5t37.5 149.5v147q0 136 -91 228t-225 92q-202 0 -303 -203l-158 94q66 127 189 204t272 77q137 0 250.5 -66t180 -178.5t73.5 -247.5v-147q-2 -117 -17.5 -186.5t-57.5 -113.5t-107.5 -59.5t-175.5 -15.5h-709zM328 -410q-51 0 -86 35.5
t-35 85.5q0 53 35 89t86 36t86 -36t35 -89q0 -48 -35.5 -84.5t-85.5 -36.5zM651 -410q-51 0 -86 35.5t-35 85.5q0 53 35 89t86 36t86 -36t35 -89q0 -48 -35.5 -84.5t-85.5 -36.5zM489 -676q-51 0 -85.5 35.5t-34.5 85.5q0 53 34.5 89t85.5 36t86 -36t35 -89
q0 -48 -35.5 -84.5t-85.5 -36.5z" />
    <glyph glyph-name="uniFB7D" unicode="&#x686;" horiz-adv-x="1263" arabic-form="medial" 
d="M0 0v188h709q91 0 127 30.5t43 117.5v186q0 136 -91 228t-225 92q-202 0 -303 -203l-158 94q66 127 189 204t272 77q137 0 250.5 -66t180 -178.5t73.5 -247.5v-147q3 -112 37.5 -149.5t134.5 -37.5h35v-188h-35q-193 0 -264 55q-74 -55 -266 -55h-709zM328 -410
q-51 0 -86 35.5t-35 85.5q0 53 35 89t86 36t86 -36t35 -89q0 -48 -35.5 -84.5t-85.5 -36.5zM651 -410q-51 0 -86 35.5t-35 85.5q0 53 35 89t86 36t86 -36t35 -89q0 -48 -35.5 -84.5t-85.5 -36.5zM489 -676q-51 0 -85.5 35.5t-34.5 85.5q0 53 34.5 89t85.5 36t86 -36t35 -89
q0 -48 -35.5 -84.5t-85.5 -36.5z" />
    <glyph glyph-name="uniFB89" unicode="&#x688;" horiz-adv-x="1212" arabic-form="final" 
d="M211 1139v88h39v354h88v-168q80 57 151 57q156 0 156 -167q0 -46 -12 -78t-28 -49t-45.5 -25.5t-50.5 -10t-58 -1.5h-240zM338 1227h113q70 0 86 11.5t16 64.5q0 46 -13.5 62.5t-50.5 16.5q-34 0 -67.5 -19.5t-83.5 -66.5v-69zM106 0v188h635v328q-3 115 -91 197t-210 82
q-86 0 -133 -4v188q55 4 133 4q129 0 240.5 -61.5t178.5 -167.5t71 -232v-334h293v-188h-1117z" />
    <glyph glyph-name="uniFB8B" unicode="&#x698;" horiz-adv-x="667" arabic-form="final" 
d="M338 1413q-51 0 -86 36t-35 89q0 50 35 85.5t86 35.5q50 0 85.5 -36.5t35.5 -84.5q0 -53 -35 -89t-86 -36zM176 1147q-51 0 -86 36t-35 89q0 50 35 85.5t86 35.5q50 0 85.5 -36.5t35.5 -84.5q0 -53 -35 -89t-86 -36zM500 1147q-51 0 -86 36t-35 89q0 50 35 85.5t86 35.5
q50 0 85.5 -36.5t35.5 -84.5q0 -53 -35 -89t-86 -36zM35 -469q-91 0 -197 47l-2 2l60 150l2 2q66 -25 133 -25q96 0 152.5 78t56.5 211v987h188v-795h250v-188h-250q-2 -223 -104.5 -346t-288.5 -123z" />
    <glyph glyph-name="uniFB8D" unicode="&#x691;" horiz-adv-x="667" arabic-form="final" 
d="M115 1139v88h39v354h88v-168q80 57 151 57q156 0 156 -167q0 -46 -12 -78t-28 -49t-45.5 -25.5t-51 -10t-58.5 -1.5h-239zM242 1227h112q71 0 87 12t16 64q0 46 -13.5 62.5t-50.5 16.5q-34 0 -67.5 -19.5t-83.5 -66.5v-69zM35 -469q-91 0 -197 47l-2 2l60 150l2 2
q66 -25 133 -25q96 0 152.5 78t56.5 211v987h188v-795h250v-188h-250q-2 -223 -104.5 -346t-288.5 -123z" />
    <glyph glyph-name="uniFB8F" unicode="&#x6a9;" horiz-adv-x="1849" arabic-form="final" 
d="M705 0q-139 0 -237.5 31.5t-170.5 103.5t-106.5 193.5t-34.5 296.5q0 57 12 131h190q-9 -60 -14 -135q-7 -124 16 -211t74 -134.5t116 -67.5t152 -20h555q101 0 137 38t36 149q0 118 -54 217q-14 27 -31.5 49.5t-52 49t-78.5 44.5t-114 30.5t-156 12.5q-3 0 -29.5 0.5
t-44.5 0.5t-46.5 -2.5t-51.5 -8.5l-110 147l786 594l111 -147l-533 -404q87 -6 160 -22q78 -18 139.5 -48t102.5 -68t65.5 -70.5t46.5 -73.5q78 -146 78 -301q3 -112 37.5 -149.5t134.5 -37.5h70v-188h-70q-193 0 -266 57q-73 -57 -267 -57h-552z" />
    <glyph glyph-name="uniFB90" unicode="&#x6a9;" horiz-adv-x="1134" arabic-form="initial" 
d="M0 0v188h635q101 0 136.5 38t35.5 149q0 120 -53 217q-14 27 -31.5 49.5t-52 49t-78.5 44.5t-114 30.5t-156 12.5q-3 0 -29.5 0.5t-44.5 0.5t-46.5 -2.5t-51.5 -8.5l-111 147l786 594l111 -147l-533 -404q87 -6 160 -22q63 -15 116.5 -38.5t89 -48.5t66 -57t48.5 -58
t35 -58q77 -144 77 -301q0 -115 -16 -185t-58.5 -114t-109 -60t-176.5 -16h-635z" />
    <glyph glyph-name="uniFB91" unicode="&#x6a9;" horiz-adv-x="1224" arabic-form="medial" 
d="M0 0v188h635q101 0 136.5 38t35.5 149q0 120 -53 217q-14 27 -31.5 49.5t-52 49t-78.5 44.5t-114 30.5t-156 12.5q-3 0 -29.5 0.5t-44.5 0.5t-46.5 -2.5t-51.5 -8.5l-111 147l786 594l111 -147l-533 -404q87 -6 160 -22q63 -15 116.5 -38.5t89 -48.5t66 -57t48.5 -58
t35 -58q77 -144 77 -301v-35q6 -90 41.5 -121t128.5 -31h70v-188h-70q-193 0 -266 57q-73 -57 -264 -57h-635z" />
    <glyph glyph-name="uniFB93" unicode="&#x6af;" horiz-adv-x="1849" arabic-form="final" 
d="M604 999l-55 76l786 594l56 -76zM705 0q-139 0 -237.5 31.5t-170.5 103.5t-106.5 193.5t-34.5 296.5q0 57 12 131h190q-9 -60 -14 -135q-7 -124 16 -211t74 -134.5t116 -67.5t152 -20h555q101 0 137 38t36 149q0 118 -54 217q-14 27 -31.5 49.5t-52 49t-78.5 44.5
t-114 30.5t-156 12.5q-3 0 -29.5 0.5t-44.5 0.5t-46.5 -2.5t-51.5 -8.5l-110 147l786 594l111 -147l-533 -404q87 -6 160 -22q78 -18 139.5 -48t102.5 -68t65.5 -70.5t46.5 -73.5q78 -146 78 -301q3 -112 37.5 -149.5t134.5 -37.5h70v-188h-70q-193 0 -266 57
q-73 -57 -267 -57h-552z" />
    <glyph glyph-name="uniFB94" unicode="&#x6af;" horiz-adv-x="1060" arabic-form="initial" 
d="M-25 999l-55 76l787 594l55 -76zM0 0v188h635q101 0 136.5 38t35.5 149q0 120 -53 217q-14 27 -31.5 49.5t-52 49t-78.5 44.5t-114 30.5t-156 12.5q-3 0 -29.5 0.5t-44.5 0.5t-46.5 -2.5t-51.5 -8.5l-111 147l786 594l111 -147l-533 -404q87 -6 160 -22
q63 -15 116.5 -38.5t89 -48.5t66 -57t48.5 -58t35 -58q77 -144 77 -301q0 -115 -16 -185t-58.5 -114t-109 -60t-176.5 -16h-635z" />
    <glyph glyph-name="uniFB95" unicode="&#x6af;" horiz-adv-x="1224" arabic-form="medial" 
d="M-25 999l-55 76l787 594l55 -76zM0 0v188h635q101 0 136.5 38t35.5 149q0 120 -53 217q-14 27 -31.5 49.5t-52 49t-78.5 44.5t-114 30.5t-156 12.5q-3 0 -29.5 0.5t-44.5 0.5t-46.5 -2.5t-51.5 -8.5l-111 147l786 594l111 -147l-533 -404q87 -6 160 -22
q63 -15 116.5 -38.5t89 -48.5t66 -57t48.5 -58t35 -58q77 -144 77 -301v-35q6 -90 41.5 -121t128.5 -31h70v-188h-70q-193 0 -266 57q-73 -57 -264 -57h-635z" />
    <glyph glyph-name="uniFB9F" unicode="&#x6ba;" horiz-adv-x="1378" arabic-form="final" 
d="M653 -299q-138 0 -237.5 34t-171 110.5t-106 206t-34.5 315.5q0 69 12.5 174.5t30.5 179.5l3 2l180 -14l2 -2q-34 -152 -39 -349q-1 -135 23 -228.5t73 -145t112 -73.5t150 -22q159 0 240.5 110t81.5 325v659h188v-653q16 -82 68 -112t145 -30h15v-188h-15
q-164 0 -250 51q-56 -173 -179 -261.5t-292 -88.5z" />
    <glyph glyph-name="uniFBA7" unicode="&#x6c1;" horiz-adv-x="1224" arabic-form="final" 
d="M92 -31v123q0 382 148 561q146 174 481 174q90 0 145 -8l23 49h106v-506q0 -110 10 -136q13 -30 60 -35q23 -3 102 -3h68v-188h-68q-88 0 -146.5 10.5t-101.5 34t-66.5 66.5t-34 102.5t-11.5 148.5v275q-25 2 -86 2q-246 0 -336 -109q-104 -121 -104 -438v-123h-189z" />
    <glyph glyph-name="uniFBA8" unicode="&#x6c1;" horiz-adv-x="573" arabic-form="initial" 
d="M244 983h188v-608q-2 -150 -31.5 -228.5t-101.5 -113.5l-53 -180v-9q32 -13 50.5 -46.5t18.5 -76.5q0 -60 -36.5 -95.5t-90.5 -35.5q-56 0 -91.5 37t-35.5 101q0 76 74 204l43 72q-66 -4 -106 -4h-72v188h72q100 0 134.5 37.5t37.5 149.5v608z" />
    <glyph glyph-name="uniFBA9" unicode="&#x6c1;" horiz-adv-x="1198" arabic-form="medial" 
d="M831 -584q-335 0 -481 174q-117 140 -141 410h-209v188h203v189h188v-225q0 -164 25 -270.5t80 -170.5q76 -88 243 -102v207q0 91 10.5 152.5t34 105.5t66.5 68t102.5 35t147.5 11h108v-188h-108q-35 0 -47.5 0.5t-36.5 -2t-30.5 -2.5t-21 -8t-16.5 -10t-9.5 -17.5
t-7 -22t-2 -32.5t-2 -39.5t0.5 -50.5v-400h-97z" />
    <glyph glyph-name="uniFBAB" unicode="&#x6be;" horiz-adv-x="1304" arabic-form="final" 
d="M723 -506q-154 0 -254.5 101.5t-106.5 261.5v143h-268l-2 106l187 82h83v433q2 112 19 179.5t59.5 109.5t108.5 57.5t174 15.5h31q124 0 229 -65t166 -176.5t61 -243.5q0 -191 -110 -326q63 16 176 16h39v-188h-39q-90 0 -130 -28t-40 -103q-2 -164 -103 -269.5
t-258 -105.5h-22zM551 188h203q111 0 189.5 90.5t78.5 219.5q0 123 -76.5 209t-185.5 88h-70q-79 -6 -107.5 -45t-31.5 -142v-420zM723 -317h22q69 0 116.5 46t53.5 119q6 128 35 199q-89 -47 -196 -47h-203v-131q1 -82 49.5 -134t122.5 -52z" />
    <glyph glyph-name="uniFBAC" unicode="&#x6be;" horiz-adv-x="1433" arabic-form="initial" 
d="M0 0v188h207q-90 126 -90 293q0 195 113.5 316t299.5 121q200 0 312 -129t112 -357v-244h205v340q0 323 -127 458.5t-428 135.5q-129 0 -270 -63l-92 151q181 101 368 101q204 0 342.5 -42t227.5 -137t128.5 -242t39.5 -362v-528h-1348zM596 188h170v244q0 153 -58.5 225
t-177.5 72q-106 0 -165.5 -65t-59.5 -183q0 -134 80.5 -213.5t210.5 -79.5z" />
    <glyph glyph-name="uniFBAD" unicode="&#x6be;" horiz-adv-x="1058" arabic-form="medial" 
d="M477 -506q-153 0 -253.5 101.5t-106.5 261.5v143h-117v188h117v433q2 89 13.5 149t35 103t66.5 66t101 33.5t144 10.5h31q124 0 229.5 -65t166.5 -176.5t61 -243.5q0 -190 -111 -326q63 16 176 16h39v-188h-39q-90 0 -130 -28t-40 -103q-2 -164 -102.5 -269.5
t-257.5 -105.5h-23zM305 188h203q111 0 189.5 90.5t78.5 219.5q0 123 -76.5 209t-185.5 88h-70q-79 -6 -107.5 -45t-31.5 -142v-420zM477 -317h23q69 0 116.5 46t53.5 119q6 128 35 199q-89 -47 -197 -47h-203v-131q1 -82 49.5 -134t122.5 -52z" />
    <glyph glyph-name="uniFBAF" unicode="&#x6d2;" horiz-adv-x="1228" arabic-form="final" 
d="M670 -504q-240 0 -302 7q-122 13 -166 72q-42 54 -42 177q0 229 150.5 332.5t480.5 103.5h448v-188h-448q-171 0 -266 -23.5t-136 -76.5t-41 -148q0 -48 48.5 -57.5t261.5 -9.5h12h569v-189h-569z" />
    <glyph glyph-name="uniFBB1" unicode="&#x6d3;" horiz-adv-x="1228" arabic-form="final" 
d="M205 254l-55 78q64 29 81 33q-6 30 -6 53q0 93 52 138.5t129 45.5q46 0 104 -22l-29 -97q-52 23 -75 23q-34 0 -59 -22.5t-25 -65.5q0 -18 10 -45h194v-99h-245q-9 0 -76 -20zM670 -504q-240 0 -302 7q-122 13 -166 72q-42 54 -42 177q0 229 150.5 332.5t480.5 103.5h448
v-188h-448q-171 0 -266 -23.5t-136 -76.5t-41 -148q0 -48 48.5 -57.5t261.5 -9.5h12h569v-189h-569z" />
    <glyph glyph-name="uniFBFD" unicode="&#x6cc;" horiz-adv-x="1890" arabic-form="final" 
d="M666 -389q-138 0 -237.5 33.5t-171 110.5t-106 206t-34.5 315q0 69 12.5 175t30.5 180l2 2l180 -15l2 -2q-34 -152 -39 -348q-3 -135 21.5 -228.5t74.5 -145t113.5 -73.5t149.5 -22q175 0 248 99t73 335v189q2 116 18 185.5t58.5 113.5t108.5 60t176 16q188 0 356 -23
l2 -399q3 -112 37.5 -149.5t134.5 -37.5h25v-188h-25q-110 0 -176 16t-108 60t-58 113.5t-18 185.5v233h-170q-100 0 -134.5 -37t-37.5 -149v-189q0 -340 -115 -481t-393 -141z" />
    <glyph glyph-name="uniFBFE" unicode="&#x6cc;" horiz-adv-x="643" arabic-form="initial" 
d="M0 0v188h141q100 0 134.5 37.5t37.5 149.5v608h189v-608q-2 -117 -17.5 -186.5t-58 -113.5t-108.5 -59.5t-177 -15.5h-141zM-20 -430q-51 0 -86 36t-35 89q0 50 35 85.5t86 35.5q50 0 85 -36.5t35 -84.5q0 -53 -34.5 -89t-85.5 -36zM303 -430q-51 0 -86 36t-35 89
q0 50 35 85.5t86 35.5q50 0 85.5 -36.5t35.5 -84.5q0 -53 -35 -89t-86 -36z" />
    <glyph glyph-name="uniFBFF" unicode="&#x6cc;" horiz-adv-x="675" arabic-form="medial" 
d="M0 0v188h244v795h188v-795h254v-188h-686zM176 -430q-51 0 -86 36t-35 89q0 50 35 85.5t86 35.5q50 0 85.5 -36.5t35.5 -84.5q0 -53 -35 -89t-86 -36zM500 -430q-51 0 -86 36t-35 89q0 50 35 85.5t86 35.5q50 0 85.5 -36.5t35.5 -84.5q0 -53 -35 -89t-86 -36z" />
    <glyph glyph-name="uniFC5E" unicode="&#xfc5e;" arabic-form="isolated" 
d="M311 1538q-55 0 -107.5 20t-78.5 56l-62 -43l-32 74l123 79q32 -81 104 -102v23q0 72 27.5 127.5t75 75t110.5 -12.5q34 -21 55 -47.5t28 -65t-19 -80.5q-62 -111 -224 -104zM342 1618q90 3 121 61q25 58 -33 84q-17 10 -30.5 7t-23 -8t-15.5 -20t-10 -27.5t-6 -32
t-2.5 -33.5t-0.5 -31zM258 1200q-39 -6 -67.5 1.5t-43.5 22.5t-24 39t-11.5 44t-2.5 45v88l81 14v-102q0 -76 41 -76q15 0 27 6v158l84 14v-115q0 -63 41 -63q12 0 27 6v158l79 14v-199q0 -41 -38 -49l-41 -6q-56 -8 -95 12l-16 -6z" />
    <glyph glyph-name="uniFC5F" unicode="&#xfc5f;" arabic-form="isolated" 
d="M182 1526q-48 -5 -80.5 7.5t-46.5 39t-19 51t-5 55.5v90l82 13v-103q0 -73 43 -73q16 0 26 2v161l82 13v-103q0 -73 43 -73q15 0 27 2v161l80 13v-199q0 -40 -41 -49l-39 -8q-65 -3 -94 12l-19 -4zM55 1341v97l348 55v-96zM55 1190v98l348 53v-94z" />
    <glyph glyph-name="uniFC60" unicode="&#xfc60;" arabic-form="isolated" 
d="M51 1493v96l346 56v-97zM182 1202q-48 -5 -80.5 7.5t-46.5 39.5t-19 51.5t-5 55.5v90l82 10v-100q0 -76 43 -76q6 0 26 4v162l82 10v-100q0 -76 43 -76l27 4v162l80 10v-196q0 -41 -41 -50l-39 -8q-65 -3 -94 12l-19 -4z" />
    <glyph glyph-name="uniFC61" unicode="&#xfc61;" arabic-form="isolated" 
d="M31 1579l39 72q57 -32 110 -47q-5 61 10.5 112t45.5 78t70.5 33.5t84.5 -19.5q36 -20 57.5 -46t27.5 -64t-21 -82q-14 -24 -39 -46t-65 -38t-86.5 -19.5t-108 12.5t-125.5 54zM262 1593q46 3 76.5 21t44.5 43q28 51 -31 80q-48 23 -69 -18.5t-21 -125.5zM197 1198
q-39 -4 -67.5 4.5t-44 23.5t-24.5 38.5t-11.5 43.5t-2.5 44v88l82 14v-102q0 -74 41 -74q17 0 27 2v160l82 14v-102q0 -74 40 -74q19 0 29 2v160l82 14v-199q0 -38 -43 -47l-39 -10q-67 -3 -96 12q-2 -2 -14 -2z" />
    <glyph glyph-name="uniFC62" unicode="&#xfc62;" arabic-form="isolated" 
d="M182 1395q-48 -6 -80.5 6.5t-46.5 39.5t-19 51.5t-5 55.5v88l82 13v-101q0 -75 43 -75q16 0 26 4v159l82 13v-115q4 -61 43 -61q15 0 27 4v159l80 13v-199q0 -37 -41 -49l-39 -6q-60 -6 -94 12l-19 -6zM55 1188v96l346 55v-96z" />
    <glyph glyph-name="uniFD3C" unicode="&#xfd3c;" horiz-adv-x="532" arabic-form="final" 
d="M27 1493v92l446 74v-94zM27 1335v95l446 71v-92zM154 0v1239h188v-1051h201v-188h-389z" />
    <glyph glyph-name="uniFD3D" unicode="&#xfd3d;" horiz-adv-x="491" arabic-form="isolated" 
d="M27 1493v92l446 74v-94zM27 1335v95l446 71v-92zM154 0v1212h184v-1212h-184z" />
    <glyph glyph-name="uniFE82" unicode="&#x622;" horiz-adv-x="532" arabic-form="final" 
d="M322 1370q-48 0 -121 33t-86 33q-41 0 -41 -60h-111q-5 74 37 123t111 49q14 0 29.5 -4t26.5 -8.5t32 -14t32 -14.5q53 -24 95 -24q30 0 53.5 6t36.5 12.5t59 30.5v-121q-71 -41 -153 -41zM154 0v1239h188v-1051h201v-188h-389z" />
    <glyph glyph-name="uniFE84" unicode="&#x623;" horiz-adv-x="532" arabic-form="final" 
d="M80 1315l-64 92q61 28 86 35q-6 24 -6 47q0 89 50.5 140.5t138.5 51.5q47 0 114 -26l-34 -113q-49 27 -80 27q-34 0 -55 -22t-21 -58q0 -19 6 -37h199v-115h-254q-11 0 -43.5 -10.5t-36.5 -11.5zM154 0v1239h188v-1051h201v-188h-389z" />
    <glyph glyph-name="uniFE86" unicode="&#x624;" horiz-adv-x="1157" arabic-form="final" 
d="M385 1116l-63 92q61 28 86 35q-7 28 -7 47q0 89 50.5 141t138.5 52q46 0 115 -27l-35 -113q-49 27 -80 27q-34 0 -55 -22t-21 -58q0 -19 6 -37h199v-114h-254q-10 0 -42.5 -11t-37.5 -12zM453 -459q-208 0 -371 97v4l90 147h2q148 -72 283 -72q144 0 228.5 76.5
t86.5 206.5h-203q-132 0 -243.5 65t-176.5 176.5t-65 243.5q0 137 65 251.5t176.5 180.5t243.5 66q137 0 260 -76l25 56h107v-775h206v-188h-206q-4 -218 -138.5 -338.5t-369.5 -120.5zM569 188h203v537q-89 86 -203 86q-123 0 -210 -95t-87 -231q0 -124 87 -210.5
t210 -86.5z" />
    <glyph glyph-name="uniFE88" unicode="&#x625;" horiz-adv-x="532" arabic-form="final" 
d="M154 0v1475h188v-1287h201v-188h-389zM80 -498l-64 92q61 28 86 35q-6 24 -6 47q0 89 50.5 141t138.5 52q45 0 114 -27l-34 -112q-47 26 -80 26q-34 0 -55 -22t-21 -58q0 -18 6 -36h199v-115h-254q-10 0 -42.5 -11t-37.5 -12z" />
    <glyph glyph-name="uniFE8A" unicode="&#x626;" horiz-adv-x="1890" arabic-form="final" 
d="M98 692l-63 92q61 28 86 35q-6 24 -6 47q0 89 50 141t138 52q46 0 115 -27l-35 -112q-47 26 -80 26q-34 0 -55 -22t-21 -58q0 -19 6 -37h199v-114h-254q-10 0 -42.5 -11t-37.5 -12zM666 -389q-138 0 -237.5 33.5t-171 110.5t-106 206t-34.5 315q0 69 12.5 175t30.5 180
l2 2l180 -15l2 -2q-34 -152 -39 -348q-3 -135 21.5 -228.5t74.5 -145t113.5 -73.5t149.5 -22q175 0 248 99t73 335v189q2 116 18 185.5t58.5 113.5t108.5 60t176 16q188 0 356 -23l2 -399q3 -112 37.5 -149.5t134.5 -37.5h25v-188h-25q-110 0 -176 16t-108 60t-58 113.5
t-18 185.5v233h-170q-100 0 -134.5 -37t-37.5 -149v-189q0 -340 -115 -481t-393 -141z" />
    <glyph glyph-name="uniFE8B" unicode="&#x626;" horiz-adv-x="573" arabic-form="initial" 
d="M170 1116l-64 92q59 27 87 35q-7 28 -7 47q0 89 50.5 141t138.5 52q45 0 114 -27l-34 -113q-49 27 -80 27q-34 0 -55 -22t-21 -58q0 -19 6 -37h199v-114h-254q-10 0 -42.5 -11t-37.5 -12zM0 0v188h72q100 0 134.5 37.5t37.5 149.5v608h188v-608q-2 -117 -17.5 -186.5
t-57.5 -113.5t-108 -59.5t-177 -15.5h-72z" />
    <glyph glyph-name="uniFE8C" unicode="&#x626;" horiz-adv-x="675" arabic-form="medial" 
d="M170 1116l-64 92q59 27 87 35q-7 28 -7 47q0 89 50.5 141t138.5 52q45 0 114 -27l-34 -113q-49 27 -80 27q-34 0 -55 -22t-21 -58q0 -19 6 -37h199v-114h-254q-10 0 -42.5 -11t-37.5 -12zM0 0v188h244v795h188v-795h254v-188h-686z" />
    <glyph glyph-name="uniFE8E" unicode="&#x627;" horiz-adv-x="532" arabic-form="final" 
d="M154 0v1475h188v-1287h201v-188h-389z" />
    <glyph glyph-name="uniFE90" unicode="&#x628;" horiz-adv-x="1742" arabic-form="final" 
d="M1145 0h-524q-215 0 -352.5 145.5t-137.5 372.5q0 241 150 391l6 -4l114 -131q-82 -98 -82 -256q0 -150 83.5 -240t218.5 -90h524q100 0 134.5 37.5t37.5 149.5v608h188v-608q-3 -127 -18 -187h270v-188h-303l-31 68q-39 -37 -105.5 -52.5t-172.5 -15.5zM866 -430
q-51 0 -86 36t-35 89q0 50 35 85.5t86 35.5q50 0 85.5 -36.5t35.5 -84.5q0 -53 -35 -89t-86 -36z" />
    <glyph glyph-name="uniFE91" unicode="&#x628;" horiz-adv-x="573" arabic-form="initial" 
d="M0 0v188h72q100 0 134.5 37.5t37.5 149.5v608h188v-608q-2 -117 -17.5 -186.5t-57.5 -113.5t-108 -59.5t-177 -15.5h-72zM236 -430q-51 0 -86 36t-35 89q0 50 35 85.5t86 35.5q50 0 85 -36.5t35 -84.5q0 -53 -34.5 -89t-85.5 -36z" />
    <glyph glyph-name="uniFE92" unicode="&#x628;" horiz-adv-x="675" arabic-form="medial" 
d="M0 0v188h244v795h188v-795h254v-188h-686zM338 -430q-51 0 -86 36t-35 89q0 50 35 85.5t86 35.5q50 0 85.5 -36.5t35.5 -84.5q0 -53 -35 -89t-86 -36z" />
    <glyph glyph-name="uniFE94" unicode="&#x629;" horiz-adv-x="1173" arabic-form="final" 
d="M367 1147q-51 0 -86 36t-35 89q0 50 35 85.5t86 35.5q50 0 85 -36.5t35 -84.5q0 -53 -34.5 -89t-85.5 -36zM690 1147q-51 0 -86 36t-35 89q0 50 35 85.5t86 35.5q50 0 85.5 -36.5t35.5 -84.5q0 -53 -35 -89t-86 -36zM547 0q-132 0 -244 65t-177 176.5t-65 243.5
q0 143 65 262.5t177 188t244 68.5q137 0 260 -76l24 55h107v-621q0 -24 -2 -36q18 -80 70 -109t143 -29h33v-188h-33q-195 0 -285 76q-40 -42 -108.5 -59t-177.5 -17h-31zM547 188h31q100 0 134.5 37.5t37.5 149.5v364q-49 42 -94.5 59t-108.5 17q-124 0 -210.5 -95.5
t-86.5 -234.5q0 -123 87 -210t210 -87z" />
    <glyph glyph-name="uniFE96" unicode="&#x62a;" horiz-adv-x="1742" arabic-form="final" 
d="M692 1147q-51 0 -86 36t-35 89q0 50 35 85.5t86 35.5q50 0 85.5 -36.5t35.5 -84.5q0 -53 -35 -89t-86 -36zM1016 1147q-51 0 -86 36t-35 89q0 50 35 85.5t86 35.5q50 0 85.5 -36.5t35.5 -84.5q0 -53 -35 -89t-86 -36zM1145 0h-524q-215 0 -352.5 145.5t-137.5 372.5
q0 241 150 391l6 -4l114 -131q-82 -98 -82 -256q0 -150 83.5 -240t218.5 -90h524q100 0 134.5 37.5t37.5 149.5v608h188v-608q-3 -127 -18 -187h270v-188h-303l-31 68q-39 -37 -105.5 -52.5t-172.5 -15.5z" />
    <glyph glyph-name="uniFE97" unicode="&#x62a;" horiz-adv-x="573" arabic-form="initial" 
d="M156 1147q-51 0 -86 36t-35 89q0 50 35 85.5t86 35.5q50 0 85 -36.5t35 -84.5q0 -53 -34.5 -89t-85.5 -36zM479 1147q-51 0 -86 36t-35 89q0 50 35 85.5t86 35.5q50 0 85.5 -36.5t35.5 -84.5q0 -53 -35 -89t-86 -36zM0 0v188h72q100 0 134.5 37.5t37.5 149.5v608h188
v-608q-2 -117 -17.5 -186.5t-57.5 -113.5t-108 -59.5t-177 -15.5h-72z" />
    <glyph glyph-name="uniFE98" unicode="&#x62a;" horiz-adv-x="675" arabic-form="medial" 
d="M176 1147q-51 0 -86 36t-35 89q0 50 35 85.5t86 35.5q50 0 85.5 -36.5t35.5 -84.5q0 -53 -35 -89t-86 -36zM500 1147q-51 0 -86 36t-35 89q0 50 35 85.5t86 35.5q50 0 85.5 -36.5t35.5 -84.5q0 -53 -35 -89t-86 -36zM0 0v188h244v795h188v-795h254v-188h-686z" />
    <glyph glyph-name="uniFE9A" unicode="&#x62b;" horiz-adv-x="1742" arabic-form="final" 
d="M854 1413q-51 0 -86 36t-35 89q0 50 35 85.5t86 35.5q50 0 85.5 -36.5t35.5 -84.5q0 -53 -35 -89t-86 -36zM692 1147q-51 0 -86 36t-35 89q0 50 35 85.5t86 35.5q50 0 85.5 -36.5t35.5 -84.5q0 -53 -35 -89t-86 -36zM1016 1147q-51 0 -86 36t-35 89q0 50 35 85.5t86 35.5
q50 0 85.5 -36.5t35.5 -84.5q0 -53 -35 -89t-86 -36zM1145 0h-524q-215 0 -352.5 145.5t-137.5 372.5q0 241 150 391l6 -4l114 -131q-82 -98 -82 -256q0 -150 83.5 -240t218.5 -90h524q100 0 134.5 37.5t37.5 149.5v608h188v-608q-3 -127 -18 -187h270v-188h-303l-31 68
q-39 -37 -105.5 -52.5t-172.5 -15.5z" />
    <glyph glyph-name="uniFE9B" unicode="&#x62b;" horiz-adv-x="573" arabic-form="initial" 
d="M317 1413q-51 0 -85.5 36t-34.5 89q0 50 34.5 85.5t85.5 35.5q50 0 85.5 -36.5t35.5 -84.5q0 -53 -35 -89t-86 -36zM156 1147q-51 0 -86 36t-35 89q0 50 35 85.5t86 35.5q50 0 85 -36.5t35 -84.5q0 -53 -34.5 -89t-85.5 -36zM479 1147q-51 0 -86 36t-35 89q0 50 35 85.5
t86 35.5q50 0 85.5 -36.5t35.5 -84.5q0 -53 -35 -89t-86 -36zM0 0v188h72q100 0 134.5 37.5t37.5 149.5v608h188v-608q-2 -117 -17.5 -186.5t-57.5 -113.5t-108 -59.5t-177 -15.5h-72z" />
    <glyph glyph-name="uniFE9C" unicode="&#x62b;" horiz-adv-x="675" arabic-form="medial" 
d="M344 1413q-51 0 -86 36t-35 89q0 50 35 85.5t86 35.5q50 0 85.5 -36.5t35.5 -84.5q0 -53 -35 -89t-86 -36zM182 1147q-51 0 -86 36t-35 89q0 50 35 85.5t86 35.5q50 0 85.5 -36.5t35.5 -84.5q0 -53 -35 -89t-86 -36zM506 1147q-51 0 -86 36t-35 89q0 50 35 85.5t86 35.5
q50 0 85.5 -36.5t35.5 -84.5q0 -53 -35 -89t-86 -36zM0 0v188h244v795h188v-795h254v-188h-686z" />
    <glyph glyph-name="uniFE9E" unicode="&#x62c;" horiz-adv-x="1263" arabic-form="final" 
d="M512 -571q-194 0 -318 117t-124 300q7 226 10 244q5 39 14.5 58t34.5 29t61.5 11.5t105.5 0.5q53 -1 85 -1h326q100 0 134.5 37.5t37.5 149.5v147q0 136 -91 228t-225 92q-202 0 -303 -203l-158 94q66 127 189 204t272 77q137 0 253 -66t183.5 -179t67.5 -247v-147
q3 -112 37.5 -149.5t134.5 -37.5h35v-188h-35q-196 0 -266 57q-73 -57 -264 -57h-449v-154q0 -105 68 -167t184 -62h172v-188h-172zM692 -297q-43 0 -72.5 29.5t-29.5 72.5t29.5 73t72.5 30t73 -30t30 -73t-30 -72.5t-73 -29.5z" />
    <glyph glyph-name="uniFE9F" unicode="&#x62c;" horiz-adv-x="1148" arabic-form="initial" 
d="M0 0v188h707q100 0 134.5 37.5t37.5 149.5v147q0 136 -91 228t-225 92q-202 0 -303 -203l-158 94q66 127 189 204t272 77q137 0 250.5 -66t180 -178.5t73.5 -247.5v-147q-2 -117 -17.5 -186.5t-57.5 -113.5t-107.5 -59.5t-175.5 -15.5h-709zM481 -430q-51 0 -86 36
t-35 89q0 50 35 85.5t86 35.5q50 0 85.5 -36.5t35.5 -84.5q0 -53 -35 -89t-86 -36z" />
    <glyph glyph-name="uniFEA0" unicode="&#x62c;" horiz-adv-x="1263" arabic-form="medial" 
d="M0 0v188h709q91 0 127 30.5t43 117.5v186q0 136 -91 228t-225 92q-202 0 -303 -203l-158 94q66 127 189 204t272 77q137 0 250.5 -66t180 -178.5t73.5 -247.5v-147q3 -112 37.5 -149.5t134.5 -37.5h35v-188h-35q-193 0 -264 55q-74 -55 -266 -55h-709zM481 -430
q-51 0 -86 36t-35 89q0 50 35 85.5t86 35.5q50 0 85.5 -36.5t35.5 -84.5q0 -53 -35 -89t-86 -36z" />
    <glyph glyph-name="uniFEA2" unicode="&#x62d;" horiz-adv-x="1263" arabic-form="final" 
d="M512 -571q-194 0 -318 117t-124 300q7 226 10 244q5 39 14.5 58t34.5 29t61.5 11.5t105.5 0.5q53 -1 85 -1h326q100 0 134.5 37.5t37.5 149.5v147q0 136 -91 228t-225 92q-202 0 -303 -203l-158 94q66 127 189 204t272 77q137 0 253 -66t183.5 -179t67.5 -247v-147
q3 -112 37.5 -149.5t134.5 -37.5h35v-188h-35q-196 0 -266 57q-73 -57 -264 -57h-449v-154q0 -105 68 -167t184 -62h172v-188h-172z" />
    <glyph glyph-name="uniFEA3" unicode="&#x62d;" horiz-adv-x="1148" arabic-form="initial" 
d="M0 0v188h707q100 0 134.5 37.5t37.5 149.5v147q0 136 -91 228t-225 92q-202 0 -303 -203l-158 94q66 127 189 204t272 77q137 0 250.5 -66t180 -178.5t73.5 -247.5v-147q-2 -117 -17.5 -186.5t-57.5 -113.5t-107.5 -59.5t-175.5 -15.5h-709z" />
    <glyph glyph-name="uniFEA4" unicode="&#x62d;" horiz-adv-x="1263" arabic-form="medial" 
d="M0 0v188h709q91 0 127 30.5t43 117.5v186q0 136 -91 228t-225 92q-202 0 -303 -203l-158 94q66 127 189 204t272 77q137 0 250.5 -66t180 -178.5t73.5 -247.5v-147q3 -112 37.5 -149.5t134.5 -37.5h35v-188h-35q-193 0 -264 55q-74 -55 -266 -55h-709z" />
    <glyph glyph-name="uniFEA6" unicode="&#x62e;" horiz-adv-x="1263" arabic-form="final" 
d="M563 1147q-51 0 -86 36t-35 89q0 50 35 85.5t86 35.5q50 0 85.5 -36.5t35.5 -84.5q0 -51 -35 -88t-86 -37zM512 -571q-194 0 -318 117t-124 300q7 226 10 244q5 39 14.5 58t34.5 29t61.5 11.5t105.5 0.5q53 -1 85 -1h326q100 0 134.5 37.5t37.5 149.5v147q0 136 -91 228
t-225 92q-202 0 -303 -203l-158 94q66 127 189 204t272 77q137 0 253 -66t183.5 -179t67.5 -247v-147q3 -112 37.5 -149.5t134.5 -37.5h35v-188h-35q-196 0 -266 57q-73 -57 -264 -57h-449v-154q0 -105 68 -167t184 -62h172v-188h-172z" />
    <glyph glyph-name="uniFEA7" unicode="&#x62e;" horiz-adv-x="1148" arabic-form="initial" 
d="M563 1147q-51 0 -86 36t-35 89q0 50 35 85.5t86 35.5q50 0 85.5 -36.5t35.5 -84.5q0 -51 -35 -88t-86 -37zM0 0v188h707q100 0 134.5 37.5t37.5 149.5v147q0 136 -91 228t-225 92q-202 0 -303 -203l-158 94q66 127 189 204t272 77q137 0 250.5 -66t180 -178.5
t73.5 -247.5v-147q-2 -117 -17.5 -186.5t-57.5 -113.5t-107.5 -59.5t-175.5 -15.5h-709z" />
    <glyph glyph-name="uniFEA8" unicode="&#x62e;" horiz-adv-x="1263" arabic-form="medial" 
d="M563 1147q-51 0 -86 36t-35 89q0 50 35 85.5t86 35.5q50 0 85.5 -36.5t35.5 -84.5q0 -51 -35 -88t-86 -37zM0 0v188h709q91 0 127 30.5t43 117.5v186q0 136 -91 228t-225 92q-202 0 -303 -203l-158 94q66 127 189 204t272 77q137 0 250.5 -66t180 -178.5t73.5 -247.5
v-147q3 -112 37.5 -149.5t134.5 -37.5h35v-188h-35q-193 0 -264 55q-74 -55 -266 -55h-709z" />
    <glyph glyph-name="uniFEAA" unicode="&#x62f;" horiz-adv-x="1212" arabic-form="final" 
d="M106 0v188h635v328q-3 115 -91 197t-210 82q-86 0 -133 -4v188q55 4 133 4q129 0 240.5 -61.5t178.5 -167.5t71 -232v-334h293v-188h-1117z" />
    <glyph glyph-name="uniFEAC" unicode="&#x630;" horiz-adv-x="1212" arabic-form="final" 
d="M477 1147q-51 0 -86 36t-35 89q0 50 35 85.5t86 35.5q50 0 85.5 -36.5t35.5 -84.5q0 -53 -35 -89t-86 -36zM106 0v188h635v328q-3 115 -91 197t-210 82q-86 0 -133 -4v188q55 4 133 4q129 0 240.5 -61.5t178.5 -167.5t71 -232v-334h293v-188h-1117z" />
    <glyph glyph-name="uniFEAE" unicode="&#x631;" horiz-adv-x="667" arabic-form="final" 
d="M35 -469q-91 0 -197 47l-2 2l60 150l2 2q66 -25 133 -25q96 0 152.5 78t56.5 211v987h188v-795h250v-188h-250q-2 -223 -104.5 -346t-288.5 -123z" />
    <glyph glyph-name="uniFEB0" unicode="&#x632;" horiz-adv-x="667" arabic-form="final" 
d="M332 1147q-51 0 -86 36t-35 89q0 50 35 85.5t86 35.5q50 0 85.5 -36.5t35.5 -84.5q0 -53 -35 -89t-86 -36zM35 -469q-91 0 -197 47l-2 2l60 150l2 2q66 -25 133 -25q96 0 152.5 78t56.5 211v987h188v-795h250v-188h-250q-2 -223 -104.5 -346t-288.5 -123z" />
    <glyph glyph-name="uniFEB2" unicode="&#x633;" horiz-adv-x="2467" arabic-form="final" 
d="M664 -391q-138 0 -237.5 33.5t-171 110.5t-106 206t-34.5 315q0 69 12.5 175t30.5 180l2 2l180 -15l2 -2q-17 -73 -28 -177.5t-11 -170.5q0 -135 24.5 -228.5t73.5 -145t112 -73.5t149 -22q158 0 239.5 109.5t81.5 324.5v639h188v-682h183q100 0 134.5 37.5t37.5 149.5
v495h188v-495q-3 -127 -18 -187h196q100 0 134.5 37.5t37.5 149.5v608h189v-608q3 -112 37.5 -149.5t134.5 -37.5h53v-188h-53q-196 0 -266 57q-70 -51 -228 -57h-266l-31 72q-40 -39 -106.5 -55.5t-171.5 -16.5h-211q-48 -193 -175.5 -292t-305.5 -99z" />
    <glyph glyph-name="uniFEB3" unicode="&#x633;" horiz-adv-x="1665" arabic-form="initial" 
d="M0 0v188h74q100 0 134.5 37.5t37.5 149.5v495h188v-495q-3 -127 -18 -187h200q100 0 134.5 37.5t37.5 149.5v495h189v-495q-3 -123 -19 -187h197q100 0 134.5 37.5t37.5 149.5v608h189v-610q-3 -213 -69 -290t-253 -83h-266l-31 72q-69 -66 -246 -72h-266l-31 72
q-75 -72 -280 -72h-74z" />
    <glyph glyph-name="uniFEB4" unicode="&#x633;" horiz-adv-x="1757" arabic-form="medial" 
d="M0 0v188h74q100 0 134.5 37.5t37.5 149.5v495h188v-495q-3 -127 -18 -187h200q100 0 134.5 37.5t37.5 149.5v495h189v-495q-3 -123 -19 -187h197q100 0 134.5 37.5t37.5 149.5v608h189v-608q3 -112 37.5 -149.5t134.5 -37.5h84v-188h-84q-197 0 -267 57q-70 -51 -227 -57
h-266l-31 72q-69 -66 -246 -72h-266l-31 72q-75 -72 -280 -72h-74z" />
    <glyph glyph-name="uniFEB6" unicode="&#x634;" horiz-adv-x="2467" arabic-form="final" 
d="M1630 1413q-51 0 -86 36t-35 89q0 50 35 85.5t86 35.5q50 0 85.5 -36.5t35.5 -84.5q0 -53 -35 -89t-86 -36zM1468 1147q-51 0 -85.5 36t-34.5 89q0 50 34.5 85.5t85.5 35.5q50 0 85.5 -36.5t35.5 -84.5q0 -53 -35 -89t-86 -36zM1792 1147q-51 0 -86 36t-35 89
q0 50 35 85.5t86 35.5q50 0 85.5 -36.5t35.5 -84.5q0 -53 -35 -89t-86 -36zM664 -391q-138 0 -237.5 33.5t-171 110.5t-106 206t-34.5 315q0 69 12.5 175t30.5 180l2 2l180 -15l2 -2q-17 -73 -28 -177.5t-11 -170.5q0 -135 24.5 -228.5t73.5 -145t112 -73.5t149 -22
q158 0 239.5 109.5t81.5 324.5v639h188v-682h183q100 0 134.5 37.5t37.5 149.5v495h188v-495q-3 -127 -18 -187h196q100 0 134.5 37.5t37.5 149.5v608h189v-608q3 -112 37.5 -149.5t134.5 -37.5h53v-188h-53q-196 0 -266 57q-70 -51 -228 -57h-266l-31 72
q-40 -39 -106.5 -55.5t-171.5 -16.5h-211q-48 -193 -175.5 -292t-305.5 -99z" />
    <glyph glyph-name="uniFEB7" unicode="&#x634;" horiz-adv-x="1665" arabic-form="initial" 
d="M881 1413q-51 0 -86 36t-35 89q0 50 35 85.5t86 35.5q50 0 85 -36.5t35 -84.5q0 -53 -34.5 -89t-85.5 -36zM719 1147q-51 0 -86 36t-35 89q0 50 35 85.5t86 35.5q50 0 85.5 -36.5t35.5 -84.5q0 -53 -35 -89t-86 -36zM1042 1147q-51 0 -85.5 36t-34.5 89q0 50 34.5 85.5
t85.5 35.5q50 0 85.5 -36.5t35.5 -84.5q0 -53 -35 -89t-86 -36zM0 0v188h74q100 0 134.5 37.5t37.5 149.5v495h188v-495q-3 -127 -18 -187h200q100 0 134.5 37.5t37.5 149.5v495h189v-495q-3 -123 -19 -187h197q100 0 134.5 37.5t37.5 149.5v608h189v-610q-3 -213 -69 -290
t-253 -83h-266l-31 72q-69 -66 -246 -72h-266l-31 72q-75 -72 -280 -72h-74z" />
    <glyph glyph-name="uniFEB8" unicode="&#x634;" horiz-adv-x="1757" arabic-form="medial" 
d="M881 1413q-51 0 -86 36t-35 89q0 50 35 85.5t86 35.5q50 0 85 -36.5t35 -84.5q0 -53 -34.5 -89t-85.5 -36zM719 1147q-51 0 -86 36t-35 89q0 50 35 85.5t86 35.5q50 0 85.5 -36.5t35.5 -84.5q0 -53 -35 -89t-86 -36zM1042 1147q-51 0 -85.5 36t-34.5 89q0 50 34.5 85.5
t85.5 35.5q50 0 85.5 -36.5t35.5 -84.5q0 -53 -35 -89t-86 -36zM0 0v188h74q100 0 134.5 37.5t37.5 149.5v495h188v-495q-3 -127 -18 -187h200q100 0 134.5 37.5t37.5 149.5v495h189v-495q-3 -123 -19 -187h197q100 0 134.5 37.5t37.5 149.5v608h189v-608
q3 -112 37.5 -149.5t134.5 -37.5h84v-188h-84q-197 0 -267 57q-70 -51 -227 -57h-266l-31 72q-69 -66 -246 -72h-266l-31 72q-75 -72 -280 -72h-74z" />
    <glyph glyph-name="uniFEBA" unicode="&#x635;" horiz-adv-x="2361" arabic-form="final" 
d="M666 -391q-138 0 -237.5 33.5t-171 110.5t-106 206t-34.5 315q0 69 12.5 175t30.5 180l2 2l180 -15l2 -2q-34 -152 -39 -348q-1 -135 23 -228.5t73.5 -145t112.5 -73.5t150 -22q158 0 239.5 109.5t81.5 324.5v752h189v-238q143 120 267.5 179t260.5 59q457 0 457 -491
q0 -100 -21 -193q22 -64 72 -87.5t133 -23.5h33v-188h-33q-110 0 -186 22.5t-127 81.5q-74 -65 -181 -84.5t-268 -19.5h-434q-48 -193 -175.5 -292t-305.5 -99zM1174 188h407q87 0 144 4t103 17t71.5 33t42.5 56t22.5 81t5.5 113q0 171 -61 237t-207 66q-116 0 -232.5 -64
t-295.5 -237v-306z" />
    <glyph glyph-name="uniFEBB" unicode="&#x635;" horiz-adv-x="1507" arabic-form="initial" 
d="M0 0v188h209v795h188v-238q142 120 267 179t262 59q456 0 456 -491q0 -98 -17 -174.5t-43.5 -127.5t-72 -87.5t-89 -56t-109.5 -30.5t-117.5 -13.5t-128.5 -2.5h-805zM397 188h408q87 0 144 4t103 17t71.5 33t42.5 56t22.5 81t5.5 113q0 171 -61 237t-207 66
q-116 0 -233 -64t-296 -237v-306z" />
    <glyph glyph-name="uniFEBC" unicode="&#x635;" horiz-adv-x="1589" arabic-form="medial" 
d="M0 0v188h209v795h188v-238q142 120 267 179t262 59q456 0 456 -491q0 -105 -20 -193q22 -64 72 -87.5t133 -23.5h32v-188h-32q-110 0 -186.5 22.5t-127.5 81.5q-74 -65 -180.5 -84.5t-267.5 -19.5h-805zM397 188h408q87 0 144 4t103 17t71.5 33t42.5 56t22.5 81t5.5 113
q0 171 -61 237t-207 66q-116 0 -233 -64t-296 -237v-306z" />
    <glyph glyph-name="uniFEBE" unicode="&#x636;" horiz-adv-x="2361" arabic-form="final" 
d="M1669 1147q-51 0 -86 36t-35 89q0 50 35 85.5t86 35.5q50 0 85.5 -36.5t35.5 -84.5q0 -53 -35 -89t-86 -36zM666 -391q-138 0 -237.5 33.5t-171 110.5t-106 206t-34.5 315q0 69 12.5 175t30.5 180l2 2l180 -15l2 -2q-34 -152 -39 -348q-1 -135 23 -228.5t73.5 -145
t112.5 -73.5t150 -22q158 0 239.5 109.5t81.5 324.5v752h189v-238q143 120 267.5 179t260.5 59q457 0 457 -491q0 -100 -21 -193q22 -64 72 -87.5t133 -23.5h33v-188h-33q-110 0 -186 22.5t-127 81.5q-74 -65 -181 -84.5t-268 -19.5h-434q-48 -193 -175.5 -292t-305.5 -99z
M1174 188h407q87 0 144 4t103 17t71.5 33t42.5 56t22.5 81t5.5 113q0 171 -61 237t-207 66q-116 0 -232.5 -64t-295.5 -237v-306z" />
    <glyph glyph-name="uniFEBF" unicode="&#x636;" horiz-adv-x="1507" arabic-form="initial" 
d="M895 1147q-51 0 -86 36t-35 89q0 50 35 85.5t86 35.5q50 0 85.5 -36.5t35.5 -84.5q0 -53 -35 -89t-86 -36zM0 0v188h209v795h188v-238q142 120 267 179t262 59q456 0 456 -491q0 -98 -17 -174.5t-43.5 -127.5t-72 -87.5t-89 -56t-109.5 -30.5t-117.5 -13.5t-128.5 -2.5
h-805zM397 188h408q87 0 144 4t103 17t71.5 33t42.5 56t22.5 81t5.5 113q0 171 -61 237t-207 66q-116 0 -233 -64t-296 -237v-306z" />
    <glyph glyph-name="uniFEC0" unicode="&#x636;" horiz-adv-x="1589" arabic-form="medial" 
d="M895 1147q-51 0 -86 36t-35 89q0 50 35 85.5t86 35.5q50 0 85.5 -36.5t35.5 -84.5q0 -53 -35 -89t-86 -36zM0 0v188h209v795h188v-238q142 120 267 179t262 59q456 0 456 -491q0 -105 -20 -193q22 -64 72 -87.5t133 -23.5h32v-188h-32q-110 0 -186.5 22.5t-127.5 81.5
q-74 -65 -180.5 -84.5t-267.5 -19.5h-805zM397 188h408q87 0 144 4t103 17t71.5 33t42.5 56t22.5 81t5.5 113q0 171 -61 237t-207 66q-116 0 -233 -64t-296 -237v-306z" />
    <glyph glyph-name="uniFEC2" unicode="&#x637;" horiz-adv-x="1617" arabic-form="final" 
d="M86 0v188h154v1287h188v-730q143 120 267.5 179t260.5 59q457 0 457 -491q0 -105 -20 -197q20 -63 68.5 -85t131.5 -22h35v-188h-35q-107 0 -182.5 23t-126.5 81q-74 -65 -180.5 -84.5t-267.5 -19.5h-750zM428 188h408q87 0 144 4t103 17t71.5 33t42.5 56t22.5 81
t5.5 113q0 171 -61.5 237t-207.5 66q-116 0 -232.5 -64t-295.5 -237v-306z" />
    <glyph glyph-name="uniFEC3" unicode="&#x637;" horiz-adv-x="1507" arabic-form="initial" 
d="M0 0v188h211v1287h188v-730q142 120 267 179t262 59q456 0 456 -491q0 -98 -17 -174.5t-43.5 -127.5t-72 -87.5t-89 -56t-109.5 -30.5t-117.5 -13.5t-128.5 -2.5h-807zM399 188h408q87 0 144 4t103 17t71.5 33t42.5 56t22.5 81t5.5 113q0 171 -61 237t-207 66
q-116 0 -233 -64t-296 -237v-306z" />
    <glyph glyph-name="uniFEC4" unicode="&#x637;" horiz-adv-x="1589" arabic-form="medial" 
d="M0 0v188h211v1287h188v-730q142 120 267 179t262 59q456 0 456 -491q0 -105 -20 -197q20 -63 68.5 -85t132.5 -22h34v-188h-34q-107 0 -183 23t-127 81q-74 -65 -180.5 -84.5t-267.5 -19.5h-807zM399 188h408q87 0 144 4t103 17t71.5 33t42.5 56t22.5 81t5.5 113
q0 171 -61 237t-207 66q-116 0 -233 -64t-296 -237v-306z" />
    <glyph glyph-name="uniFEC6" unicode="&#x638;" horiz-adv-x="1617" arabic-form="final" 
d="M86 0v188h154v1287h188v-730q143 120 267.5 179t260.5 59q457 0 457 -491q0 -105 -20 -197q20 -63 68.5 -85t131.5 -22h35v-188h-35q-107 0 -182.5 23t-126.5 81q-74 -65 -180.5 -84.5t-267.5 -19.5h-750zM915 1147q-51 0 -85.5 36t-34.5 89q0 50 34.5 85.5t85.5 35.5
q50 0 85.5 -36.5t35.5 -84.5q0 -53 -35 -89t-86 -36zM428 188h408q87 0 144 4t103 17t71.5 33t42.5 56t22.5 81t5.5 113q0 171 -61.5 237t-207.5 66q-116 0 -232.5 -64t-295.5 -237v-306z" />
    <glyph glyph-name="uniFEC7" unicode="&#x638;" horiz-adv-x="1466" arabic-form="initial" 
d="M0 0v188h211v1287h188v-730q142 120 267 179t262 59q456 0 456 -491q0 -98 -17 -174.5t-43.5 -127.5t-72 -87.5t-89 -56t-109.5 -30.5t-117.5 -13.5t-128.5 -2.5h-807zM885 1147q-51 0 -86 36t-35 89q0 50 35 85.5t86 35.5q50 0 85.5 -36.5t35.5 -84.5q0 -53 -35 -89
t-86 -36zM399 188h408q87 0 144 4t103 17t71.5 33t42.5 56t22.5 81t5.5 113q0 171 -61 237t-207 66q-116 0 -233 -64t-296 -237v-306z" />
    <glyph glyph-name="uniFEC8" unicode="&#x638;" horiz-adv-x="1589" arabic-form="medial" 
d="M0 0v188h211v1287h188v-730q142 120 267 179t262 59q456 0 456 -491q0 -105 -20 -197q20 -63 68.5 -85t132.5 -22h34v-188h-34q-107 0 -183 23t-127 81q-74 -65 -180.5 -84.5t-267.5 -19.5h-807zM885 1147q-51 0 -86 36t-35 89q0 50 35 85.5t86 35.5q50 0 85.5 -36.5
t35.5 -84.5q0 -53 -35 -89t-86 -36zM399 188h408q87 0 144 4t103 17t71.5 33t42.5 56t22.5 81t5.5 113q0 171 -61 237t-207 66q-116 0 -233 -64t-296 -237v-306z" />
    <glyph glyph-name="uniFECA" unicode="&#x639;" horiz-adv-x="1269" arabic-form="final" 
d="M520 -571q-194 0 -318 117t-124 300q7 226 10 244q4 26 6.5 41.5t9.5 27.5t11 17t18 8t22.5 3h33.5t42 1h91l-201 500v119q223 176 579 176q194 0 319.5 -117t125.5 -293q0 -233 -115 -385h250v-188h-1012v-154q0 -105 68 -167t184 -62h172v-188h-172zM524 188h168
q120 14 192 115.5t72 269.5q0 102 -68 163t-188 61q-93 0 -203 -21t-190 -53z" />
    <glyph glyph-name="uniFECB" unicode="&#x639;" horiz-adv-x="1148" arabic-form="initial" 
d="M0 0v188h293q-76 141 -76 314q0 142 48.5 247.5t126.5 161t176 79t198 13t192 -48.5l-55 -182q-58 28 -124.5 39t-132.5 -0.5t-119.5 -45t-87 -101.5t-33.5 -162q0 -186 114 -314h467v-188h-987z" />
    <glyph glyph-name="uniFECC" unicode="&#x639;" horiz-adv-x="1265" arabic-form="medial" 
d="M0 0v188h295l-201 500v135q124 88 265.5 124t314.5 36q205 0 324.5 -101t119.5 -309q0 -234 -114 -385h272v-188h-1276zM498 188h168q120 14 192 115.5t72 269.5q0 119 -64.5 171.5t-191.5 52.5q-211 0 -393 -74z" />
    <glyph glyph-name="uniFECE" unicode="&#x63a;" horiz-adv-x="1269" arabic-form="final" 
d="M653 1147q-51 0 -86 36t-35 89q0 50 35 85.5t86 35.5q50 0 85.5 -36.5t35.5 -84.5q0 -53 -35 -89t-86 -36zM520 -571q-194 0 -318 117t-124 300q7 226 10 244q4 26 6.5 41.5t9.5 27.5t11 17t18 8t22.5 3h33.5t42 1h91l-201 500v119q223 176 579 176q194 0 319.5 -117
t125.5 -293q0 -233 -115 -385h250v-188h-1012v-154q0 -105 68 -167t184 -62h172v-188h-172zM524 188h168q120 14 192 115.5t72 269.5q0 102 -68 163t-188 61q-93 0 -203 -21t-190 -53z" />
    <glyph glyph-name="uniFECF" unicode="&#x63a;" horiz-adv-x="1146" arabic-form="initial" 
d="M637 1147q-51 0 -86 36t-35 89q0 50 35 85.5t86 35.5q50 0 85.5 -36.5t35.5 -84.5q0 -53 -35 -89t-86 -36zM0 0v188h293q-76 141 -76 314q0 142 48.5 247.5t126.5 161t176 79t198 13t192 -48.5l-55 -182q-58 28 -124.5 39t-132.5 -0.5t-119.5 -45t-87 -101.5t-33.5 -162
q0 -186 114 -314h467v-188h-987z" />
    <glyph glyph-name="uniFED0" unicode="&#x63a;" horiz-adv-x="1265" arabic-form="medial" 
d="M657 1147q-51 0 -85.5 36t-34.5 89q0 50 34.5 85.5t85.5 35.5q50 0 85.5 -36.5t35.5 -84.5q0 -53 -35 -89t-86 -36zM0 0v188h295l-201 500v135q124 88 265.5 124t314.5 36q205 0 324.5 -101t119.5 -309q0 -234 -114 -385h272v-188h-1276zM498 188h168q120 14 192 115.5
t72 269.5q0 119 -64.5 171.5t-191.5 52.5q-211 0 -393 -74z" />
    <glyph glyph-name="uniFED2" unicode="&#x641;" horiz-adv-x="2078" arabic-form="final" 
d="M1401 1147q-51 0 -86 36t-35 89q0 50 35 85.5t86 35.5q50 0 85.5 -36.5t35.5 -84.5q0 -53 -35 -89t-86 -36zM705 0q-139 0 -237.5 31.5t-170.5 103.5t-106.5 193.5t-34.5 296.5q0 57 12 131h190q-9 -60 -14 -135q-7 -124 16 -211t74 -134.5t116 -67.5t152 -20h324
q-90 129 -90 310q0 214 130.5 349.5t334.5 135.5q203 0 332 -135.5t129 -349.5l-2 -125q0 -42 -2 -62q19 -70 70 -96.5t138 -26.5h23v-188h-23q-191 0 -282 74q-40 -40 -108 -57t-177 -17h-794zM1401 188h98q100 0 134.5 37.5t37.5 149.5l2 123q0 142 -74.5 227.5
t-197.5 85.5q-125 0 -201 -85.5t-76 -227.5q0 -140 76.5 -225t200.5 -85z" />
    <glyph glyph-name="uniFED3" unicode="&#x641;" horiz-adv-x="1183" arabic-form="initial" 
d="M600 1147q-51 0 -86 36t-35 89q0 50 35 85.5t86 35.5q50 0 85.5 -36.5t35.5 -84.5q0 -53 -35 -89t-86 -36zM0 0v188h225q-90 129 -90 310q0 214 130.5 349.5t334.5 135.5q203 0 332 -135.5t129 -349.5l-2 -125q-1 -76 -8 -130.5t-24.5 -97.5t-43 -70t-67 -44t-93.5 -24
t-125 -7h-698zM600 188h98q100 0 134.5 37.5t37.5 149.5l2 123q0 142 -74.5 227.5t-197.5 85.5q-125 0 -200.5 -85.5t-75.5 -227.5q0 -140 76 -225t200 -85z" />
    <glyph glyph-name="uniFED4" unicode="&#x641;" horiz-adv-x="1277" arabic-form="medial" 
d="M600 1147q-51 0 -86 36t-35 89q0 50 35 85.5t86 35.5q50 0 85.5 -36.5t35.5 -84.5q0 -53 -35 -89t-86 -36zM0 0v188h225q-90 129 -90 310q0 214 130.5 349.5t334.5 135.5q203 0 332 -135.5t129 -349.5l-2 -125q0 -42 -2 -62q19 -70 70.5 -96.5t138.5 -26.5h22v-188h-22
q-192 0 -283 74q-40 -40 -108 -57t-177 -17h-698zM600 188h98q100 0 134.5 37.5t37.5 149.5l2 123q0 142 -74.5 227.5t-197.5 85.5q-125 0 -200.5 -85.5t-75.5 -227.5q0 -140 76 -225t200 -85z" />
    <glyph glyph-name="uniFED6" unicode="&#x642;" horiz-adv-x="1658" arabic-form="final" 
d="M852 1147q-51 0 -86 36t-35 89q0 50 35 85.5t86 35.5q50 0 85.5 -36.5t35.5 -84.5q0 -53 -35 -89t-86 -36zM1176 1147q-51 0 -86 36t-35 89q0 50 35 85.5t86 35.5q50 0 85 -36.5t35 -84.5q0 -53 -34.5 -89t-85.5 -36zM774 -516q-169 0 -288.5 33.5t-205 110t-126.5 206
t-41 316.5q0 69 12.5 174.5t30.5 179.5l2 2l180 -14l2 -3q-17 -73 -28 -177.5t-11 -170.5q0 -136 31.5 -228.5t95 -144.5t146.5 -74t198 -22q210 0 332 83t151 245h-262q-204 0 -334.5 140t-130.5 358q0 214 130.5 349.5t334.5 135.5q203 0 332.5 -136t128.5 -349l-2 -310
h217v-188h-223q-22 -170 -116 -288t-235 -173t-321 -55zM993 188h271l2 310q0 142 -75 227.5t-198 85.5q-125 0 -200.5 -85.5t-75.5 -227.5q0 -140 76 -225t200 -85z" />
    <glyph glyph-name="uniFED7" unicode="&#x642;" horiz-adv-x="1183" arabic-form="initial" 
d="M449 1147q-51 0 -86 36t-35 89q0 50 35 85.5t86 35.5q50 0 85 -36.5t35 -84.5q0 -53 -34.5 -89t-85.5 -36zM772 1147q-51 0 -86 36t-35 89q0 50 35 85.5t86 35.5q50 0 85.5 -36.5t35.5 -84.5q0 -53 -35 -89t-86 -36zM0 0v188h225q-90 129 -90 310q0 214 130.5 349.5
t334.5 135.5q203 0 332 -135.5t129 -349.5l-2 -125q-1 -76 -8 -130.5t-24.5 -97.5t-43 -70t-67 -44t-93.5 -24t-125 -7h-698zM600 188h98q100 0 134.5 37.5t37.5 149.5l2 123q0 142 -74.5 227.5t-197.5 85.5q-125 0 -200.5 -85.5t-75.5 -227.5q0 -140 76 -225t200 -85z" />
    <glyph glyph-name="uniFED8" unicode="&#x642;" horiz-adv-x="1277" arabic-form="medial" 
d="M449 1147q-51 0 -86 36t-35 89q0 50 35 85.5t86 35.5q50 0 85 -36.5t35 -84.5q0 -53 -34.5 -89t-85.5 -36zM772 1147q-51 0 -86 36t-35 89q0 50 35 85.5t86 35.5q50 0 85.5 -36.5t35.5 -84.5q0 -53 -35 -89t-86 -36zM0 0v188h225q-90 129 -90 310q0 214 130.5 349.5
t334.5 135.5q203 0 332 -135.5t129 -349.5l-2 -125q0 -42 -2 -62q19 -70 70.5 -96.5t138.5 -26.5h22v-188h-22q-192 0 -283 74q-40 -40 -108 -57t-177 -17h-698zM600 188h98q100 0 134.5 37.5t37.5 149.5l2 123q0 142 -74.5 227.5t-197.5 85.5q-125 0 -200.5 -85.5
t-75.5 -227.5q0 -140 76 -225t200 -85z" />
    <glyph glyph-name="uniFEDA" unicode="&#x643;" horiz-adv-x="1720" arabic-form="final" 
d="M1145 0l-524 2q-215 0 -352.5 144.5t-137.5 371.5q0 241 150 391l6 -4l114 -131q-82 -98 -82 -256q0 -150 84 -241t218 -91l524 2q100 0 134.5 37.5t37.5 149.5v1100h188v-1100q0 -33 -2 -49q18 -80 70 -109t143 -29h15v-188h-15q-194 0 -284 76q-39 -41 -107.5 -58.5
t-179.5 -17.5zM645 563l-72 107q48 22 99 41q-6 27 -6 55q0 104 59 164.5t162 60.5q59 0 133 -30l-41 -130q-60 31 -92 31q-41 0 -65.5 -26t-24.5 -70q0 -24 8 -45h231v-131h-297q-10 0 -94 -27z" />
    <glyph glyph-name="uniFEDB" unicode="&#x643;" horiz-adv-x="1134" arabic-form="initial" 
d="M0 0v188h635q101 0 136.5 38t35.5 149q0 120 -53 217q-14 27 -31.5 49.5t-52 49t-78.5 44.5t-114 30.5t-156 12.5q-3 0 -29.5 0.5t-44.5 0.5t-46.5 -2.5t-51.5 -8.5l-111 147l786 594l111 -147l-533 -404q87 -6 160 -22q63 -15 116.5 -38.5t89 -48.5t66 -57t48.5 -58
t35 -58q77 -144 77 -301q0 -115 -16 -185t-58.5 -114t-109 -60t-176.5 -16h-635z" />
    <glyph glyph-name="uniFEDC" unicode="&#x643;" horiz-adv-x="1224" arabic-form="medial" 
d="M0 0v188h635q101 0 136.5 38t35.5 149q0 120 -53 217q-14 27 -31.5 49.5t-52 49t-78.5 44.5t-114 30.5t-156 12.5q-3 0 -29.5 0.5t-44.5 0.5t-46.5 -2.5t-51.5 -8.5l-111 147l786 594l111 -147l-533 -404q87 -6 160 -22q63 -15 116.5 -38.5t89 -48.5t66 -57t48.5 -58
t35 -58q77 -144 77 -301v-35q6 -90 41.5 -121t128.5 -31h70v-188h-70q-193 0 -266 57q-73 -57 -264 -57h-635z" />
    <glyph glyph-name="uniFEDE" unicode="&#x644;" horiz-adv-x="1390" arabic-form="final" 
d="M666 -391q-138 0 -237.5 33.5t-171 110.5t-106 206t-34.5 315q0 69 12.5 175t30.5 180l2 2l180 -15l2 -2q-34 -152 -39 -348q-1 -135 23 -228.5t73.5 -145t112.5 -73.5t150 -22q158 0 239.5 109.5t81.5 324.5v1244h189v-1145q16 -82 67.5 -112t144.5 -30h15v-188h-15
q-148 0 -229 41q-42 -212 -173 -322t-318 -110z" />
    <glyph glyph-name="uniFEDF" unicode="&#x644;" horiz-adv-x="604" arabic-form="initial" 
d="M0 0v188h117q100 0 134.5 37.5t37.5 149.5v1100h188v-1100q-2 -116 -18 -185.5t-58 -113.5t-108 -60t-176 -16h-117z" />
    <glyph glyph-name="uniFEE0" unicode="&#x644;" horiz-adv-x="675" arabic-form="medial" 
d="M0 0v188h72q91 0 127 30.5t43 117.5v1139h188v-1100q3 -112 37.5 -149.5t134.5 -37.5h84v-188h-84q-193 0 -264 55q-74 -55 -266 -55h-72z" />
    <glyph glyph-name="uniFEE2" unicode="&#x645;" horiz-adv-x="1400" arabic-form="final" 
d="M59 -528v399q5 188 57.5 265.5t192.5 92.5q-55 116 -55 256q0 233 137 381t352 148q217 0 355.5 -148.5t138.5 -380.5q0 -132 -47 -235q17 -34 51.5 -48t97.5 -14h72v-188h-72q-109 0 -177 17t-107 57q-127 -105 -312 -105q-151 0 -272 78h-51q-100 0 -134.5 -37.5
t-37.5 -152.5v-385h-189zM743 141q137 0 221.5 94t84.5 250q0 161 -84.5 259t-221.5 98q-136 0 -218.5 -97.5t-82.5 -259.5q0 -156 82.5 -250t218.5 -94z" />
    <glyph glyph-name="uniFEE3" unicode="&#x645;" horiz-adv-x="1327" arabic-form="initial" 
d="M711 -31q-206 0 -342 133q-36 -57 -108 -79.5t-200 -22.5h-61v188h61q97 0 132.5 35t39.5 139q-12 58 -12 123q0 233 137.5 381t352.5 148q217 0 355 -148.5t138 -380.5q0 -227 -138 -371.5t-355 -144.5zM711 141q137 0 221 94t84 250q0 161 -84 259t-221 98
q-136 0 -218.5 -97.5t-82.5 -259.5q0 -156 82.5 -250t218.5 -94z" />
    <glyph glyph-name="uniFEE4" unicode="&#x645;" horiz-adv-x="1363" arabic-form="medial" 
d="M702 -31q-206 0 -342 133q-36 -57 -108 -79.5t-199 -22.5h-53v188h53q97 0 132.5 35t39.5 139q-12 58 -12 123q0 233 137 381t352 148q217 0 355.5 -148.5t138.5 -380.5q0 -132 -47 -235q17 -34 51.5 -48t97.5 -14h76v-188h-76q-109 0 -177 17t-107 57
q-127 -105 -312 -105zM702 141q137 0 221.5 94t84.5 250q0 161 -84.5 259t-221.5 98q-136 0 -218.5 -97.5t-82.5 -259.5q0 -156 82.5 -250t218.5 -94z" />
    <glyph glyph-name="uniFEE6" unicode="&#x646;" horiz-adv-x="1378" arabic-form="final" 
d="M627 1147q-51 0 -86 36t-35 89q0 50 35 85.5t86 35.5q50 0 85.5 -36.5t35.5 -84.5q0 -53 -35 -89t-86 -36zM653 -299q-138 0 -237.5 34t-171 110.5t-106 206t-34.5 315.5q0 69 12.5 174.5t30.5 179.5l3 2l180 -14l2 -2q-34 -152 -39 -349q-1 -135 23 -228.5t73 -145
t112 -73.5t150 -22q159 0 240.5 110t81.5 325v659h188v-653q16 -82 68 -112t145 -30h15v-188h-15q-164 0 -250 51q-56 -173 -179 -261.5t-292 -88.5z" />
    <glyph glyph-name="uniFEE7" unicode="&#x646;" horiz-adv-x="573" arabic-form="initial" 
d="M338 1147q-51 0 -86 36t-35 89q0 50 35 85.5t86 35.5q50 0 85.5 -36.5t35.5 -84.5q0 -53 -35 -89t-86 -36zM0 0v188h72q100 0 134.5 37.5t37.5 149.5v608h188v-608q-2 -117 -17.5 -186.5t-57.5 -113.5t-108 -59.5t-177 -15.5h-72z" />
    <glyph glyph-name="uniFEE8" unicode="&#x646;" horiz-adv-x="675" arabic-form="medial" 
d="M338 1147q-51 0 -86 36t-35 89q0 50 35 85.5t86 35.5q50 0 85.5 -36.5t35.5 -84.5q0 -53 -35 -89t-86 -36zM0 0v188h244v795h188v-795h254v-188h-686z" />
    <glyph glyph-name="uniFEEA" unicode="&#x647;" horiz-adv-x="1204" arabic-form="final" 
d="M578 0q-132 0 -244 65t-177 176.5t-65 243.5q0 143 65 262.5t177 188t244 68.5q137 0 260 -76l24 55h107v-621q0 -24 -2 -36q18 -80 70 -109t143 -29h32v-188h-32q-195 0 -285 76q-40 -41 -108.5 -58.5t-178.5 -17.5h-30zM578 188h30q100 0 134.5 37.5t37.5 149.5v364
q-49 43 -94 59.5t-108 16.5q-124 0 -210.5 -95.5t-86.5 -234.5q0 -123 87 -210t210 -87z" />
    <glyph glyph-name="uniFEEB" unicode="&#x647;" horiz-adv-x="1433" arabic-form="initial" 
d="M0 0v188h207q-90 126 -90 293q0 195 113.5 316t299.5 121q200 0 312 -129t112 -357v-244h205v340q0 323 -127 458.5t-428 135.5q-129 0 -270 -63l-92 151q181 101 368 101q204 0 342.5 -42t227.5 -137t128.5 -242t39.5 -362v-528h-1348zM596 188h170v244q0 153 -58.5 225
t-177.5 72q-106 0 -165.5 -65t-59.5 -183q0 -134 80.5 -213.5t210.5 -79.5z" />
    <glyph glyph-name="uniFEEC" unicode="&#x647;" horiz-adv-x="1058" arabic-form="medial" 
d="M477 -506q-153 0 -253.5 101.5t-106.5 261.5v143h-117v188h117v433q2 89 13.5 149t35 103t66.5 66t101 33.5t144 10.5h31q124 0 229.5 -65t166.5 -176.5t61 -243.5q0 -190 -111 -326q63 16 176 16h39v-188h-39q-90 0 -130 -28t-40 -103q-2 -164 -102.5 -269.5
t-257.5 -105.5h-23zM305 188h203q111 0 189.5 90.5t78.5 219.5q0 123 -76.5 209t-185.5 88h-70q-79 -6 -107.5 -45t-31.5 -142v-420zM477 -317h23q69 0 116.5 46t53.5 119q6 128 35 199q-89 -47 -197 -47h-203v-131q1 -82 49.5 -134t122.5 -52z" />
    <glyph glyph-name="uniFEEE" unicode="&#x648;" horiz-adv-x="1146" arabic-form="final" 
d="M442 -459q-207 0 -370 97v4l90 147h2q148 -72 282 -72q144 0 229 77t87 206h-203q-132 0 -243.5 65t-176.5 176.5t-65 243.5q0 137 65 251.5t176.5 180.5t243.5 66q137 0 260 -76l25 56h106v-775h207v-188h-207q-4 -218 -138.5 -338.5t-369.5 -120.5zM559 188h203v537
q-89 86 -203 86q-123 0 -210 -95t-87 -231q0 -124 87 -210.5t210 -86.5z" />
    <glyph glyph-name="uniFEF0" unicode="&#x649;" horiz-adv-x="1890" arabic-form="final" 
d="M666 -389q-138 0 -237.5 33.5t-171 110.5t-106 206t-34.5 315q0 69 12.5 175t30.5 180l2 2l180 -15l2 -2q-34 -152 -39 -348q-3 -135 21.5 -228.5t74.5 -145t113.5 -73.5t149.5 -22q175 0 248 99t73 335v189q2 116 18 185.5t58.5 113.5t108.5 60t176 16q188 0 356 -23
l2 -399q3 -112 37.5 -149.5t134.5 -37.5h25v-188h-25q-110 0 -176 16t-108 60t-58 113.5t-18 185.5v233h-170q-100 0 -134.5 -37t-37.5 -149v-189q0 -340 -115 -481t-393 -141z" />
    <glyph glyph-name="uniFEF2" unicode="&#x64a;" horiz-adv-x="1890" arabic-form="final" 
d="M666 -389q-138 0 -237.5 33.5t-171 110.5t-106 206t-34.5 315q0 69 12.5 175t30.5 180l2 2l180 -15l2 -2q-34 -152 -39 -348q-3 -135 21.5 -228.5t74.5 -145t113.5 -73.5t149.5 -22q175 0 248 99t73 335v189q2 116 18 185.5t58.5 113.5t108.5 60t176 16q188 0 356 -23
l2 -399q3 -112 37.5 -149.5t134.5 -37.5h25v-188h-25q-110 0 -176 16t-108 60t-58 113.5t-18 185.5v233h-170q-100 0 -134.5 -37t-37.5 -149v-189q0 -340 -115 -481t-393 -141zM471 -692q-51 0 -86 36t-35 89q0 50 35 85.5t86 35.5q50 0 85.5 -36.5t35.5 -84.5
q0 -53 -35 -89t-86 -36zM795 -692q-51 0 -86 36t-35 89q0 50 35 85.5t86 35.5q50 0 85 -36.5t35 -84.5q0 -53 -34.5 -89t-85.5 -36z" />
    <glyph glyph-name="uniFEF3" unicode="&#x64a;" horiz-adv-x="643" arabic-form="initial" 
d="M0 0v188h141q100 0 134.5 37.5t37.5 149.5v608h189v-608q-2 -117 -17.5 -186.5t-58 -113.5t-108.5 -59.5t-177 -15.5h-141zM-20 -430q-51 0 -86 36t-35 89q0 50 35 85.5t86 35.5q50 0 85 -36.5t35 -84.5q0 -53 -34.5 -89t-85.5 -36zM303 -430q-51 0 -86 36t-35 89
q0 50 35 85.5t86 35.5q50 0 85.5 -36.5t35.5 -84.5q0 -53 -35 -89t-86 -36z" />
    <glyph glyph-name="uniFEF4" unicode="&#x64a;" horiz-adv-x="675" arabic-form="medial" 
d="M0 0v188h244v795h188v-795h254v-188h-686zM176 -430q-51 0 -86 36t-35 89q0 50 35 85.5t86 35.5q50 0 85.5 -36.5t35.5 -84.5q0 -53 -35 -89t-86 -36zM500 -430q-51 0 -86 36t-35 89q0 50 35 85.5t86 35.5q50 0 85.5 -36.5t35.5 -84.5q0 -53 -35 -89t-86 -36z" />
    <glyph glyph-name=".notdef" horiz-adv-x="1228" 
 />
    <glyph glyph-name=".null" 
 />
    <glyph glyph-name="nonmarkingreturn" horiz-adv-x="682" 
 />
    <glyph glyph-name="space" unicode=" " horiz-adv-x="493" 
 />
    <glyph glyph-name="exclam" unicode="!" horiz-adv-x="708" 
d="M258 496l-45 956h279l-43 -956h-191zM356 -25q-68 0 -112.5 44.5t-44.5 113.5q0 70 44.5 115t112.5 45t114 -45t46 -115q0 -68 -46 -113t-114 -45z" />
    <glyph glyph-name="quotedbl" unicode="&#x22;" horiz-adv-x="749" 
d="M82 989l14 453h205l-96 -453h-123zM455 989l14 453h205l-96 -453h-123z" />
    <glyph glyph-name="numbersign" unicode="#" horiz-adv-x="1433" 
d="M240 0l53 395h-191v197h215l37 266h-202v199h229l51 395h195l-56 -395h377l53 395h193l-53 -395h190v-199h-217l-35 -266h205v-197h-233l-54 -395h-188l51 395h-377l-53 -395h-190zM510 584h375l35 282h-373z" />
    <glyph glyph-name="dollar" unicode="$" horiz-adv-x="1083" 
d="M446 -172v240q-232 44 -344 245l150 113q116 -172 303 -172q94 0 148.5 36.5t54.5 100.5q0 29 -12.5 52t-39.5 41.5t-54 31.5t-70 29l-133 51q-283 102 -283 324q0 116 74 196.5t206 108.5v260h195v-258q184 -30 287 -203l-150 -111q-91 125 -229 125q-83 0 -128.5 -31
t-45.5 -89q0 -47 35.5 -79.5t121.5 -64.5l146 -51q149 -54 220 -134t71 -194q0 -126 -88 -217q-90 -93 -240 -115v-235h-195z" />
    <glyph glyph-name="percent" unicode="%" horiz-adv-x="1822" 
d="M483 748q-154 0 -262 104t-108 258q0 155 109 257.5t261 102.5q155 0 263 -103t108 -257q0 -156 -109.5 -259t-261.5 -103zM399 0l834 1452h211l-834 -1452h-211zM483 922q79 0 129 53t50 135q0 81 -51 133.5t-128 52.5q-78 0 -128 -52t-50 -134t50 -135t128 -53z
M1360 -20q-154 0 -262.5 104t-108.5 258q0 155 109 257.5t262 102.5q156 0 263.5 -103t107.5 -257q0 -104 -51 -187.5t-136 -129t-184 -45.5zM1360 154q77 0 127.5 53t50.5 135q0 81 -50.5 133.5t-127.5 52.5q-78 0 -128 -52t-50 -134t50 -135t128 -53z" />
    <glyph glyph-name="ampersand" unicode="&#x26;" horiz-adv-x="1310" 
d="M571 -20q-101 0 -184 32t-135.5 84.5t-80.5 118.5t-28 137q0 89 32 161.5t83 125t135 111.5l15 10l-25 26q-32 34 -55.5 62.5t-51 71t-42.5 89.5t-15 95q0 86 34 157t89 115.5t123 69t139 24.5q172 0 283.5 -98.5t111.5 -257.5q0 -178 -204 -326l-62 -47l236 -247
l164 172l155 -148l-178 -188q51 -65 107 -101t94 -36v-193q-101 -3 -185.5 41.5t-162.5 132.5q-184 -194 -392 -194zM586 893l84 61q98 70 98 164q0 64 -46 109t-116 45q-62 0 -108.5 -41t-46.5 -113q0 -48 25 -90t71 -92zM575 188q66 0 118.5 34.5t117.5 105.5l2 2
l-260 278l-49 -37q-58 -42 -88.5 -89.5t-30.5 -114.5q0 -70 53 -124.5t137 -54.5z" />
    <glyph glyph-name="quotesingle" unicode="'" horiz-adv-x="407" 
d="M82 967l16 503h228l-107 -503h-137z" />
    <glyph glyph-name="parenleft" unicode="(" horiz-adv-x="657" 
d="M565 -289q-195 90 -309 307q-143 256 -143 646q0 395 143 651q113 213 309 303l92 -145q-148 -97 -227 -267q-104 -220 -104 -542q0 -324 104 -541q83 -173 227 -264z" />
    <glyph glyph-name="parenright" unicode=")" horiz-adv-x="657" 
d="M96 -289l-96 148q148 91 231 264q103 214 103 541q0 324 -103 542q-79 170 -231 267l96 145q199 -92 314 -303q135 -247 135 -651q0 -398 -135 -646q-116 -216 -314 -307z" />
    <glyph glyph-name="asterisk" unicode="*" horiz-adv-x="917" 
d="M389 834l-10 272l-240 -127l-67 117l229 145l-229 145l67 119l240 -129l10 273h137l11 -273l239 129l70 -119l-234 -145l234 -145l-70 -117l-239 123l-11 -268h-137z" />
    <glyph glyph-name="plus" unicode="+" horiz-adv-x="1130" 
d="M469 172v365h-356v180h356v360h201v-360h348v-180h-348v-365h-201z" />
    <glyph glyph-name="comma" unicode="," horiz-adv-x="567" 
d="M143 -197l52 430h229l-131 -430h-150z" />
    <glyph glyph-name="hyphen" unicode="-" horiz-adv-x="727" 
d="M92 432v195h543v-195h-543z" />
    <glyph glyph-name="period" unicode="." horiz-adv-x="626" 
d="M313 -25q-68 0 -112.5 44.5t-44.5 113.5q0 70 44.5 115t112.5 45t114 -45t46 -115q0 -68 -46 -113t-114 -45z" />
    <glyph glyph-name="slash" unicode="/" horiz-adv-x="856" 
d="M0 -10l645 1489h211l-645 -1489h-211z" />
    <glyph glyph-name="zero" unicode="0" horiz-adv-x="1198" 
d="M600 -31q-246 0 -372 192.5t-126 565.5q0 365 126.5 558t371.5 200q244 -7 370 -200.5t126 -557.5q0 -372 -126 -565t-370 -193zM600 154q295 0 295 573q0 557 -295 573q-147 -8 -222 -147t-75 -426q0 -294 75 -433.5t222 -139.5z" />
    <glyph glyph-name="one" unicode="1" horiz-adv-x="731" 
d="M369 0v983h-318v123q70 0 140 42.5t122.5 124t63.5 181.5h192v-1454h-200z" />
    <glyph glyph-name="two" unicode="2" horiz-adv-x="1089" 
d="M90 0q2 287 147 449q54 59 169 139h1l1 1l1 1h1l1 1l1 1h1l1 1l1 1l1 1h1l1 1q174 120 227 165q131 111 142 216q1 11 1 22q0 133 -54.5 192.5t-176.5 59.5q-245 0 -248 -268l-203 -2q3 234 117 353.5t334 119.5q204 0 318 -120t114 -335q0 -67 -20.5 -128t-51.5 -109.5
t-86 -101.5t-106.5 -93t-130.5 -96q-139 -99 -177 -134q-71 -64 -98 -136h670v-201h-899z" />
    <glyph glyph-name="three" unicode="3" horiz-adv-x="1107" 
d="M539 -31q-202 0 -323.5 119.5t-121.5 325.5l201 -2q0 -240 244 -240q129 0 198.5 65.5t69.5 186.5q0 113 -89.5 183t-250.5 71v158q143 0 222 57.5t79 153.5q0 101 -59 152.5t-170 51.5q-99 0 -152 -56t-53 -159h-201q0 195 110.5 306.5t295.5 111.5q196 0 313 -112
t117 -306q0 -69 -43 -144t-117 -126q93 -59 146 -158.5t53 -193.5q0 -206 -127.5 -325.5t-341.5 -119.5z" />
    <glyph glyph-name="four" unicode="4" horiz-adv-x="1142" 
d="M666 0v336h-590v213l590 905h208l-8 -14v-903h242v-201h-242v-336h-200zM289 537h377v579z" />
    <glyph glyph-name="five" unicode="5" horiz-adv-x="1017" 
d="M502 -20q-183 0 -304 113t-126 288h207q6 -91 67 -146t156 -55q109 0 175 76t66 199t-66 198.5t-175 75.5q-65 0 -119 -31t-88 -86h-201l156 842h633l-11 -201h-458l-68 -370q78 45 156 45q200 0 322 -130t122 -343q0 -214 -122 -344.5t-322 -130.5z" />
    <glyph glyph-name="six" unicode="6" horiz-adv-x="1103" 
d="M573 -31q-179 3 -292 119q-51 51 -86 123q-91 187 -91 498q0 385 122 580.5t360 195.5q183 0 304 -118t126 -300h-201q-3 100 -65.5 158.5t-163.5 58.5q-125 0 -194.5 -108t-82.5 -342q114 94 279 94q199 0 321.5 -130.5t122.5 -342.5q0 -218 -122.5 -352t-321.5 -134
h-15zM588 170q110 0 178 78.5t68 206.5q0 123 -68 198.5t-178 75.5q-109 0 -175.5 -75.5t-66.5 -198.5q0 -128 66.5 -206.5t175.5 -78.5z" />
    <glyph glyph-name="seven" unicode="7" horiz-adv-x="1015" 
d="M463 0l-199 2q4 295 141.5 643.5t346.5 607.5h-742v201h996v-217q-131 -130 -252.5 -331t-204.5 -447t-86 -459z" />
    <glyph glyph-name="eight" unicode="8" horiz-adv-x="1107" 
d="M557 -31q-211 0 -338 124t-127 339q0 88 55 176t152 142q-78 51 -122 129.5t-44 156.5q0 209 115 329t309 120q191 0 304.5 -120t113.5 -329q0 -77 -44.5 -156t-121.5 -130q97 -55 152 -142.5t55 -175.5q0 -215 -125.5 -339t-333.5 -124zM557 829q106 0 161.5 55.5
t55.5 159.5q0 238 -217 238q-223 0 -223 -238q0 -105 56.5 -160t166.5 -55zM557 170q125 0 192.5 71.5t67.5 204.5q0 101 -67 156t-193 55q-128 0 -197 -55t-69 -156q0 -133 69 -204.5t197 -71.5z" />
    <glyph glyph-name="nine" unicode="9" horiz-adv-x="1112" 
d="M528 -33q-183 0 -304 118t-126 300h201q3 -100 65.5 -158.5t163.5 -58.5q125 0 194.5 108t82.5 342q-114 -94 -279 -94q-199 0 -321.5 130.5t-122.5 342.5q0 218 122.5 352t321.5 134h15q180 -3 293 -119q51 -51 86 -123q90 -185 90 -498q0 -385 -122 -580.5t-360 -195.5
zM526 723q109 0 175.5 75.5t66.5 198.5q0 128 -66.5 206.5t-175.5 78.5q-110 0 -177.5 -78.5t-67.5 -206.5q0 -123 67.5 -198.5t177.5 -75.5z" />
    <glyph glyph-name="colon" unicode=":" horiz-adv-x="614" 
d="M307 606q-60 0 -100.5 40.5t-40.5 101.5q0 64 40 103.5t101 39.5q62 0 103 -39.5t41 -103.5q0 -61 -41 -101.5t-103 -40.5zM307 -23q-60 0 -100.5 40.5t-40.5 101.5q0 64 40 103.5t101 39.5q62 0 103 -39.5t41 -103.5q0 -61 -41 -101.5t-103 -40.5z" />
    <glyph glyph-name="semicolon" unicode=";" horiz-adv-x="614" 
d="M307 606q-60 0 -100.5 40.5t-40.5 101.5q0 64 40 103.5t101 39.5q62 0 103 -39.5t41 -103.5q0 -61 -41 -101.5t-103 -40.5zM158 -176l45 385h207l-119 -385h-133z" />
    <glyph glyph-name="less" unicode="&#x3c;" horiz-adv-x="1034" 
d="M963 211l-891 387v59l891 387v-188l-545 -227l545 -230v-188z" />
    <glyph glyph-name="equal" unicode="=" horiz-adv-x="1132" 
d="M133 745v181h866v-181h-866zM133 328v180h866v-180h-866z" />
    <glyph glyph-name="greater" unicode="&#x3e;" horiz-adv-x="1032" 
d="M72 211v188l544 230l-544 227v188l889 -387v-59z" />
    <glyph glyph-name="question" unicode="?" horiz-adv-x="952" 
d="M365 469v123q0 125 147 248q84 70 123 120.5t39 116.5q0 85 -55 139t-142 54q-150 0 -219 -185l-172 74q44 145 146 222t251 77q169 0 277 -101t108 -259q0 -97 -41 -168t-139 -166q-55 -49 -81 -75.5t-47 -63.5t-21 -74v-82h-174zM461 -25q-68 0 -114 45t-46 113
q0 70 46 115t114 45t114 -45t46 -115q0 -68 -46 -113t-114 -45z" />
    <glyph glyph-name="at" unicode="@" horiz-adv-x="1843" 
d="M924 -164q-169 0 -321 62.5t-267 173.5t-179.5 261.5t-64.5 323.5q0 175 67 326.5t187 267.5q118 113 274.5 173.5t335.5 60.5q173 0 323 -57.5t261 -161.5q106 -99 169 -254t63 -310q0 -210 -82 -325t-232 -115q-142 0 -221 109q-61 -68 -144.5 -106t-177.5 -38
q-173 0 -297 124.5t-124 297.5q0 175 124 299.5t297 124.5q149 0 269 -96l47 108h108v-438q0 -100 30 -144t89 -44q75 0 108 57.5t31 185.5q-2 131 -47 255t-127 198q-182 164 -460 164q-150 0 -277 -47t-217 -135q-199 -193 -199 -475q0 -285 199 -478q188 -182 475 -182
q124 0 246 39l35 -152q-132 -53 -301 -53zM915 397q97 0 165.5 74t68.5 178q0 106 -69 181.5t-165 74.5q-94 -2 -162.5 -76.5t-68.5 -179.5q0 -104 68.5 -178t162.5 -74z" />
    <glyph glyph-name="A" unicode="A" horiz-adv-x="1372" 
d="M27 0l553 1454h213l553 -1454h-213l-156 408h-582l-155 -408h-213zM465 592h442l-221 582z" />
    <glyph glyph-name="B" unicode="B" horiz-adv-x="1214" 
d="M188 0v1454h486q151 0 257.5 -116.5t106.5 -280.5q0 -169 -108 -287q85 -57 136.5 -151.5t51.5 -202.5q0 -171 -107 -293.5t-259 -122.5h-564zM389 831h264q74 0 129.5 66.5t55.5 159.5q0 88 -49.5 150.5t-114.5 62.5h-285v-439zM389 184h363q64 0 115 69t51 163
q0 91 -57.5 161t-127.5 70h-344v-463z" />
    <glyph glyph-name="C" unicode="C" horiz-adv-x="1536" 
d="M817 -31q-146 0 -280 60t-231.5 161t-155.5 241.5t-58 295.5q0 205 98 380t265 276.5t362 101.5q201 0 370.5 -106.5t264.5 -284.5l-170 -99q-69 139 -193.5 222t-271.5 83q-141 0 -262 -77t-191.5 -209t-70.5 -287t70.5 -287t191.5 -209t262 -77q149 0 273.5 83
t191.5 222l172 -99q-95 -178 -265.5 -284.5t-371.5 -106.5z" />
    <glyph glyph-name="D" unicode="D" horiz-adv-x="1488" 
d="M188 0v1454h484q196 0 363 -97.5t264.5 -265t97.5 -364.5t-97.5 -364.5t-264.5 -265t-363 -97.5h-484zM389 184h283q142 0 263 73t191 198t70 272t-70 272t-191 198t-263 73h-283v-1086z" />
    <glyph glyph-name="E" unicode="E" horiz-adv-x="1161" 
d="M193 0v1454h831v-184h-631v-447h576v-184h-576v-455h631v-184h-831z" />
    <glyph glyph-name="F" unicode="F" horiz-adv-x="1099" 
d="M193 0v1454h831v-184h-631v-447h576v-184h-576v-639h-200z" />
    <glyph glyph-name="G" unicode="G" horiz-adv-x="1566" 
d="M817 -31q-146 0 -280 60t-231.5 161t-155.5 241.5t-58 295.5q0 205 98 380t265 276.5t362 101.5q201 0 370.5 -106.5t264.5 -284.5l-170 -99q-69 139 -193.5 222t-271.5 83q-141 0 -262 -77t-191.5 -209t-70.5 -287t70.5 -287t191.5 -209t262 -77q142 0 262.5 76
t190.5 204v96h-455v185h639v-355q-95 -178 -265.5 -284.5t-371.5 -106.5z" />
    <glyph glyph-name="H" unicode="H" horiz-adv-x="1456" 
d="M205 0v1454h201v-623h645v623h200v-1454h-200v647h-645v-647h-201z" />
    <glyph glyph-name="I" unicode="I" horiz-adv-x="577" 
d="M188 0v1454h201v-1454h-201z" />
    <glyph glyph-name="J" unicode="J" horiz-adv-x="1073" 
d="M481 -29q-192 0 -305 108.5t-113 295.5v139h201v-139q0 -219 217 -219q211 0 217 219v1079h201v-1083q-4 -186 -116.5 -293t-301.5 -107z" />
    <glyph glyph-name="K" unicode="K" horiz-adv-x="1294" 
d="M197 0v1454h200v-696l535 696h252l-570 -741l643 -713h-268l-592 655v-655h-200z" />
    <glyph glyph-name="L" unicode="L" horiz-adv-x="1089" 
d="M195 0v1454h200v-1270h637v-184h-837z" />
    <glyph glyph-name="M" unicode="M" horiz-adv-x="1835" 
d="M199 0v1454h258l461 -1102l460 1102h258v-1454h-200v1092l-443 -1092h-151l-443 1092v-1092h-200z" />
    <glyph glyph-name="N" unicode="N" horiz-adv-x="1464" 
d="M188 0v1454h228l659 -1079v1079h201v-1454h-211l-676 1120v-1120h-201z" />
    <glyph glyph-name="O" unicode="O" horiz-adv-x="1636" 
d="M817 -31q-146 0 -280 60t-231.5 161t-155.5 241.5t-58 295.5q0 205 98 380t265 276.5t362 101.5q196 0 363.5 -101.5t265.5 -276.5t98 -380q0 -155 -58 -295.5t-155.5 -241.5t-232 -161t-281.5 -60zM817 154q107 0 204 45.5t167.5 122t112.5 182.5t42 223q0 155 -71 287
t-192.5 209t-262.5 77t-262 -77t-191.5 -209t-70.5 -287t70.5 -287t191.5 -209t262 -77z" />
    <glyph glyph-name="P" unicode="P" horiz-adv-x="1198" 
d="M193 0v1454h577q152 0 259.5 -121.5t107.5 -292.5q0 -172 -107.5 -292.5t-259.5 -120.5h-377v-627h-200zM393 811h350q79 0 136 68t57 161q0 94 -57 162t-136 68h-350v-459z" />
    <glyph glyph-name="Q" unicode="Q" horiz-adv-x="1636" 
d="M1372 -92l-174 174q-174 -113 -381 -113q-146 0 -280 60t-231.5 161t-155.5 241.5t-58 295.5q0 205 98 380t265 276.5t362 101.5q196 0 363.5 -101.5t265.5 -276.5t98 -380q0 -151 -53.5 -285.5t-149.5 -238.5l162 -164zM817 154q130 0 244 65l-230 232l132 131l241 -242
q139 162 139 387q0 155 -71 287t-192.5 209t-262.5 77t-262 -77t-191.5 -209t-70.5 -287t70.5 -287t191.5 -209t262 -77z" />
    <glyph glyph-name="R" unicode="R" horiz-adv-x="1255" 
d="M193 0v1454h577q152 0 259.5 -121.5t107.5 -292.5q0 -162 -97.5 -280.5t-238.5 -130.5l362 -629h-213l-362 627h-195v-627h-200zM393 811h350q79 0 136 68t57 161q0 94 -57 162t-136 68h-350v-459z" />
    <glyph glyph-name="S" unicode="S" horiz-adv-x="1191" 
d="M608 -31q-166 0 -288 54.5t-242 173.5l131 137q100 -100 189 -140t210 -40q132 0 211.5 71.5t79.5 188.5q0 163 -217 209l-225 47q-148 34 -237 138.5t-89 246.5q0 184 134.5 307t334.5 123q121 0 232.5 -47t201.5 -135l-129 -146q-134 143 -305 143q-117 0 -192.5 -69
t-75.5 -176q0 -80 49.5 -137t136.5 -72l205 -43q179 -37 278 -138.5t99 -250.5q0 -193 -139 -319t-353 -126z" />
    <glyph glyph-name="T" unicode="T" horiz-adv-x="1136" 
d="M469 0v1270h-428v184h1055v-184h-426v-1270h-201z" />
    <glyph glyph-name="U" unicode="U" horiz-adv-x="1372" 
d="M686 -31q-249 0 -385.5 143t-136.5 414v928h201v-928q0 -193 78 -282.5t243 -89.5t243.5 89t78.5 283v928h200v-928q0 -271 -136 -414t-386 -143z" />
    <glyph glyph-name="V" unicode="V" horiz-adv-x="1372" 
d="M578 0l-551 1454h213l446 -1171l444 1171h218l-555 -1454h-215z" />
    <glyph glyph-name="W" unicode="W" horiz-adv-x="2129" 
d="M500 0l-467 1454h211l362 -1130l373 1130h172l373 -1130l362 1130h211l-467 -1454h-211l2 10l-356 1108l-356 -1108l2 -10h-211z" />
    <glyph glyph-name="X" unicode="X" horiz-adv-x="1265" 
d="M27 0l485 727l-485 727h243l365 -545l362 545h244l-485 -727l485 -727h-242l-364 547l-367 -547h-241z" />
    <glyph glyph-name="Y" unicode="Y" horiz-adv-x="1277" 
d="M539 0v625l-512 829h243l369 -620l369 620h243l-512 -827v-627h-200z" />
    <glyph glyph-name="Z" unicode="Z" horiz-adv-x="1271" 
d="M92 0v160l819 1093h-819v201h1100v-160l-813 -1093h813v-201h-1100z" />
    <glyph glyph-name="bracketleft" unicode="[" horiz-adv-x="657" 
d="M184 -289v1893h463v-195h-254v-1499h254v-199h-463z" />
    <glyph glyph-name="backslash" unicode="\" horiz-adv-x="933" 
d="M723 -10l-723 1489h211l723 -1489h-211z" />
    <glyph glyph-name="bracketright" unicode="]" horiz-adv-x="655" 
d="M10 -289v199h252v1499h-252v195h461v-1893h-461z" />
    <glyph glyph-name="asciicircum" unicode="^" horiz-adv-x="1011" 
d="M51 616l416 857h80l414 -857h-230l-225 474l-225 -474h-230z" />
    <glyph glyph-name="underscore" unicode="_" horiz-adv-x="999" 
d="M31 -188v188h938v-188h-938z" />
    <glyph glyph-name="grave" unicode="`" horiz-adv-x="546" 
d="M322 1122l-252 381v37h249l158 -418h-155z" />
    <glyph glyph-name="a" unicode="a" horiz-adv-x="1062" 
d="M461 -31q-162 0 -264.5 85t-102.5 229q0 138 104 218.5t281 80.5h264v43q-6 134 -45 175.5t-157 41.5q-182 0 -305 -142l-111 117q88 102 186.5 149.5t229.5 47.5q195 0 288.5 -88.5t102.5 -292.5v-633h-109l-35 82q-128 -113 -327 -113zM461 141q129 0 203 71.5
t79 197.5h-264q-196 0 -196 -127q0 -142 178 -142z" />
    <glyph glyph-name="b" unicode="b" horiz-adv-x="1228" 
d="M662 -31q-203 0 -340 131l-43 -100h-107v1485h188v-572q131 101 302 101q217 0 355 -148.5t138 -380.5q0 -227 -138 -371.5t-355 -144.5zM662 141q137 0 221 94t84 250q0 161 -84 259t-221 98q-136 0 -219 -97.5t-83 -259.5q0 -156 83 -250t219 -94z" />
    <glyph glyph-name="c" unicode="c" horiz-adv-x="1073" 
d="M571 -31q-215 0 -352 144.5t-137 371.5q0 232 137 380.5t352 148.5q149 0 264.5 -73.5t176.5 -201.5l-162 -92q-82 195 -279 195q-134 0 -217.5 -98t-83.5 -259q0 -156 82.5 -250t218.5 -94q96 0 169 46.5t110 138.5l160 -93q-61 -123 -176 -193.5t-263 -70.5z" />
    <glyph glyph-name="d" unicode="d" horiz-adv-x="1218" 
d="M575 -31q-217 0 -355 144.5t-138 371.5q0 232 138 380.5t355 148.5q171 0 302 -101v572h188v-1485h-107l-43 100q-137 -131 -340 -131zM575 141q136 0 219 94t83 250q0 162 -83 259.5t-219 97.5q-137 0 -221 -98t-84 -259q0 -156 84 -250t221 -94z" />
    <glyph glyph-name="e" unicode="e" horiz-adv-x="1122" 
d="M573 -31q-215 0 -352 144.5t-137 371.5q0 232 137 380.5t352 148.5q205 0 336 -148.5t131 -380.5q0 -3 -4 -53h-762q15 -134 95.5 -212.5t203.5 -78.5q93 0 167.5 50t107.5 137l164 -95q-61 -123 -176 -193.5t-263 -70.5zM287 604h553q-26 111 -97 174.5t-170 63.5
q-107 0 -182.5 -63.5t-103.5 -174.5z" />
    <glyph glyph-name="f" unicode="f" horiz-adv-x="681" 
d="M227 0v811h-174v172h174v129q1 77 8 131.5t24.5 97.5t43.5 69.5t67.5 44t93.5 24t126 6.5q33 0 39 -2v-183h-39q-102 0 -136.5 -37t-37.5 -151v-129h213v-172h-213v-811h-189z" />
    <glyph glyph-name="g" unicode="g" horiz-adv-x="1210" 
d="M563 -420q-149 0 -272 77t-189 204l158 94q101 -203 303 -203q134 0 225 92t91 228v61q-136 -102 -301 -102q-132 0 -244 65t-177 176.5t-65 243.5q0 208 142 353t344 145q195 0 335 -137l48 106h106v-911q0 -134 -65.5 -247t-181.5 -179t-257 -66zM578 203
q124 0 212.5 92t88.5 221q0 135 -89 230.5t-212 95.5t-210 -95t-87 -231q0 -130 87 -221.5t210 -91.5z" />
    <glyph glyph-name="h" unicode="h" horiz-adv-x="1148" 
d="M174 0v1485h188v-537q101 66 234 66q183 0 300.5 -124t117.5 -317v-573h-189v573q0 122 -63 195.5t-166 73.5q-106 0 -170 -72.5t-64 -196.5v-573h-188z" />
    <glyph glyph-name="i" unicode="i" horiz-adv-x="524" 
d="M262 1202q-57 0 -96 40t-39 99q0 56 39 96t96 40q56 0 95.5 -40.5t39.5 -95.5q0 -59 -39 -99t-96 -40zM168 0v983h188v-983h-188z" />
    <glyph glyph-name="j" unicode="j" horiz-adv-x="536" 
d="M289 1202q-57 0 -96 40t-39 99q0 56 39 96t96 40q56 0 95.5 -40.5t39.5 -95.5q0 -59 -39 -99t-96 -40zM23 -420q-35 0 -41 2v182h41q100 0 134.5 38t37.5 153v1028h188v-1051q-3 -108 -20.5 -174t-60.5 -107t-108 -56t-171 -15z" />
    <glyph glyph-name="k" unicode="k" horiz-adv-x="1021" 
d="M172 0v1485h188v-879l338 377h254l-383 -428l428 -555h-241l-396 516v-516h-188z" />
    <glyph glyph-name="l" unicode="l" horiz-adv-x="524" 
d="M168 0v1485h188v-1485h-188z" />
    <glyph glyph-name="m" unicode="m" horiz-adv-x="1789" 
d="M164 0v983h106l33 -74q111 105 283 105q100 0 183.5 -39.5t139.5 -110.5q58 72 142.5 111t185.5 39q183 0 300.5 -124t117.5 -317v-573h-189v573q0 122 -63 195.5t-166 73.5q-106 0 -169.5 -72.5t-63.5 -196.5v-573h-189v573q0 122 -63 195.5t-166 73.5
q-106 0 -170 -72.5t-64 -196.5v-573h-188z" />
    <glyph glyph-name="n" unicode="n" horiz-adv-x="1146" 
d="M164 0v983h106l33 -74q111 105 283 105q183 0 300.5 -124t117.5 -317v-573h-189v573q0 122 -63 195.5t-166 73.5q-106 0 -170 -72.5t-64 -196.5v-573h-188z" />
    <glyph glyph-name="o" unicode="o" horiz-adv-x="1167" 
d="M584 -31q-221 0 -361.5 144t-140.5 370q0 233 140.5 382t361.5 149q219 0 360 -149.5t141 -381.5q0 -226 -140 -370t-361 -144zM584 141q142 0 227.5 93.5t85.5 248.5q0 161 -86.5 260t-226.5 99q-141 0 -227.5 -98.5t-86.5 -260.5q0 -155 85.5 -248.5t228.5 -93.5z" />
    <glyph glyph-name="p" unicode="p" horiz-adv-x="1228" 
d="M166 -389v1372h106l43 -100q137 131 340 131q217 0 355.5 -144.5t138.5 -371.5q0 -232 -138.5 -380.5t-355.5 -148.5q-170 0 -301 101v-459h-188zM655 141q137 0 221.5 98t84.5 259q0 156 -84.5 250t-221.5 94q-136 0 -218.5 -94t-82.5 -250q0 -162 82.5 -259.5
t218.5 -97.5z" />
    <glyph glyph-name="q" unicode="q" horiz-adv-x="1208" 
d="M877 -389v459q-131 -101 -302 -101q-217 0 -355 148.5t-138 380.5q0 227 138 371.5t355 144.5q203 0 340 -131l43 100h107v-1372h-188zM575 141q136 0 219 97.5t83 259.5q0 156 -83 250t-219 94q-137 0 -221 -94t-84 -250q0 -161 84 -259t221 -98z" />
    <glyph glyph-name="r" unicode="r" horiz-adv-x="786" 
d="M164 0v983h106l45 -102q143 133 338 133q43 0 92 -8v-172q-44 8 -92 8q-121 0 -208.5 -86t-92.5 -209v-547h-188z" />
    <glyph glyph-name="s" unicode="s" horiz-adv-x="964" 
d="M504 -31q-251 0 -432 217l121 111q129 -156 311 -156q180 0 180 111q0 53 -31.5 84t-130.5 70q-212 87 -285 151t-73 172q0 132 92 208.5t248 76.5q78 0 144.5 -22t156.5 -83l-111 -127q-95 60 -190 60q-75 0 -113.5 -26t-38.5 -87q0 -43 46 -73.5t198 -92.5
q147 -57 211.5 -129t64.5 -182q0 -129 -100.5 -206t-267.5 -77z" />
    <glyph glyph-name="t" unicode="t" horiz-adv-x="735" 
d="M592 0q-111 0 -177 15.5t-108.5 59.5t-58 113.5t-17.5 186.5v436h-176v172h176v315h189v-315h211v-172h-211v-436q3 -115 37.5 -153t134.5 -38h39v-182q-6 -2 -39 -2z" />
    <glyph glyph-name="u" unicode="u" horiz-adv-x="1146" 
d="M571 -31q-183 0 -300 123.5t-117 317.5v573h188v-573q0 -122 63 -195.5t166 -73.5q105 0 169.5 73.5t64.5 195.5v573h188v-983h-106l-33 74q-115 -105 -283 -105z" />
    <glyph glyph-name="v" unicode="v" horiz-adv-x="1030" 
d="M410 0l-390 983h205l291 -762l289 762h205l-389 -983h-211z" />
    <glyph glyph-name="w" unicode="w" horiz-adv-x="1644" 
d="M385 0l-342 983h199l233 -727l254 727h186l254 -727l234 727h199l-342 -983h-183l-254 725l-256 -725h-182z" />
    <glyph glyph-name="x" unicode="x" horiz-adv-x="950" 
d="M27 0l333 492l-333 491h229l227 -336l228 336h213l-334 -491l334 -492h-230l-227 336l-227 -336h-213z" />
    <glyph glyph-name="y" unicode="y" horiz-adv-x="1030" 
d="M137 -387v190l31 -2q48 -3 89 12t67 36t50 57t35 60t25 59l23 61l-437 897h205l324 -664l252 664h205l-390 -983h-2l-12 -33q-18 -44 -32.5 -75t-38 -72t-48 -69.5t-60 -58t-76 -46.5t-94.5 -26.5t-116 -6.5z" />
    <glyph glyph-name="z" unicode="z" horiz-adv-x="942" 
d="M82 0v154l500 641h-500v188h768v-152l-504 -643h504v-188h-768z" />
    <glyph glyph-name="braceleft" unicode="{" horiz-adv-x="786" 
d="M618 -289q-321 0 -321 303q0 78 27 232q3 17 8 52t8 54q10 41 10 86q0 121 -129 121h-129v199h129q65 0 97 28.5t32 90.5q0 29 -26 194q-27 150 -27 232q0 301 321 301h158v-195h-119q-153 0 -153 -164q0 -23 3 -51.5t11 -78.5t10 -66q29 -153 29 -201q0 -78 -33.5 -122
t-107.5 -69q74 -26 107.5 -68.5t33.5 -119.5q0 -48 -29 -201q-3 -20 -10 -67.5t-10.5 -76.5t-3.5 -52q0 -166 153 -166h119v-195h-158z" />
    <glyph glyph-name="bar" unicode="|" horiz-adv-x="577" 
d="M184 -289v1956h209v-1956h-209z" />
    <glyph glyph-name="braceright" unicode="}" horiz-adv-x="784" 
d="M10 -289v195h117q156 0 156 166q0 30 -27 196q-2 15 -8.5 53t-9.5 56.5t-6 45.5t-3 46q0 77 32.5 119.5t103.5 68.5q-71 25 -103.5 69t-32.5 122q0 35 27 201q27 162 27 196q0 164 -156 164h-117v195h158q321 0 321 -301q0 -63 -26 -232q-3 -20 -9 -54.5t-9 -54.5
t-6 -44.5t-3 -40.5q0 -62 31.5 -90.5t95.5 -28.5h129v-199h-129q-127 0 -127 -121q0 -21 3.5 -48t12 -76.5t11.5 -67.5q26 -173 26 -232q0 -303 -321 -303h-158z" />
    <glyph glyph-name="asciitilde" unicode="~" horiz-adv-x="1056" 
d="M770 426q-79 0 -164 51l-180 109q-74 49 -117 49q-33 0 -52 -23t-19 -59v-33h-162q-4 24 -4 58q0 106 60 175.5t153 69.5q76 0 166 -51l180 -110q84 -48 117 -48t51 23.5t18 58.5v35h164q4 -28 4 -59q0 -105 -59 -174q-69 -72 -156 -72z" />
    <glyph glyph-name="exclamdown" unicode="&#xa1;" horiz-adv-x="638" 
d="M322 762q-68 0 -113 44.5t-45 113.5q0 70 45 114.5t113 44.5t113.5 -44.5t45.5 -114.5q0 -69 -45.5 -113.5t-113.5 -44.5zM180 -395l45 977h191l45 -977h-281z" />
    <glyph glyph-name="dieresis" unicode="&#xa8;" horiz-adv-x="866" 
d="M211 1202q-52 0 -92.5 38.5t-40.5 90.5q0 55 40 92t93 37q56 0 94.5 -36.5t38.5 -92.5q0 -53 -39 -91t-94 -38zM655 1202q-52 0 -92.5 38.5t-40.5 90.5q0 55 40 92t93 37q56 0 94.5 -36.5t38.5 -92.5q0 -53 -39 -91t-94 -38z" />
    <glyph glyph-name="guillemotleft" unicode="&#xab;" horiz-adv-x="1210" 
d="M485 129l-409 436v66l409 436l150 -133l-305 -336l305 -342zM932 129l-410 436v66l410 436l149 -133l-305 -336l305 -342z" />
    <glyph glyph-name="acute" unicode="&#xb4;" horiz-adv-x="548" 
d="M72 1122l155 418h252v-37l-254 -381h-153z" />
    <glyph glyph-name="periodcentered" unicode="&#xb7;" horiz-adv-x="593" 
d="M297 422q-60 0 -100.5 40t-40.5 101q0 64 40 104t101 40q62 0 102.5 -40t40.5 -104q0 -61 -40.5 -101t-102.5 -40z" />
    <glyph glyph-name="cedilla" unicode="&#xb8;" horiz-adv-x="559" 
d="M205 -377q-61 0 -139 19v141q73 -6 114 -6q63 0 100 29.5t37 91.5q0 70 -45 129l86 43q60 -33 94.5 -86.5t34.5 -122.5q0 -101 -71 -166q-82 -72 -211 -72z" />
    <glyph glyph-name="guillemotright" unicode="&#xbb;" horiz-adv-x="1210" 
d="M227 129l-151 127l305 342l-305 336l151 133l408 -436v-66zM676 129l-152 127l305 342l-305 336l152 133l407 -436v-66z" />
    <glyph glyph-name="questiondown" unicode="&#xbf;" horiz-adv-x="952" 
d="M459 760q-72 0 -121 50t-49 122q0 73 49 122.5t121 49.5t120 -49t48 -123q0 -72 -48 -122t-120 -50zM438 -397q-169 0 -283 103t-114 269q0 103 42 178t142 164q80 73 113 115t33 90v60h198v-101q0 -137 -151 -258q-83 -69 -120.5 -117t-37.5 -110q0 -82 53 -131t131 -49
q152 0 213 190l193 -86q-44 -156 -151.5 -236.5t-260.5 -80.5z" />
    <glyph glyph-name="Agrave" unicode="&#xc0;" horiz-adv-x="1372" 
d="M662 1554l-252 381v37h249l158 -418h-155zM27 0l553 1454h213l553 -1454h-213l-156 408h-582l-155 -408h-213zM465 592h442l-221 582z" />
    <glyph glyph-name="Aacute" unicode="&#xc1;" horiz-adv-x="1372" 
d="M526 1540l156 418h252v-37l-254 -381h-154zM27 0l553 1454h213l553 -1454h-213l-156 408h-582l-155 -408h-213zM465 592h442l-221 582z" />
    <glyph glyph-name="Acircumflex" unicode="&#xc2;" horiz-adv-x="1372" 
d="M356 1493l267 418h135l266 -418h-156l-178 215l-178 -215h-156zM27 0l553 1454h213l553 -1454h-213l-156 408h-582l-155 -408h-213zM465 592h442l-221 582z" />
    <glyph glyph-name="Adieresis" unicode="&#xc4;" horiz-adv-x="1372" 
d="M467 1530q-52 0 -92.5 38.5t-40.5 90.5q0 55 40 92t93 37q56 0 94.5 -36.5t38.5 -92.5q0 -53 -39 -91t-94 -38zM911 1530q-52 0 -92.5 38.5t-40.5 90.5q0 55 40 92t93 37q56 0 94.5 -36.5t38.5 -92.5q0 -53 -39 -91t-94 -38zM27 0l553 1454h213l553 -1454h-213l-156 408
h-582l-155 -408h-213zM465 592h442l-221 582z" />
    <glyph glyph-name="AE" unicode="&#xc6;" horiz-adv-x="1771" 
d="M1004 1270v-447h575v-184h-575v-455h630v-184h-831v408h-414l-156 -408h-213l553 1454h1061v-184h-630zM803 592v678h-86l-258 -678h344z" />
    <glyph glyph-name="Ccedilla" unicode="&#xc7;" horiz-adv-x="1536" 
d="M1454 360q-71 -132 -185.5 -226.5t-254.5 -135.5q45 -61 45 -137q0 -100 -72 -166q-82 -72 -211 -72q-61 0 -139 19v141q73 -6 115 -6q63 0 100 29.5t37 91.5q0 30 -15 73q-18 -2 -57 -2q-146 0 -280 60t-231.5 161t-155.5 241.5t-58 295.5q0 205 98 380t265 276.5
t362 101.5q201 0 370.5 -106.5t264.5 -284.5l-170 -99q-69 139 -193.5 222t-271.5 83q-141 0 -262 -77t-191.5 -209t-70.5 -287t70.5 -287t191.5 -209t262 -77q149 0 273.5 83t191.5 222z" />
    <glyph glyph-name="Egrave" unicode="&#xc8;" horiz-adv-x="1161" 
d="M621 1548l-252 381v37h249l158 -418h-155zM193 0v1454h831v-184h-631v-447h576v-184h-576v-455h631v-184h-831z" />
    <glyph glyph-name="Eacute" unicode="&#xc9;" horiz-adv-x="1161" 
d="M506 1556l156 418h251v-37l-254 -381h-153zM193 0v1454h831v-184h-631v-447h576v-184h-576v-455h631v-184h-831z" />
    <glyph glyph-name="Ecircumflex" unicode="&#xca;" horiz-adv-x="1161" 
d="M279 1552l266 418h135l266 -418h-155l-179 215l-178 -215h-155zM193 0v1454h831v-184h-631v-447h576v-184h-576v-455h631v-184h-831z" />
    <glyph glyph-name="Edieresis" unicode="&#xcb;" horiz-adv-x="1161" 
d="M391 1530q-52 0 -92.5 38.5t-40.5 90.5q0 55 40 92t93 37q56 0 94.5 -36.5t38.5 -92.5q0 -53 -39 -91t-94 -38zM836 1530q-52 0 -93 38.5t-41 90.5q0 55 40.5 92t93.5 37q56 0 94.5 -36.5t38.5 -92.5q0 -53 -39 -91t-94 -38zM193 0v1454h831v-184h-631v-447h576v-184
h-576v-455h631v-184h-831z" />
    <glyph glyph-name="Icircumflex" unicode="&#xce;" horiz-adv-x="514" 
d="M-57 1550l266 418h135l266 -418h-155l-179 215l-178 -215h-155zM176 0v1454h201v-1454h-201z" />
    <glyph glyph-name="Idieresis" unicode="&#xcf;" horiz-adv-x="751" 
d="M156 1524q-52 0 -92.5 38.5t-40.5 90.5q0 55 40 92t93 37q56 0 94.5 -36.5t38.5 -92.5q0 -53 -39 -91t-94 -38zM600 1524q-52 0 -92.5 38.5t-40.5 90.5q0 55 40 92t93 37q56 0 94.5 -36.5t38.5 -92.5q0 -53 -39 -91t-94 -38zM279 0v1454h200v-1454h-200z" />
    <glyph glyph-name="Ocircumflex" unicode="&#xd4;" horiz-adv-x="1636" 
d="M487 1530l267 418h135l266 -418h-156l-178 215l-178 -215h-156zM817 -31q-146 0 -280 60t-231.5 161t-155.5 241.5t-58 295.5q0 205 98 380t265 276.5t362 101.5q196 0 363.5 -101.5t265.5 -276.5t98 -380q0 -155 -58 -295.5t-155.5 -241.5t-232 -161t-281.5 -60z
M817 154q107 0 204 45.5t167.5 122t112.5 182.5t42 223q0 155 -71 287t-192.5 209t-262.5 77t-262 -77t-191.5 -209t-70.5 -287t70.5 -287t191.5 -209t262 -77z" />
    <glyph glyph-name="Odieresis" unicode="&#xd6;" horiz-adv-x="1636" 
d="M598 1505q-52 0 -92.5 38.5t-40.5 90.5q0 55 40 92t93 37q56 0 94.5 -36.5t38.5 -92.5q0 -53 -39 -91t-94 -38zM1042 1505q-52 0 -92.5 38.5t-40.5 90.5q0 55 40 92t93 37q56 0 95 -36.5t39 -92.5q0 -53 -39.5 -91t-94.5 -38zM817 -31q-146 0 -280 60t-231.5 161
t-155.5 241.5t-58 295.5q0 205 98 380t265 276.5t362 101.5q196 0 363.5 -101.5t265.5 -276.5t98 -380q0 -155 -58 -295.5t-155.5 -241.5t-232 -161t-281.5 -60zM817 154q107 0 204 45.5t167.5 122t112.5 182.5t42 223q0 155 -71 287t-192.5 209t-262.5 77t-262 -77
t-191.5 -209t-70.5 -287t70.5 -287t191.5 -209t262 -77z" />
    <glyph glyph-name="multiply" unicode="&#xd7;" horiz-adv-x="1011" 
d="M205 205l-123 125l299 301l-299 299l123 125l301 -299l299 299l125 -125l-299 -299l299 -301l-123 -125l-301 299z" />
    <glyph glyph-name="Ugrave" unicode="&#xd9;" horiz-adv-x="1372" 
d="M657 1556l-251 381v37h249l158 -418h-156zM686 -31q-249 0 -385.5 143t-136.5 414v928h201v-928q0 -193 78 -282.5t243 -89.5t243.5 89t78.5 283v928h200v-928q0 -271 -136 -414t-386 -143z" />
    <glyph glyph-name="Uacute" unicode="&#xda;" horiz-adv-x="1372" 
d="M545 1556l155 418h252v-37l-254 -381h-153zM686 -31q-249 0 -385.5 143t-136.5 414v928h201v-928q0 -193 78 -282.5t243 -89.5t243.5 89t78.5 283v928h200v-928q0 -271 -136 -414t-386 -143z" />
    <glyph glyph-name="Ucircumflex" unicode="&#xdb;" horiz-adv-x="1372" 
d="M354 1556l267 418h135l266 -418h-156l-178 216l-178 -216h-156zM686 -31q-249 0 -385.5 143t-136.5 414v928h201v-928q0 -193 78 -282.5t243 -89.5t243.5 89t78.5 283v928h200v-928q0 -271 -136 -414t-386 -143z" />
    <glyph glyph-name="Udieresis" unicode="&#xdc;" horiz-adv-x="1372" 
d="M465 1559q-52 0 -92.5 38.5t-40.5 90.5q0 55 40 92t93 37q56 0 94.5 -36.5t38.5 -92.5q0 -53 -39 -91t-94 -38zM909 1559q-52 0 -92.5 38.5t-40.5 90.5q0 55 40 92t93 37q56 0 94.5 -36.5t38.5 -92.5q0 -53 -39 -91t-94 -38zM686 -31q-249 0 -385.5 143t-136.5 414v928
h201v-928q0 -193 78 -282.5t243 -89.5t243.5 89t78.5 283v928h200v-928q0 -271 -136 -414t-386 -143z" />
    <glyph glyph-name="agrave" unicode="&#xe0;" horiz-adv-x="1062" 
d="M494 1122l-252 381v37h250l157 -418h-155zM461 -31q-162 0 -264.5 85t-102.5 229q0 138 104 218.5t281 80.5h264v43q-6 134 -45 175.5t-157 41.5q-182 0 -305 -142l-111 117q88 102 186.5 149.5t229.5 47.5q195 0 288.5 -88.5t102.5 -292.5v-633h-109l-35 82
q-128 -113 -327 -113zM461 141q129 0 203 71.5t79 197.5h-264q-196 0 -196 -127q0 -142 178 -142z" />
    <glyph glyph-name="aacute" unicode="&#xe1;" horiz-adv-x="1062" 
d="M442 1122l156 418h252v-37l-254 -381h-154zM461 -31q-162 0 -264.5 85t-102.5 229q0 138 104 218.5t281 80.5h264v43q-6 134 -45 175.5t-157 41.5q-182 0 -305 -142l-111 117q88 102 186.5 149.5t229.5 47.5q195 0 288.5 -88.5t102.5 -292.5v-633h-109l-35 82
q-128 -113 -327 -113zM461 141q129 0 203 71.5t79 197.5h-264q-196 0 -196 -127q0 -142 178 -142z" />
    <glyph glyph-name="acircumflex" unicode="&#xe2;" horiz-adv-x="1062" 
d="M203 1122l266 418h135l266 -418h-155l-178 215l-179 -215h-155zM461 -31q-162 0 -264.5 85t-102.5 229q0 138 104 218.5t281 80.5h264v43q-6 134 -45 175.5t-157 41.5q-182 0 -305 -142l-111 117q88 102 186.5 149.5t229.5 47.5q195 0 288.5 -88.5t102.5 -292.5v-633
h-109l-35 82q-128 -113 -327 -113zM461 141q129 0 203 71.5t79 197.5h-264q-196 0 -196 -127q0 -142 178 -142z" />
    <glyph glyph-name="adieresis" unicode="&#xe4;" horiz-adv-x="1062" 
d="M319 1202q-52 0 -92.5 38.5t-40.5 90.5q0 55 40 92t93 37q56 0 95 -36.5t39 -92.5q0 -53 -39.5 -91t-94.5 -38zM764 1202q-52 0 -92.5 38.5t-40.5 90.5q0 55 40 92t93 37q56 0 94.5 -36.5t38.5 -92.5q0 -53 -39 -91t-94 -38zM461 -31q-162 0 -264.5 85t-102.5 229
q0 138 104 218.5t281 80.5h264v43q-6 134 -45 175.5t-157 41.5q-182 0 -305 -142l-111 117q88 102 186.5 149.5t229.5 47.5q195 0 288.5 -88.5t102.5 -292.5v-633h-109l-35 82q-128 -113 -327 -113zM461 141q129 0 203 71.5t79 197.5h-264q-196 0 -196 -127q0 -142 178 -142
z" />
    <glyph glyph-name="ae" unicode="&#xe6;" horiz-adv-x="1789" 
d="M1708 485q0 -3 -4 -53h-762q15 -134 95.5 -212.5t203.5 -78.5q93 0 167.5 50t107.5 137l163 -95q-61 -123 -176 -193.5t-262 -70.5q-122 0 -222 49t-165 138q-63 -90 -165 -138.5t-228 -48.5q-162 0 -264.5 85t-102.5 229q0 138 104 218.5t281 80.5h264v43
q-6 134 -45 175.5t-157 41.5q-182 0 -305 -142l-111 117q88 102 186.5 149.5t229.5 47.5q130 0 213.5 -37.5t126.5 -120.5q65 76 158 117t202 41q205 0 336 -148.5t131 -380.5zM954 604h553q-26 111 -96.5 174.5t-169.5 63.5q-107 0 -183 -63.5t-104 -174.5zM461 141
q129 0 203 71.5t79 197.5h-264q-196 0 -196 -127q0 -142 178 -142z" />
    <glyph glyph-name="ccedilla" unicode="&#xe7;" horiz-adv-x="1073" 
d="M571 141q96 0 169 46.5t110 138.5l160 -93q-43 -87 -116 -149.5t-167 -91.5q41 -56 41 -131q0 -100 -72 -166q-82 -72 -211 -72q-61 0 -139 19v141q74 -6 115 -6q63 0 100 29.5t37 91.5q0 41 -12 71h-15q-215 0 -352 144.5t-137 371.5q0 232 137 380.5t352 148.5
q149 0 264.5 -73.5t176.5 -201.5l-162 -92q-82 195 -279 195q-134 0 -217.5 -98t-83.5 -259q0 -156 82.5 -250t218.5 -94z" />
    <glyph glyph-name="egrave" unicode="&#xe8;" horiz-adv-x="1122" 
d="M451 1122l-252 381v37h250l157 -418h-155zM573 -31q-215 0 -352 144.5t-137 371.5q0 232 137 380.5t352 148.5q205 0 336 -148.5t131 -380.5q0 -3 -4 -53h-762q15 -134 95.5 -212.5t203.5 -78.5q93 0 167.5 50t107.5 137l164 -95q-61 -123 -176 -193.5t-263 -70.5z
M287 604h553q-26 111 -97 174.5t-170 63.5q-107 0 -182.5 -63.5t-103.5 -174.5z" />
    <glyph glyph-name="eacute" unicode="&#xe9;" horiz-adv-x="1122" 
d="M453 1122l155 418h252v-37l-254 -381h-153zM573 -31q-215 0 -352 144.5t-137 371.5q0 232 137 380.5t352 148.5q205 0 336 -148.5t131 -380.5q0 -3 -4 -53h-762q15 -134 95.5 -212.5t203.5 -78.5q93 0 167.5 50t107.5 137l164 -95q-61 -123 -176 -193.5t-263 -70.5z
M287 604h553q-26 111 -97 174.5t-170 63.5q-107 0 -182.5 -63.5t-103.5 -174.5z" />
    <glyph glyph-name="ecircumflex" unicode="&#xea;" horiz-adv-x="1122" 
d="M213 1122l266 418h135l267 -418h-156l-178 215l-178 -215h-156zM573 -31q-215 0 -352 144.5t-137 371.5q0 232 137 380.5t352 148.5q205 0 336 -148.5t131 -380.5q0 -3 -4 -53h-762q15 -134 95.5 -212.5t203.5 -78.5q93 0 167.5 50t107.5 137l164 -95
q-61 -123 -176 -193.5t-263 -70.5zM287 604h553q-26 111 -97 174.5t-170 63.5q-107 0 -182.5 -63.5t-103.5 -174.5z" />
    <glyph glyph-name="edieresis" unicode="&#xeb;" horiz-adv-x="1122" 
d="M326 1202q-52 0 -92.5 38.5t-40.5 90.5q0 55 40 92t93 37q56 0 94.5 -36.5t38.5 -92.5q0 -53 -39 -91t-94 -38zM770 1202q-52 0 -92.5 38.5t-40.5 90.5q0 55 40 92t93 37q56 0 94.5 -36.5t38.5 -92.5q0 -53 -39 -91t-94 -38zM573 -31q-215 0 -352 144.5t-137 371.5
q0 232 137 380.5t352 148.5q205 0 336 -148.5t131 -380.5q0 -3 -4 -53h-762q15 -134 95.5 -212.5t203.5 -78.5q93 0 167.5 50t107.5 137l164 -95q-61 -123 -176 -193.5t-263 -70.5zM287 604h553q-26 111 -97 174.5t-170 63.5q-107 0 -182.5 -63.5t-103.5 -174.5z" />
    <glyph glyph-name="icircumflex" unicode="&#xee;" horiz-adv-x="528" 
d="M-61 1122l266 418h135l266 -418h-155l-179 215l-178 -215h-155zM178 0v983h189v-983h-189z" />
    <glyph glyph-name="idieresis" unicode="&#xef;" horiz-adv-x="720" 
d="M139 1202q-52 0 -92.5 38.5t-40.5 90.5q0 55 40 92t93 37q56 0 94.5 -36.5t38.5 -92.5q0 -53 -39 -91t-94 -38zM584 1202q-52 0 -92.5 38.5t-40.5 90.5q0 55 40 92t93 37q56 0 94.5 -36.5t38.5 -92.5q0 -53 -39 -91t-94 -38zM266 0v983h189v-983h-189z" />
    <glyph glyph-name="ocircumflex" unicode="&#xf4;" horiz-adv-x="1167" 
d="M252 1122l266 418h135l267 -418h-156l-178 215l-178 -215h-156zM584 -31q-221 0 -361.5 144t-140.5 370q0 233 140.5 382t361.5 149q219 0 360 -149.5t141 -381.5q0 -226 -140 -370t-361 -144zM584 141q142 0 227.5 93.5t85.5 248.5q0 161 -86.5 260t-226.5 99
q-141 0 -227.5 -98.5t-86.5 -260.5q0 -155 85.5 -248.5t228.5 -93.5z" />
    <glyph glyph-name="odieresis" unicode="&#xf6;" horiz-adv-x="1167" 
d="M362 1202q-52 0 -92.5 38.5t-40.5 90.5q0 55 40 92t93 37q56 0 95 -36.5t39 -92.5q0 -53 -39.5 -91t-94.5 -38zM807 1202q-52 0 -92.5 38.5t-40.5 90.5q0 55 40 92t93 37q56 0 94.5 -36.5t38.5 -92.5q0 -53 -39 -91t-94 -38zM584 -31q-221 0 -361.5 144t-140.5 370
q0 233 140.5 382t361.5 149q219 0 360 -149.5t141 -381.5q0 -226 -140 -370t-361 -144zM584 141q142 0 227.5 93.5t85.5 248.5q0 161 -86.5 260t-226.5 99q-141 0 -227.5 -98.5t-86.5 -260.5q0 -155 85.5 -248.5t228.5 -93.5z" />
    <glyph glyph-name="divide" unicode="&#xf7;" horiz-adv-x="1130" 
d="M563 856q-58 0 -96.5 37.5t-38.5 91.5q0 56 38.5 92.5t96.5 36.5q56 0 95.5 -37t39.5 -92q0 -54 -39.5 -91.5t-95.5 -37.5zM113 537v180h905v-180h-905zM563 137q-58 0 -96.5 36.5t-38.5 90.5q0 56 38.5 92.5t96.5 36.5q56 0 95.5 -37t39.5 -92q0 -54 -39.5 -90.5
t-95.5 -36.5z" />
    <glyph glyph-name="ugrave" unicode="&#xf9;" horiz-adv-x="1146" 
d="M489 1122l-251 381v37h249l158 -418h-156zM571 -31q-183 0 -300 123.5t-117 317.5v573h188v-573q0 -122 63 -195.5t166 -73.5q105 0 169.5 73.5t64.5 195.5v573h188v-983h-106l-33 74q-115 -105 -283 -105z" />
    <glyph glyph-name="uacute" unicode="&#xfa;" horiz-adv-x="1146" 
d="M481 1122l156 418h252v-37l-254 -381h-154zM571 -31q-183 0 -300 123.5t-117 317.5v573h188v-573q0 -122 63 -195.5t166 -73.5q105 0 169.5 73.5t64.5 195.5v573h188v-983h-106l-33 74q-115 -105 -283 -105z" />
    <glyph glyph-name="ucircumflex" unicode="&#xfb;" horiz-adv-x="1146" 
d="M242 1122l266 418h135l266 -418h-155l-179 215l-178 -215h-155zM571 -31q-183 0 -300 123.5t-117 317.5v573h188v-573q0 -122 63 -195.5t166 -73.5q105 0 169.5 73.5t64.5 195.5v573h188v-983h-106l-33 74q-115 -105 -283 -105z" />
    <glyph glyph-name="udieresis" unicode="&#xfc;" horiz-adv-x="1146" 
d="M352 1202q-52 0 -92.5 38.5t-40.5 90.5q0 55 40 92t93 37q56 0 94.5 -36.5t38.5 -92.5q0 -53 -39 -91t-94 -38zM797 1202q-52 0 -92.5 38.5t-40.5 90.5q0 55 40 92t93 37q56 0 94.5 -36.5t38.5 -92.5q0 -53 -39 -91t-94 -38zM571 -31q-183 0 -300 123.5t-117 317.5v573
h188v-573q0 -122 63 -195.5t166 -73.5q105 0 169.5 73.5t64.5 195.5v573h188v-983h-106l-33 74q-115 -105 -283 -105z" />
    <glyph glyph-name="ydieresis" unicode="&#xff;" horiz-adv-x="1030" 
d="M289 1202q-52 0 -92.5 38.5t-40.5 90.5q0 55 40 92t93 37q56 0 94.5 -36.5t38.5 -92.5q0 -53 -39 -91t-94 -38zM733 1202q-52 0 -92.5 38.5t-40.5 90.5q0 55 40 92t93 37q56 0 94.5 -36.5t38.5 -92.5q0 -53 -39 -91t-94 -38zM137 -387v190l31 -2q48 -3 89 12t67 36t50 57
t35 60t25 59l23 61l-437 897h205l324 -664l252 664h205l-390 -983h-2l-12 -33q-18 -44 -32.5 -75t-38 -72t-48 -69.5t-60 -58t-76 -46.5t-94.5 -26.5t-116 -6.5z" />
    <glyph glyph-name="Gbreve" unicode="&#x11e;" horiz-adv-x="1579" 
d="M780 1554q-138 0 -229 91q-90 90 -90 229h168q0 -74 42.5 -118t108.5 -44q67 0 110.5 44t43.5 118h166q0 -138 -88 -229q-94 -91 -232 -91zM813 -31q-146 0 -280 60t-231.5 161t-155.5 241.5t-58 295.5q0 205 98 380t265 276.5t362 101.5q201 0 370.5 -106.5
t264.5 -284.5l-170 -99q-69 139 -193.5 222t-271.5 83q-141 0 -262 -77t-191.5 -209t-70.5 -287t70.5 -287t191.5 -209t262 -77q142 0 262.5 76t190.5 204v96h-455v185h639v-355q-95 -178 -265.5 -284.5t-371.5 -106.5z" />
    <glyph glyph-name="gbreve" unicode="&#x11f;" horiz-adv-x="1218" 
d="M571 1145q-139 0 -229 90t-90 229h168q0 -74 42.5 -117.5t108.5 -43.5q67 0 110.5 43.5t43.5 117.5h166q0 -138 -88 -229q-93 -90 -232 -90zM559 -420q-149 0 -272 77t-189 204l158 94q101 -203 303 -203q134 0 224.5 92t90.5 228v61q-136 -102 -301 -102
q-132 0 -243.5 65t-176.5 176.5t-65 243.5q0 137 65 251.5t176.5 180.5t243.5 66q196 0 336 -137l47 106h107v-911q0 -134 -65.5 -247t-181.5 -179t-257 -66zM573 203q124 0 212.5 92t88.5 221q0 135 -89 230.5t-212 95.5t-210 -95t-87 -231q0 -130 87 -221.5t210 -91.5z
" />
    <glyph glyph-name="Idotaccent" unicode="&#x130;" horiz-adv-x="573" 
d="M287 1522q-52 0 -92.5 38.5t-40.5 90.5q0 55 40 92t93 37q56 0 94.5 -36.5t38.5 -92.5q0 -53 -39 -91t-94 -38zM186 0v1454h201v-1454h-201z" />
    <glyph glyph-name="dotlessi" unicode="&#x131;" horiz-adv-x="534" 
d="M174 0v983h188v-983h-188z" />
    <glyph glyph-name="OE" unicode="&#x152;" horiz-adv-x="2312" 
d="M2175 1270h-631v-447h576v-184h-576v-455h631v-184h-832v205q-102 -111 -238 -173.5t-288 -62.5q-146 0 -280 60t-231.5 161t-155.5 241.5t-58 295.5q0 205 98 380t265 276.5t362 101.5q152 0 288 -62.5t238 -173.5v205h832v-184zM817 154q107 0 204 45.5t167.5 122
t112.5 182.5t42 223q0 155 -71 287t-192.5 209t-262.5 77t-262 -77t-191.5 -209t-70.5 -287t70.5 -287t191.5 -209t262 -77z" />
    <glyph glyph-name="oe" unicode="&#x153;" horiz-adv-x="1943" 
d="M1860 485q0 -8 -2 -25.5t-3 -27.5h-761q15 -134 95.5 -212.5t203.5 -78.5q93 0 166.5 50t107.5 137l164 -95q-61 -123 -176 -193.5t-262 -70.5q-126 0 -228.5 52t-167.5 147q-67 -95 -172.5 -147t-234.5 -52q-221 0 -361.5 144t-140.5 370q0 233 140.5 382t361.5 149
q128 0 233 -54t172 -151q65 97 168.5 151t229.5 54q205 0 336 -148.5t131 -380.5zM590 141q142 0 227.5 93.5t85.5 248.5q0 161 -86.5 260t-226.5 99q-141 0 -227.5 -98.5t-86.5 -260.5q0 -155 85.5 -248.5t228.5 -93.5zM1106 604h553q-26 111 -96.5 174.5t-169.5 63.5
q-107 0 -183 -63.5t-104 -174.5z" />
    <glyph glyph-name="Scedilla" unicode="&#x15e;" horiz-adv-x="1214" 
d="M1122 414q0 -158 -96 -273.5t-254 -154.5q37 -52 37 -125q0 -100 -72 -166q-82 -72 -211 -72q-61 0 -139 19v141q74 -6 115 -6q63 0 100 29.5t37 91.5q0 41 -12 71q-165 1 -287 56t-240 172l131 137q100 -100 189 -140t211 -40q132 0 211.5 71.5t79.5 188.5
q0 163 -217 209l-226 47q-148 34 -236.5 138.5t-88.5 246.5q0 184 134.5 307t334.5 123q121 0 232.5 -47t201.5 -135l-129 -146q-134 143 -305 143q-117 0 -193 -69t-76 -176q0 -80 50 -137t137 -72l204 -43q179 -37 278 -138.5t99 -250.5z" />
    <glyph glyph-name="scedilla" unicode="&#x15f;" horiz-adv-x="954" 
d="M852 252q0 -94 -56 -162t-155 -98q39 -58 39 -131q0 -100 -72 -166q-82 -72 -211 -72q-61 0 -139 19v141q73 -6 115 -6q63 0 100 29.5t37 91.5q0 41 -12 71h-15q-251 0 -432 217l121 111q129 -156 311 -156q181 0 181 111q0 53 -31.5 84t-130.5 70q-212 87 -285.5 151
t-73.5 172q0 132 92 208.5t248 76.5q78 0 144.5 -22t156.5 -83l-110 -127q-95 60 -191 60q-75 0 -113 -26t-38 -87q0 -43 46 -73.5t197 -92.5q147 -57 212 -129.5t65 -181.5z" />
    <glyph glyph-name="Ydieresis" unicode="&#x178;" horiz-adv-x="1277" 
d="M416 1559q-52 0 -92.5 38.5t-40.5 90.5q0 55 40 92t93 37q56 0 94.5 -36.5t38.5 -92.5q0 -53 -39 -91t-94 -38zM860 1559q-52 0 -92.5 38.5t-40.5 90.5q0 55 40 92t93 37q56 0 94.5 -36.5t38.5 -92.5q0 -53 -39 -91t-94 -38zM539 0v625l-512 829h243l369 -620l369 620
h243l-512 -827v-627h-200z" />
    <glyph glyph-name="circumflex" unicode="&#x2c6;" horiz-adv-x="811" 
d="M72 1122l266 418h135l266 -418h-155l-178 215l-179 -215h-155z" />
    <glyph glyph-name="breve" unicode="&#x2d8;" horiz-adv-x="782" 
d="M391 1145q-139 0 -229 90t-90 229h168q0 -74 42.5 -117.5t108.5 -43.5q67 0 110.5 43.5t43.5 117.5h166q0 -138 -88 -229q-93 -90 -232 -90z" />
    <glyph glyph-name="dotaccent" unicode="&#x2d9;" horiz-adv-x="368" 
d="M184 1202q-52 0 -92.5 38.5t-40.5 90.5q0 55 40 92t93 37q56 0 94.5 -36.5t38.5 -92.5q0 -53 -39 -91t-94 -38z" />
    <glyph glyph-name="uni060C" unicode="&#x60c;" horiz-adv-x="567" 
d="M143 -31l131 430h150l-51 -430h-230z" />
    <glyph glyph-name="uni0615" unicode="&#x615;" 
d="M41 1139v88h39v354h88v-168q80 57 151 57q156 0 156 -167q0 -46 -12 -78t-28 -49t-45.5 -25.5t-50.5 -10t-58 -1.5h-240zM168 1227h113q70 0 86 11.5t16 64.5q0 46 -13.5 62.5t-50.5 16.5q-34 0 -67.5 -19.5t-83.5 -66.5v-69z" />
    <glyph glyph-name="uni061B" unicode="&#x61b;" horiz-adv-x="608" 
d="M477 1049l-45 -385h-207l119 385h133zM328 262q60 0 100.5 -40t40.5 -101q0 -64 -40 -104t-101 -40q-62 0 -103 40t-41 104q0 61 41 101t103 40z" />
    <glyph glyph-name="uni061F" unicode="&#x61f;" horiz-adv-x="952" 
d="M416 469v82q0 53 -34.5 97t-115.5 116q-98 95 -139 166t-41 168q0 158 108 259t277 101q149 0 251 -77t146 -222l-172 -74q-69 185 -219 185q-87 0 -141.5 -54t-54.5 -139q0 -66 39 -117t122 -120q148 -124 148 -248v-123h-174zM494 -25q-68 0 -114 45t-46 113
q0 70 46 115t114 45t113.5 -45t45.5 -115q0 -69 -45.5 -113.5t-113.5 -44.5z" />
    <glyph glyph-name="uni0621" unicode="&#x621;" horiz-adv-x="976" 
d="M188 -41l-104 152q114 55 188 71q-61 114 -61 226q0 92 29 162.5t79 111t110.5 60.5t129.5 20q80 0 205 -33l-41 -182q-95 31 -148 31q-68 0 -122 -43.5t-54 -126.5q0 -104 99 -220h311v-188h-473q-16 0 -41.5 -6.5t-63 -19.5t-43.5 -15z" />
    <glyph glyph-name="uni0622" unicode="&#x622;" horiz-adv-x="491" 
d="M322 1370q-48 0 -121 33t-86 33q-41 0 -41 -60h-111q-5 74 37 123t111 49q14 0 29.5 -4t26.5 -8.5t32 -14t32 -14.5q53 -24 95 -24q30 0 53.5 6t36.5 12.5t59 30.5v-121q-71 -41 -153 -41zM152 0v1239h188v-1239h-188z" />
    <glyph glyph-name="uni0623" unicode="&#x623;" horiz-adv-x="491" 
d="M80 1315l-64 92q61 28 86 35q-6 24 -6 47q0 89 50.5 140.5t138.5 51.5q47 0 114 -26l-34 -113q-49 27 -80 27q-34 0 -55 -22t-21 -58q0 -19 6 -37h199v-115h-254q-11 0 -43.5 -10.5t-36.5 -11.5zM152 0v1239h188v-1239h-188z" />
    <glyph glyph-name="uni0624" unicode="&#x624;" horiz-adv-x="1091" 
d="M373 1116l-64 92q61 28 86 35q-6 24 -6 47q0 89 50.5 141t138.5 52q45 0 114 -27l-35 -113q-49 27 -79 27q-34 0 -55 -22t-21 -58q0 -19 6 -37h199v-114h-254q-10 0 -42.5 -11t-37.5 -12zM430 -459q-208 0 -371 97v4l91 147h2q148 -72 282 -72q144 0 229 77t87 206h-203
q-132 0 -244 65t-177 176.5t-65 243.5q0 208 142 353t344 145q137 0 260 -76l24 56h107v-947q0 -225 -134 -350t-374 -125zM547 188l203 2v535q-89 86 -203 86q-123 0 -210 -95t-87 -231q0 -124 87 -210.5t210 -86.5z" />
    <glyph glyph-name="uni0625" unicode="&#x625;" horiz-adv-x="491" 
d="M152 0v1475h188v-1475h-188zM80 -498l-64 92q61 28 86 35q-6 24 -6 47q0 89 50.5 141t138.5 52q45 0 114 -27l-34 -112q-47 26 -80 26q-34 0 -55 -22t-21 -58q0 -18 6 -36h199v-115h-254q-10 0 -42.5 -11t-37.5 -12z" />
    <glyph glyph-name="uni0626" unicode="&#x626;" horiz-adv-x="1785" 
d="M98 688l-63 92q61 28 86 35q-6 24 -6 47q0 89 50 141t138 52q46 0 115 -27l-35 -113q-49 27 -80 27q-34 0 -55 -22t-21 -58q0 -19 6 -37h199v-114h-254q-10 0 -42.5 -11t-37.5 -12zM666 -389q-138 0 -237.5 33.5t-171 110.5t-106 206t-34.5 315q0 69 12.5 175t30.5 180
l2 2l180 -15l2 -2q-34 -152 -39 -348q-3 -135 21.5 -228.5t74.5 -145t113.5 -73.5t149.5 -22q175 0 248 99t73 335v189q2 116 18 185.5t58.5 113.5t108.5 60t176 16q188 0 356 -23l2 -336q0 -436 -2 -438h-186v608h-170q-100 0 -134.5 -37t-37.5 -149v-189q0 -340 -115 -481
t-393 -141z" />
    <glyph glyph-name="uni0627" unicode="&#x627;" horiz-adv-x="491" 
d="M152 0v1475h188v-1475h-188z" />
    <glyph glyph-name="uni0628" unicode="&#x628;" horiz-adv-x="1644" 
d="M1145 0h-524q-215 0 -352.5 145.5t-137.5 372.5q0 241 150 391l6 -4l114 -131q-82 -98 -82 -256q0 -150 83.5 -240t218.5 -90h524q100 0 134.5 37.5t37.5 149.5v608h188v-608q-2 -117 -17.5 -186.5t-57.5 -113.5t-108 -59.5t-177 -15.5zM866 -430q-51 0 -86 36t-35 89
q0 50 35 85.5t86 35.5q50 0 85.5 -36.5t35.5 -84.5q0 -53 -35 -89t-86 -36z" />
    <glyph glyph-name="uni0629" unicode="&#x629;" horiz-adv-x="1157" 
d="M434 1147q-51 0 -86 36t-35 89q0 50 35 85.5t86 35.5q50 0 85.5 -36.5t35.5 -84.5q0 -53 -35 -89t-86 -36zM758 1147q-51 0 -86 36t-35 89q0 50 35 85.5t86 35.5q50 0 85.5 -36.5t35.5 -84.5q0 -53 -35 -89t-86 -36zM614 0q-132 0 -243.5 65t-176.5 176.5t-65 243.5
q0 143 65 262.5t176.5 188t243.5 68.5q137 0 260 -76l25 55h107v-621q-2 -112 -19 -179.5t-59.5 -109.5t-108.5 -57.5t-174 -15.5h-31zM614 188h31q100 0 134.5 37.5t37.5 149.5v364q-49 42 -94.5 59t-108.5 17q-124 0 -210.5 -95.5t-86.5 -234.5q0 -123 87 -210t210 -87z
" />
    <glyph glyph-name="uni062A" unicode="&#x62a;" horiz-adv-x="1644" 
d="M692 1147q-51 0 -86 36t-35 89q0 50 35 85.5t86 35.5q50 0 85.5 -36.5t35.5 -84.5q0 -53 -35 -89t-86 -36zM1016 1147q-51 0 -86 36t-35 89q0 50 35 85.5t86 35.5q50 0 85.5 -36.5t35.5 -84.5q0 -53 -35 -89t-86 -36zM1145 0h-524q-215 0 -352.5 145.5t-137.5 372.5
q0 241 150 391l6 -4l114 -131q-82 -98 -82 -256q0 -150 83.5 -240t218.5 -90h524q100 0 134.5 37.5t37.5 149.5v608h188v-608q-2 -117 -17.5 -186.5t-57.5 -113.5t-108 -59.5t-177 -15.5z" />
    <glyph glyph-name="uni062B" unicode="&#x62b;" horiz-adv-x="1644" 
d="M854 1413q-51 0 -86 36t-35 89q0 50 35 85.5t86 35.5q50 0 85.5 -36.5t35.5 -84.5q0 -53 -35 -89t-86 -36zM692 1147q-51 0 -86 36t-35 89q0 50 35 85.5t86 35.5q50 0 85.5 -36.5t35.5 -84.5q0 -53 -35 -89t-86 -36zM1016 1147q-51 0 -86 36t-35 89q0 50 35 85.5t86 35.5
q50 0 85.5 -36.5t35.5 -84.5q0 -53 -35 -89t-86 -36zM1145 0h-524q-215 0 -352.5 145.5t-137.5 372.5q0 241 150 391l6 -4l114 -131q-82 -98 -82 -256q0 -150 83.5 -240t218.5 -90h524q100 0 134.5 37.5t37.5 149.5v608h188v-608q-2 -117 -17.5 -186.5t-57.5 -113.5
t-108 -59.5t-177 -15.5z" />
    <glyph glyph-name="uni062C" unicode="&#x62c;" horiz-adv-x="1132" 
d="M512 -571q-194 0 -318 117t-124 300q7 226 10 244q5 39 14.5 58t34.5 29t61.5 11.5t105.5 0.5q53 -1 85 -1h326q100 0 134.5 37.5t37.5 149.5v147q0 136 -91 228t-225 92q-202 0 -303 -203l-158 94q66 127 189 204t272 77q137 0 253 -66t183.5 -179t67.5 -247v-147
q-1 -77 -8 -132t-24 -98t-42.5 -70t-66.5 -44t-93 -24t-124 -7h-449v-154q0 -105 68 -167t184 -62h172v-188h-172zM692 -297q-43 0 -72.5 29.5t-29.5 72.5t29.5 73t72.5 30t73 -30t30 -73t-30 -72.5t-73 -29.5z" />
    <glyph glyph-name="uni062D" unicode="&#x62d;" horiz-adv-x="1132" 
d="M512 -571q-194 0 -318 117t-124 300q7 226 10 244q5 39 14.5 58t34.5 29t61.5 11.5t105.5 0.5q53 -1 85 -1h326q100 0 134.5 37.5t37.5 149.5v147q0 136 -91 228t-225 92q-202 0 -303 -203l-158 94q66 127 189 204t272 77q137 0 253 -66t183.5 -179t67.5 -247v-147
q-1 -77 -8 -132t-24 -98t-42.5 -70t-66.5 -44t-93 -24t-124 -7h-449v-154q0 -105 68 -167t184 -62h172v-188h-172z" />
    <glyph glyph-name="uni062E" unicode="&#x62e;" horiz-adv-x="1132" 
d="M563 1147q-51 0 -86 36t-35 89q0 50 35 85.5t86 35.5q50 0 85.5 -36.5t35.5 -84.5q0 -51 -35 -88t-86 -37zM512 -571q-194 0 -318 117t-124 300q7 226 10 244q5 39 14.5 58t34.5 29t61.5 11.5t105.5 0.5q53 -1 85 -1h326q100 0 134.5 37.5t37.5 149.5v147q0 136 -91 228
t-225 92q-202 0 -303 -203l-158 94q66 127 189 204t272 77q137 0 253 -66t183.5 -179t67.5 -247v-147q-1 -77 -8 -132t-24 -98t-42.5 -70t-66.5 -44t-93 -24t-124 -7h-449v-154q0 -105 68 -167t184 -62h172v-188h-172z" />
    <glyph glyph-name="uni062F" unicode="&#x62f;" horiz-adv-x="1036" 
d="M106 0v188h635v328q-3 115 -91 197t-210 82q-86 0 -133 -4v188q55 4 133 4q129 0 240.5 -61.5t178.5 -167.5t71 -232v-522h-824z" />
    <glyph glyph-name="uni0630" unicode="&#x630;" horiz-adv-x="1171" 
d="M477 1147q-51 0 -86 36t-35 89q0 50 35 85.5t86 35.5q50 0 85.5 -36.5t35.5 -84.5q0 -53 -35 -89t-86 -36zM106 0v188h635v328q-3 115 -91 197t-210 82q-86 0 -133 -4v188q55 4 133 4q129 0 240.5 -61.5t178.5 -167.5t71 -232v-522h-824z" />
    <glyph glyph-name="uni0631" unicode="&#x631;" horiz-adv-x="591" 
d="M35 -469q-91 0 -197 47l-2 2l60 150l2 2q66 -25 133 -25q96 0 152.5 78t56.5 211v987h188v-975q0 -226 -103 -351.5t-290 -125.5z" />
    <glyph glyph-name="uni0632" unicode="&#x632;" horiz-adv-x="591" 
d="M338 1147q-51 0 -86 36t-35 89q0 50 35 85.5t86 35.5q50 0 85.5 -36.5t35.5 -84.5q0 -53 -35 -89t-86 -36zM35 -469q-91 0 -197 47l-2 2l60 150l2 2q66 -25 133 -25q96 0 152.5 78t56.5 211v987h188v-975q0 -226 -103 -351.5t-290 -125.5z" />
    <glyph glyph-name="uni0633" unicode="&#x633;" horiz-adv-x="2406" 
d="M664 -391q-138 0 -237.5 33.5t-171 110.5t-106 206t-34.5 315q0 69 12.5 175t30.5 180l2 2l180 -15l2 -2q-17 -73 -28 -177.5t-11 -170.5q0 -135 24.5 -228.5t73.5 -145t112 -73.5t149 -22q158 0 239.5 109.5t81.5 324.5v639h188v-682h183q100 0 134.5 37.5t37.5 149.5
v495h188v-495q-3 -127 -18 -187h196q100 0 134.5 37.5t37.5 149.5v608h189v-610q-3 -213 -69 -290t-253 -83h-266l-31 72q-40 -39 -106.5 -55.5t-171.5 -16.5h-211q-48 -193 -175.5 -292t-305.5 -99z" />
    <glyph glyph-name="uni0634" unicode="&#x634;" horiz-adv-x="2406" 
d="M1630 1413q-51 0 -86 36t-35 89q0 50 35 85.5t86 35.5q50 0 85.5 -36.5t35.5 -84.5q0 -53 -35 -89t-86 -36zM1468 1147q-51 0 -85.5 36t-34.5 89q0 50 34.5 85.5t85.5 35.5q50 0 85.5 -36.5t35.5 -84.5q0 -53 -35 -89t-86 -36zM1792 1147q-51 0 -86 36t-35 89
q0 50 35 85.5t86 35.5q50 0 85.5 -36.5t35.5 -84.5q0 -53 -35 -89t-86 -36zM664 -391q-138 0 -237.5 33.5t-171 110.5t-106 206t-34.5 315q0 69 12.5 175t30.5 180l2 2l180 -15l2 -2q-17 -73 -28 -177.5t-11 -170.5q0 -135 24.5 -228.5t73.5 -145t112 -73.5t149 -22
q158 0 239.5 109.5t81.5 324.5v639h188v-682h183q100 0 134.5 37.5t37.5 149.5v495h188v-495q-3 -127 -18 -187h196q100 0 134.5 37.5t37.5 149.5v608h189v-610q-3 -213 -69 -290t-253 -83h-266l-31 72q-40 -39 -106.5 -55.5t-171.5 -16.5h-211q-48 -193 -175.5 -292
t-305.5 -99z" />
    <glyph glyph-name="uni0635" unicode="&#x635;" horiz-adv-x="2260" 
d="M666 -391q-138 0 -237.5 33.5t-171 110.5t-106 206t-34.5 315q0 69 12.5 175t30.5 180l2 2l180 -15l2 -2q-34 -152 -39 -348q-1 -135 23 -228.5t73.5 -145t112.5 -73.5t150 -22q158 0 239.5 109.5t81.5 324.5v752h189v-238q143 120 267.5 179t260.5 59q457 0 457 -491
q0 -69 -7.5 -127t-24 -103.5t-36 -82t-49 -62.5t-58.5 -46t-69 -32.5t-75 -20.5t-83 -12t-86 -5t-90 -1h-434q-48 -193 -175.5 -292t-305.5 -99zM1174 188h407q87 0 144 4t103 17t71.5 33t42.5 56t22.5 81t5.5 113q0 171 -61 237t-207 66q-116 0 -232.5 -64t-295.5 -237
v-306z" />
    <glyph glyph-name="uni0636" unicode="&#x636;" horiz-adv-x="2260" 
d="M1669 1147q-51 0 -86 36t-35 89q0 50 35 85.5t86 35.5q50 0 85.5 -36.5t35.5 -84.5q0 -53 -35 -89t-86 -36zM666 -391q-138 0 -237.5 33.5t-171 110.5t-106 206t-34.5 315q0 69 12.5 175t30.5 180l2 2l180 -15l2 -2q-34 -152 -39 -348q-1 -135 23 -228.5t73.5 -145
t112.5 -73.5t150 -22q158 0 239.5 109.5t81.5 324.5v752h189v-238q143 120 267.5 179t260.5 59q457 0 457 -491q0 -69 -7.5 -127t-24 -103.5t-36 -82t-49 -62.5t-58.5 -46t-69 -32.5t-75 -20.5t-83 -12t-86 -5t-90 -1h-434q-48 -193 -175.5 -292t-305.5 -99zM1174 188h407
q87 0 144 4t103 17t71.5 33t42.5 56t22.5 81t5.5 113q0 171 -61 237t-207 66q-116 0 -232.5 -64t-295.5 -237v-306z" />
    <glyph glyph-name="uni0637" unicode="&#x637;" horiz-adv-x="1517" 
d="M86 0v188h154v1287h188v-730q143 120 267.5 179t260.5 59q457 0 457 -491q0 -98 -17 -174.5t-43.5 -127.5t-72 -87.5t-89 -56t-109.5 -30.5t-117.5 -13.5t-128.5 -2.5h-750zM428 188h408q87 0 144 4t103 17t71.5 33t42.5 56t22.5 81t5.5 113q0 171 -61.5 237t-207.5 66
q-116 0 -232.5 -64t-295.5 -237v-306z" />
    <glyph glyph-name="uni0638" unicode="&#x638;" horiz-adv-x="1517" 
d="M86 0v188h154v1287h188v-730q143 120 267.5 179t260.5 59q457 0 457 -491q0 -98 -17 -174.5t-43.5 -127.5t-72 -87.5t-89 -56t-109.5 -30.5t-117.5 -13.5t-128.5 -2.5h-750zM915 1147q-51 0 -85.5 36t-34.5 89q0 50 34.5 85.5t85.5 35.5q50 0 85.5 -36.5t35.5 -84.5
q0 -53 -35 -89t-86 -36zM428 188h408q87 0 144 4t103 17t71.5 33t42.5 56t22.5 81t5.5 113q0 171 -61.5 237t-207.5 66q-116 0 -232.5 -64t-295.5 -237v-306z" />
    <glyph glyph-name="uni0639" unicode="&#x639;" horiz-adv-x="1046" 
d="M512 -571q-194 0 -318 117t-124 300q7 226 10 244q3 20 5.5 33t6 24t7.5 17.5t10.5 12t15 7t20 3.5t25.5 1t32 0h23h66q-76 141 -76 314q0 142 48.5 247.5t126.5 161t176 79t198 13t192 -48.5l-55 -182q-58 28 -124.5 39t-133 -0.5t-120 -45t-87 -101.5t-33.5 -162
q0 -185 115 -314h467v-188h-725v-154q0 -105 68 -167t184 -62h172v-188h-172z" />
    <glyph glyph-name="uni063A" unicode="&#x63a;" horiz-adv-x="1046" 
d="M680 1147q-51 0 -86 36t-35 89q0 50 35 85.5t86 35.5q50 0 85.5 -36.5t35.5 -84.5q0 -53 -35 -89t-86 -36zM512 -571q-194 0 -318 117t-124 300q7 226 10 244q3 20 5.5 33t6 24t7.5 17.5t10.5 12t15 7t20 3.5t25.5 1t32 0h23h66q-76 141 -76 314q0 142 48.5 247.5
t126.5 161t176 79t198 13t192 -48.5l-55 -182q-58 28 -124.5 39t-133 -0.5t-120 -45t-87 -101.5t-33.5 -162q0 -185 115 -314h467v-188h-725v-154q0 -105 68 -167t184 -62h172v-188h-172z" />
    <glyph glyph-name="uni0640" unicode="&#x640;" horiz-adv-x="327" 
d="M0 0v188h340v-188h-340z" />
    <glyph glyph-name="uni0641" unicode="&#x641;" horiz-adv-x="1980" 
d="M1401 1147q-51 0 -86 36t-35 89q0 50 35 85.5t86 35.5q50 0 85.5 -36.5t35.5 -84.5q0 -53 -35 -89t-86 -36zM705 0q-139 0 -237.5 31.5t-170.5 103.5t-106.5 193.5t-34.5 296.5q0 57 12 131h190q-9 -60 -14 -135q-7 -124 16 -211t74 -134.5t116 -67.5t152 -20h324
q-90 129 -90 310q0 214 130.5 349.5t334.5 135.5q203 0 332 -135.5t129 -349.5l-2 -125q-1 -76 -8 -130.5t-24.5 -97.5t-43 -70t-67 -44t-93.5 -24t-125 -7h-794zM1401 188h98q100 0 134.5 37.5t37.5 149.5l2 123q0 142 -74.5 227.5t-197.5 85.5q-125 0 -201 -85.5
t-76 -227.5q0 -140 76.5 -225t200.5 -85z" />
    <glyph glyph-name="uni0642" unicode="&#x642;" horiz-adv-x="1576" 
d="M852 1147q-51 0 -86 36t-35 89q0 50 35 85.5t86 35.5q50 0 85.5 -36.5t35.5 -84.5q0 -53 -35 -89t-86 -36zM1176 1147q-51 0 -86 36t-35 89q0 50 35 85.5t86 35.5q50 0 85 -36.5t35 -84.5q0 -53 -34.5 -89t-85.5 -36zM770 -516q-169 0 -288.5 33.5t-205 110t-126.5 206
t-41 316.5q0 69 12.5 174.5t30.5 179.5l2 2l180 -14l2 -3q-17 -73 -28 -177.5t-11 -170.5q0 -136 31.5 -228.5t95 -144.5t146.5 -74t198 -22q443 0 487 359q-80 -31 -204 -31h-58q-204 0 -334.5 140t-130.5 358q0 214 130.5 349.5t334.5 135.5q203 0 332 -135.5t129 -349.5
l-2 -125l-4 -267q-2 -155 -53.5 -275t-143 -195t-213 -113.5t-268.5 -38.5zM993 186l58 2h41q100 0 134.5 37.5t37.5 149.5l2 123q0 142 -75 227.5t-198 85.5q-125 0 -200.5 -85.5t-75.5 -227.5t76 -227t200 -85z" />
    <glyph glyph-name="uni0643" unicode="&#x643;" horiz-adv-x="1654" 
d="M1145 0l-524 2q-215 0 -352.5 144.5t-137.5 371.5q0 241 150 391l6 -4l114 -131q-82 -98 -82 -256q0 -150 84 -241t218 -91l524 2q100 0 134.5 37.5t37.5 149.5v1100h188v-1100q-2 -117 -17.5 -186.5t-57.5 -113.5t-108 -59.5t-177 -15.5zM645 563l-72 107q48 22 99 41
q-6 27 -6 55q0 104 59 164.5t162 60.5q59 0 133 -30l-41 -130q-60 31 -92 31q-41 0 -65.5 -26t-24.5 -70q0 -24 8 -45h231v-131h-297q-10 0 -94 -27z" />
    <glyph glyph-name="uni0644" unicode="&#x644;" horiz-adv-x="1325" 
d="M666 -391q-138 0 -237.5 33.5t-171 110.5t-106 206t-34.5 315q0 69 12.5 175t30.5 180l2 2l180 -15l2 -2q-34 -152 -39 -348q-1 -135 23 -228.5t73.5 -145t112.5 -73.5t150 -22q158 0 239.5 109.5t81.5 324.5v1244h189v-1244q0 -154 -38 -274t-107 -195.5t-160.5 -114
t-202.5 -38.5z" />
    <glyph glyph-name="uni0645" unicode="&#x645;" horiz-adv-x="1427" 
d="M86 -528v391q3 193 56 272t194 94q-55 116 -55 256q0 233 137 381t352 148q217 0 355.5 -148.5t138.5 -380.5q0 -227 -138.5 -371.5t-355.5 -144.5q-151 0 -272 78h-52q-100 0 -134.5 -37.5t-37.5 -152.5v-385h-188zM770 141q137 0 221 94t84 250q0 161 -84 259t-221 98
q-136 0 -218.5 -97.5t-82.5 -259.5q0 -156 82.5 -250t218.5 -94z" />
    <glyph glyph-name="uni0646" unicode="&#x646;" horiz-adv-x="1312" 
d="M627 1147q-51 0 -86 36t-35 89q0 50 35 85.5t86 35.5q50 0 85.5 -36.5t35.5 -84.5q0 -53 -35 -89t-86 -36zM653 -299q-138 0 -237.5 34t-171 110.5t-106 206t-34.5 315.5q0 69 12.5 174.5t30.5 179.5l3 2l180 -14l2 -2q-34 -152 -39 -349q-1 -135 23 -228.5t73 -145
t112 -73.5t150 -22q159 0 240.5 110t81.5 325v659h188v-659q0 -154 -38 -274t-107 -195.5t-160.5 -114.5t-202.5 -39z" />
    <glyph glyph-name="uni0647" unicode="&#x647;" horiz-adv-x="1167" 
d="M614 0q-132 0 -243.5 65t-176.5 176.5t-65 243.5q0 143 65 262.5t176.5 188t243.5 68.5q137 0 260 -76l25 55h107v-621q-2 -112 -19 -179.5t-59.5 -109.5t-108.5 -57.5t-174 -15.5h-31zM614 188h31q100 0 134.5 37.5t37.5 149.5v364q-49 42 -94.5 59t-108.5 17
q-124 0 -210.5 -95.5t-86.5 -234.5q0 -123 87 -210t210 -87z" />
    <glyph glyph-name="uni0648" unicode="&#x648;" horiz-adv-x="1093" 
d="M442 -459q-207 0 -370 97v4l90 147h2q148 -72 282 -72q144 0 229 77t87 206h-203q-132 0 -243.5 65t-176.5 176.5t-65 243.5q0 137 65 251.5t176.5 180.5t243.5 66q137 0 260 -76l25 56h106v-947q0 -225 -134 -350t-374 -125zM559 188l203 2v535q-89 86 -203 86
q-123 0 -210 -95t-87 -231q0 -124 87 -210.5t210 -86.5z" />
    <glyph glyph-name="uni0649" unicode="&#x649;" horiz-adv-x="1783" 
d="M666 -389q-138 0 -237.5 33.5t-171 110.5t-106 206t-34.5 315q0 69 12.5 175t30.5 180l2 2l180 -15l2 -2q-34 -152 -39 -348q-3 -135 21.5 -228.5t74.5 -145t113.5 -73.5t149.5 -22q175 0 248 99t73 335v189q2 116 18 185.5t58.5 113.5t108.5 60t176 16q188 0 356 -23
l2 -336q0 -436 -2 -438h-186v608h-170q-100 0 -134.5 -37t-37.5 -149v-189q0 -340 -115 -481t-393 -141z" />
    <glyph glyph-name="uni064A" unicode="&#x64a;" horiz-adv-x="1785" 
d="M666 -389q-138 0 -237.5 33.5t-171 110.5t-106 206t-34.5 315q0 69 12.5 175t30.5 180l2 2l180 -15l2 -2q-34 -152 -39 -348q-3 -135 21.5 -228.5t74.5 -145t113.5 -73.5t149.5 -22q175 0 248 99t73 335v189q2 116 18 185.5t58.5 113.5t108.5 60t176 16q188 0 356 -23
l2 -336q0 -436 -2 -438h-186v608h-170q-100 0 -134.5 -37t-37.5 -149v-189q0 -340 -115 -481t-393 -141zM471 -692q-51 0 -86 36t-35 89q0 50 35 85.5t86 35.5q50 0 85.5 -36.5t35.5 -84.5q0 -53 -35 -89t-86 -36zM795 -692q-51 0 -86 36t-35 89q0 50 35 85.5t86 35.5
q50 0 85 -36.5t35 -84.5q0 -53 -34.5 -89t-85.5 -36z" />
    <glyph glyph-name="uni064B" unicode="&#x64b;" 
d="M31 1348v98l350 55v-96zM31 1196v96l350 58v-99z" />
    <glyph glyph-name="uni064C" unicode="&#x64c;" 
d="M92 1151l-61 57l80 125q68 -61 139 -47l-8 21q-20 51 -24.5 98.5t7 85.5t44.5 59.5t85 18.5q63 -3 103.5 -40.5t36.5 -107.5q-8 -117 -162 -194q-45 -23 -101 -25.5t-98 19.5zM328 1313q81 49 84 110q2 30 -15 47t-51 17q-95 0 -18 -174z" />
    <glyph glyph-name="uni064D" unicode="&#x64d;" 
d="M31 -350v98l350 53v-94zM31 -500v94l350 58v-98z" />
    <glyph glyph-name="uni064E" unicode="&#x64e;" 
d="M31 1212v99l350 57v-98z" />
    <glyph glyph-name="uni064F" unicode="&#x64f;" 
d="M31 1202l6 84q57 -7 121 0q-25 45 -35 89t-4 79.5t23.5 62.5t48.5 40.5t71 9.5q62 -5 102.5 -41.5t36.5 -106.5q-2 -37 -24 -76t-64 -76t-115.5 -56t-166.5 -9zM236 1317q41 22 61 50t22 54q2 30 -12 44.5t-49 15.5q-27 1 -40.5 -11t-13.5 -35.5t8 -52.5t24 -65z" />
    <glyph glyph-name="uni0650" unicode="&#x650;" 
d="M31 -336v98l350 56v-97z" />
    <glyph glyph-name="uni0651" unicode="&#x651;" 
d="M180 1190q-38 -7 -66.5 0.5t-43.5 22.5t-24.5 39t-12 44.5t-2.5 44.5v91l82 12v-103q0 -75 43 -75q14 0 24 4v162l86 12v-115q0 -63 41 -63q3 0 27 4v162l82 12v-199q0 -43 -43 -49l-39 -6q-54 -8 -94 10z" />
    <glyph glyph-name="uni0652" unicode="&#x652;" 
d="M195 1190q-76 0 -120 39.5t-44 116.5q0 69 50.5 117t113.5 48t113 -48t50 -117q0 -78 -43 -117t-120 -39zM195 1274q35 0 56 18t21 54q0 34 -23.5 57.5t-53.5 23.5q-29 0 -54.5 -23.5t-25.5 -57.5q0 -36 21.5 -54t58.5 -18z" />
    <glyph glyph-name="uni0653" unicode="&#x653;" 
d="M322 1370q-48 0 -121 33t-86 33q-41 0 -41 -60h-111q-5 74 37 123t111 49q14 0 29.5 -4t26.5 -8.5t32 -14t32 -14.5q53 -24 95 -24q30 0 53.5 6t36.5 12.5t59 30.5v-121q-71 -41 -153 -41z" />
    <glyph glyph-name="uni0654" unicode="&#x654;" 
d="M94 1325l-55 78q63 28 82 33q-6 30 -6 53q0 93 52 138.5t128 45.5q46 0 104 -22l-28 -97q-52 23 -76 23q-34 0 -59 -22.5t-25 -65.5q0 -18 10 -45h195v-98h-246q-6 0 -76 -21z" />
    <glyph glyph-name="uni0655" unicode="&#x655;" 
d="M94 -487l-55 77q63 28 82 33q-6 30 -6 53q0 93 52 139t128 46q43 0 104 -23l-28 -96q-49 22 -76 22q-34 0 -59 -22.5t-25 -65.5q0 -18 10 -45h195v-98h-246q-9 0 -76 -20z" />
    <glyph glyph-name="uni0658" unicode="&#x658;" 
d="M231 1139q-101 0 -145.5 53.5t-44.5 175.5q0 58 14 119l82 -8q-14 -58 -14 -113q0 -77 25.5 -111t82.5 -34q95 0 95 133v217h82v-217q0 -100 -47.5 -157.5t-129.5 -57.5z" />
    <glyph glyph-name="uni0660" unicode="&#x660;" horiz-adv-x="833" 
d="M416 477q-63 0 -107.5 45t-44.5 109q0 63 44.5 107t107.5 44q64 0 108.5 -44t44.5 -107q0 -65 -44.5 -109.5t-108.5 -44.5z" />
    <glyph glyph-name="uni0661" unicode="&#x661;" horiz-adv-x="675" 
d="M225 0v1393h201v-1393h-201z" />
    <glyph glyph-name="uni0662" unicode="&#x662;" horiz-adv-x="1169" 
d="M231 0v1393q153 -9 402 -9q137 0 313 9v-160q-101 -8 -313 -8q-113 0 -201 8v-1233h-201z" />
    <glyph glyph-name="uni0663" unicode="&#x663;" horiz-adv-x="1429" 
d="M225 0v1393h201v-256q0 -93 35.5 -150t113.5 -57q76 0 107 61q20 39 20 142v260h160v-258q0 -105 23 -150q27 -53 116 -53q66 0 103 37q39 45 39 166v258h190v-258q0 -181 -81 -280t-251 -99q-74 0 -129 24q-72 32 -100 92q-30 -62 -78.5 -89t-120.5 -27q-43 0 -84 15.5
t-63 43.5v-815h-201z" />
    <glyph glyph-name="uni0664" unicode="&#x664;" horiz-adv-x="935" 
d="M475 0q-176 0 -270 77.5t-94 213.5q0 65 25.5 123.5t77.5 112t110 98t143 98.5q-152 4 -232.5 81t-80.5 214q0 107 67.5 193t176.5 132t233 46q34 0 54.5 -1t31 -3t37.5 -6.5t57 -8.5l-16 -168q-14 3 -38.5 8t-31.5 6t-22.5 4t-24 3.5t-22.5 1t-31 0.5q-111 0 -194 -55.5
t-83 -147.5q0 -30 4 -52.5t16.5 -40t26.5 -29.5t43 -20.5t55.5 -13t75 -7t91.5 -3t114 -0.5l-12 -158q-10 -5 -29 -16q-219 -120 -298 -180q-135 -103 -136 -199q0 -62 46.5 -89.5t160.5 -27.5h328v-186h-359z" />
    <glyph glyph-name="uni0665" unicode="&#x665;" horiz-adv-x="1243" 
d="M608 -25q-238 0 -354 154q-125 172 -125 559q0 354 145 535q138 170 363 170q231 0 354 -160q127 -169 127 -535q0 -375 -151 -563q-138 -160 -359 -160zM623 135q135 0 209.5 137.5t74.5 413.5q0 287 -70 417t-214 130q-129 0 -201 -119q-84 -130 -84 -412
q0 -279 66.5 -423t218.5 -144z" />
    <glyph glyph-name="uni0666" unicode="&#x666;" horiz-adv-x="1015" 
d="M600 0v1233q-76 -8 -174 -8q-190 0 -291 8v160q175 -9 291 -9q233 0 375 9v-1393h-201z" />
    <glyph glyph-name="uni0667" unicode="&#x667;" horiz-adv-x="1189" 
d="M463 0l-408 1411h219l236 -897q2 -8 35.5 -127t48.5 -180h2q10 42 86 321l244 883h211l-426 -1411h-248z" />
    <glyph glyph-name="uni0668" unicode="&#x668;" horiz-adv-x="1189" 
d="M59 0l424 1393h250l408 -1393h-221l-236 879l-41 149q-3 11 -19 69.5t-22 88.5h-2q-32 -130 -88 -322l-242 -864h-211z" />
    <glyph glyph-name="uni0669" unicode="&#x669;" horiz-adv-x="1173" 
d="M840 0v500q-147 -31 -271 -31q-215 0 -343 119.5t-128 322.5q0 220 145 351t396 131q137 0 401 -41v-1352h-200zM590 647q118 0 250 31v504q-115 30 -224 30q-151 0 -231 -78t-80 -204q0 -130 78.5 -206.5t206.5 -76.5z" />
    <glyph glyph-name="uni066A" unicode="&#x66a;" horiz-adv-x="1822" 
d="M516 1102q-76 0 -130 54t-54 130t54 130t130 54t130 -54t54 -130t-54 -130t-130 -54zM399 0l834 1452h211l-834 -1452h-211zM1368 -20q-76 0 -130 54t-54 130t54 130t130 54t130 -54t54 -130t-54 -130t-130 -54z" />
    <glyph glyph-name="uni066E" unicode="&#x66e;" horiz-adv-x="1644" 
d="M1145 0h-524q-215 0 -352.5 145.5t-137.5 372.5q0 241 150 391l6 -4l114 -131q-82 -98 -82 -256q0 -150 83.5 -240t218.5 -90h524q100 0 134.5 37.5t37.5 149.5v608h188v-608q-2 -117 -17.5 -186.5t-57.5 -113.5t-108 -59.5t-177 -15.5z" />
    <glyph glyph-name="uni0679" unicode="&#x679;" horiz-adv-x="1644" 
d="M627 1139v88h39v354h88v-168q80 57 151 57q156 0 156 -167q0 -46 -12 -78t-28 -49t-45.5 -25.5t-51 -10t-58.5 -1.5h-239zM754 1227h112q71 0 87 12t16 64q0 46 -13.5 62.5t-50.5 16.5q-34 0 -67.5 -19.5t-83.5 -66.5v-69zM1145 0h-524q-215 0 -352.5 145.5t-137.5 372.5
q0 241 150 391l6 -4l114 -131q-82 -98 -82 -256q0 -150 83.5 -240t218.5 -90h524q100 0 134.5 37.5t37.5 149.5v608h188v-608q-2 -117 -17.5 -186.5t-57.5 -113.5t-108 -59.5t-177 -15.5z" />
    <glyph glyph-name="uni067E" unicode="&#x67e;" horiz-adv-x="1644" 
d="M1145 0h-524q-215 0 -352.5 145.5t-137.5 372.5q0 241 150 391l6 -4l114 -131q-82 -98 -82 -256q0 -150 83.5 -240t218.5 -90h524q100 0 134.5 37.5t37.5 149.5v608h188v-608q-2 -117 -17.5 -186.5t-57.5 -113.5t-108 -59.5t-177 -15.5zM711 -436q-51 0 -86 35.5
t-35 85.5q0 53 35 89t86 36t85.5 -36t34.5 -89q0 -48 -35 -84.5t-85 -36.5zM1034 -436q-51 0 -86 35.5t-35 85.5q0 53 35 89t86 36t86 -36t35 -89q0 -48 -35.5 -84.5t-85.5 -36.5zM872 -702q-51 0 -85.5 35t-34.5 85q0 53 34.5 89t85.5 36t86 -36t35 -89q0 -48 -35.5 -84
t-85.5 -36z" />
    <glyph glyph-name="uni0686" unicode="&#x686;" horiz-adv-x="1132" 
d="M512 -571q-194 0 -318 117t-124 300q7 226 10 244q9 72 45.5 85.5t184.5 12.5h23h22h26h326q100 0 134.5 37.5t37.5 149.5v147q0 136 -91 228t-225 92q-202 0 -303 -203l-158 94q66 127 189 204t272 77q137 0 253 -66t183.5 -179t67.5 -247v-147q-1 -77 -8 -132t-24 -98
t-42.5 -70t-66.5 -44t-93 -24t-124 -7h-449v-154q0 -105 68 -167t184 -62v-188zM557 -297q-41 0 -70.5 29.5t-29.5 70.5q0 43 29.5 74t70.5 31q42 0 72 -31t30 -74q0 -40 -30 -70t-72 -30zM829 -297q-43 0 -72.5 29.5t-29.5 70.5q0 43 30 74t72 31q41 0 71 -31t30 -74
q0 -40 -30 -70t-71 -30zM694 -520q-43 0 -72.5 29.5t-29.5 70.5q0 44 29.5 74.5t72.5 30.5q42 0 71.5 -30.5t29.5 -74.5q0 -40 -30 -70t-71 -30z" />
    <glyph glyph-name="uni0688" unicode="&#x688;" horiz-adv-x="1036" 
d="M215 1139v88h39v354h88v-168q80 57 152 57q155 0 155 -167q0 -46 -12 -78t-28 -49t-45.5 -25.5t-50.5 -10t-58 -1.5h-240zM342 1227h113q70 0 86 11.5t16 64.5q0 46 -13 62.5t-50 16.5q-34 0 -68.5 -19.5t-83.5 -66.5v-69zM106 0v188h635v328q-3 115 -91 197t-210 82
q-86 0 -133 -4v188q55 4 133 4q129 0 240.5 -61.5t178.5 -167.5t71 -232v-522h-824z" />
    <glyph glyph-name="uni0691" unicode="&#x691;" horiz-adv-x="591" 
d="M106 1139v88h39v354h88v-168q80 57 152 57q156 0 156 -167q0 -46 -12 -78t-28 -49t-45.5 -25.5t-51 -10t-58.5 -1.5h-240zM233 1227h113q71 0 87 12t16 64q0 46 -13.5 62.5t-50.5 16.5q-34 0 -68.5 -19.5t-83.5 -66.5v-69zM35 -469q-91 0 -197 47l-2 2l60 150l2 2
q66 -25 133 -25q96 0 152.5 78t56.5 211v987h188v-975q0 -226 -103 -351.5t-290 -125.5z" />
    <glyph glyph-name="uni0698" unicode="&#x698;" horiz-adv-x="591" 
d="M338 1413q-51 0 -86 36t-35 89q0 50 35 85.5t86 35.5q50 0 85.5 -36.5t35.5 -84.5q0 -53 -35 -89t-86 -36zM176 1147q-51 0 -86 36t-35 89q0 50 35 85.5t86 35.5q50 0 85.5 -36.5t35.5 -84.5q0 -53 -35 -89t-86 -36zM500 1147q-51 0 -86 36t-35 89q0 50 35 85.5t86 35.5
q50 0 85.5 -36.5t35.5 -84.5q0 -53 -35 -89t-86 -36zM35 -469q-91 0 -197 47l-2 2l60 150l2 2q66 -25 133 -25q96 0 152.5 78t56.5 211v987h188v-975q0 -226 -103 -351.5t-290 -125.5z" />
    <glyph glyph-name="uni06A9" unicode="&#x6a9;" horiz-adv-x="1757" 
d="M705 0q-139 0 -237.5 31.5t-170.5 103.5t-106.5 193.5t-34.5 296.5q0 57 12 131h190q-9 -60 -14 -135q-7 -124 16 -211t74 -134.5t116 -67.5t152 -20h555q101 0 137 38t36 149q0 118 -54 217q-14 27 -31.5 49.5t-52 49t-78.5 44.5t-114 30.5t-156 12.5q-3 0 -29.5 0.5
t-44.5 0.5t-46.5 -2.5t-51.5 -8.5l-110 147l786 594l111 -147l-533 -404q87 -6 160 -22q78 -18 139.5 -48t102.5 -68t65.5 -70.5t46.5 -73.5q78 -146 78 -301q0 -115 -16 -185t-59 -114t-109.5 -60t-176.5 -16h-552z" />
    <glyph glyph-name="uni06AF" unicode="&#x6af;" horiz-adv-x="1757" 
d="M604 999l-55 76l786 594l56 -76zM705 0q-139 0 -237.5 31.5t-170.5 103.5t-106.5 193.5t-34.5 296.5q0 57 12 131h190q-9 -60 -14 -135q-7 -124 16 -211t74 -134.5t116 -67.5t152 -20h555q101 0 137 38t36 149q0 118 -54 217q-14 27 -31.5 49.5t-52 49t-78.5 44.5
t-114 30.5t-156 12.5q-3 0 -29.5 0.5t-44.5 0.5t-46.5 -2.5t-51.5 -8.5l-110 147l786 594l111 -147l-533 -404q87 -6 160 -22q78 -18 139.5 -48t102.5 -68t65.5 -70.5t46.5 -73.5q78 -146 78 -301q0 -115 -16 -185t-59 -114t-109.5 -60t-176.5 -16h-552z" />
    <glyph glyph-name="uni06BA" unicode="&#x6ba;" horiz-adv-x="1312" 
d="M653 -299q-138 0 -237.5 34t-171 110.5t-106 206t-34.5 315.5q0 69 12.5 174.5t30.5 179.5l3 2l180 -14l2 -2q-34 -152 -39 -349q-1 -135 23 -228.5t73 -145t112 -73.5t150 -22q159 0 240.5 110t81.5 325v659h188v-659q0 -154 -38 -274t-107 -195.5t-160.5 -114.5
t-202.5 -39z" />
    <glyph glyph-name="uni06BE" unicode="&#x6be;" horiz-adv-x="1626" 
d="M86 0v106l186 82h127q-90 126 -90 293q0 195 114 316t300 121q200 0 312 -129t112 -357v-244h205v340q0 323 -127 458.5t-428 135.5q-130 0 -271 -63l-92 151q181 101 369 101q204 0 342 -42t227.5 -137t128.5 -241.5t39 -362.5v-528h-1454zM788 188h170v244
q0 153 -58 225t-177 72q-106 0 -165.5 -65t-59.5 -183q0 -134 80 -213.5t210 -79.5z" />
    <glyph glyph-name="uni06C1" unicode="&#x6c1;" horiz-adv-x="1167" 
d="M614 0q-132 0 -243.5 65t-176.5 176.5t-65 243.5q0 143 65 262.5t176.5 188t243.5 68.5q137 0 260 -76l25 55h107v-621q-2 -112 -19 -179.5t-59.5 -109.5t-108.5 -57.5t-174 -15.5h-31zM614 188h31q100 0 134.5 37.5t37.5 149.5v364q-49 42 -94.5 59t-108.5 17
q-124 0 -210.5 -95.5t-86.5 -234.5q0 -123 87 -210t210 -87z" />
    <glyph glyph-name="uni06C2" unicode="&#x6c2;" horiz-adv-x="1167" 
d="M440 1153l-55 78q63 28 82 33q-6 30 -6 53q0 93 52 138.5t128 45.5q46 0 104 -22l-28 -97q-52 23 -76 23q-34 0 -59 -22.5t-25 -65.5q0 -18 10 -45h195v-98h-246q-6 0 -76 -21zM614 0q-132 0 -243.5 65t-176.5 176.5t-65 243.5q0 143 65 262.5t176.5 188t243.5 68.5
q137 0 260 -76l25 55h107v-621q-2 -112 -19 -179.5t-59.5 -109.5t-108.5 -57.5t-174 -15.5h-31zM614 188h31q100 0 134.5 37.5t37.5 149.5v364q-49 42 -94.5 59t-108.5 17q-124 0 -210.5 -95.5t-86.5 -234.5q0 -123 87 -210t210 -87z" />
    <glyph glyph-name="uni06C3" unicode="&#x6c3;" horiz-adv-x="1157" 
d="M434 1147q-51 0 -86 36t-35 89q0 50 35 85.5t86 35.5q50 0 85.5 -36.5t35.5 -84.5q0 -53 -35 -89t-86 -36zM758 1147q-51 0 -86 36t-35 89q0 50 35 85.5t86 35.5q50 0 85.5 -36.5t35.5 -84.5q0 -53 -35 -89t-86 -36zM614 0q-132 0 -243.5 65t-176.5 176.5t-65 243.5
q0 143 65 262.5t176.5 188t243.5 68.5q137 0 260 -76l25 55h107v-621q-2 -112 -19 -179.5t-59.5 -109.5t-108.5 -57.5t-174 -15.5h-31zM614 188h31q100 0 134.5 37.5t37.5 149.5v364q-49 42 -94.5 59t-108.5 17q-124 0 -210.5 -95.5t-86.5 -234.5q0 -123 87 -210t210 -87z
" />
    <glyph glyph-name="uni06CC" unicode="&#x6cc;" horiz-adv-x="1783" 
d="M666 -389q-138 0 -237.5 33.5t-171 110.5t-106 206t-34.5 315q0 69 12.5 175t30.5 180l2 2l180 -15l2 -2q-34 -152 -39 -348q-3 -135 21.5 -228.5t74.5 -145t113.5 -73.5t149.5 -22q175 0 248 99t73 335v189q2 116 18 185.5t58.5 113.5t108.5 60t176 16q188 0 356 -23
l2 -336q0 -436 -2 -438h-186v608h-170q-100 0 -134.5 -37t-37.5 -149v-189q0 -340 -115 -481t-393 -141z" />
    <glyph glyph-name="uni06D2" unicode="&#x6d2;" horiz-adv-x="1484" 
d="M596 0q-240 0 -302 7q-122 13 -166 72q-42 54 -42 177q0 279 150 404.5t481 125.5h201q37 0 56 2.5t33.5 12t18.5 27.5t6.5 49t3.5 77v21l2 223h189l-2 -223q-2 -110 -15.5 -177.5t-49 -112.5t-92.5 -64t-150 -23h-201q-172 0 -266.5 -32.5t-135.5 -105t-41 -204.5
q0 -37 11 -47q21 -18 138 -20q43 -1 173 -1h827v-188h-827z" />
    <glyph glyph-name="uni06D3" unicode="&#x6d3;" horiz-adv-x="1484" 
d="M950 1298l-55 78q63 28 82 33q-6 30 -6 53q0 93 52 139t128 46q43 0 104 -23l-28 -96q-50 22 -76 22q-34 0 -59 -22.5t-25 -65.5q0 -18 10 -45h195v-98h-246q-6 0 -76 -21zM596 0q-240 0 -302 7q-122 13 -166 72q-42 54 -42 177q0 279 150 404.5t481 125.5h201
q37 0 56 2.5t33.5 12t18.5 27.5t6.5 49t3.5 77v21l2 223h189l-2 -223q-2 -110 -15.5 -177.5t-49 -112.5t-92.5 -64t-150 -23h-201q-172 0 -266.5 -32.5t-135.5 -105t-41 -204.5q0 -37 11 -47q21 -18 138 -20q43 -1 173 -1h827v-188h-827z" />
    <glyph glyph-name="uni06D4" unicode="&#x6d4;" horiz-adv-x="450" 
d="M227 0l-186 82v106h369v-188h-183z" />
    <glyph glyph-name="endash" unicode="&#x2013;" horiz-adv-x="1204" 
d="M133 432v195h938v-195h-938z" />
    <glyph glyph-name="emdash" unicode="&#x2014;" horiz-adv-x="2285" 
d="M154 432v195h1978v-195h-1978z" />
    <glyph glyph-name="quoteleft" unicode="&#x2018;" horiz-adv-x="407" 
d="M82 967l106 503h138l-19 -503h-225z" />
    <glyph glyph-name="quoteright" unicode="&#x2019;" horiz-adv-x="407" 
d="M82 967l16 503h228l-107 -503h-137z" />
    <glyph glyph-name="quotesinglbase" unicode="&#x201a;" horiz-adv-x="395" 
d="M82 -231l16 473h215l-88 -473h-143z" />
    <glyph glyph-name="quotedblleft" unicode="&#x201c;" horiz-adv-x="821" 
d="M82 967l106 503h138l-19 -503h-225zM496 967l106 503h137l-18 -503h-225z" />
    <glyph glyph-name="quotedblright" unicode="&#x201d;" horiz-adv-x="772" 
d="M82 967l16 503h228l-107 -503h-137zM446 967l17 503h227l-106 -503h-138z" />
    <glyph glyph-name="quotedblbase" unicode="&#x201e;" horiz-adv-x="808" 
d="M82 -231l16 473h215l-88 -473h-143zM496 -231l16 473h215l-88 -473h-143z" />
    <glyph glyph-name="bullet" unicode="&#x2022;" horiz-adv-x="929" 
d="M467 276q-132 0 -227 89q-45 42 -71 101.5t-26 125.5q0 133 97 227q91 88 227 88q133 0 227 -88q92 -89 92 -227q0 -141 -92 -227q-99 -89 -227 -89z" />
    <glyph glyph-name="ellipsis" unicode="&#x2026;" horiz-adv-x="1576" 
d="M338 -23q-60 0 -100.5 40.5t-40.5 101.5q0 64 40 103.5t101 39.5q62 0 102.5 -39.5t40.5 -103.5q0 -61 -40.5 -101.5t-102.5 -40.5zM788 -23q-60 0 -100.5 40.5t-40.5 101.5q0 64 40 103.5t101 39.5q62 0 103 -39.5t41 -103.5q0 -61 -41 -101.5t-103 -40.5zM1239 -23
q-60 0 -100.5 40.5t-40.5 101.5q0 64 40 103.5t101 39.5q62 0 102.5 -39.5t40.5 -103.5q0 -61 -40.5 -101.5t-102.5 -40.5z" />
    <glyph glyph-name="guilsinglleft" unicode="&#x2039;" horiz-adv-x="661" 
d="M471 129l-410 436v66l410 436l150 -133l-306 -336l306 -342z" />
    <glyph glyph-name="guilsinglright" unicode="&#x203a;" horiz-adv-x="661" 
d="M193 129l-152 127l305 342l-305 336l152 133l407 -436v-66z" />
    <glyph glyph-name="minus" unicode="&#x2212;" horiz-adv-x="1130" 
d="M113 537v180h905v-180h-905z" />
    <glyph glyph-name="i.loclTRK" horiz-adv-x="538" 
d="M268 1202q-53 0 -94 41t-41 96q0 60 40.5 100t94.5 40q58 0 96.5 -39.5t38.5 -100.5q0 -56 -39.5 -96.5t-95.5 -40.5zM174 0v983h188v-983h-188z" />
    <glyph glyph-name="kerseh.ini" horiz-adv-x="573" 
d="M0 0v188h72q100 0 134.5 37.5t37.5 149.5v608h188v-608q-2 -117 -17.5 -186.5t-57.5 -113.5t-108 -59.5t-177 -15.5h-72z" />
    <glyph glyph-name="kerseh.med" horiz-adv-x="675" 
d="M0 0v188h244v795h188v-795h254v-188h-686z" />
    </font>
</defs>
</svg>
