<svg xmlns="http://www.w3.org/2000/svg" width="21.752" height="34.546" viewBox="0 0 21.752 34.546">
  <g id="coffee-cup" transform="translate(0)">
    <path id="Path_110" data-name="Path 110" d="M121.78,76.888l1.954,28.9a.479.479,0,0,0,.472.454h13.261a.479.479,0,0,0,.472-.454l1.954-28.9Z" transform="translate(-119.96 -71.7)" fill="#f3f0f3"/>
    <path id="Path_111" data-name="Path 111" d="M335.734,76.889l-1.954,28.9a.48.48,0,0,1-.472.454h-1.517a.479.479,0,0,0,.472-.454l1.954-28.9Z" transform="translate(-315.802 -71.701)" fill="#e2dee2"/>
    <path id="Path_112" data-name="Path 112" d="M131.382,185.261h-8.47a.547.547,0,0,0-.546.585l.952,13.64a.547.547,0,0,0,.546.509H138.9a.547.547,0,0,0,.546-.509l.952-13.64a.547.547,0,0,0-.546-.585Z" transform="translate(-120.506 -172.761)" fill="#cbc4cc"/>
    <path id="Path_113" data-name="Path 113" d="M348.583,185.843l-.952,13.64a.548.548,0,0,1-.546.509h-1.471a.548.548,0,0,0,.546-.509l.952-13.64a.547.547,0,0,0-.546-.585h1.471A.547.547,0,0,1,348.583,185.843Z" transform="translate(-328.691 -172.758)" fill="#b5adb6"/>
    <ellipse id="Ellipse_7" data-name="Ellipse 7" cx="3.445" cy="3.445" rx="3.445" ry="3.445" transform="translate(7.431 16.422)" fill="#00c27a"/>
    <path id="Path_114" data-name="Path 114" d="M226.426,249.142a3.444,3.444,0,0,1-5.834,2.481,3.444,3.444,0,0,0,3.45-5.759A3.446,3.446,0,0,1,226.426,249.142Z" transform="translate(-212.105 -229.275)" fill="#08b865"/>
    <path id="Path_115" data-name="Path 115" d="M147.5,0H134.577a1.564,1.564,0,0,0-1.5,1.126l-.358,1.227h16.636L149,1.126A1.564,1.564,0,0,0,147.5,0Z" transform="translate(-130.16)" fill="#cbc4cc"/>
    <path id="Path_116" data-name="Path 116" d="M332.658,2.356h-1.515l-.357-1.227A1.565,1.565,0,0,0,329.284,0H330.8a1.564,1.564,0,0,1,1.5,1.126Z" transform="translate(-313.463 -0.003)" fill="#b5adb6"/>
    <path id="Path_117" data-name="Path 117" d="M114.854,32.51H96.518a1.251,1.251,0,0,0-1.08.618,6.438,6.438,0,0,0-.6,1.517.808.808,0,0,0,.781,1.019h20.133a.808.808,0,0,0,.781-1.019,6.438,6.438,0,0,0-.6-1.517A1.251,1.251,0,0,0,114.854,32.51Z" transform="translate(-94.81 -30.316)" fill="#00c27a"/>
    <path id="Path_118" data-name="Path 118" d="M371.451,35.666h-1.543a.808.808,0,0,0,.781-1.019,6.453,6.453,0,0,0-.6-1.517,1.253,1.253,0,0,0-1.08-.617h1.543a1.253,1.253,0,0,1,1.08.617,6.449,6.449,0,0,1,.6,1.517A.808.808,0,0,1,371.451,35.666Z" transform="translate(-350.509 -30.319)" fill="#08b865"/>
  </g>
</svg>
