<svg id="pizza-slice" xmlns="http://www.w3.org/2000/svg" width="34.945" height="34.66" viewBox="0 0 34.945 34.66">
  <path id="Path_134" data-name="Path 134" d="M17.472,2.092A27.351,27.351,0,0,0,.562,9.042,1.69,1.69,0,0,0,.27,11.217L2.1,14.038l.515.121L16.72,35.864c.483.746,1.129.668,1.612-.077L32.29,14.159l.558-.12,1.827-2.821a1.69,1.69,0,0,0-.292-2.175,27.351,27.351,0,0,0-16.91-6.95Z" transform="translate(0 -2.092)" fill="#fe9738"/>
  <path id="Path_135" data-name="Path 135" d="M256.844,98.609l-16.174,24.975a1.225,1.225,0,0,1-2.057,0l-.17-.262a1.218,1.218,0,0,0,1.078-.566l16.246-25.32a1.72,1.72,0,0,0,.154-1.551q.316.266.63.549a1.69,1.69,0,0,1,.292,2.175Z" transform="translate(-222.17 -89.483)" fill="#fe860a"/>
  <path id="Path_136" data-name="Path 136" d="M46.1,77.364A23.418,23.418,0,0,0,30.728,84.17l1.693,2.615.268.076,12.661,19.4c.483.746,1.129.4,1.612-.346L59.142,87.047l.643-.262,1.693-2.615A21.081,21.081,0,0,0,46.1,77.364Z" transform="translate(-28.631 -72.224)" fill="#fee45a"/>
  <path id="Path_137" data-name="Path 137" d="M255.018,161.7l-14.347,22.154a1.225,1.225,0,0,1-2.057,0l-.17-.262a1.218,1.218,0,0,0,1.078-.566l14.408-22.456Q254.485,161.1,255.018,161.7Z" transform="translate(-222.17 -149.754)" fill="#fedf30"/>
  <path id="Path_138" data-name="Path 138" d="M69.222,126.625a20.838,20.838,0,0,0-13.682,6.056l12.653,19.539a1.225,1.225,0,0,0,2.057,0L82.9,132.682C77.4,126.2,69.222,126.625,69.222,126.625Z" transform="translate(-51.749 -118.12)" fill="#fdb97e"/>
  <path id="Path_139" data-name="Path 139" d="M253.324,199.875l-12.653,19.538a1.225,1.225,0,0,1-2.057,0l-.17-.262a1.218,1.218,0,0,0,1.078-.566l12.737-19.851Q252.8,199.266,253.324,199.875Z" transform="translate(-222.17 -185.314)" fill="#fea95c"/>
  <path id="Path_140" data-name="Path 140" d="M99.481,271.814a3.351,3.351,0,0,1-1.435,2.752L94.4,268.933a3.358,3.358,0,0,1,5.083,2.881Z" transform="translate(-87.955 -250.276)" fill="#e94444"/>
  <path id="Path_141" data-name="Path 141" d="M125.367,271.872a3.351,3.351,0,0,1-1.435,2.752l-.971-1.5a3.358,3.358,0,0,0-.781-4.606A3.357,3.357,0,0,1,125.367,271.872Z" transform="translate(-113.841 -250.334)" fill="#d83131"/>
  <path id="Path_142" data-name="Path 142" d="M288.7,350.962l-3.638,5.618a3.358,3.358,0,1,1,3.638-5.618Z" transform="translate(-263.959 -326.5)" fill="#e94444"/>
  <path id="Path_143" data-name="Path 143" d="M297.875,352l-3.638,5.618a3.38,3.38,0,0,1-1.1-.944l3.4-5.3A3.349,3.349,0,0,1,297.875,352Z" transform="translate(-273.133 -327.538)" fill="#d83131"/>
  <ellipse id="Ellipse_8" data-name="Ellipse 8" cx="3.357" cy="3.357" rx="3.357" ry="3.357" transform="translate(15.979 11.466)" fill="#e94444"/>
  <path id="Path_144" data-name="Path 144" d="M244.709,181.645a3.358,3.358,0,0,1-6.43,1.354,3.358,3.358,0,0,0,4.99-4.11A3.353,3.353,0,0,1,244.709,181.645Z" transform="translate(-222.016 -166.822)" fill="#d83131"/>
  <g id="Group_42" data-name="Group 42" transform="translate(24.257 17.668)">
    <path id="Path_145" data-name="Path 145" d="M356.417,262.78a.512.512,0,0,1-.432-.236l-.508-.795a.512.512,0,0,1,.863-.551l.507.795a.512.512,0,0,1-.431.787Z" transform="translate(-355.397 -260.961)" fill="#e57917"/>
  </g>
  <g id="Group_43" data-name="Group 43" transform="translate(25.842 13.452)">
    <path id="Path_146" data-name="Path 146" d="M379.132,201.007a.512.512,0,0,1-.434-.783l.5-.8a.512.512,0,0,1,.868.543l-.5.8A.511.511,0,0,1,379.132,201.007Z" transform="translate(-378.62 -199.184)" fill="#e57917"/>
  </g>
  <g id="Group_44" data-name="Group 44" transform="translate(9.197 12.789)">
    <path id="Path_147" data-name="Path 147" d="M135.261,191.159a.512.512,0,0,1-.36-.876l.67-.663a.512.512,0,1,1,.72.728l-.67.663A.51.51,0,0,1,135.261,191.159Z" transform="translate(-134.749 -189.472)" fill="#e57917"/>
  </g>
  <g id="Group_45" data-name="Group 45" transform="translate(13.099 14.75)">
    <path id="Path_148" data-name="Path 148" d="M192.785,220.1a.512.512,0,0,1-.477-.325l-.345-.877a.512.512,0,0,1,.953-.375l.345.877a.512.512,0,0,1-.476.7Z" transform="translate(-191.928 -218.196)" fill="#e57917"/>
  </g>
  <g id="Group_47" data-name="Group 47" transform="translate(15.467 20.444)">
    <g id="Group_46" data-name="Group 46">
      <path id="Path_149" data-name="Path 149" d="M227.863,303.23a.509.509,0,0,1-.316-.109l-.742-.582a.512.512,0,1,1,.632-.805l.742.582a.512.512,0,0,1-.316.915Z" transform="translate(-226.609 -301.624)" fill="#e57917"/>
    </g>
  </g>
  <g id="Group_49" data-name="Group 49" transform="translate(20.525 20.076)">
    <g id="Group_48" data-name="Group 48">
      <path id="Path_150" data-name="Path 150" d="M301.241,298a.512.512,0,0,1-.4-.832l.589-.736a.512.512,0,0,1,.8.64l-.59.736A.511.511,0,0,1,301.241,298Z" transform="translate(-300.73 -296.236)" fill="#e57917"/>
    </g>
  </g>
  <g id="Group_51" data-name="Group 51" transform="translate(15.837 27.697)">
    <g id="Group_50" data-name="Group 50">
      <path id="Path_151" data-name="Path 151" d="M233.3,409.494a.51.51,0,0,1-.316-.109l-.742-.582a.512.512,0,1,1,.632-.806l.742.582a.512.512,0,0,1-.316.915Z" transform="translate(-232.043 -407.889)" fill="#e57917"/>
    </g>
  </g>
  <g id="Group_53" data-name="Group 53" transform="translate(13.739 23.633)">
    <g id="Group_52" data-name="Group 52">
      <path id="Path_152" data-name="Path 152" d="M201.811,350.131a.512.512,0,0,1-.406-.823l.572-.749a.512.512,0,0,1,.814.621l-.572.749A.511.511,0,0,1,201.811,350.131Z" transform="translate(-201.299 -348.358)" fill="#e57917"/>
    </g>
  </g>
</svg>
