<svg xmlns="http://www.w3.org/2000/svg" width="33.938" height="33.61" viewBox="0 0 33.938 33.61">
  <g id="hamburger" transform="translate(0)">
    <path id="Path_119" data-name="Path 119" d="M31.646,329.56H2.291A2.291,2.291,0,0,1,0,327.268v-.451a2.291,2.291,0,0,1,2.291-2.291H31.647a2.291,2.291,0,0,1,2.291,2.291v.451A2.291,2.291,0,0,1,31.646,329.56Z" transform="translate(0 -303.244)" fill="#e94444"/>
    <path id="Path_120" data-name="Path 120" d="M462.228,326.816v.451a2.291,2.291,0,0,1-2.291,2.292H458.6a2.291,2.291,0,0,0,2.291-2.292v-.451a2.291,2.291,0,0,0-2.291-2.291h1.341A2.291,2.291,0,0,1,462.228,326.816Z" transform="translate(-428.29 -303.243)" fill="#d83131"/>
    <path id="Path_121" data-name="Path 121" d="M63.059,400.694H33.7s-1.012,4.888,4.748,6.811a9.621,9.621,0,0,0,3.05.483H55.26a9.62,9.62,0,0,0,3.05-.483C64.071,405.582,63.059,400.694,63.059,400.694Z" transform="translate(-31.412 -374.378)" fill="#fe9738"/>
    <path id="Path_122" data-name="Path 122" d="M341.946,407.511a9.613,9.613,0,0,1-3.05.483h-1.555a9.614,9.614,0,0,0,3.051-.483c5.76-1.923,4.748-6.811,4.748-6.811h1.555S347.707,405.588,341.946,407.511Z" transform="translate(-315.048 -374.384)" fill="#fe860a"/>
    <path id="Path_123" data-name="Path 123" d="M63.111,300.073a1.351,1.351,0,0,1-2.213,1.038,2.159,2.159,0,0,0-1.472-.535c-1.842,0-1.842,1.459-3.685,1.459s-1.842-1.459-3.685-1.459-1.842,1.459-3.685,1.459-1.842-1.459-3.685-1.459-1.842,1.459-3.685,1.459-1.842-1.459-3.685-1.459a2.159,2.159,0,0,0-1.472.535,1.351,1.351,0,0,1-2.213-1.038v-2.707H63.111v2.707Z" transform="translate(-31.41 -277.879)" fill="#bbec6c"/>
    <path id="Path_124" data-name="Path 124" d="M450.912,297.368v2.707a1.35,1.35,0,0,1-2.037,1.161,1.324,1.324,0,0,0,.663-1.161v-2.707Z" transform="translate(-419.212 -277.881)" fill="#a2e62e"/>
    <path id="Path_125" data-name="Path 125" d="M33.858,264.541v2.189h3.16a1.19,1.19,0,0,1,1.19,1.19v6.306a1.522,1.522,0,1,0,3.044,0v-6.306a1.19,1.19,0,0,1,1.19-1.19H63.321v-2.189Z" transform="translate(-31.621 -247.223)" fill="#fee45a"/>
    <path id="Path_126" data-name="Path 126" d="M458.906,264.539h1.374v2.189h-1.374Z" transform="translate(-428.58 -247.221)" fill="#fedf30"/>
    <path id="Path_127" data-name="Path 127" d="M31.646,195.674H2.291A2.291,2.291,0,0,1,0,193.383v-.451a2.291,2.291,0,0,1,2.291-2.291H31.647a2.291,2.291,0,0,1,2.291,2.291v.451A2.291,2.291,0,0,1,31.646,195.674Z" transform="translate(0 -178.206)" fill="#9e5528"/>
    <path id="Path_128" data-name="Path 128" d="M462.228,192.933v.451a2.291,2.291,0,0,1-2.291,2.291H458.6a2.291,2.291,0,0,0,2.291-2.291v-.451a2.291,2.291,0,0,0-2.291-2.291h1.341A2.291,2.291,0,0,1,462.228,192.933Z" transform="translate(-428.29 -178.207)" fill="#904d24"/>
    <path id="Path_129" data-name="Path 129" d="M21.248,2.483C9.8,2.649,5.96,8.856,4.69,12.463a1.9,1.9,0,0,0,1.8,2.529H36a1.909,1.909,0,0,0,1.8-2.551c-1.277-3.61-5.129-9.793-16.55-9.958Z" transform="translate(-4.279 -2.483)" fill="#fe9738"/>
    <path id="Path_130" data-name="Path 130" d="M144.206,14.988h-.163a1.908,1.908,0,0,0,.38-1.919c-1.277-3.611-5.129-9.793-16.55-9.959A23.723,23.723,0,0,0,120.442,4.3a22.152,22.152,0,0,1,9.01-1.82c11.421.166,15.273,6.349,16.55,9.959A1.909,1.909,0,0,1,144.206,14.988Z" transform="translate(-112.483 -2.478)" fill="#fe860a"/>
    <g id="Group_41" data-name="Group 41" transform="translate(11.75 3.379)">
      <g id="Group_38" data-name="Group 38" transform="translate(0 0.056)">
        <path id="Path_131" data-name="Path 131" d="M178.3,56.265a.5.5,0,0,1-.436-.731l.444-.822a.5.5,0,1,1,.872.471l-.444.822A.5.5,0,0,1,178.3,56.265Z" transform="translate(-177.805 -54.452)" fill="#e57917"/>
      </g>
      <g id="Group_39" data-name="Group 39" transform="translate(4.717)">
        <path id="Path_132" data-name="Path 132" d="M249.68,55.528a.5.5,0,0,1-.5-.5V54.1a.5.5,0,1,1,.991,0v.934A.5.5,0,0,1,249.68,55.528Z" transform="translate(-249.184 -53.603)" fill="#e57917"/>
      </g>
      <g id="Group_40" data-name="Group 40" transform="translate(8.977 0.063)">
        <path id="Path_133" data-name="Path 133" d="M314.62,56.354a.5.5,0,0,1-.429-.247l-.469-.808a.5.5,0,0,1,.857-.5l.469.808a.5.5,0,0,1-.428.744Z" transform="translate(-313.655 -54.555)" fill="#e57917"/>
      </g>
    </g>
  </g>
</svg>
